<svg width="697" height="1773" viewBox="0 0 697 1773" fill="none" xmlns="http://www.w3.org/2000/svg">
<path d="M79.2706 1766.76C79.784 1748.34 109.777 1749.84 117.991 1749.84C126.825 1749.84 148.451 1752.82 157.264 1755.28C199.403 1767.08 235.553 1758.06 281.714 1761.65C295.874 1762.76 318.184 1762.16 335.831 1763.02C354.826 1763.94 382.698 1765.22 401.693 1766.08C469.842 1769.09 517.18 1770.38 580.068 1769.99C603.576 1769.84 644.581 1770.76 662.913 1756.05C679.726 1742.55 682.079 1736.24 687.982 1710.7C701.501 1652 669.608 1592.39 683.768 1529.74C689.522 1504.26 684.859 1475.68 671.341 1453.35C661.33 1436.84 643.875 1425.93 625.501 1420.02C607.126 1414.12 587.661 1412.67 568.41 1411.27C548.431 1409.82 528.41 1408.37 508.388 1408.96C476.046 1409.93 444.067 1416.22 411.767 1417.84C349.65 1420.99 287.746 1406.89 225.564 1408.54C203.553 1409.11 178.804 1413.22 166.141 1431.23C149.927 1454.29 162.205 1486.29 156.729 1513.95C155.595 1519.62 153.435 1525.52 148.686 1528.84C144.365 1531.85 138.761 1532.17 133.499 1532.09C115.766 1531.81 95.8733 1526.65 87.3599 1511.1C83.146 1503.4 82.4187 1494.33 81.7984 1485.56C80.2369 1463.7 78.9748 1441.88 77.0711 1420.04C76.3438 1411.75 76.1085 1402.36 81.777 1396.24C86.9749 1390.63 95.638 1389.69 103.146 1391.1C110.654 1392.52 117.692 1395.87 125.178 1397.5C153.349 1403.68 181.2 1385.09 210.034 1384.88C219.125 1384.81 228.173 1386.59 237.243 1386.01C259.639 1384.62 278.633 1369.48 300.131 1363C347.981 1348.58 397.222 1378.59 447.019 1382.74C466.848 1384.39 486.869 1381.86 506.677 1383.7C539.383 1386.72 562.934 1388.45 590.442 1370.48C607.554 1359.3 615.447 1352.69 625.351 1332.66C630.207 1322.87 632.816 1311.98 635.597 1301.41C639.319 1287.27 669.308 1268.58 669.052 1252.24C668.774 1234.97 684.667 1233.35 686.592 1219.92C692.71 1177.09 672.624 1169.73 654.998 1170.23C646.057 1170.48 654.185 1152.43 657.116 1143.32C666.891 1112.88 676.41 1079 675.661 1047.04C675.063 1020.83 673.736 992.578 657.501 972.001C645.886 957.305 627.961 948.642 609.651 944.728C591.34 940.792 572.41 941.134 553.672 941.498C537.586 941.819 521.95 938.353 506.313 942.14C482.527 947.894 463.062 949.22 443.404 947.188C427.297 945.519 404.922 942.182 378.741 940.706C351.896 939.188 329.478 940.043 320.901 939.936C279.339 939.444 242.505 942.439 217.713 945.348C190.569 948.535 165.05 958.931 126.226 946.375C108.943 940.792 99.4883 931.508 115.446 907.23C122.761 896.107 145.307 893.198 162.59 893.498C247.788 894.974 326.976 895.465 407.083 895.53C430.805 895.551 449.329 894.524 470.655 894.482C526.185 894.353 571.918 895.08 627.276 892.514C650.87 891.423 663.255 886.225 672.731 878.075C684.175 868.214 684.346 851.401 684.496 835.615C684.902 794.267 671.383 752.748 683.768 713.304C691.683 688.085 696.196 669.09 692.924 638.588C691.063 621.261 683.768 614.181 685.308 587.507C686.849 560.662 684.218 546.502 674.635 534.138C658.164 512.876 613.993 507.1 590.249 522.951C585.437 526.159 574.249 531.486 569.415 534.651C549.629 547.55 529.586 531.764 506.998 538.694C495.511 542.224 480.773 546.716 469.543 550.93C444.174 560.448 423.725 545.796 396.858 542.181C387.447 540.919 377.821 541.667 368.516 539.764C342.398 534.459 322.398 509.261 295.746 508.469C283.489 508.106 271.788 513.111 259.703 515.165C248.986 516.983 238.013 516.469 227.146 515.956C200.815 514.715 173.371 521.154 147.039 519.913C136.045 519.4 125.414 510.929 116.601 504.363C106.782 497.047 102.825 483.999 102.675 471.742C102.526 459.485 105.52 447.443 106.74 435.25C109.627 406.608 102.718 377.817 103.873 349.046C105.2 315.335 117.52 282.544 116.643 248.832C115.873 218.779 104.665 190.008 100.451 160.233C96.2369 130.457 95.7877 87.3984 125.242 81.4091C148.558 76.6818 170.911 112.575 172.451 136.661C173.67 155.741 160.665 167.206 164.173 185.987C165.906 195.335 173.414 203.912 172.964 213.41C172.579 221.303 166.333 228.126 162.761 235.185C155.488 249.581 151.959 256.469 154.804 272.362C156.408 281.324 164.857 295.677 162.291 304.405C160.9 309.11 150.89 323.463 148.408 327.72C133.2 353.774 149.927 394.159 150.376 419.827C150.868 447.357 154.098 459.999 169.97 474.052C177.991 481.132 208.066 487.443 222.205 484.94C267.681 476.854 287.703 449.368 333.714 453.517C372.409 457.004 369.2 491.143 419.083 485.218C442.056 482.48 448.452 456.79 487.083 467.485C502.228 471.678 503.853 497.603 534.42 497.197C563.511 496.79 575.811 490.951 607.169 475.464C617.437 470.394 637.48 467.336 647.576 460.983C665.202 449.881 675.747 433.56 672.731 412.94C669.715 392.319 674.699 392.597 674.592 371.763C674.549 361.56 668.774 347.891 660.902 333.389C650.442 314.094 659.79 287.955 664.966 271.891C669.544 257.666 666.464 238.736 660.389 217.495C656.324 203.271 666.656 195.613 666.485 180.383C666.271 162.179 662.357 160.832 671.79 138.928C674.613 132.383 678.677 114.821 664.453 101.602C660.581 98.0081 662.143 88.6177 664.196 83.7621C666.25 78.9064 671.619 54.885 653.33 38.1149C643.105 28.7458 631.811 25.8795 617.95 26.4998C604.089 27.0988 590.142 29.1736 576.431 27.1629C546.784 22.8207 554.698 12.1682 519.554 10.6495C490.677 9.40887 491.404 23.1201 473.372 22.8421C409.329 21.8153 429.8 -0.366568 362.184 7.78319C346.355 9.68694 332.537 24.6389 317.628 30.2859C307.083 34.286 290.976 31.7405 279.703 31.4838C253.05 30.8849 232.943 43.1844 200.729 16.2324C191.916 8.85272 179.852 6.17891 168.558 4.01847C149.756 0.424874 130.504 7.56929 111.381 6.62811C95.8305 5.87944 80.3866 1.9436 65.1138 5.06661C35.2528 11.1201 23.7875 34.1148 17.9907 52.2967C-6.82224 129.987 25.6912 214.329 21.4131 295.763C18.2474 356.426 -1.64576 417.924 13.4773 476.747C16.365 487.977 20.5147 498.972 21.5201 510.523C23.8089 536.855 9.54145 562.908 13.6698 589.005C21.0495 635.572 11.8088 688.727 35.7875 729.326C51.0817 755.251 73.1139 759.7 106.205 758.289C113.563 757.968 120.943 755.123 128.301 755.251C136.408 755.401 143.082 757.39 151.168 758.01C160.644 758.716 169.67 754.096 179.125 752.984C194.312 751.208 208.665 761.283 223.874 762.887C240.109 764.599 256.58 756.984 272.794 755.123C308.58 751.037 344.751 761.882 380.623 758.502C392.238 757.412 403.725 754.823 415.382 754.331C445.564 753.069 475.233 765.882 505.329 763.273C521.073 761.904 536.303 756.342 552.089 755.957C567.875 755.572 585.672 762.31 590.955 777.198C593.479 784.321 588.003 791.486 581.351 795.059C574.698 798.631 566.805 798.781 559.255 798.866C498.356 799.465 437.479 800.043 376.58 800.642C350.591 800.898 324.601 801.155 298.655 799.936C257.585 798.032 222.548 796.257 178.719 796.364C164.087 796.406 150.162 794.524 135.531 794.396C118.055 794.246 95.3599 788.556 77.6486 788.192C31.5522 787.187 15.0602 808.663 10.611 832.663C5.94785 857.84 12.1939 882.246 14.2046 907.765C17.0495 943.894 13.3276 980.386 16.1725 1016.51C16.6003 1021.97 17.0495 1027.55 19.1671 1032.6C23.0174 1041.88 32.0442 1048.28 41.6913 1051.08C51.3384 1053.88 61.6058 1053.56 71.5951 1052.6C106.889 1049.22 141.328 1038.27 176.772 1037.2C200.815 1036.47 224.729 1040.34 248.58 1043.59C333.264 1055.15 420.794 1058.93 503.041 1035.59C516.131 1031.87 528.944 1030.93 542.506 1032.21C556.067 1033.5 569.822 1039.21 577.779 1050.27C579.49 1052.66 580.966 1055.38 581.116 1058.33C581.437 1064.41 576.003 1069.52 570.142 1071.15C564.281 1072.77 558.078 1071.83 552.025 1071.25C538.848 1070.01 525.244 1070.65 512.966 1075.62C503.254 1079.55 494.527 1086.12 484.26 1088.24C474.912 1090.16 465.137 1088.24 455.703 1089.8C443.575 1091.81 433.179 1099.4 421.714 1103.87C385.543 1117.97 344.815 1099.7 306.227 1103.96C289.885 1105.76 272.665 1111.49 257.649 1104.79C252.622 1102.55 248.28 1099.04 243.446 1096.41C230.419 1089.31 214.89 1088.62 200.045 1088.84C175.531 1089.2 169.093 1065.2 111.659 1083.19C96.3867 1087.98 73.7128 1105.69 68.5577 1109.69C53.3277 1121.52 50.5042 1147.94 42.4613 1158.57C34.3971 1169.24 29.4132 1162.5 15.9158 1176.11C3.89437 1188.24 0.0868654 1199.74 5.24196 1222.14C8.04411 1234.31 25.2848 1274.33 38.2902 1284.75C47.8945 1292.45 43.8945 1304.58 41.8624 1314.2C37.2849 1335.96 21.8837 1352.58 18.0548 1360.62C6.31149 1385.31 13.3703 1402.8 19.98 1414.5C26.996 1426.91 30.6538 1439.64 27.595 1453.56C19.8944 1488.71 26.3543 1524.6 26.7394 1560.58C26.8463 1571.4 27.0388 1582.59 31.4667 1592.47C40.6218 1612.9 67.3598 1621.97 88.4508 1614.46C102.932 1609.29 115.553 1597.67 130.932 1597.48C144.408 1597.31 156.109 1605.99 168.066 1612.22C196.922 1627.19 230.933 1628.54 263.339 1625.86C295.746 1623.19 327.96 1616.82 360.473 1617.61C382.206 1618.14 403.725 1621.86 424.987 1626.33C449.992 1631.6 475.597 1634.14 500.773 1629.71C515.233 1627.17 530.185 1622.42 539.853 1611.38C549.565 1600.26 552.239 1584.71 552.902 1569.97C553.543 1555.23 555.875 1541.07 559.918 1526.89C560.666 1524.28 562.592 1520.24 564.495 1518.29C571.19 1511.51 580.559 1514.06 584.11 1517.95C589.372 1523.72 590.121 1530.33 590.977 1538.1C592.367 1551.02 596.517 1563.79 598.335 1576.67C600.538 1592.37 594.142 1607.17 592.281 1622.91C591.084 1633.12 599.169 1644.32 595.233 1653.82C587.811 1671.62 560.559 1673.41 541.287 1673.8C523.041 1674.16 496.837 1671.1 478.591 1671.47C460.431 1671.83 445.522 1672.97 427.468 1670.98C409.072 1668.94 390.548 1669.09 372.088 1667.53C268.045 1658.85 176.152 1663.32 79.531 1654.78C57.6914 1652.86 35.0389 1647.25 17.4345 1666.06C7.48796 1676.67 3.78742 1694.29 4.64303 1708.79C5.66978 1726.29 4.57676 1749.69 4.19173 1766.76" fill="#FF7EAF"/>
<path d="M79.2706 1766.76C79.784 1748.34 109.777 1749.84 117.991 1749.84C126.825 1749.84 148.451 1752.82 157.264 1755.28C199.403 1767.08 235.553 1758.06 281.714 1761.65C295.874 1762.76 318.184 1762.16 335.831 1763.02C354.826 1763.94 382.698 1765.22 401.693 1766.08C469.842 1769.09 517.18 1770.38 580.068 1769.99C603.576 1769.84 644.581 1770.76 662.913 1756.05C679.726 1742.55 682.079 1736.24 687.982 1710.7C701.501 1652 669.608 1592.39 683.768 1529.74C689.522 1504.26 684.859 1475.68 671.341 1453.35C661.33 1436.84 643.875 1425.93 625.501 1420.02C607.126 1414.12 587.661 1412.67 568.41 1411.27C548.431 1409.82 528.41 1408.37 508.388 1408.96C476.046 1409.93 444.067 1416.22 411.767 1417.84C349.65 1420.99 287.746 1406.89 225.564 1408.54C203.553 1409.11 178.804 1413.22 166.141 1431.23C149.927 1454.29 162.205 1486.29 156.729 1513.95C155.595 1519.62 153.435 1525.52 148.686 1528.84C144.365 1531.85 138.761 1532.17 133.499 1532.09C115.766 1531.81 95.8733 1526.65 87.3599 1511.1C83.146 1503.4 82.4187 1494.33 81.7984 1485.56C80.2369 1463.7 78.9748 1441.88 77.0711 1420.04C76.3438 1411.75 76.1085 1402.36 81.777 1396.24C86.9749 1390.63 95.638 1389.69 103.146 1391.1C110.654 1392.52 117.692 1395.87 125.178 1397.5C153.349 1403.68 181.2 1385.09 210.034 1384.88C219.125 1384.81 228.173 1386.59 237.243 1386.01C259.639 1384.62 278.633 1369.48 300.131 1363C347.981 1348.58 397.222 1378.59 447.019 1382.74C466.848 1384.39 486.869 1381.86 506.677 1383.7C539.383 1386.72 562.934 1388.45 590.442 1370.48C607.554 1359.3 615.447 1352.69 625.351 1332.66C630.207 1322.87 632.816 1311.98 635.597 1301.41C639.319 1287.27 669.308 1268.58 669.052 1252.24C668.774 1234.97 684.667 1233.35 686.592 1219.92C692.71 1177.09 672.624 1169.73 654.998 1170.23C646.057 1170.48 654.185 1152.43 657.116 1143.32C666.891 1112.88 676.41 1079 675.661 1047.04C675.063 1020.83 673.736 992.578 657.501 972.001C645.886 957.305 627.961 948.642 609.651 944.728C591.34 940.792 572.41 941.134 553.672 941.498C537.586 941.819 521.95 938.353 506.313 942.14C482.527 947.894 463.062 949.22 443.404 947.188C427.297 945.519 404.922 942.182 378.741 940.706C351.896 939.188 329.478 940.043 320.901 939.936C279.339 939.444 242.505 942.439 217.713 945.348C190.569 948.535 165.05 958.931 126.226 946.375C108.943 940.792 99.4883 931.508 115.446 907.23C122.761 896.107 145.307 893.198 162.59 893.498C247.788 894.974 326.976 895.465 407.083 895.53C430.805 895.551 449.329 894.524 470.655 894.482C526.185 894.353 571.918 895.08 627.276 892.514C650.87 891.423 663.255 886.225 672.731 878.075C684.175 868.214 684.346 851.401 684.496 835.615C684.902 794.267 671.383 752.748 683.768 713.304C691.683 688.085 696.196 669.09 692.924 638.588C691.063 621.261 683.768 614.181 685.308 587.507C686.849 560.662 684.218 546.502 674.635 534.138C658.164 512.876 613.993 507.1 590.249 522.951C585.437 526.159 574.249 531.486 569.415 534.651C549.629 547.55 529.586 531.764 506.998 538.694C495.511 542.224 480.773 546.716 469.543 550.93C444.174 560.448 423.725 545.796 396.858 542.181C387.447 540.919 377.821 541.667 368.516 539.764C342.398 534.459 322.398 509.261 295.746 508.469C283.489 508.106 271.788 513.111 259.703 515.165C248.986 516.983 238.013 516.469 227.146 515.956C200.815 514.715 173.371 521.154 147.039 519.913C136.045 519.4 125.414 510.929 116.601 504.363C106.782 497.047 102.825 483.999 102.675 471.742C102.526 459.485 105.52 447.443 106.74 435.25C109.627 406.608 102.718 377.817 103.873 349.046C105.2 315.335 117.52 282.544 116.643 248.832C115.873 218.779 104.665 190.008 100.451 160.233C96.2369 130.457 95.7877 87.3984 125.242 81.4091C148.558 76.6818 170.911 112.575 172.451 136.661C173.67 155.741 160.665 167.206 164.173 185.987C165.906 195.335 173.414 203.912 172.964 213.41C172.579 221.303 166.333 228.126 162.761 235.185C155.488 249.581 151.959 256.469 154.804 272.362C156.408 281.324 164.857 295.677 162.291 304.405C160.9 309.11 150.89 323.463 148.408 327.72C133.2 353.774 149.927 394.159 150.376 419.827C150.868 447.357 154.098 459.999 169.97 474.052C177.991 481.132 208.066 487.443 222.205 484.94C267.681 476.854 287.703 449.368 333.714 453.517C372.409 457.004 369.2 491.143 419.083 485.218C442.056 482.48 448.452 456.79 487.083 467.485C502.228 471.678 503.853 497.603 534.42 497.197C563.511 496.79 575.811 490.951 607.169 475.464C617.437 470.394 637.48 467.336 647.576 460.983C665.202 449.881 675.747 433.56 672.731 412.94C669.715 392.319 674.699 392.597 674.592 371.763C674.549 361.56 668.774 347.891 660.902 333.389C650.442 314.094 659.79 287.955 664.966 271.891C669.544 257.666 666.464 238.736 660.389 217.495C656.324 203.271 666.656 195.613 666.485 180.383C666.271 162.179 662.357 160.832 671.79 138.928C674.613 132.383 678.677 114.821 664.453 101.602C660.581 98.0081 662.143 88.6177 664.196 83.7621C666.25 78.9064 671.619 54.885 653.33 38.1149C643.105 28.7458 631.811 25.8795 617.95 26.4998C604.089 27.0988 590.142 29.1736 576.431 27.1629C546.784 22.8207 554.698 12.1682 519.554 10.6495C490.677 9.40887 491.404 23.1201 473.372 22.8421C409.329 21.8153 429.8 -0.366568 362.184 7.78319C346.355 9.68694 332.537 24.6389 317.628 30.2859C307.083 34.286 290.976 31.7405 279.703 31.4838C253.05 30.8849 232.943 43.1844 200.729 16.2324C191.916 8.85272 179.852 6.17891 168.558 4.01847C149.756 0.424874 130.504 7.56929 111.381 6.62811C95.8305 5.87944 80.3866 1.9436 65.1138 5.06661C35.2528 11.1201 23.7875 34.1148 17.9907 52.2967C-6.82224 129.987 25.6912 214.329 21.4131 295.763C18.2474 356.426 -1.64576 417.924 13.4773 476.747C16.365 487.977 20.5147 498.972 21.5201 510.523C23.8089 536.855 9.54145 562.908 13.6698 589.005C21.0495 635.572 11.8088 688.727 35.7875 729.326C51.0817 755.251 73.1139 759.7 106.205 758.289C113.563 757.968 120.943 755.123 128.301 755.251C136.408 755.401 143.082 757.39 151.168 758.01C160.644 758.716 169.67 754.096 179.125 752.984C194.312 751.208 208.665 761.283 223.874 762.887C240.109 764.599 256.58 756.984 272.794 755.123C308.58 751.037 344.751 761.882 380.623 758.502C392.238 757.412 403.725 754.823 415.382 754.331C445.564 753.069 475.233 765.882 505.329 763.273C521.073 761.904 536.303 756.342 552.089 755.957C567.875 755.572 585.672 762.31 590.955 777.198C593.479 784.321 588.003 791.486 581.351 795.059C574.698 798.631 566.805 798.781 559.255 798.866C498.356 799.465 437.479 800.043 376.58 800.642C350.591 800.898 324.601 801.155 298.655 799.936C257.585 798.032 222.548 796.257 178.719 796.364C164.087 796.406 150.162 794.524 135.531 794.396C118.055 794.246 95.3599 788.556 77.6486 788.192C31.5522 787.187 15.0602 808.663 10.611 832.663C5.94785 857.84 12.1939 882.246 14.2046 907.765C17.0495 943.894 13.3276 980.386 16.1725 1016.51C16.6003 1021.97 17.0495 1027.55 19.1671 1032.6C23.0174 1041.88 32.0442 1048.28 41.6913 1051.08C51.3384 1053.88 61.6058 1053.56 71.5951 1052.6C106.889 1049.22 141.328 1038.27 176.772 1037.2C200.815 1036.47 224.729 1040.34 248.58 1043.59C333.264 1055.15 420.794 1058.93 503.041 1035.59C516.131 1031.87 528.944 1030.93 542.506 1032.21C556.067 1033.5 569.822 1039.21 577.779 1050.27C579.49 1052.66 580.966 1055.38 581.116 1058.33C581.437 1064.41 576.003 1069.52 570.142 1071.15C564.281 1072.77 558.078 1071.83 552.025 1071.25C538.848 1070.01 525.244 1070.65 512.966 1075.62C503.254 1079.55 494.527 1086.12 484.26 1088.24C474.912 1090.16 465.137 1088.24 455.703 1089.8C443.575 1091.81 433.179 1099.4 421.714 1103.87C385.543 1117.97 344.815 1099.7 306.227 1103.96C289.885 1105.76 272.665 1111.49 257.649 1104.79C252.622 1102.55 248.28 1099.04 243.446 1096.41C230.419 1089.31 214.89 1088.62 200.045 1088.84C175.531 1089.2 169.093 1065.2 111.659 1083.19C96.3867 1087.98 73.7128 1105.69 68.5577 1109.69C53.3277 1121.52 50.5042 1147.94 42.4613 1158.57C34.3971 1169.24 29.4132 1162.5 15.9158 1176.11C3.89437 1188.24 0.0868654 1199.74 5.24196 1222.14C8.04411 1234.31 25.2848 1274.33 38.2902 1284.75C47.8945 1292.45 43.8945 1304.58 41.8624 1314.2C37.2849 1335.96 21.8837 1352.58 18.0548 1360.62C6.31149 1385.31 13.3703 1402.8 19.98 1414.5C26.996 1426.91 30.6538 1439.64 27.595 1453.56C19.8944 1488.71 26.3543 1524.6 26.7394 1560.58C26.8463 1571.4 27.0388 1582.59 31.4667 1592.47C40.6218 1612.9 67.3598 1621.97 88.4508 1614.46C102.932 1609.29 115.553 1597.67 130.932 1597.48C144.408 1597.31 156.109 1605.99 168.066 1612.22C196.922 1627.19 230.933 1628.54 263.339 1625.86C295.746 1623.19 327.96 1616.82 360.473 1617.61C382.206 1618.14 403.725 1621.86 424.987 1626.33C449.992 1631.6 475.597 1634.14 500.773 1629.71C515.233 1627.17 530.185 1622.42 539.853 1611.38C549.565 1600.26 552.239 1584.71 552.902 1569.97C553.543 1555.23 555.875 1541.07 559.918 1526.89C560.666 1524.28 562.592 1520.24 564.495 1518.29C571.19 1511.51 580.559 1514.06 584.11 1517.95C589.372 1523.72 590.121 1530.33 590.977 1538.1C592.367 1551.02 596.517 1563.79 598.335 1576.67C600.538 1592.37 594.142 1607.17 592.281 1622.91C591.084 1633.12 599.169 1644.32 595.233 1653.82C587.811 1671.62 560.559 1673.41 541.287 1673.8C523.041 1674.16 496.837 1671.1 478.591 1671.47C460.431 1671.83 445.522 1672.97 427.468 1670.98C409.072 1668.94 390.548 1669.09 372.088 1667.53C268.045 1658.85 176.152 1663.32 79.531 1654.78C57.6914 1652.86 35.0389 1647.25 17.4345 1666.06C7.48796 1676.67 3.78742 1694.29 4.64303 1708.79C5.66978 1726.29 4.57676 1749.69 4.19173 1766.76" stroke="#DF0006" stroke-width="4.77" stroke-miterlimit="10"/>
<path d="M45.9023 1751.26C44.3133 1752.85 42.3272 1757.22 42.3271 1766.76M38.7519 1734.58C34.7795 1736.57 28.0264 1746.5 28.0264 1766.76M39.9437 1674.99C36.3685 1673.41 27.788 1673.33 22.0677 1685.72C14.9174 1701.21 19.0111 1715.47 19.6843 1726.24C20.876 1745.31 16.1091 1757.22 16.1091 1766.76" stroke="#DF0006" stroke-width="4.77"/>
<path d="M55.4358 1754.84C55.0386 1756.43 54.4825 1761.04 55.4358 1766.76" stroke="#DF0006" stroke-width="4.77"/>
<path d="M60.8136 800.512C46.3965 795.849 30.6103 806.48 24.1932 820.213C17.776 833.946 18.3322 849.775 19.0381 864.919C21.3482 915.614 37.1344 929.304 28.2787 987.272C26.1183 1001.43 29.1558 1026.46 31.252 1031.08C38.097 1046.14 56.3002 1047.59 72.6639 1045.26C104.921 1040.66 136.878 1033.41 169.413 1031.55C243.723 1027.29 317.756 1051.25 391.916 1044.81C443.788 1040.3 494.526 1021.01 546.42 1025.07C558.334 1026.01 570.591 1028.36 580.238 1035.42C589.864 1042.48 596.11 1055.29 592.452 1066.65C589.607 1075.44 580.259 1084.09 567.511 1088.66" stroke="#DF0006" stroke-width="4.77" stroke-miterlimit="10"/>
<path d="M47.2738 821.24C36.3005 819.593 31.7229 825.497 29.3486 835.4C26.2897 848.106 28.4502 866.096 29.4127 878.566C30.4823 893.026 32.8566 904.021 35.1026 914.01C39.3593 932.663 44.0438 948.385 41.9903 977.839C41.1989 989.112 43.124 1008.77 45.2844 1012.88C55.0171 1031.34 75.3808 1026.76 92.3862 1024.79C101.755 1023.7 111.167 1022.33 120.643 1020.94C144.729 1017.45 168.729 1012.98 193.028 1011.53C196.237 1011.34 199.467 1011.19 202.675 1011.1C259.702 1009.56 316.43 1024.86 373.328 1025.71C390.248 1025.97 407.082 1024.96 423.938 1022.99C433.756 1021.84 443.553 1020.38 453.371 1018.93C479.896 1014.99 506.976 1011.4 531.575 1013.8C547.639 1015.34 562.163 1019.06 575.511 1024.88C582.891 1028.06 590.035 1031.98 595.96 1037.6C597.65 1039.23 599.254 1040.98 600.752 1042.91C607.404 1051.59 613.65 1065.18 610.185 1077.11C608.067 1084.43 603.383 1092.56 592.474 1099.02" stroke="#DF0006" stroke-width="4.77" stroke-miterlimit="10"/>
<path d="M44.2149 844.941C35.6159 844.299 35.8299 856.171 35.9796 865.925C36.1079 874.481 38.0117 882.973 39.7871 892.149C41.9047 903.208 43.3807 912.085 45.4342 919.893C49.3486 934.609 54.1615 947.23 55.7444 968.342C56.3647 976.77 60.108 989.947 62.0332 993.797C69.4984 1008.73 94.4825 1005.82 112.13 1004.24C121.819 1003.36 131.595 1002.1 141.499 1000.88C166.547 997.797 191.445 993.005 216.643 991.444C219.98 991.23 223.317 991.08 226.654 990.995C285.863 989.39 344.601 1007.4 403.617 1006.1C421.157 1005.71 438.526 1003.64 455.917 1001.13C466.077 999.658 476.216 998.054 486.398 996.727C513.992 993.134 542.848 992.128 566.634 1000.39C582.142 1005.75 594.591 1014.31 604.538 1024.64C610.014 1030.29 614.848 1036.56 618.42 1043.83C619.447 1045.93 620.367 1048.11 621.18 1050.37C624.837 1060.68 624.559 1073.26 621.629 1085.82C619.768 1093.82 616.688 1101.88 608.666 1110.4" stroke="#DF0006" stroke-width="4.77" stroke-miterlimit="10"/>
<path d="M50.61 881.561C47.3372 887.123 48.6634 898.652 50.1394 905.775C51.765 913.647 53.9041 920.214 55.7223 925.818C59.2517 936.62 64.5993 946.267 69.4335 958.909C71.594 964.578 75.6368 971.957 78.7384 974.802C98.6529 993.048 113.541 984.984 131.851 983.765C141.862 983.08 152.001 981.947 162.354 980.899C188.386 978.246 214.183 973.112 240.258 971.423C243.702 971.187 247.167 971.038 250.632 970.931C312.001 969.262 372.75 989.989 433.927 986.546C452.087 985.519 469.97 982.374 487.938 979.316C498.419 977.519 508.922 975.765 519.489 974.567C548.13 971.294 578.783 972.898 601.778 987.016C616.751 996.214 627.082 1009.63 633.628 1024.45C637.222 1032.58 639.746 1041.16 640.944 1050.08C641.286 1052.64 642.676 1063.7 642.847 1066.82C644.173 1091.64 634.034 1112.09 620.986 1122.35" stroke="#DF0006" stroke-width="4.77" stroke-miterlimit="10"/>
<path d="M58.8895 892.513C51.36 901.647 61.0285 921.026 66.0552 931.764C71.082 942.502 84.451 951.486 95.4885 955.807C124.43 967.08 152.665 963.422 183.211 960.898C213.756 958.374 243.96 951.7 274.612 950.866C338.163 949.133 400.901 972.599 464.238 966.973C493.971 964.342 522.848 955.337 552.56 952.406C582.271 949.476 614.72 953.647 636.881 973.647C659.212 993.775 666.699 1026.44 663.448 1056.34C660.175 1086.22 644.496 1112.06 632.111 1139.47" stroke="#DF0006" stroke-width="4.77" stroke-miterlimit="10"/>
<path d="M69.9902 1304.49C66.5249 1328.51 39.5943 1342.18 29.7761 1364.37C24.7707 1375.66 21.6263 1389.35 25.3269 1401.16C30.0328 1416.17 40.5355 1431.06 38.7173 1451.45C37.4981 1465.18 36.236 1473.86 34.5462 1487.53C32.4713 1504.22 33.8617 1521.14 35.2307 1537.91C36.2574 1550.38 37.3483 1563.08 42.2681 1574.59C47.1879 1586.1 55.573 1600.3 67.8297 1602.76C85.2629 1606.27 102.696 1589.8 120.108 1586.16C137.113 1582.61 154.739 1587.75 170.696 1594.59C186.654 1601.46 201.991 1610.12 218.889 1614.23C263.317 1625.01 308.857 1602.55 354.569 1601.95C388.023 1601.5 421.35 1612.28 454.74 1614.53C471.104 1615.62 493.992 1615.28 508.687 1610.27C518.248 1607.02 534.847 1595.23 541.051 1565.29C551.618 1514.4 565.992 1502.14 578.163 1503.02C602.377 1504.73 601.543 1526.85 604.816 1537.52C604.816 1537.52 613.479 1571.04 613.479 1580.56C613.479 1596.84 614.505 1615.96 623.789 1626.31C634.334 1638.08 631.725 1656.67 622.377 1658.66" stroke="#DF0006" stroke-width="4.77" stroke-miterlimit="10"/>
<path d="M84.8349 1337.03C78.268 1341.9 50.8454 1356.84 43.8935 1368.51C41.177 1373.07 38.2893 1377.88 36.7064 1383.36C34.9737 1389.37 34.6101 1395.72 35.8721 1401.73C36.7705 1406.01 38.1823 1410.33 39.5941 1414.7C43.1021 1425.52 46.7171 1436.92 45.7759 1450.38C44.8989 1463.19 44.0005 1472.22 42.824 1484.99C42.2679 1491.12 42.1181 1497.29 42.1823 1503.45C42.2893 1512.15 42.8882 1520.94 44.193 1529.48C44.3855 1530.68 44.5567 1531.87 44.7706 1533.05C46.7599 1544.88 49.4765 1555.89 55.7653 1565.52C61.8401 1574.8 70.6744 1585.95 82.9953 1587.83C90.5247 1588.99 99.7868 1586.85 108.065 1582.95C115.594 1579.42 123.338 1574.48 130.161 1571.21C131.124 1570.74 132.086 1570.33 133.07 1569.95C145.541 1565.03 159.53 1566.74 171.958 1571.08C174.568 1571.98 178.268 1573.37 182.033 1574.87C186.311 1576.56 190.632 1578.42 194.204 1580C205.841 1585.14 217.477 1590.08 229.67 1593.07C273.242 1603.81 317.349 1588.02 362.74 1587.17C388.793 1586.7 414.59 1592.28 440.644 1595.27C447.446 1596.04 454.098 1596.54 460.622 1596.41C477.499 1596.07 493.072 1590.33 505.05 1581.31C528.601 1563.53 534.248 1549.65 536.729 1542.55C550.59 1503 565.329 1474.53 588.345 1479.53C616.708 1485.71 610.013 1511.42 617.863 1538.46C617.863 1538.46 624.88 1571.15 625.393 1583.75C625.906 1596.34 630.27 1608.58 634.291 1616.45C646.676 1640.6 651.404 1658.12 634.291 1676.52" stroke="#DF0006" stroke-width="4.77" stroke-miterlimit="10"/>
<path d="M96.3645 1351.21C89.541 1354.12 63.4446 1367.7 58.0329 1372.69C54.3965 1376.02 51.1451 1380.13 48.9847 1385.09C46.6318 1390.5 45.8617 1396.49 46.4392 1402.35C46.8671 1406.53 47.7654 1410.74 48.7066 1414.97C51.0382 1425.71 53.4339 1436.86 52.8778 1449.37C52.343 1461.26 51.7869 1470.63 51.1451 1482.5C50.8243 1488.39 50.8029 1494.27 50.9312 1500.15C51.1238 1508.47 51.6585 1516.92 53.5409 1524.92C53.7976 1526.06 54.0756 1527.17 54.3751 1528.26C57.327 1539.45 61.5837 1548.79 69.327 1556.52C76.4286 1563.6 85.7977 1571.72 98.2041 1572.94C104.75 1573.59 114.825 1572.3 122.91 1568.47C130.097 1565.07 137.734 1559.68 143.53 1555.47C144.365 1554.87 145.22 1554.31 146.076 1553.78C157.584 1546.63 171.702 1547.53 183.509 1551.62C185.242 1552.22 189.263 1553.63 193.434 1555.15C197.862 1556.77 202.461 1558.59 205.477 1559.83C217.071 1564.6 228.622 1568.94 240.515 1571.92C283.253 1582.59 325.927 1573.48 370.975 1572.41C396.494 1571.81 421.371 1574.57 446.868 1576C453.606 1576.37 461.114 1576.96 467.296 1576.3C484.708 1574.42 496.473 1569.24 508.665 1556.26C518.441 1545.82 537.949 1516.39 542.676 1505.97C567.361 1451.4 596.644 1460.9 608.559 1466.27C637.928 1479.53 634.826 1510.31 634.056 1533.39C634.056 1533.39 633.928 1558.61 637.928 1569.35C642.976 1582.95 643.746 1602.63 645.436 1612.84C647.554 1625.59 667.104 1678.03 637.928 1696.22" stroke="#DF0006" stroke-width="4.77" stroke-miterlimit="10"/>
<path d="M111.787 1365.01C98.2681 1365.01 78.4392 1373.46 72.1718 1376.84C67.8723 1379.15 64.0434 1382.35 61.2626 1386.83C58.3108 1391.64 57.0915 1397.26 57.0059 1402.95C56.9418 1407 57.3696 1411.15 57.7974 1415.21C58.9525 1425.88 60.1503 1436.77 59.9364 1448.32C59.7439 1459.3 59.5728 1469.01 59.4231 1479.98C59.3375 1485.59 59.4444 1491.21 59.637 1496.84C59.8936 1504.77 60.3856 1512.88 62.8455 1520.34C63.1878 1521.39 63.5514 1522.44 63.9364 1523.45C67.8937 1533.99 73.5407 1541.73 82.867 1547.51C90.9312 1552.49 100.921 1557.61 113.413 1558.06C118.995 1558.25 129.862 1557.74 137.733 1554.01C144.6 1550.76 152.086 1544.86 156.878 1539.75C157.584 1539 158.311 1538.29 159.038 1537.63C169.52 1528.13 183.851 1528.37 194.996 1532.17C195.873 1532.47 200.172 1533.91 204.793 1535.47C209.391 1537.03 214.226 1538.76 216.728 1539.7C228.279 1544.07 239.745 1547.87 251.317 1550.8C293.199 1561.41 334.44 1559 379.167 1557.67C404.151 1556.94 428.109 1556.9 453.071 1556.75C459.745 1556.69 466.013 1556.17 471.852 1555C489.799 1551.45 502.441 1545.37 513.093 1535.13C527.403 1521.35 535.51 1502.57 537.756 1498.63C540.43 1493.95 547.446 1479.53 549.628 1475.57C569.5 1439.45 608.323 1443.38 628.174 1457.44C653.821 1475.57 647.446 1496.45 647.446 1526.8C647.446 1526.8 652.537 1600.75 658.42 1617.41C664.302 1634.1 683.404 1706.7 637.928 1720.09" stroke="#DF0006" stroke-width="4.77" stroke-miterlimit="10"/>
<path d="M146.012 1378.59C135.124 1385.01 121.456 1382.42 108.943 1380.64C96.4292 1378.87 81.7339 1378.93 73.5414 1388.56C67.4237 1395.75 66.9745 1406.03 66.9103 1415.47C66.7392 1441.48 67.2098 1467.51 68.3649 1493.5C68.7071 1501.07 69.1349 1508.82 72.151 1515.75C77.1778 1527.3 84.4291 1534.51 96.3864 1538.48C105.37 1541.48 116.001 1543.66 128.6 1543.17C133.199 1543 144.857 1543.19 152.536 1539.53C159.082 1536.43 166.397 1530.01 170.226 1524C179.381 1509.61 195.274 1509.07 206.526 1512.71C206.526 1512.71 223.938 1518.23 227.98 1519.57C281.692 1537.46 330.804 1544.9 387.403 1542.93C411.874 1542.08 434.869 1539.21 459.297 1537.48C512.901 1533.67 530.441 1489.35 542.27 1470.91C571.276 1425.65 630.249 1434.46 651.447 1459.13C668.752 1479.25 671.362 1503.96 664.003 1528.6C664.003 1528.6 655.939 1566.29 662.164 1587.34C674.142 1627.9 678.078 1662.55 678.078 1662.55C678.078 1662.55 692.11 1741.8 626.891 1746.16" stroke="#DF0006" stroke-width="4.77" stroke-miterlimit="10"/>
</svg>
