<svg width="494" height="1338" viewBox="0 0 494 1338" fill="none" xmlns="http://www.w3.org/2000/svg">
<path d="M27.7466 1264.06C35.7784 1278.16 35.5024 1305.63 34.5119 1316.53H109.433C109.088 1309.53 113 1307.01 113 1307.01C115.905 1304.77 122.046 1305.01 126.843 1305.2L127.38 1305.22C142.731 1305.82 155.265 1309.38 172.168 1310.8C204.618 1313.55 239.071 1295.49 267.344 1310.24C284.656 1319.26 294.497 1336.54 325.396 1334.87C341.46 1333.98 350.138 1320.23 365.362 1315.08C382.696 1309.23 404.035 1312.82 417.428 1300.38C430.369 1288.34 431.468 1266.23 423.07 1250.69C414.392 1234.63 411.83 1219.48 411.636 1201.82C411.442 1184.39 410.365 1173.51 406.705 1155.43C405.994 1151.9 406.576 1141.85 407.975 1138.55C411.055 1131.28 423.78 1126.11 430.24 1121.57C438.487 1115.73 446.218 1109.15 453.237 1101.89C459.805 1095.11 463.509 1088.24 465.511 1079.03C468.569 1064.97 463.896 1049.99 462.561 1035.65C460.021 1008.18 474.577 986.027 483.685 960C496.368 923.725 489.8 897.935 467.901 855.353C461.571 843.082 453.69 823.815 455.757 810.187C457.824 796.56 469.538 784.268 473.069 770.92C482.738 734.387 475.266 690.966 445.873 667.199C420.443 646.618 383.708 644.702 352.528 654.627C344.001 657.339 335.603 660.913 328.605 666.488C312.627 679.233 304.639 701.665 285.754 709.501C271.909 715.249 255.996 711.31 242.107 705.626C228.218 699.943 214.674 692.494 199.73 691.138C192 690.449 183.71 691.31 176.991 687.414C165.967 681.02 165.213 664.077 172.728 653.787C180.221 643.475 193.163 638.674 205.652 636.177C214.2 634.455 222.921 633.551 231.642 633.486C242.064 633.4 252.572 634.498 262.886 632.883C273.997 631.161 284.462 626.339 295.595 624.81C317.192 621.84 338.381 631.441 360.043 634.111C371.908 635.574 379.595 634.369 391.546 634.498C402.786 634.627 417.278 626.016 422.747 620.311C434.009 608.535 440.964 584.037 437.949 563.65C428.905 502.726 425.309 440.811 430.8 379.478C432.867 356.379 436.227 333.323 436.011 310.137C435.645 271.731 425.503 233.885 425.546 195.479C425.589 169.237 430.37 143.231 432.006 117.053C433.643 90.8323 431.016 64.9773 420.744 40.6507C412.26 20.5867 387.261 20.8451 368.764 24.7201C333.924 31.9965 323.652 12.686 289.049 12.5783C270.875 12.5138 236.358 15.9367 226.926 14.7311C196.737 10.8561 165.579 4.80677 133.129 3.25676C117.108 2.48176 89.2016 3.14912 75.1621 9.67208C60.2829 16.5825 37.2426 42.7605 33.7974 58.7988C21.9543 113.889 41.1185 155.05 21.0498 201.809C2.42385 245.209 -0.827601 265.983 16.5064 305.143C21.1575 315.627 22.8155 340.47 22.6433 351.944C22.2557 377.584 25.1842 386.13 23.1601 410.758C22.0188 424.493 28.8663 450.004 34.7233 462.469C43.2288 480.53 63.6205 486.687 78.672 492.371C100.076 500.465 104.878 496.698 126.518 504.168C143.917 510.174 165.299 511.595 180.846 511.854C196.823 512.112 218.701 505.826 234.269 502.231C254.295 497.624 272.447 494.911 286.68 480.1C301.969 464.191 311.314 442.318 311.249 420.252C311.163 398.186 296.951 365.248 299.686 343.355C301.581 328.134 314.716 317.607 317.451 293.345C321.262 259.503 307.373 245.812 307.287 229.687C307.05 186.438 328.325 187.923 323.545 144.932C322.619 136.601 316.826 118.905 319.69 111.025C321.391 106.397 324.32 101.23 332.675 100.606C339.393 100.541 345.788 104.632 347.575 117.936C354.014 165.771 333.988 203.811 336.249 252.012C336.917 266.199 340.211 280.127 342.02 294.206C344.432 313.108 344.173 332.225 343.893 351.277C343.204 398.81 332.718 425.247 348.135 473.986C349.341 477.818 353.583 489.465 347.059 506.73C343.29 516.74 332.158 523.758 326.602 526.686C310.173 535.319 301.646 535.276 283.106 535.9C252.4 536.912 241.655 537.429 206.104 553.036C189.545 560.313 176.173 551.896 156.212 556.115C125.097 562.703 108.172 547.848 80.61 562.25C72.2337 566.62 64.3311 578.978 62.1993 586.426C58.9694 597.578 57.6774 608.772 58.9909 620.053C59.6153 625.564 64.0942 638.481 71.3939 650.881C82.1819 669.266 92.7546 684.507 91.9794 700.373C90.9243 722.396 64.0512 741.47 55.3949 750.512C46.2219 760.113 39.6543 772.406 35.7353 785.086C31.7948 797.766 30.0937 811.027 29.3185 824.267C28.6725 835.117 31.2565 841.36 27.5097 851.564C25.8302 856.171 18.6812 872.317 15.4728 888.14C11.8983 905.793 11.6615 925.232 40.0635 948.762C42.7766 951.023 51.6051 957.115 52.3372 964.887C53.1124 973.067 47.8583 979.892 42.432 985.015C23.9352 1002.47 25.9809 1031.64 28.0265 1046.22C32.5053 1078.04 26.2393 1089.77 34.0988 1107.38C40.8171 1122.43 49.947 1130.41 64.654 1136.55C79.361 1142.69 96.0276 1143.27 111.596 1139.82C130.243 1135.69 148.245 1125.94 167.259 1127.81C173.568 1128.43 179.661 1130.33 185.82 1131.84C195.488 1134.2 205.372 1135.65 215.32 1136.12C226.517 1136.66 238.511 1136.03 247.706 1129.62C260.561 1120.64 269.712 1121.89 275.914 1126.02C281.297 1129.6 284.355 1136.44 284.742 1142.38C285.496 1154.14 281.663 1163.48 273.308 1169.14C266.633 1173.66 257.805 1173.56 249.816 1172.5C243.054 1171.6 236.013 1169.1 229.661 1166.65C224.579 1164.69 220.854 1163.4 215.471 1162.53C201.065 1160.23 188.791 1163.12 178.434 1169.64L177.554 1170.19C169.692 1175.15 159.438 1181.61 149.645 1183.46C135.239 1186.17 126.82 1179.41 112.22 1180.77C105.545 1181.39 96.3936 1186 90.1491 1183.55C85.9071 1181.87 81.3421 1175.97 74.43 1171.75C66.5705 1166.95 56.5361 1164.08 49.1073 1164.08C39.8912 1164.08 30.2875 1166.19 24.732 1169.83C16.1403 1175.47 3.19902 1186.04 2.4669 1206.67C1.15339 1243.5 20.4685 1251.25 27.7466 1264.06Z" fill="#FF7EAF"/>
<path d="M311.173 29.0044C331.522 29.0044 347.564 43.0621 369.786 40.5434C376.095 39.8329 382.469 38.5413 388.713 39.5961C399.394 41.4045 408.007 49.9941 412.357 59.9185C416.706 69.8428 417.417 80.9512 417.309 91.7798C416.793 135.912 403.464 180.066 410.591 223.617C412.96 238.126 417.568 252.206 419.527 266.78C423.08 293.302 417.654 320.083 414.467 346.67C406.22 415.107 423.08 480.918 416.62 553.123C414.682 574.715 417.309 600.075 400.061 613.207C387.529 622.744 370.023 622.356 354.713 618.718C339.382 615.102 324.61 608.665 308.912 607.524C281.35 605.522 274.46 620.763 246.854 621.861C234.904 622.335 211.863 624.875 199.934 625.478C187.983 626.081 166.924 619.579 156.158 627.114C149.892 631.506 147.028 639.213 146.619 646.855C145.757 662.98 155.081 685.95 162.962 700.89" stroke="#DF0006" stroke-width="4.77" stroke-miterlimit="10"/>
<path d="M44.2728 844.051C35.4443 837.205 35.595 788.875 58.6138 764.032C71.0383 750.62 96.3179 725.798 96.3179 725.798C111.628 707.048 103.445 688.081 96.2749 670.924C89.1044 653.766 74.1821 638.288 72.1795 619.795C70.7583 606.641 70.3061 595.942 75.9693 583.994C80.6635 574.091 96.7917 565.889 115.719 567.891C134.108 569.85 148.449 567.439 168.238 567.375C186.864 567.31 196.446 568.86 214.685 565.006C236.713 560.356 237.122 549.442 259.387 546.17C282.535 542.768 336.217 547.483 355.101 521.865C370.196 501.392 360.118 472.286 357.06 454.655C345.842 390.006 361.604 340.987 352.883 275.951C351.203 263.465 348.576 251.044 348.34 238.428C347.909 214.941 355.768 192.208 359.946 169.087C364.123 145.966 367.59 120.348 353.271 101.705C346.983 93.5025 339.037 89.3906 327.431 90.6823C319.464 91.5649 316.363 94.3205 313.607 101.855C305.252 124.675 323.684 149.303 317.074 172.661C315.028 179.851 303.573 198.882 301.505 206.072C293.474 234.101 311.045 260.279 308.224 289.299C306.523 306.844 300.946 315.993 293.861 335.734C286.109 357.305 298.857 384.452 301.032 407.272C303.228 430.091 293.754 455.968 279.154 473.642C265.804 489.831 245.907 494.373 225.257 498.076C204.047 501.865 195.563 504.987 174.009 504.728C166.042 504.621 147.868 502.683 140.245 500.38C130.405 497.43 105.556 492.436 88.5661 487.85C70.543 482.985 56.9557 474.288 50.9265 466.344C45.5432 459.24 31.3315 431.318 32.7311 395.517C33.4202 377.628 31.8052 359.716 32.4512 341.827C33.5494 311.322 11.1982 271.258 13.5668 252.185C14.988 240.796 24.0964 226.459 28.8768 216.018C40.9783 189.689 45.9093 160.11 42.9808 131.284C39.7509 99.2289 40.7845 65.1287 59.8196 39.123C65.0736 31.9327 71.3828 25.3236 79.2423 21.1472C89.4489 15.7437 103.252 10.8138 114.793 10.7062C132.709 10.5124 151.227 13.3541 168.927 16.1312C191.278 19.6402 212.359 23.4291 234.969 24.7423C246.166 25.3882 255.597 23.7736 266.665 22.0083C283.202 19.3604 301.484 28.9618 313.37 29.0264" stroke="#DF0006" stroke-width="4.77" stroke-miterlimit="10"/>
<path d="M107.766 734.395C124.045 710.025 118.404 688.433 112.999 678.788C104.687 663.977 93.9637 642.858 89.9155 623.849C87.8699 614.226 85.975 603.397 96.0739 593.279C107.702 581.633 118.038 582.472 137.094 584.582C155.591 586.627 167.886 581.719 187.804 581.654C206.56 581.59 211.447 579.114 229.794 575.088C251.951 570.223 253.587 565.982 276.003 562.559C299.302 559.007 353.479 572.871 372.471 546.112C387.673 524.713 376.153 478.17 373.095 459.763C361.812 392.187 385.52 346.849 376.734 278.886C375.055 265.818 369.736 246.056 369.499 232.881C369.069 208.339 377.251 184.249 381.429 160.073C385.606 135.898 387.673 108.988 373.268 89.505C366.937 80.9369 347.428 68.9458 323.57 75.8563C323.57 75.8563 293.746 82.1209 298.053 142.873C298.053 142.873 305.654 171.289 283.324 208.791C283.324 208.791 272.859 224.872 280.762 266.443C288.665 308.013 261.016 348.765 274.84 398.732C288.665 448.698 279.212 462.39 258.196 476.943C229.557 496.77 169.286 494.079 169.286 494.079C169.286 494.079 72.7968 491.861 56.6902 450.076C56.6902 450.076 45.5792 433.951 43.7704 377.441C42.0693 324.46 37.3536 281.857 37.3536 281.857C37.3536 281.857 15.6269 258.865 47.2372 232.838C47.2372 232.838 63.7099 225.346 68.5548 190.169C73.3997 154.993 68.5548 88.2564 68.5548 88.2564C68.5548 88.2564 63.6884 47.8485 119.416 43.4138C175.143 38.979 276.305 47.9992 314.827 54.8235" stroke="#DF0006" stroke-width="4.77" stroke-miterlimit="10"/>
<path d="M139.416 710.026C138.469 691.318 138.081 676.378 130.523 661.287C127.508 655.28 116.677 639.952 114.589 633.58C110.153 620.082 118.034 610.201 129.726 605.723C141.785 601.116 172.125 606.434 180.565 607.639C210.195 611.923 205.027 610.502 229.424 607.316C248.545 604.819 264.307 591.127 283.364 588.221C305.284 584.884 318.226 597.263 340.383 598.404C349.987 598.899 368.979 597.865 377.42 593.258C384.999 589.125 390.447 582.581 393.871 574.658C397.316 566.736 400.46 559.115 402.419 550.698C410.731 515.112 393.871 481.486 391.222 443.747C388.854 409.884 394.711 395.309 395.83 361.446C396.584 338.691 410.107 308.358 405.499 282.912C400.438 254.904 395.917 247.348 395.873 218.888C395.83 198.566 401.429 124.811 400.438 111.485C399.879 103.821 403.065 90.3666 387.928 72.1324C380.542 63.2199 367.773 59.5386 356.404 58.4837C343.01 57.2136 326.107 55.7066 312.713 54.458" stroke="#DF0006" stroke-width="4.77" stroke-miterlimit="10"/>
<path d="M56.9989 1239.09C42.6476 1252.28 47.6967 1262.1 48.0196 1281.02L47.4044 1316.53" stroke="#DF0006" stroke-width="4.77" stroke-miterlimit="10"/>
<path d="M59.2962 1316.53C59.2964 1307.01 57.9234 1290.41 63.6512 1278.12" stroke="#DF0006" stroke-width="4.77" stroke-miterlimit="10"/>
<path d="M75.754 1290.93C72.3775 1301.06 73.5668 1308.2 73.5666 1317.72" stroke="#DF0006" stroke-width="4.77" stroke-miterlimit="10"/>
<path d="M90.2163 1297.49C87.2619 1304.95 86.6487 1310.58 86.6487 1316.53" stroke="#DF0006" stroke-width="4.77" stroke-miterlimit="10"/>
<path d="M286.97 1101.61C292.267 1102.77 296.682 1108.93 299.373 1113.62C302.065 1118.34 303.206 1123.76 303.723 1129.17C304.929 1141.97 302.732 1155.11 297.414 1166.82" stroke="#DF0006" stroke-width="4.77" stroke-miterlimit="10"/>
<path d="M317.332 1168.71C321.768 1156.7 323.662 1143.93 323.533 1131.17C323.469 1125.53 323.641 1120.04 322.801 1115.39C321.983 1110.74 321.983 1110.74 320.066 1106.93" stroke="#DF0006" stroke-width="4.77" stroke-miterlimit="10"/>
<path d="M346.292 1181.82C338.109 1173.51 342.416 1145.89 343.32 1133.15C343.729 1127.25 345.172 1121.74 346.206 1117.15C347.239 1112.57 347.713 1111.17 347.842 1108.86" stroke="#DF0006" stroke-width="4.77" stroke-miterlimit="10"/>
<path d="M363.626 1173.51C366.274 1160.94 361.236 1147.83 363.131 1135.13C364.035 1128.99 366.748 1123.44 369.634 1118.92C372.541 1114.4 372.777 1113.67 375.62 1110.8" stroke="#DF0006" stroke-width="4.77" stroke-miterlimit="10"/>
<path d="M385.701 1175.73C387.467 1162.86 380.081 1149.79 382.924 1137.11C384.345 1130.74 388.286 1125.14 393.044 1120.66C397.803 1116.19 403.402 1112.72 408.957 1109.27" stroke="#DF0006" stroke-width="4.77" stroke-miterlimit="10"/>
<path d="M35.4433 1316.53C36.4338 1305.63 36.7098 1278.16 28.678 1264.06C21.3999 1251.25 2.08479 1243.5 3.3983 1206.67C4.13042 1186.04 17.0717 1175.47 25.6634 1169.83C31.2189 1166.19 40.8226 1164.08 50.0387 1164.08C57.4675 1164.08 67.5019 1166.95 75.3614 1171.75C82.2735 1175.97 86.8385 1181.87 91.0805 1183.55C97.325 1186 106.477 1181.39 113.152 1180.77C127.751 1179.41 136.17 1186.17 150.576 1183.46C160.74 1181.54 171.398 1174.65 179.366 1169.64C189.723 1163.12 201.997 1160.23 216.402 1162.53C221.785 1163.4 225.511 1164.69 230.592 1166.65C236.945 1169.1 243.986 1171.6 250.747 1172.5C258.736 1173.56 267.564 1173.66 274.24 1169.14C282.594 1163.48 286.427 1154.14 285.674 1142.38C285.286 1136.44 282.228 1129.6 276.845 1126.02C270.644 1121.89 261.492 1120.64 248.637 1129.62C239.442 1136.03 227.449 1136.66 216.251 1136.12C206.303 1135.65 196.42 1134.2 186.751 1131.84C180.593 1130.33 174.499 1128.43 168.19 1127.81C149.176 1125.94 131.175 1135.69 112.527 1139.82C96.959 1143.27 80.2925 1142.69 65.5854 1136.55C50.8784 1130.41 41.7485 1122.43 35.0302 1107.38C27.1707 1089.77 33.4367 1078.04 28.9579 1046.22C26.9123 1031.64 24.8666 1002.47 43.3634 985.015C48.7897 979.892 54.0438 973.067 53.2686 964.887C52.5365 957.115 43.708 951.023 40.9949 948.762C12.5929 925.232 12.8297 905.793 16.4042 888.14C19.6126 872.317 26.7616 856.171 28.4411 851.564C32.1879 841.36 29.6039 835.117 30.2499 824.267C31.0251 811.027 32.7262 797.766 36.6667 785.086C40.5857 772.406 47.1533 760.113 56.3263 750.512C64.9826 741.47 91.8557 722.397 92.9108 700.373C93.686 684.507 83.1133 669.266 72.3253 650.881C65.0256 638.481 60.5467 625.564 59.9223 620.053C58.6088 608.772 59.9008 597.578 63.1307 586.426C65.2625 578.978 73.1651 566.621 81.5414 562.25C109.104 547.848 126.028 562.703 157.144 556.115C177.105 551.896 190.477 560.313 207.035 553.036C242.586 537.429 253.331 536.912 284.037 535.9C302.577 535.276 311.104 535.319 327.534 526.686C333.089 523.758 344.222 516.74 347.99 506.73C354.515 489.465 350.272 477.818 349.067 473.986C333.649 425.247 344.136 398.811 344.825 351.277C345.105 332.225 345.363 313.108 342.951 294.206C341.143 280.127 337.848 266.199 337.18 252.012C334.919 203.811 354.945 165.771 348.507 117.936C346.72 104.632 340.324 100.541 333.606 100.606C325.251 101.23 322.323 106.397 320.622 111.025C317.758 118.905 323.55 136.601 324.476 144.932C329.256 187.923 307.982 186.438 308.219 229.687C308.305 245.812 322.194 259.503 318.382 293.345C315.648 317.607 302.512 328.134 300.618 343.355C297.883 365.248 312.095 398.186 312.181 420.252C312.245 442.318 302.9 464.191 287.612 480.1C273.378 494.911 255.226 497.624 235.2 502.231C219.632 505.826 197.755 512.112 181.777 511.854C166.23 511.595 144.848 510.174 127.45 504.168C105.809 496.698 101.007 500.465 79.6034 492.371C64.5519 486.687 44.1602 480.53 35.6547 462.469C29.7977 450.004 22.9502 424.493 24.0915 410.758C26.1156 386.13 23.1871 377.584 23.5747 351.944C23.7469 340.47 22.0889 315.627 17.4378 305.143C0.103795 265.983 3.35525 245.209 21.9812 201.809C42.0499 155.05 22.8857 113.889 34.7288 58.7988C38.174 42.7605 61.2143 16.5825 76.0935 9.67208C90.133 3.14912 118.04 2.48176 134.06 3.25676C166.51 4.80677 197.669 10.8561 227.858 14.7311C237.289 15.9367 271.806 12.5138 289.98 12.5783C324.584 12.686 334.855 31.9965 369.695 24.7201C388.192 20.8451 413.192 20.5867 421.676 40.6507C431.947 64.9773 434.574 90.8323 432.938 117.053C431.301 143.231 426.521 169.237 426.478 195.479C426.435 233.885 436.577 271.731 436.943 310.137C437.158 333.323 433.799 356.379 431.732 379.478C426.241 440.811 429.837 502.726 438.881 563.65C441.895 584.037 434.94 608.535 423.678 620.311C418.209 626.016 403.717 634.627 392.477 634.498C380.526 634.369 372.839 635.574 360.974 634.111C339.312 631.441 318.124 621.84 296.526 624.81C285.394 626.339 274.929 631.161 263.818 632.883C253.503 634.498 242.995 633.4 232.573 633.486C223.853 633.551 215.132 634.455 206.583 636.177C194.094 638.674 181.153 643.475 173.659 653.787C166.144 664.077 166.898 681.02 177.923 687.414C184.641 691.31 192.931 690.449 200.662 691.138C215.606 692.494 229.15 699.943 243.038 705.626C256.927 711.31 272.84 715.249 286.686 709.501C305.57 701.665 313.559 679.233 329.536 666.488C336.534 660.913 344.932 657.339 353.459 654.627C384.639 644.702 421.374 646.618 446.805 667.199C476.197 690.966 483.669 734.387 474.001 770.92C470.469 784.268 458.755 796.56 456.688 810.187C454.621 823.814 462.502 843.082 468.833 855.353C490.732 897.935 497.299 923.725 484.617 960C475.508 986.027 460.952 1008.18 463.493 1035.65C464.828 1049.99 469.5 1064.97 466.443 1079.03C464.44 1088.24 460.736 1095.11 454.169 1101.89C447.149 1109.15 439.419 1115.73 431.172 1121.57C424.712 1126.11 411.986 1131.28 408.907 1138.55C407.507 1141.85 406.926 1151.9 407.636 1155.43C411.297 1173.51 412.373 1184.39 412.567 1201.82C412.761 1219.48 415.324 1234.63 424.001 1250.69C432.399 1266.23 431.301 1288.34 418.36 1300.38C404.966 1312.82 383.627 1309.23 366.293 1315.08C351.069 1320.23 342.391 1333.98 326.328 1334.87C295.428 1336.54 285.588 1319.26 268.275 1310.24C240.002 1295.49 205.55 1313.55 173.099 1310.8C156.196 1309.38 143.662 1305.82 128.311 1305.22C123.445 1305.03 116.946 1304.68 113.932 1307.01C113.932 1307.01 110.019 1309.53 110.364 1316.53" stroke="#DF0006" stroke-width="4.77" stroke-miterlimit="10"/>
</svg>
