<svg width="401" height="497" viewBox="0 0 401 497" fill="none" xmlns="http://www.w3.org/2000/svg">
<path d="M50.4861 356.635C64.9415 337.525 47.532 316.75 45.9761 300.087C43.5932 274.7 44.5976 258.297 47.1578 240.911C56.217 179.511 46.823 135.575 45.1293 73.4927C44.696 57.3704 41.7616 37.6587 50.683 24.3438C58.6788 12.4126 70.8693 5.45433 84.8324 2.88761C98.7954 0.32088 117.958 4.11081 132.118 4.67228C146.475 5.23376 166.208 9.32448 180.565 9.02369C206.069 8.50232 219.618 0.862299 253.078 7.80048C282.639 13.9366 296.917 27.9533 320.235 32.2646C345.148 36.8566 363.108 46.0407 373.211 60.5187C382.349 73.613 388.671 90.2566 385.875 114.48C384.122 129.68 386.052 139.927 387.45 155.167C388.73 169.183 391.94 182.94 394.126 196.836C407.381 280.916 385.481 309.972 392.551 409.172C394.954 442.921 381.05 462.191 364.782 474.363C343.71 490.105 313.007 490.105 290.615 485.392C244.748 475.767 244.649 460.928 215.502 463.936C183.204 467.265 170.856 486.656 137.179 492.33C108.091 497.243 75.8519 492.431 67.8168 464.177C62.5191 445.548 76.1867 425.636 66.1231 408.09C49.9937 379.956 35.7747 381.44 4.89447 378.211C-4.32231 369.508 16.4942 370.631 23.9779 369.509C33.7265 368.045 44.7551 364.215 50.4861 356.635Z" fill="#FF7EAF" stroke="#DF0006" stroke-width="4" stroke-miterlimit="10"/>
<path d="M133.398 29.0361C133.398 29.0361 120.222 15.1397 94.3051 20.0726C76.8562 23.3813 65.6897 33.9691 60.5102 48.4671C57.8318 55.9868 56.7486 72.1692 58.5211 79.9696C62.2826 96.4729 77.2698 124.907 121.798 117.648C121.798 117.648 152.619 110.75 154.726 83.0577C154.943 80.1702 154.352 77.2425 152.914 74.7359C151.063 71.4674 147.558 68.0985 141.689 68.7803C139.897 68.9808 137.258 69.9434 135.958 71.1866C134.185 72.8911 131.369 75.9591 127.903 80.9522C117.052 96.6734 98.2636 92.1816 91.0556 83.1379C88.3772 79.7892 86.7623 77.1222 86.1124 70.3043C84.7535 56.1271 96.2745 45.78 110.06 49.2291C110.553 49.3494 116.737 50.9536 119.1 52.2971C129.203 58.0522 138.814 56.7488 141.61 47.9457C144.938 37.3981 133.398 29.0361 133.398 29.0361Z" fill="white" stroke="#DF0006" stroke-width="4" stroke-miterlimit="10"/>
<path d="M163.136 109.988C163.293 113.117 163.805 116.325 165.597 118.631C168.197 122 173.12 122.742 177.355 121.178C181.589 119.634 185.173 116.144 187.871 112.254C192.224 105.978 194.607 98.5784 196.891 91.3595C198.467 86.3865 200.613 70.1038 200.948 67.0157C201.578 61.1202 202.248 50.352 209.515 49.0085C210.874 48.7478 212.193 48.7679 213.473 49.1288C220.504 51.1341 229.465 51.2544 235.334 45.5996C241.025 40.1052 242.64 31.2219 238.544 26.1085C232.793 18.9698 225.29 16.002 215.975 15.8215C212.272 15.7413 208.511 16.4833 204.788 17.2051C198.565 18.4083 192.342 19.6115 186.138 20.8146C181.431 21.737 176.626 22.6795 172.274 25.1259C166.346 28.4947 161.619 34.9116 160.91 41.7495C160.437 46.2814 161.974 50.8132 164.908 53.761C167.291 56.1673 172.293 56.3878 172.727 60.4385C173.199 64.8901 170.304 71.2468 169.044 75.6383C167.527 80.9723 165.991 86.3263 164.869 91.7205C163.589 97.8164 162.82 103.953 163.136 109.988Z" fill="white" stroke="#DF0006" stroke-width="4" stroke-miterlimit="10"/>
<path d="M259.636 80.0699C260.207 79.8694 261.724 79.3279 263.87 79.6087C268.597 80.2103 276.947 87.369 286.262 83.1179C291.678 80.6514 295.637 75.4578 297.646 70.1238C299.32 65.7123 300.265 60.6991 299.635 55.4654C298.886 49.2491 293.923 41.7695 286.105 37.9595C280.551 35.2524 275.667 33.3474 269.542 32.5654C265.091 32.0039 260.069 32.1443 255.658 32.9464C251.247 33.7485 247.977 36.7163 245.181 40.2656C242.68 43.4339 241.242 48.0861 240.513 50.733C234.093 74.0341 228.579 93.9663 222.572 117.368C221.371 122.06 220.228 127.294 222.454 131.585C224.719 135.976 230.174 138.042 234.96 137.139C239.745 136.237 243.822 132.868 246.559 128.757C249.297 124.667 251.503 120.596 252.822 115.844C254.634 109.307 254.969 106.78 255.52 100.002C255.875 95.4301 253.413 82.2356 259.636 80.0699Z" fill="white" stroke="#DF0006" stroke-width="4" stroke-miterlimit="10"/>
<path d="M253.61 55.305C254.181 54.1419 254.792 52.9989 255.678 52.0565C257.273 50.332 259.203 48.7679 261.389 48.0059C263.418 47.304 265.86 47.2238 267.967 47.5045C272.733 48.1462 278.956 51.6755 280.394 54.9039C281.733 57.8918 281.004 61.5814 279.055 64.2083C278.326 65.1909 277.42 66.0532 276.376 66.6748C273.245 68.5196 269.365 67.878 265.781 68.3392C264.008 68.5597 262.275 69.061 260.66 69.823C258.396 70.8858 256.387 72.4299 254.043 73.3322C253.177 73.6531 251.798 73.9138 250.951 73.252C250.183 72.6705 249.75 71.4473 249.691 70.565C249.356 65.231 251.266 59.9973 253.61 55.305Z" fill="#FF7EAF" stroke="#DF0006" stroke-width="4" stroke-miterlimit="10"/>
<path d="M365.255 81.0525C362.892 74.4552 358.599 73.2921 357.338 72.47C356.393 71.8483 353.518 71.4272 352.395 71.2668C346.211 70.3845 341.642 72.2494 335.655 74.2145C316.729 80.3707 298.65 89.2941 282.206 100.584C277.715 103.672 273.284 106.98 269.956 111.292C264.501 118.35 262.748 128.838 267.927 135.856C273.599 143.536 285.317 144.358 294.396 140.809C296.09 140.147 298.158 139.425 299.517 140.568C300.718 141.591 300.482 143.616 299.517 144.9C298.552 146.183 297.055 146.965 295.696 147.848C289.177 152.059 282.856 160.42 289.217 167.519C298.296 173.816 304.283 160.962 310.467 155.086C324.922 141.31 344.734 134.934 361.947 124.787C365.019 122.962 368.229 120.797 369.47 117.468C372.168 110.129 365.905 110.089 364.408 103.872C363.168 98.5984 369.135 91.8808 365.255 81.0525Z" fill="white" stroke="#DF0006" stroke-width="4" stroke-miterlimit="10"/>
<path d="M349.264 90.2967C347.905 88.9532 346.703 88.512 344.852 89.1337C343.021 89.7753 340.441 91.3595 338.905 92.5426C335.005 95.5705 318.285 103.872 314.425 106.038C312.81 106.94 304.775 109.186 302.412 109.607C290.516 111.713 283.84 115.162 283.545 120.877C283.407 123.444 284.155 127.053 287.877 127.334C290.615 127.554 293.589 126.131 296.169 124.907C299.005 123.564 301.565 121.498 304.401 120.155C317.241 114.079 330.101 107.983 342.331 100.744C345.049 99.2 353.301 94.2872 349.264 90.2967Z" fill="#FF7EAF" stroke="#DF0006" stroke-width="4" stroke-miterlimit="10"/>
<path d="M326.832 185.847C316.788 183.14 310.604 178.087 300.422 176.202C298.591 175.861 292.86 175.099 288.803 179.27C286.44 181.696 286.046 186.348 290.063 189.617C294.317 193.066 297.37 194.45 302.471 196.355C307.571 198.26 313.105 199.744 316.926 203.674C317.871 204.656 318.699 205.799 318.974 207.143C319.604 210.351 316.906 213.139 314.425 215.204C308.714 219.957 302.825 224.488 296.779 228.76C294.908 230.083 292.958 231.447 291.757 233.392C289.315 237.342 290.969 243.278 295.085 245.343C297.921 246.767 301.348 246.406 304.243 245.163C307.138 243.919 309.639 241.894 312.14 239.929C319.545 234.074 324.764 228.198 332.937 222.383C335.202 220.779 337.152 219.836 339.889 219.535C342.745 219.235 346.9 222.784 348.456 223.726C354.443 227.396 357.85 229.863 363.758 233.753C367.559 236.259 374.748 240.49 379.258 240.911C386.308 241.593 389.124 236.66 389.38 235.377C390.168 231.627 388.73 227.757 386.091 225.03C383.452 222.283 379.888 220.057 376.54 218.312C369.233 214.522 365.176 213.76 357.082 210.592C355.546 209.99 352.237 208.025 350.268 205.278C348.712 203.132 348.2 201.909 348.555 199.623C349.657 192.384 356.294 188.334 363.719 181.035C366.22 178.568 371.951 173.214 374.334 168.041C376.323 163.749 375.535 157.914 372.109 155.307C370.021 153.723 368.15 152.339 364.448 152.961C356.452 154.284 346.9 172.913 342.351 178.067C335.753 185.586 333.804 187.732 326.832 185.847Z" fill="white" stroke="#DF0006" stroke-width="4" stroke-miterlimit="10"/>
<path d="M384.732 268.163C386.741 264.473 385.953 260.543 383.767 258.076C382.133 256.232 379.061 254.026 374.944 253.184C353.517 248.812 336.522 253.444 316.158 252.763C309.62 252.542 302.471 253.364 296.661 256.292C290.851 259.219 286.164 266.077 286.932 274.098C287.523 280.235 292.328 286.471 291.245 292.266C290.635 295.535 287.858 298.202 285.829 300.448C282.422 304.237 280.472 308.85 279.547 313.121C278.798 316.59 279.192 320.661 280.847 323.568C282.698 326.817 285.494 328.501 288.527 329.103C293.982 330.165 297.882 326.095 298.709 322.265C299.595 318.194 299.635 316.59 302.195 313.562C306.646 308.268 313.263 307.386 319.86 308.328C339.673 311.136 353.281 318.675 373.743 319.056C375.713 319.096 382.074 318.896 384.181 315.507C386.308 312.078 386.544 308.288 383.728 304.037C376.362 292.848 339.338 294.953 318.777 287.433C316.65 286.651 311.825 281.538 312.081 278.069C312.377 273.918 315.37 272.153 318.6 271.391C335.379 267.481 375.161 285.769 384.732 268.163Z" fill="white" stroke="#DF0006" stroke-width="4" stroke-miterlimit="10"/>
<path d="M141.394 274.82C141.394 274.82 135.111 257.395 110.435 251.499C93.8326 247.529 79.9877 252.422 69.9044 263.13C64.6855 268.684 57.5563 282.48 56.158 290.04C53.1645 306.042 55.5278 336.943 97.4366 348.153C97.4366 348.153 127.175 354.269 139.562 330.747C140.862 328.301 141.453 325.473 141.138 322.706C140.744 319.096 138.952 314.765 133.536 313.021C131.881 312.499 129.203 312.279 127.588 312.88C125.382 313.682 121.719 315.266 116.796 318.274C101.277 327.799 86.4474 316.429 83.5523 305.641C82.4692 301.631 82.0753 298.663 84.1038 292.406C88.2986 279.412 102.38 274.86 113.192 283.343C113.586 283.644 118.391 287.494 119.967 289.599C126.662 298.643 135.604 301.29 141.394 294.672C148.365 286.732 141.394 274.82 141.394 274.82Z" fill="white" stroke="#DF0006" stroke-width="4" stroke-miterlimit="10"/>
<path d="M148.936 277.026C147.203 272.635 148.523 263.711 156.597 262.087C160.713 261.265 170.777 262.508 174.735 263.952C183.873 267.321 191.475 270.549 197.896 274.82C203.942 278.851 210.125 282.661 210.382 290C210.539 294.632 207.546 298.663 204.808 302.352C200.535 308.148 196.517 314.123 192.795 320.299C191.416 322.585 190.077 325.493 191.456 327.779C192.362 329.263 194.114 329.885 195.67 330.586C206.817 335.539 213.237 349.516 209.81 361.407C206.384 373.298 193.602 381.54 181.569 379.595C175.425 378.592 170.521 377.169 164.711 374.943C159.02 372.777 154.825 369.95 150.039 365.658C145.194 361.307 142.102 355.071 141.689 351.14C141.315 347.491 142.339 340.312 145.175 335.68C157.917 314.905 166.346 314.845 177.197 303.074C179.994 300.046 180.388 295.835 178.891 293.289C176.37 289.018 167.843 286.451 163.825 285.749C158.291 284.806 150.591 281.237 148.936 277.026Z" fill="white" stroke="#DF0006" stroke-width="4" stroke-miterlimit="10"/>
<path d="M181.274 357.437C183.637 356.855 186.06 356.093 187.95 354.529C189.841 352.965 191.121 350.398 190.569 347.972C190.156 346.147 188.758 344.663 187.143 343.741C185.528 342.819 183.696 342.397 181.884 342.037C177.512 341.154 173.022 340.553 168.591 340.994C167.567 341.094 166.503 341.275 165.637 341.816C164.16 342.758 163.471 344.643 163.53 346.428C163.589 348.193 164.298 349.877 165.085 351.461C165.873 353.045 166.779 354.609 168.079 355.813C171.427 358.921 177.217 358.439 181.274 357.437Z" fill="#FF7EAF" stroke="#DF0006" stroke-width="4" stroke-miterlimit="10"/>
<path d="M280.63 355.311C283.486 352.845 284.155 348.473 283.151 344.804C282.147 341.134 279.783 338.026 277.341 335.138C271.394 328.18 264.619 321.964 257.293 316.51C254.496 314.424 251.463 312.399 247.997 312.138C241.518 311.637 236.319 317.432 232.852 323.027C226.609 333.093 222.277 344.363 220.13 356.073C219.303 360.585 219.52 368.947 214.852 378.512C211.327 385.731 204.611 392.85 207.014 400.53C207.802 403.056 209.515 405.142 211.169 407.167C213.04 409.433 214.911 411.719 216.782 413.985C221.45 419.64 226.314 425.475 232.852 428.664C239.391 431.852 247.859 433.276 252.822 427.881C254.969 425.555 255.225 423.851 255.323 422.588C255.579 419.5 254.654 417.534 254.319 416.833C249.809 407.107 237.146 406.786 234.487 396.359C233.049 390.704 234.901 379.194 241.144 376.928C247.209 376.507 250.912 385.651 256.013 387.776C260.266 389.541 265.407 387.716 266.509 383.184C267.1 380.798 265.879 377.69 264.579 375.604C262 371.494 258.494 368.105 255.323 364.455C252.468 361.207 249.336 358.058 247.623 354.048C245.91 350.058 246.008 344.844 249.159 341.896C250.341 340.793 251.995 340.071 253.551 340.512C254.319 340.733 254.989 341.214 255.599 341.736C260.838 346.167 271.689 363.052 280.63 355.311Z" fill="white" stroke="#DF0006" stroke-width="4" stroke-miterlimit="10"/>
<path d="M280.787 423.851C279.566 427.36 277.144 435 278.089 438.61C279.074 442.42 281.359 444.345 284.431 445.447C290.28 447.553 295.105 443.282 296.74 441.156C298.355 439.051 300.462 435.762 301.309 433.235C305.779 419.88 304.814 409.654 304.361 397.241C304.105 390.383 303.849 382.944 304.46 376.106C304.597 374.582 304.893 372.817 306.015 371.814C307.611 370.391 309.639 370.431 311.037 372.055C312.436 373.679 312.692 376.366 313.204 378.472C314.129 382.262 315.252 385.972 316.591 389.621C317.891 393.191 319.466 397.923 322.972 399.246C325.572 400.229 329.176 399.888 331.637 398.605C334.079 397.301 336.581 395.597 338.845 393.993C341.76 391.907 343.985 389.741 346.762 387.455C348.279 386.192 351.607 384.267 354.738 386.533C356.452 387.776 357.397 389.561 357.279 393.311C357.043 399.788 353.399 404.921 350.465 410.676C347.53 416.431 344.064 421.725 341.189 427.521C339.416 431.11 337.703 435.14 336.246 438.89C335.103 441.818 334.316 444.746 334.06 447.874C333.804 451.002 335.182 454.291 337.408 456.476C340.244 459.284 344.182 460.266 348.102 459.765C350.957 459.404 354.325 457.92 356.57 456.095C360.981 452.486 363.404 442.339 364.408 438.249C368.327 422.367 369.863 413.203 373.782 397.341C375.102 391.967 377.367 386.493 376.618 380.999C375.87 375.524 371.577 369.97 366.338 368.486C360.981 366.962 355.506 369.849 350.307 371.875C344.872 374 339.121 375.223 333.311 375.484C332.031 375.544 330.692 375.544 329.55 374.963C328.092 374.241 327.009 373.439 326.005 372.135C322.952 368.165 323.346 367.343 320.747 362.791C318.935 359.602 316.276 352.704 313.657 349.275C311.412 346.368 307.453 343.901 302.116 344.042C299.536 344.102 296.641 345.385 295.144 346.528C289.689 350.759 288.921 358.921 287.838 365.819C286.755 372.717 286.262 379.956 286.262 386.954C286.262 393.932 286.006 399.607 285.022 406.505C284.647 409.092 284.155 413.223 283.545 415.669C282.58 419.359 281.851 420.843 280.787 423.851Z" fill="white" stroke="#DF0006" stroke-width="4" stroke-miterlimit="10"/>
<path d="M61.7511 148.65C61.239 153.623 62.2828 164.11 62.9918 169.103C65.1778 184.744 64.1734 196.094 61.0815 211.414C60.2543 215.505 59.2302 219.636 59.6832 223.807C60.1362 227.998 63.1493 233.031 70.8694 234.535C77.0139 235.738 83.4538 229.341 102.872 233.753C109.036 235.156 116.008 236.299 121.463 233.612C126.978 230.885 130.582 228.178 133.91 223.686C137.553 218.773 140.015 210.051 139.582 203.313C139.089 195.392 133.752 188.093 129.479 184.624C122.428 178.929 114.236 177.786 105.098 176.703C102.498 176.402 99.3075 175.52 98.8349 173.134C98.3622 170.748 101.238 169.003 103.837 168.923C106.437 168.843 109.036 169.745 111.616 169.544C117.328 169.103 121.601 165.053 123.314 160.019C124.87 155.447 124.693 147.868 119.691 143.576C116.678 140.99 110.651 137.801 104.448 135.756C93.4584 132.166 66.0247 125.99 61.7511 148.65Z" fill="white" stroke="#DF0006" stroke-width="4" stroke-miterlimit="10"/>
<path d="M216.093 152.68C216.093 152.68 208.629 137.701 186.709 138.222C171.959 138.563 160.635 146.644 153.23 159.318C149.389 165.875 144.899 180.774 144.584 188.294C143.914 204.235 149.586 233.011 186.965 233.251C186.965 233.251 213.257 231.667 221.135 206.261C221.962 203.614 222.139 200.786 221.548 198.24C220.78 194.911 218.732 191.241 213.867 190.941C212.39 190.84 210.047 191.322 208.727 192.284C206.915 193.587 203.961 195.994 200.082 200.105C187.852 213.018 173.77 205.9 170.009 196.355C168.611 192.825 167.921 190.078 168.906 183.641C170.974 170.246 182.554 162.446 192.854 167.8C193.228 168 197.817 170.447 199.412 172.071C206.246 178.989 214.242 179.29 218.456 171.57C223.498 162.265 216.093 152.68 216.093 152.68Z" fill="white" stroke="#DF0006" stroke-width="4" stroke-miterlimit="10"/>
<path d="M287.641 214.823C290.438 212.497 291.147 208.286 290.26 204.737C289.354 201.187 287.129 198.139 284.825 195.332C279.212 188.514 272.792 182.398 265.82 177.024C263.161 174.979 260.266 172.953 256.938 172.653C250.695 172.071 245.594 177.545 242.148 182.879C235.964 192.465 231.592 203.273 229.327 214.502C228.461 218.834 228.52 226.895 223.872 236.039C220.347 242.937 213.769 249.674 215.935 257.114C216.644 259.56 218.259 261.606 219.835 263.591C221.607 265.817 223.36 268.043 225.132 270.268C229.524 275.803 234.132 281.518 240.375 284.706C246.638 287.895 254.752 289.419 259.636 284.305C261.743 282.099 262.019 280.475 262.137 279.252C262.433 276.284 261.566 274.379 261.271 273.677C257.096 264.213 244.885 263.691 242.502 253.605C241.203 248.13 243.192 237.081 249.238 234.996C255.087 234.695 258.514 243.578 263.398 245.704C267.474 247.469 272.457 245.824 273.599 241.473C274.21 239.187 273.087 236.159 271.866 234.134C269.463 230.123 266.135 226.794 263.122 223.225C260.424 220.037 257.45 216.949 255.875 213.079C254.299 209.208 254.476 204.175 257.568 201.388C258.711 200.345 260.345 199.683 261.822 200.125C262.551 200.345 263.181 200.826 263.772 201.328C268.735 205.679 278.897 222.122 287.641 214.823Z" fill="white" stroke="#DF0006" stroke-width="4" stroke-miterlimit="10"/>
<path d="M100.016 157.613C101.08 157.653 102.143 157.693 103.187 157.473C106.673 156.711 108.997 152.319 107.441 149.031C106.062 146.123 102.675 144.96 99.6028 144.178C96.0776 143.276 92.4736 142.453 88.8499 142.774C85.2262 143.075 81.5631 144.659 79.4756 147.687C78.8453 148.61 78.3727 149.632 78.1955 150.735C77.7819 153.402 79.318 156.189 81.6222 157.533C84.6551 159.298 86.3094 157.974 89.0862 157.453C92.5327 156.791 96.4912 157.453 100.016 157.613Z" fill="#FF7EAF" stroke="#DF0006" stroke-width="4" stroke-miterlimit="10"/>
<path d="M98.9136 189.517C95.4278 188.614 91.9025 187.712 88.3379 187.732C84.7733 187.772 81.0905 188.895 79.003 191.422C77.4668 193.287 76.9351 195.673 76.62 198.019C75.8716 203.574 76.1867 209.289 77.5062 214.823C77.6835 215.545 77.8804 216.267 78.3531 216.888C79.4165 218.292 81.5829 218.633 83.3947 218.332C85.2066 218.031 86.8215 217.229 88.5743 216.808C92.6509 215.866 97.023 217.089 101.257 217.871C105.472 218.653 110.316 218.814 113.369 216.247C114.472 215.304 115.24 214.081 115.89 212.838C118.529 207.724 121.089 200.706 115.594 196.355C110.888 192.665 104.684 191.001 98.9136 189.517Z" fill="#FF7EAF" stroke="#DF0006" stroke-width="4" stroke-miterlimit="10"/>
<path d="M78.1365 458.742C78.4122 461.389 80.3226 463.595 82.7646 464.618C86.7428 466.282 90.9967 465.179 94.7386 463.455C107.678 457.479 123.984 434.9 130.936 431.691C132.216 431.09 134.796 432.072 134.146 434.82L131.428 455.233C131.153 461.891 127.056 473.18 135.249 476.709C143.107 479.838 148.759 472.057 150.453 466.342C152.068 460.888 153.23 453.85 154.234 448.255C156.144 437.647 160.201 428.824 162.131 418.196C164.002 407.789 164.829 396.319 159.039 387.476C156.105 382.984 152.343 380.678 147.4 378.552C142.753 376.547 137.671 375.203 131.803 374.321C126.032 373.459 119.967 373.74 114.236 374.842C110.966 375.484 95.4672 379.053 90.465 392.208C84.5174 407.869 95.1521 418.858 105.157 420.482C106.614 420.723 108.13 420.863 109.233 421.886C111.419 423.931 111.006 426.518 109.903 428.623C109.647 429.105 109.292 429.526 108.918 429.907C101.159 437.868 95.3294 442.42 87.5306 446.951C81.8784 450.2 77.6245 454.01 78.1365 458.742Z" fill="white" stroke="#DF0006" stroke-width="4" stroke-miterlimit="10"/>
<path d="M121.64 408.972C118.824 408.531 115.949 408.11 113.33 406.987C110.71 405.864 108.308 403.899 107.323 401.212C105.925 397.341 108.229 392.529 112.128 391.205C113.211 390.844 114.373 390.704 115.516 390.624C122.015 390.123 128.592 390.784 134.855 392.549C136.273 392.95 137.671 393.411 138.971 394.113C141.512 395.517 143.619 398.204 143.363 401.091C143.225 402.655 142.437 404.099 141.492 405.342C139.601 407.789 136.568 410.336 133.339 410.356C129.4 410.356 125.481 409.574 121.64 408.972Z" fill="#FF7EAF" stroke="#DF0006" stroke-width="4" stroke-miterlimit="10"/>
</svg>
