<svg width="36" height="36" viewBox="0 0 36 36" fill="none" xmlns="http://www.w3.org/2000/svg">
<path d="M3.46551 12.4834C2.66879 15.0237 2.43192 18.9201 2.99178 21.525C3.83156 25.3139 5.92029 28.1557 9.21483 30.2008C11.4973 31.6001 15.4163 33.1716 18.108 33.2362C21.5748 33.3223 25.0416 32.7411 27.8624 30.739C32.7288 27.2945 33.3317 22.2354 33.5255 18.059C33.8054 11.8805 30.597 4.8625 23.3404 2.79583C17.2682 1.05207 5.46807 6.13265 3.46551 12.4834Z" fill="white" stroke="#DF0006" stroke-width="4.77" stroke-miterlimit="10"/>
<path d="M17.4195 9.06091C16.2782 9.38382 15.2231 10.0942 14.7063 11.1706C14.4049 11.838 14.3188 12.5914 14.3403 13.3234C14.3403 14.7227 14.6417 16.1867 15.5246 17.2846C16.4936 18.4901 18.0439 19.0714 19.5728 19.2221C20.391 19.3083 21.2739 19.2651 21.9845 18.8345C22.652 18.447 23.1042 17.8012 23.4702 17.1123C24.3316 15.5193 24.7622 13.6464 24.2669 11.9242C23.3841 8.82414 20.1542 8.2859 17.4195 9.06091Z" fill="#FF7EAF" fill-opacity="0.66" stroke="#DF0006" stroke-width="4.77" stroke-miterlimit="10"/>
</svg>
