<svg width="53" height="49" viewBox="0 0 53 49" fill="none" xmlns="http://www.w3.org/2000/svg">
<path d="M6.67397 11.7625C4.32688 15.2285 3.29329 19.1035 3.0349 23.2799C2.75497 27.7362 3.68088 32.3862 5.92031 36.2397C8.82725 41.2773 13.0908 44.3988 18.797 45.3675C24.5033 46.3363 29.908 46.6592 35.4635 44.9585C39.727 43.6453 44.572 40.4162 47.1774 36.7995C49.4599 33.6133 50.472 28.8557 50.4289 26.0355C50.2997 15.1639 46.4669 8.08126 36.1095 4.78749C26.0106 1.57984 13.3061 2.01037 6.67397 11.7625Z" fill="white" stroke="#DF0006" stroke-width="4.77" stroke-miterlimit="10"/>
<path d="M33.1589 15.9894C29.4983 15.3866 25.4932 15.9249 22.6508 18.3145C19.8085 20.7041 18.6026 25.1603 20.6267 28.2604C22.0264 30.4347 24.5888 31.5326 27.0866 32.2C30.0366 32.975 33.245 33.2548 36.0874 32.1784C38.9513 31.1021 41.3414 28.4325 41.3845 25.3971C41.406 21.0485 37.2932 16.6783 33.1589 15.9894Z" fill="#FF7EAF" fill-opacity="0.66" stroke="#DF0006" stroke-width="4.77" stroke-miterlimit="10"/>
<path d="M30.7247 22.5988C30.2079 22.4912 29.7557 23.0509 29.7342 23.5676C29.6696 24.5363 30.5955 25.3543 31.5429 25.4835C32.0812 25.5481 32.7057 25.4405 33.0287 24.9884C33.4378 24.4286 33.1579 23.5676 32.5981 23.1585C32.0382 22.7495 31.4138 22.5127 30.7247 22.5988Z" fill="white" stroke="#DF0006" stroke-width="4.77" stroke-miterlimit="10"/>
</svg>
