<svg width="110" height="99" viewBox="0 0 110 99" fill="none" xmlns="http://www.w3.org/2000/svg">
<path d="M69.6343 4.96217C51.3528 -0.247584 30.595 4.42394 16.2541 16.9101C12.9811 19.7733 9.98801 23.0241 7.81318 26.7915C4.84163 31.9151 3.46353 37.8353 2.90367 43.7339C1.99929 53.1201 3.16201 62.8938 7.61933 71.2036C16.6201 87.9307 37.0549 95.2933 56.047 96.1114C66.2967 96.5419 77.02 95.3578 85.7624 89.9974C93.6435 85.1751 99.3282 77.2745 102.687 68.6633C108.049 54.907 109.836 41.3443 101.589 28.772C94.1818 17.4268 82.7048 8.6865 69.6343 4.96217Z" fill="white" stroke="#DF0006" stroke-width="4.77" stroke-miterlimit="10"/>
<path d="M46.3775 29.9997C40.5206 29.4615 34.7282 31.5713 30.0986 35.5539C25.792 39.2567 23.5095 43.4977 23.3803 49.504C23.3373 51.9151 23.488 54.3478 24.134 56.6512C25.7705 62.5499 30.4647 66.963 35.6326 69.3526C41.468 72.0436 48.2294 72.5173 54.1509 70.1277C60.094 67.7166 65.0682 62.3346 66.8769 55.6825C71.1835 39.7733 58.8236 31.1407 46.3775 29.9997Z" fill="#FF7EAF" fill-opacity="0.66" stroke="#DF0006" stroke-width="4.77" stroke-miterlimit="10"/>
<path d="M43.9887 45.198C42.2014 44.4661 39.8543 44.8105 38.2178 46.4897C37.0766 47.6737 36.9259 49.2883 37.0766 51.0751C37.1197 51.6779 37.5287 52.7113 37.8302 53.1849C38.0455 53.5509 38.8207 54.0029 39.1437 54.1967C40.8879 55.2731 42.6967 55.7252 44.6562 55.6176C46.6157 55.51 48.6182 53.7015 48.7044 51.2258C48.769 49.5682 47.9507 48.0182 46.8956 47.0494C45.8405 46.1022 45.2376 45.6932 43.9887 45.198Z" fill="#FF7EAF" fill-opacity="0.66" stroke="#DF0006" stroke-width="4.77" stroke-miterlimit="10"/>
</svg>
