<svg width="70" height="65" viewBox="0 0 70 65" fill="none" xmlns="http://www.w3.org/2000/svg">
<path d="M66.9175 34.0806C66.1423 29.7535 64.6135 24.6514 61.8788 20.9486C59.2948 17.4396 56.431 14.0812 53.0288 11.2395C42.5207 2.47769 26.4787 -0.0195406 15.2815 6.13744C4.08441 12.2944 -0.60982 27.1056 5.6778 38.7737C8.97234 44.8661 14.6355 49.6454 20.5786 53.6495C26.9954 57.9982 34.2736 62.7988 41.8316 62.4113C58.0244 61.5717 69.4153 48.0738 66.9175 34.0806Z" fill="white" stroke="#DF0006" stroke-width="4.77" stroke-miterlimit="10"/>
<path d="M20.3009 31.7771C18.1692 35.1355 18.7075 39.764 20.9038 43.4238C23.1002 47.0835 26.7393 49.9037 30.6152 52.0134C31.9287 52.7238 33.3283 53.3911 34.8141 53.5633C37.355 53.8432 41.1879 53.7786 43.0828 52.3793C61.795 38.7306 28.828 18.3006 20.3009 31.7771Z" fill="#FF7EAF" fill-opacity="0.66" stroke="#DF0006" stroke-width="4.77" stroke-miterlimit="10"/>
<path d="M37.8057 40.5826C37.9995 38.3652 34.382 36.6429 32.5732 37.9345C30.7644 39.2478 31.4319 42.477 33.6283 43.5534C35.8247 44.6298 37.5473 44.5006 37.9565 42.3693C38.0857 42.1325 38.021 41.6805 37.8057 40.5826Z" fill="#DF0006" stroke="#DF0006" stroke-width="4.77" stroke-miterlimit="10"/>
</svg>
