<svg width="37" height="36" viewBox="0 0 37 36" fill="none" xmlns="http://www.w3.org/2000/svg">
<path d="M15.8433 2.95413C10.8477 3.29858 7.38083 6.63539 5.72279 8.72359C3.3111 11.7806 2.579 16.1722 3.11733 20.0257C3.48339 22.6952 5.07681 24.9987 6.73485 27.1299C8.86661 29.864 11.1275 30.7682 14.3144 32.1244C18.1473 33.7821 24.5857 33.5884 27.9233 31.0911C32.8758 27.3883 36.2566 18.6695 32.7682 12.2327C29.7752 6.67845 25.1025 2.30829 15.8433 2.95413Z" fill="white" stroke="#DF0006" stroke-width="4.77" stroke-miterlimit="10"/>
<path d="M19.7409 14.7299C18.5566 14.6868 17.3292 15.0528 16.5325 15.9354C16.0372 16.4736 15.7358 17.1841 15.5204 17.873C15.1113 19.2077 14.9606 20.6931 15.4774 22.0063C16.0372 23.4487 17.3508 24.482 18.7719 25.0632C19.5256 25.3861 20.3869 25.6015 21.1836 25.4293C21.9373 25.2571 22.5617 24.7619 23.1216 24.2237C24.4135 22.9751 25.4041 21.2959 25.4256 19.5091C25.4902 16.3015 22.5618 14.816 19.7409 14.7299Z" fill="#FF7EAF" fill-opacity="0.66" stroke="#DF0006" stroke-width="4.77" stroke-miterlimit="10"/>
</svg>
