<svg width="43" height="41" viewBox="0 0 43 41" fill="none" xmlns="http://www.w3.org/2000/svg">
<path d="M14.5978 4.96562C9.58061 7.11841 5.31712 11.1872 3.52989 16.3324C1.74265 21.4776 2.66856 27.613 6.3507 31.6387C8.3102 33.77 10.8941 35.2339 13.5857 36.2242C15.7821 37.0422 18.1077 37.5804 20.4548 37.6665C28.2066 37.9679 35.8939 32.9951 38.7578 25.8047C41.1264 19.863 40.2005 10.4338 35.334 5.71918C30.4891 1.04762 20.1318 2.59755 14.5978 4.96562Z" fill="white" stroke="#DF0006" stroke-width="4.77" stroke-miterlimit="10"/>
<path d="M13.9528 17.6021C12.9193 21.4987 15.1587 26.1486 19.1423 27.3111C20.3266 27.6556 21.5755 27.6986 22.8244 27.7201C24.0948 27.7632 25.3868 27.7848 26.5711 27.3542C28.0569 26.816 29.1981 25.5674 29.8226 24.1466C31.5452 20.3146 30.8562 12.909 26.2051 11.1867C21.2094 9.3138 15.2448 12.7799 13.9528 17.6021Z" fill="#FF7EAF" fill-opacity="0.66" stroke="#DF0006" stroke-width="4.77" stroke-miterlimit="10"/>
<path d="M22.4581 17.8829C21.7475 17.4093 20.6709 18.1413 20.7571 18.9809C20.8432 19.8205 21.9198 20.3587 22.695 20.0143C23.3195 19.7344 23.7071 18.9594 23.4917 18.3135C23.2764 17.6677 22.4151 17.3017 21.8122 17.6462" fill="white"/>
<path d="M22.4581 17.8829C21.7475 17.4093 20.6709 18.1413 20.7571 18.9809C20.8432 19.8205 21.9198 20.3587 22.695 20.0143C23.3195 19.7344 23.7071 18.9594 23.4917 18.3135C23.2764 17.6677 22.4151 17.3017 21.8122 17.6462" stroke="#DF0006" stroke-width="4.77" stroke-miterlimit="10"/>
</svg>
