<svg width="53" height="49" viewBox="0 0 53 49" fill="none" xmlns="http://www.w3.org/2000/svg">
<path d="M6.48396 11.5479C4.13687 15.0139 3.10335 18.8889 2.84496 23.0653C2.56503 27.5216 3.49094 32.1717 5.73036 36.0252C8.63731 41.0627 12.9008 44.1842 18.607 45.153C24.3348 46.1217 29.718 46.4446 35.2735 44.7439C39.537 43.4307 44.3819 40.2015 46.9874 36.5848C49.2699 33.3986 50.282 28.641 50.2389 25.8208C50.1097 14.9492 46.2769 7.86656 35.9196 4.5728C25.8206 1.36514 13.0946 1.79581 6.48396 11.5479Z" fill="white" stroke="#DF0006" stroke-width="4.77" stroke-miterlimit="10"/>
<path d="M32.9722 15.2933C29.3116 14.6905 25.3064 15.2286 22.4641 17.6182C19.6217 19.9863 18.4159 24.4641 20.44 27.5641C21.8396 29.7384 24.402 30.8364 26.8998 31.5037C29.8499 32.2787 33.0583 32.5586 35.9007 31.4822C38.7646 30.4058 41.1546 27.7364 41.1977 24.701C41.2192 20.3308 37.0849 15.9822 32.9722 15.2933Z" fill="#FF7EAF" fill-opacity="0.66" stroke="#DF0006" stroke-width="4.77" stroke-miterlimit="10"/>
<path d="M30.5381 21.8811C30.0213 21.7735 29.5692 22.3332 29.5476 22.8499C29.483 23.8186 30.4089 24.6366 31.3564 24.7658C31.8947 24.8304 32.5192 24.7228 32.8422 24.2707C33.2513 23.711 32.9713 22.8499 32.4115 22.4409C31.8301 22.0534 31.2272 21.8165 30.5381 21.8811Z" fill="white" stroke="#DF0006" stroke-width="4.77" stroke-miterlimit="10"/>
</svg>
