<svg width="37" height="36" viewBox="0 0 37 36" fill="none" xmlns="http://www.w3.org/2000/svg">
<path d="M11.8279 4.37172C7.17681 6.2016 4.85127 10.3995 3.90382 12.8967C2.52571 16.5349 3.12864 20.9481 4.78668 24.4572C5.92792 26.8898 8.14581 28.6121 10.3637 30.1406C13.2276 32.0996 15.6392 32.2933 19.0845 32.6593C23.2404 33.0898 29.3127 31.0017 31.7675 27.6218C35.385 22.6058 36.0094 13.2842 30.7554 8.18207C26.2335 3.74733 20.4626 0.991843 11.8279 4.37172Z" fill="white" stroke="#DF0006" stroke-width="4.77" stroke-miterlimit="10"/>
<path d="M19.0629 14.447C17.9216 14.7699 16.8665 15.4803 16.3497 16.5567C16.0482 17.224 15.9621 17.9775 15.9836 18.7095C15.9836 20.1088 16.2851 21.5727 17.1679 22.6707C18.1369 23.8762 19.6873 24.4574 21.2162 24.6081C22.0344 24.6942 22.9172 24.6512 23.6278 24.2206C24.2954 23.8331 24.7476 23.1873 25.1136 22.4984C25.9749 20.9053 26.4056 19.0323 25.9103 17.3101C25.0275 14.2101 21.776 13.672 19.0629 14.447Z" fill="#FF7EAF" fill-opacity="0.66" stroke="#DF0006" stroke-width="4.77" stroke-miterlimit="10"/>
</svg>
