<svg width="71" height="63" viewBox="0 0 71 63" fill="none" xmlns="http://www.w3.org/2000/svg">
<path d="M50.2496 5.04739C41.335 2.01195 31.3222 1.7966 22.5367 5.24107C13.7728 8.68553 6.38705 15.962 3.58777 24.9607C0.788484 33.9594 2.89869 44.508 9.55237 51.2032C12.0933 53.765 15.194 55.7455 18.5101 57.2094C32.3342 63.3664 49.819 60.0081 60.3701 49.1796C62.5019 47.0053 64.3752 44.5296 65.4519 41.6879C71.3088 26.5107 65.6887 10.3217 50.2496 5.04739Z" fill="white" stroke="#DF0006" stroke-width="4.77" stroke-miterlimit="10"/>
<path d="M16.8099 24.5948C15.5395 28.6851 16.853 33.4642 20.0399 36.3274C21.2027 37.3822 22.5808 38.1573 24.0235 38.8031C26.8012 40.0733 29.902 40.8052 32.9382 40.4393C35.9743 40.0733 38.9458 38.5233 40.6039 35.9614C41.7667 34.1746 42.2188 32.0434 42.5849 29.9552C43.6615 23.7121 41.8312 16.2634 34.4454 15.4239C27.5764 14.6489 19.0494 17.4475 16.8099 24.5948Z" fill="#FF7EAF" fill-opacity="0.66" stroke="#DF0006" stroke-width="4.77" stroke-miterlimit="10"/>
<path d="M28.2868 24.3566C27.77 24.4858 27.5331 24.658 27.2747 24.8948C26.7149 25.7129 27.124 26.9185 27.9207 27.4997C28.7174 28.081 29.7725 28.1886 30.763 28.1456C31.2798 28.124 31.7966 28.0379 32.2057 27.7365C33.1962 27.0046 32.8948 25.2824 31.8612 24.5935C30.8492 23.9046 29.4711 24.0122 28.2868 24.3566Z" fill="white" stroke="#DF0006" stroke-width="4.77" stroke-miterlimit="10"/>
</svg>
