<svg width="55" height="55" viewBox="0 0 55 55" fill="none" xmlns="http://www.w3.org/2000/svg">
<path d="M37.3019 4.49744C29.1624 0.96686 19.2788 2.40923 12.3452 8.13566C5.39002 13.8621 1.64334 23.6572 2.84919 32.9142C3.19371 35.6267 3.94735 38.2962 5.26086 40.6427C7.37109 44.4101 10.8163 47.1441 14.4985 49.0816C22.6594 53.3872 32.78 53.9901 40.8333 49.4477C58.6626 39.3726 55.045 12.1829 37.3019 4.49744Z" fill="white" stroke="#DF0006" stroke-width="4.77" stroke-miterlimit="10"/>
<path d="M25.2428 20.3634C23.1541 22.387 22.1205 25.4871 22.6804 28.3288C23.2402 31.1704 25.458 33.6676 28.2573 34.4642C29.3986 34.7871 30.6045 34.8516 31.8103 34.8516C33.4038 34.8516 35.0187 34.744 36.526 34.2058C38.0333 33.6676 39.4114 32.6558 40.1436 31.235C40.8326 29.8572 41.3278 28.8023 41.3278 27.2738C41.3278 26.5418 41.457 21.9995 38.5931 19.8468C36.569 18.3183 35.0187 18.1029 32.4347 17.7154C29.9369 17.3064 26.9654 18.6842 25.2428 20.3634Z" fill="#FF7EAF" fill-opacity="0.66" stroke="#DF0006" stroke-width="4.77" stroke-miterlimit="10"/>
<path d="M34.3522 24.7985C33.6416 23.8943 32.242 24.1956 31.5529 24.9706C30.8639 25.7241 30.8854 27.0589 31.639 27.7693C31.962 28.0707 32.3927 28.2859 32.8448 28.2429C33.5985 28.1783 34.3738 27.554 34.6752 26.8651C34.9121 26.2838 35.0843 25.4658 34.3522 24.7985Z" fill="#FF7EAF" fill-opacity="0.66" stroke="#DF0006" stroke-width="4.77" stroke-miterlimit="10"/>
</svg>
