<svg width="56" height="56" viewBox="0 0 56 56" fill="none" xmlns="http://www.w3.org/2000/svg">
<path d="M37.8541 4.84026C29.7147 1.30969 19.8311 2.75206 12.8975 8.47848C5.94232 14.2049 2.19558 24 3.40143 33.257C3.74596 35.9695 4.4996 38.639 5.81311 40.9856C7.92334 44.7529 11.3686 47.4869 15.0508 49.4245C23.2117 53.73 33.3323 54.3329 41.3856 49.7905C59.2149 39.737 55.5973 12.5257 37.8541 4.84026Z" fill="white" stroke="#DF0006" stroke-width="4.77" stroke-miterlimit="10"/>
<path d="M25.7948 20.7056C23.7061 22.7292 22.6725 25.8292 23.2324 28.6708C23.7922 31.5125 26.0101 34.0098 28.8094 34.8064C29.9506 35.1293 31.1565 35.1939 32.3624 35.1939C33.9558 35.1939 35.5708 35.0863 37.0781 34.5481C38.5854 34.0099 39.9635 32.998 40.6956 31.5772C41.3847 30.1994 41.8799 29.1445 41.8799 27.616C41.8799 26.8841 42.0091 22.3418 39.1453 20.189C37.1212 18.6605 35.5708 18.4451 32.9868 18.0576C30.5105 17.6701 27.539 19.0264 25.7948 20.7056Z" fill="#FF7EAF" fill-opacity="0.66" stroke="#DF0006" stroke-width="4.77" stroke-miterlimit="10"/>
<path d="M34.9233 25.1622C34.2127 24.2581 32.813 24.5594 32.1239 25.3344C31.4349 26.0878 31.4564 27.4225 32.2101 28.133C32.5331 28.4344 32.9637 28.6497 33.4159 28.6066C34.1696 28.5421 34.9448 27.9177 35.2462 27.2288C35.4831 26.6476 35.6554 25.8081 34.9233 25.1622Z" fill="#FF7EAF" fill-opacity="0.66" stroke="#DF0006" stroke-width="4.77" stroke-miterlimit="10"/>
</svg>
