<svg width="41" height="40" viewBox="0 0 41 40" fill="none" xmlns="http://www.w3.org/2000/svg">
<path d="M3.70458 13.8417C2.8002 16.7264 2.52027 21.1826 3.16626 24.1535C4.11371 28.4806 6.50397 31.7314 10.2722 34.0348C12.8777 35.6279 17.335 37.4147 20.4142 37.5008C24.3762 37.5869 28.3169 36.9411 31.5468 34.6591C37.1023 30.7195 37.7914 24.9501 38.0067 20.1924C38.3297 13.1528 34.669 5.14437 26.3788 2.79783C19.4452 0.817265 5.98707 6.60828 3.70458 13.8417Z" fill="white" stroke="#DF0006" stroke-width="4.77" stroke-miterlimit="10"/>
<path d="M19.6175 9.94554C18.3256 10.3115 17.0982 11.1295 16.5384 12.3351C16.1723 13.0886 16.1077 13.9497 16.1077 14.7893C16.1292 16.3824 16.4522 18.0615 17.4643 19.2886C18.5624 20.6448 20.3497 21.3338 22.0939 21.506C23.0413 21.5921 24.0318 21.549 24.85 21.0754C25.6037 20.6449 26.1206 19.8915 26.5512 19.1164C27.5202 17.3081 28.037 15.1553 27.4556 13.1963C26.422 9.68722 22.7183 9.06289 19.6175 9.94554Z" fill="#FF7EAF" fill-opacity="0.66" stroke="#DF0006" stroke-width="4.77" stroke-miterlimit="10"/>
</svg>
