<svg width="103" height="100" viewBox="0 0 103 100" fill="none" xmlns="http://www.w3.org/2000/svg">
<path d="M74.479 92.9917C78.118 91.6354 83.5444 88.8799 86.5374 86.4473C94.4616 80.0319 99.4788 70.0645 99.9525 59.9464C100.383 50.8616 99.0266 41.7122 95.9689 33.1226C94.3324 28.5156 92.1791 24.0378 88.9922 20.3135C85.6331 16.3954 81.2619 13.4677 76.7184 10.9704C69.4188 6.94472 61.4731 3.88775 53.1614 3.02664C33.4803 1.02454 13.2178 12.994 5.68125 31.0774C-1.63995 48.6873 3.98015 70.4735 17.6536 83.7347C32.4036 98.0508 56.2406 99.773 74.479 92.9917Z" fill="white" stroke="#DF0006" stroke-width="4.77" stroke-miterlimit="10"/>
<path d="M48.0149 54.4568C46.2707 59.9895 47.6058 66.2542 51.1803 71.098C54.7547 75.9417 57.7262 78.5896 63.8416 80.0751C66.5978 80.7424 72.7347 81.2376 76.2446 79.989C81.5417 78.073 83.6089 74.6931 85.2884 69.7632C93.9016 44.6832 55.9821 29.0969 48.0149 54.4568Z" fill="#FF7EAF" fill-opacity="0.66" stroke="#DF0006" stroke-width="4.77" stroke-miterlimit="10"/>
<path d="M70.3896 56.5453C69.8943 56.3946 69.3775 56.287 68.8607 56.4377C68.2794 56.6315 67.7841 57.1697 67.4826 57.7724C67.1596 58.3752 67.0089 59.0641 66.8366 59.7314C66.7505 60.1189 66.6429 60.5064 66.6644 60.8939C66.6859 61.3675 66.9013 61.7981 67.1381 62.1856C68.0856 63.6926 69.7005 64.5967 71.3801 64.5536C71.66 64.5536 71.9615 64.5107 72.2414 64.3815C72.9951 64.0155 73.318 63.0036 73.5549 62.121C73.6841 61.6474 73.8133 61.1738 73.7487 60.7002C73.7056 60.3988 73.598 60.1189 73.4688 59.8606C72.7797 58.3967 71.8753 56.9974 70.3896 56.5453Z" fill="#FF7EAF" fill-opacity="0.66" stroke="#DF0006" stroke-width="4.77" stroke-miterlimit="10"/>
</svg>
