<svg width="65" height="64" viewBox="0 0 65 64" fill="none" xmlns="http://www.w3.org/2000/svg">
<path d="M61.8125 31.9781C61.2742 27.7801 60.0684 22.8287 57.6997 19.3197C55.4603 16.0044 52.9625 12.8182 49.9479 10.1703C40.6241 2.01122 25.9817 0.202772 15.4306 6.7042C4.87941 13.1841 -0.0516415 27.8877 5.267 39.0607C8.04475 44.8948 13.0619 49.351 18.359 53.0323C24.0868 57.015 30.5897 61.4282 37.5449 60.7393C52.5103 59.2539 63.5136 45.5622 61.8125 31.9781Z" fill="white" stroke="#DF0006" stroke-width="4.77" stroke-miterlimit="10"/>
<path d="M19.0056 31.6116C16.9169 34.9915 17.2184 39.4909 19.0917 43C20.9651 46.509 24.195 49.1138 27.6833 51.0298C28.8677 51.6757 30.1381 52.2784 31.4732 52.3645C33.7987 52.5368 37.3086 52.3215 39.1389 50.8791C56.9036 36.7353 27.4034 18.0706 19.0056 31.6116Z" fill="#FF7EAF" fill-opacity="0.66" stroke="#DF0006" stroke-width="4.77" stroke-miterlimit="10"/>
<path d="M34.7464 39.5339C35.0048 37.3596 31.7533 35.8096 30.0307 37.1659C28.3081 38.5222 28.8033 41.6652 30.7628 42.6339C32.7223 43.6027 34.3373 43.409 34.7895 41.2992C34.9617 41.0194 34.9187 40.5888 34.7464 39.5339Z" fill="#DF0006" stroke="#DF0006" stroke-width="4.77" stroke-miterlimit="10"/>
</svg>
