<svg width="73" height="70" viewBox="0 0 73 70" fill="none" xmlns="http://www.w3.org/2000/svg">
<path d="M22.4985 5.46885C12.8517 9.9036 5.61667 19.2037 3.6787 29.6448C3.01118 33.2615 2.94656 36.9857 3.72175 40.5809C5.16445 47.3837 9.47105 53.3255 14.8328 57.7602C24.2642 65.5748 37.55 68.9977 49.2209 65.3164C60.8917 61.6351 70.1293 50.3331 70.0647 38.1052C69.9355 13.9079 45.1511 -4.95065 22.4985 5.46885Z" fill="white" stroke="#DF0006" stroke-width="4.77" stroke-miterlimit="10"/>
<path d="M23.6625 27.6425C22.8658 29.9029 22.7797 33.412 23.7487 35.6078C24.5454 37.4162 25.4713 39.16 28.6366 40.7315C33.9122 43.3364 40.3505 43.6162 45.863 41.528C51.3754 39.4398 54.9929 35.8016 55.5959 29.946C55.7896 28.0085 55.6605 25.0592 54.5408 23.0356C53.4426 21.0551 51.4185 19.0744 49.2652 17.5675C39.8337 10.9799 27.7538 15.9313 23.6625 27.6425Z" fill="#FF7EAF" fill-opacity="0.66" stroke="#DF0006" stroke-width="4.77" stroke-miterlimit="10"/>
<path d="M36.8635 27.2978C35.55 28.7832 35.1409 30.6562 36.7128 31.5173C38.2847 32.3784 40.3949 31.4312 41.2993 29.8811C42.2037 28.3311 42.4836 27.0179 41.1701 25.9415C38.6507 25.1019 36.9281 26.7165 36.8635 27.2978Z" fill="#DF0006" stroke="#DF0006" stroke-width="4.77" stroke-miterlimit="10"/>
</svg>
