<svg width="67" height="63" viewBox="0 0 67 63" fill="none" xmlns="http://www.w3.org/2000/svg">
<path d="M58.9252 49.2284C63.3609 43.3298 66.2248 30.4776 63.3609 21.7803C61.5306 16.2692 59.0113 10.7149 54.1879 7.46423C48.4386 3.56768 41.0959 3.11557 34.1623 3.1371C30.3294 3.1371 27.0349 3.56769 22.8145 4.51491C13.1031 6.68923 6.68621 16.8934 5.76029 18.6157C0.054062 29.3366 4.57599 44.2339 7.11688 48.4103C9.6147 52.5222 18.0772 58.2916 23.848 59.2604C34.7222 61.0687 49.4291 61.8653 58.9252 49.2284Z" fill="white" stroke="#DF0006" stroke-width="4.77" stroke-miterlimit="10"/>
<path d="M47.4481 26.2587C46.6084 24.1705 44.8642 22.5775 42.9908 21.3504C39.5455 19.1115 35.3897 17.8414 31.2984 18.2719C27.2072 18.7025 23.2451 20.8553 21.0487 24.3428C18.8524 27.8088 18.637 32.5449 20.8333 36.0109C22.9651 39.3477 26.8842 41.113 30.7601 42.0171C33.5809 42.6845 36.5739 42.9644 39.3086 42.0387C45.4886 39.8859 50.0106 32.5879 47.4481 26.2587Z" fill="#FF7EAF" fill-opacity="0.66" stroke="#DF0006" stroke-width="4.77" stroke-miterlimit="10"/>
<path d="M34.1176 28.1526C33.7515 27.9804 33.0839 27.8082 32.6532 27.7651C31.5766 27.679 30.5646 28.0665 29.8755 28.9707C29.3157 29.7242 29.4233 30.8866 29.9832 31.6401C30.543 32.3936 31.4475 32.7811 32.3519 32.8457C32.9548 32.8887 33.6008 32.8027 34.096 32.4152C34.742 31.877 35.0435 31.4679 35.1727 30.6068C35.3019 29.6596 35.0219 29.1644 34.8281 28.9491C34.6343 28.7123 34.5052 28.3248 34.1176 28.1526Z" fill="#DF0006" stroke="#DF0006" stroke-width="4.77" stroke-miterlimit="10"/>
</svg>
