<svg width="86" height="77" viewBox="0 0 86 77" fill="none" xmlns="http://www.w3.org/2000/svg">
<path d="M18.0414 10.659C5.81072 19.5285 -0.670697 36.5141 4.64794 50.6579C7.98555 59.5059 15.4359 66.4809 24.1352 70.2053C32.8346 73.9296 42.6321 74.5538 51.9774 73.0899C61.538 71.583 71.2493 67.5143 76.8264 59.592C83.0494 50.7656 85.3749 37.2675 78.8074 22.241C75.0606 13.6729 66.8351 5.83687 56.1548 4.05005C43.7733 2.02643 27.6882 3.66243 18.0414 10.659Z" fill="white" stroke="#DF0006" stroke-width="4.77" stroke-miterlimit="10"/>
<path d="M56.9942 52.7027C63.6048 47.9881 64.9397 37.8914 60.9346 30.8303C56.951 23.7691 48.7685 19.2698 40.6506 19.2698C36.7962 19.2698 30.6377 22.0254 27.3647 26.0512C24.91 29.0866 23.1874 32.8539 23.0151 36.7505C22.6706 44.9526 29.6903 51.6909 37.0976 53.9083C43.0192 55.6736 51.8047 56.384 56.9942 52.7027Z" fill="#FF7EAF" fill-opacity="0.66" stroke="#DF0006" stroke-width="4.77" stroke-miterlimit="10"/>
<path d="M44.0304 31.5405C42.8461 31.1745 41.4465 31.5836 40.6497 32.5309C39.853 33.4781 39.6808 34.9204 40.2622 36.0184C41.8341 36.8149 43.9442 36.9226 45.1932 35.6524C46.4205 34.4038 45.7961 31.6912 44.0304 31.6481" fill="#DF0006"/>
<path d="M44.0304 31.5405C42.8461 31.1745 41.4465 31.5836 40.6497 32.5309C39.853 33.4781 39.6808 34.9204 40.2622 36.0184C41.8341 36.8149 43.9442 36.9226 45.1932 35.6524C46.4205 34.4038 45.7961 31.6912 44.0304 31.6481" stroke="#DF0006" stroke-width="4.77" stroke-miterlimit="10"/>
</svg>
