<svg width="80" height="73" viewBox="0 0 80 73" fill="none" xmlns="http://www.w3.org/2000/svg">
<path d="M51.7235 3.75735C43.3903 2.27192 34.7341 4.31703 27.1329 8.01983C18.5628 12.2178 10.9186 18.7407 6.67663 27.2873C2.45617 35.8339 2.02551 46.4902 6.80582 54.7569C10.3157 60.8278 16.3233 65.2195 22.9124 67.6306C29.5015 70.0417 36.6505 70.6014 43.6702 70.2569C47.1155 70.0847 50.5823 69.6973 53.8984 68.7501C63.6528 65.9945 71.8569 58.309 75.2375 48.7506C81.3314 31.5713 70.5864 7.1157 51.7235 3.75735Z" fill="white" stroke="#DF0006" stroke-width="4.77" stroke-miterlimit="10"/>
<path d="M31.1604 49.9768C35.0363 51.1824 39.3859 50.7949 42.9604 48.8789C44.5539 48.0393 46.0181 46.8983 46.944 45.3698C47.9561 43.7122 48.3006 41.7317 48.6021 39.8157C48.9682 37.4692 49.2911 35.058 48.6236 32.7761C47.9345 30.3434 46.1688 28.3413 44.1878 26.7913C41.3239 24.5523 37.7495 23.0454 34.132 23.3468C29.9115 23.6913 26.1217 26.5114 23.9899 30.1927C22.1165 33.4434 20.3939 39.1698 22.1165 42.7004C23.7961 46.1018 27.629 48.8574 31.1604 49.9768Z" fill="#FF7EAF" fill-opacity="0.66" stroke="#DF0006" stroke-width="4.77" stroke-miterlimit="10"/>
<path d="M34.3272 32.324C30.8389 32.8191 29.4823 37.0171 31.7217 38.933C33.229 39.9879 34.4564 40.1817 36.0283 39.256C37.6002 38.3303 38.4616 36.2205 37.8371 34.4983C37.1911 32.7761 34.9947 31.7642 33.3582 32.5823" stroke="#DF0006" stroke-width="4.77" stroke-miterlimit="10"/>
</svg>
