<svg width="64" height="59" viewBox="0 0 64 59" fill="none" xmlns="http://www.w3.org/2000/svg">
<path d="M41.5646 3.11973C34.9755 1.95723 28.1279 3.55031 22.1202 6.49963C15.3374 9.81493 9.28665 14.9817 5.94904 21.7414C2.61143 28.5012 2.26688 36.94 6.05668 43.463C8.83443 48.2637 13.5932 51.7513 18.8042 53.6458C24.0152 55.5402 29.6783 56.0138 35.2123 55.7339C37.947 55.6048 40.6817 55.2819 43.3087 54.5499C51.0175 52.3756 57.5204 46.2831 60.1905 38.7268C65.0139 25.0997 56.5084 5.76767 41.5646 3.11973Z" fill="white" stroke="#DF0006" stroke-width="4.77" stroke-miterlimit="10"/>
<path d="M25.3078 39.675C28.3654 40.6222 31.8106 40.3209 34.653 38.8139C35.9019 38.1466 37.0647 37.2423 37.8184 36.0367C38.6366 34.7235 38.895 33.152 39.1319 31.6451C39.4118 29.7937 39.6702 27.8778 39.1534 26.0694C38.5936 24.1535 37.2154 22.5604 35.6435 21.3333C33.3826 19.568 30.5618 18.3839 27.6979 18.5992C24.3603 18.879 21.3456 21.118 19.6876 24.0027C18.2018 26.5645 16.8452 31.1069 18.2018 33.9055C19.4938 36.5965 22.5085 38.7923 25.3078 39.675Z" fill="#FF7EAF" fill-opacity="0.66" stroke="#DF0006" stroke-width="4.77" stroke-miterlimit="10"/>
<path d="M27.8038 25.7023C25.0475 26.0898 23.9708 29.4266 25.7365 30.9336C26.9209 31.7516 27.8899 31.9239 29.1388 31.1919C30.3877 30.46 31.0768 28.8023 30.56 27.4245C30.0432 26.0683 28.299 25.2718 27.0071 25.9177" stroke="#DF0006" stroke-width="4.77" stroke-miterlimit="10"/>
</svg>
