<svg width="288" height="289" viewBox="0 0 288 289" fill="none" xmlns="http://www.w3.org/2000/svg">
<path d="M143.97 286.18C222.08 286.18 285.4 222.829 285.4 144.682C285.4 66.5353 222.08 3.18457 143.97 3.18457C65.8608 3.18457 2.54053 66.5353 2.54053 144.682C2.54053 222.829 65.8608 286.18 143.97 286.18Z" fill="white" stroke="#DF0006" stroke-width="4.76691" stroke-miterlimit="10"/>
<path d="M140.251 211.078C179.252 211.078 210.869 180.356 210.869 142.458C210.869 104.56 179.252 73.8373 140.251 73.8373C101.249 73.8373 69.6318 104.56 69.6318 142.458C69.6318 180.356 101.249 211.078 140.251 211.078Z" fill="#FF7EAF" stroke="#DF0006" stroke-width="4.76691" stroke-miterlimit="10"/>
<path d="M124.75 38.7136C123.446 41.1094 121.608 43.2484 119.32 44.7243C116.712 46.4142 113.59 47.227 110.982 48.8955C108.373 50.5853 106.192 53.7083 107.155 56.6816" stroke="#DF0006" stroke-width="4.76691" stroke-miterlimit="10"/>
<path d="M193.295 84.1468C193.83 80.2751 194.471 76.1895 196.908 73.1307C197.486 72.4034 198.148 71.7403 198.576 70.9275C200.265 67.6334 197.357 63.997 196.374 60.4248C195.177 56.0825 195.198 48.8953 195.326 44.3606C195.476 39.291 198.94 35.0771 200.415 30.2429C201.847 25.5156 202.553 20.553 202.467 15.5904" stroke="#DF0006" stroke-width="4.76691" stroke-miterlimit="10"/>
<path d="M195.113 42.9917C193.466 44.0184 191.799 45.0024 190.11 45.9436C188.763 46.6922 187.416 47.4195 185.94 47.8473C183.674 48.5318 181.151 48.5746 179.227 49.965C175.635 52.596 176.255 58.3287 173.476 61.7939" stroke="#DF0006" stroke-width="4.76691" stroke-miterlimit="10"/>
<path d="M140.508 286.864C142.518 283.848 144.549 280.768 145.575 277.26C146.623 273.752 146.516 269.709 144.464 266.714C143.095 264.704 140.936 263.313 139.717 261.196C138.349 258.821 138.349 255.933 138.349 253.174C138.392 248.404 138.413 243.613 138.456 238.842C138.477 236.703 138.349 234.265 136.745 232.896C135.569 231.891 133.902 231.805 132.469 231.27C129.027 229.987 126.996 226.137 126.675 222.393C126.355 218.65 127.402 214.928 128.45 211.313" stroke="#DF0006" stroke-width="4.76691" stroke-miterlimit="10"/>
<path d="M153.143 218.8C155.388 224.211 159.108 229.602 156.051 234.778C155.666 235.441 154.34 237.26 153.421 237.345C147.285 237.923 147.541 243.506 147.285 244.34C145.831 249.131 144.911 248.319 138.519 248.019" stroke="#DF0006" stroke-width="4.76691" stroke-miterlimit="10"/>
<path d="M282.108 144.446C279.136 141.045 275.459 138.222 271.354 136.147C270.328 135.634 269.109 135.142 268.018 135.548C267.441 135.762 266.992 136.19 266.565 136.618C262.417 140.746 258.568 145.623 252.839 147.398C252.347 147.548 251.791 147.676 251.299 147.484C250.743 147.27 250.465 146.692 250.187 146.2C246.745 139.741 238.514 135.89 230.988 137.238" stroke="#DF0006" stroke-width="4.76691" stroke-miterlimit="10"/>
<path d="M240.63 160.446C241.678 159.527 242.298 158.115 242.276 156.725C242.276 155.698 241.934 154.714 241.763 153.687C241.507 152.147 241.656 150.5 242.49 149.195C243.153 148.19 244.179 147.484 245.163 146.821C246.296 146.051 247.429 145.281 248.584 144.511" stroke="#DF0006" stroke-width="4.76691" stroke-miterlimit="10"/>
<path d="M267.805 114.65C266.116 115.719 264.577 117.067 263.337 118.65C263.08 118.971 262.824 119.313 262.717 119.719C262.546 120.361 262.781 121.024 263.08 121.623C264.171 123.933 265.966 125.858 267.335 128.019C268.703 130.179 269.644 132.874 268.81 135.313" stroke="#DF0006" stroke-width="4.76691" stroke-miterlimit="10"/>
<path d="M18.3838 80.2542C20.0942 82.6499 22.5102 84.5323 25.2468 85.5804C25.7172 85.7516 26.2089 85.9227 26.7007 85.8157C27.2138 85.7088 27.5986 85.3237 28.0049 84.9815C32.2381 81.3237 38.5025 81.6018 44.0614 82.0938C44.6814 82.158 45.3656 82.2221 45.8573 82.6286C46.3063 82.9922 46.5201 83.5911 46.7339 84.1473C50.2402 93.1099 60.8448 98.6286 70.1879 96.3398" stroke="#DF0006" stroke-width="4.76691" stroke-miterlimit="10"/>
<path d="M49.8557 87.9544C51.2668 88.1683 52.8062 88.3822 54.0676 87.6977C54.7518 87.3341 55.2649 86.7352 55.8422 86.2218C60.0541 82.3287 66.4467 82.3073 72.1766 82.5212" stroke="#DF0006" stroke-width="4.76691" stroke-miterlimit="10"/>
<path d="M41.3892 240.982C42.8858 236.147 44.81 231.442 47.1618 226.971C47.5253 226.308 47.8887 225.602 48.4874 225.131C49.1502 224.575 50.0268 224.34 50.8392 224.083C57.0181 222.073 62.2348 217.26 64.7577 211.27C65.6557 209.131 66.2757 206.757 68.0289 205.238C70.2096 203.335 73.716 203.121 75.2981 200.704" stroke="#DF0006" stroke-width="4.76691" stroke-miterlimit="10"/>
<path d="M58.4724 221.089C60.3325 221.26 62.1926 221.431 64.074 221.581C64.523 221.624 64.9934 221.666 65.4423 221.538C66.1051 221.346 66.6183 220.832 67.1314 220.362C70.1246 217.624 74.2082 216.084 78.2704 216.148" stroke="#DF0006" stroke-width="4.76691" stroke-miterlimit="10"/>
<path d="M260.044 223.869C256.645 220.254 253.246 216.64 250.252 212.661C249.397 211.549 248.585 210.372 247.473 209.516C243.902 206.714 238.814 207.827 234.281 207.805C227.504 207.784 220.769 204.789 216.215 199.762" stroke="#DF0006" stroke-width="4.76691" stroke-miterlimit="10"/>
<path d="M212.024 214.008C215.787 213.495 219.892 214.928 223.291 213.217C226.263 211.72 228.145 207.998 231.459 207.698" stroke="#DF0006" stroke-width="4.76691" stroke-miterlimit="10"/>
<path d="M110.725 7.26984C111.409 9.66557 110.789 12.211 110.597 14.6923C110.404 17.1736 110.832 20.0399 112.884 21.4303C114.103 22.2645 115.642 22.4143 117.096 22.5854C122.057 23.2271 127.637 25.2164 129.24 29.9437C129.54 30.8207 129.668 31.7619 129.433 32.6603C128.962 34.3501 127.295 35.3769 126.14 36.7245C123.852 39.4197 123.81 43.2914 123.895 46.8422C123.938 48.7673 123.981 50.7352 124.494 52.5962C125.392 55.9331 127.658 58.7139 129.86 61.3877" stroke="#DF0006" stroke-width="4.76691" stroke-miterlimit="10"/>
</svg>
