<svg width="406" height="167" viewBox="0 0 406 167" fill="none" xmlns="http://www.w3.org/2000/svg">
<path d="M22.4985 13.4688C12.8517 17.9035 5.61667 27.2037 3.6787 37.6447C3.01118 41.2614 2.94656 44.9856 3.72175 48.5808C5.16445 55.3836 9.47105 61.3254 14.8328 65.7602C24.2642 73.5748 37.55 76.9976 49.2209 73.3163C60.8917 69.6351 70.1293 58.333 70.0647 46.1052C69.9355 21.9078 45.1511 3.0493 22.4985 13.4688Z" fill="white" stroke="#DF0006" stroke-width="4.77" stroke-miterlimit="10"/>
<path d="M23.6625 35.6424C22.8658 37.9029 22.7797 41.4119 23.7487 43.6078C24.5454 45.4161 25.4713 47.1599 28.6366 48.7314C33.9122 51.3363 40.3505 51.6162 45.863 49.528C51.3754 47.4398 54.9929 43.8015 55.5959 37.9459C55.7896 36.0084 55.6605 33.0592 54.5408 31.0356C53.4426 29.055 51.4185 27.0744 49.2652 25.5674C39.8337 18.9799 27.7538 23.9313 23.6625 35.6424Z" fill="#FF7EAF" fill-opacity="0.66" stroke="#DF0006" stroke-width="4.77" stroke-miterlimit="10"/>
<path d="M36.8635 35.2977C35.55 36.7831 35.1409 38.6561 36.7128 39.5172C38.2847 40.3783 40.3949 39.4311 41.2993 37.8811C42.2037 36.3311 42.4836 35.0178 41.1701 33.9414C38.6507 33.1019 36.9281 34.7165 36.8635 35.2977Z" fill="#DF0006" stroke="#DF0006" stroke-width="4.77" stroke-miterlimit="10"/>
<path d="M185.634 42.9621C167.353 37.7524 146.595 42.4239 132.254 54.9101C128.981 57.7733 125.988 61.0241 123.813 64.7914C120.842 69.9151 119.464 75.8352 118.904 81.7339C117.999 91.1201 119.162 100.894 123.619 109.204C132.62 125.931 153.055 133.293 172.047 134.111C182.297 134.542 193.02 133.358 201.762 127.997C209.643 123.175 215.328 115.274 218.687 106.663C224.049 92.9069 225.836 79.3443 217.589 66.772C210.182 55.4268 198.705 46.6864 185.634 42.9621Z" fill="white" stroke="#DF0006" stroke-width="4.77" stroke-miterlimit="10"/>
<path d="M162.378 67.9996C156.521 67.4614 150.728 69.5712 146.099 73.5539C141.792 77.2567 139.51 81.4976 139.38 87.5039C139.337 89.915 139.488 92.3477 140.134 94.6512C141.771 100.55 146.465 104.963 151.633 107.353C157.468 110.044 164.229 110.517 170.151 108.128C176.094 105.717 181.068 100.335 182.877 93.6824C187.184 77.7733 174.824 69.1406 162.378 67.9996Z" fill="#FF7EAF" fill-opacity="0.66" stroke="#DF0006" stroke-width="4.77" stroke-miterlimit="10"/>
<path d="M159.989 83.198C158.201 82.466 155.854 82.8104 154.218 84.4896C153.077 85.6736 152.926 87.2882 153.077 89.075C153.12 89.6778 153.529 90.7113 153.83 91.1849C154.046 91.5508 154.821 92.0029 155.144 92.1966C156.888 93.273 158.697 93.7252 160.656 93.6175C162.616 93.5099 164.618 91.7015 164.704 89.2258C164.769 87.5681 163.951 86.0181 162.896 85.0493C161.84 84.1021 161.238 83.6931 159.989 83.198Z" fill="#FF7EAF" fill-opacity="0.66" stroke="#DF0006" stroke-width="4.77" stroke-miterlimit="10"/>
<path d="M291.724 21.7573C283.39 20.2719 274.734 22.317 267.133 26.0198C258.563 30.2177 250.919 36.7407 246.677 45.2873C242.456 53.8338 242.026 64.4902 246.806 72.7569C250.316 78.8277 256.323 83.2194 262.912 85.6305C269.502 88.0416 276.65 88.6013 283.67 88.2569C287.115 88.0846 290.582 87.6972 293.898 86.75C303.653 83.9944 311.857 76.3089 315.238 66.7505C321.331 49.5713 310.586 25.1156 291.724 21.7573Z" fill="white" stroke="#DF0006" stroke-width="4.77" stroke-miterlimit="10"/>
<path d="M271.16 67.9768C275.036 69.1824 279.386 68.7948 282.96 66.8788C284.554 66.0393 286.018 64.8983 286.944 63.3698C287.956 61.7121 288.301 59.7317 288.602 57.8157C288.968 55.4691 289.291 53.058 288.624 50.776C287.935 48.3434 286.169 46.3412 284.188 44.7912C281.324 42.5523 277.749 41.0454 274.132 41.3468C269.912 41.6912 266.122 44.5114 263.99 48.1926C262.117 51.4434 260.394 57.1698 262.117 60.7004C263.796 64.1018 267.629 66.8573 271.16 67.9768Z" fill="#FF7EAF" fill-opacity="0.66" stroke="#DF0006" stroke-width="4.77" stroke-miterlimit="10"/>
<path d="M274.327 50.3239C270.839 50.819 269.482 55.017 271.722 56.933C273.229 57.9879 274.456 58.1817 276.028 57.256C277.6 56.3303 278.462 54.2205 277.837 52.4982C277.191 50.776 274.995 49.7642 273.358 50.5822" stroke="#DF0006" stroke-width="4.77" stroke-miterlimit="10"/>
<path d="M151.828 23.3717C147.177 25.2015 144.852 29.3994 143.904 31.8966C142.526 35.5349 143.129 39.9481 144.787 43.4571C145.928 45.8898 148.146 47.612 150.364 49.1405C153.228 51.0995 155.639 51.2933 159.085 51.6592C163.241 52.0898 169.313 50.0017 171.768 46.6218C175.385 41.6058 176.01 32.2841 170.756 27.182C166.234 22.7473 160.463 19.9918 151.828 23.3717Z" fill="white" stroke="#DF0006" stroke-width="4.77" stroke-miterlimit="10"/>
<path d="M159.063 33.4469C157.922 33.7698 156.867 34.4802 156.35 35.5566C156.048 36.224 155.962 36.9775 155.984 37.7094C155.984 39.1087 156.285 40.5727 157.168 41.6706C158.137 42.8762 159.688 43.4573 161.216 43.608C162.035 43.6941 162.917 43.6511 163.628 43.2205C164.296 42.833 164.748 42.1872 165.114 41.4983C165.975 39.9053 166.406 38.0323 165.911 36.31C165.028 33.21 161.776 32.6719 159.063 33.4469Z" fill="#FF7EAF" fill-opacity="0.66" stroke="#DF0006" stroke-width="4.77" stroke-miterlimit="10"/>
<path d="M225.813 36.978C225.274 32.7801 224.069 27.8286 221.7 24.3196C219.461 21.0043 216.963 17.8182 213.948 15.1702C204.624 7.01116 189.982 5.20272 179.431 11.7041C168.88 18.184 163.949 32.8877 169.267 44.0606C172.045 49.8947 177.062 54.351 182.359 58.0322C188.087 62.0149 194.59 66.4282 201.545 65.7393C216.511 64.2538 227.514 50.5621 225.813 36.978Z" fill="white" stroke="#DF0006" stroke-width="4.77" stroke-miterlimit="10"/>
<path d="M183.006 36.6116C180.917 39.9914 181.219 44.4909 183.092 47.9999C184.965 51.509 188.195 54.1138 191.684 56.0298C192.868 56.6756 194.138 57.2784 195.473 57.3645C197.799 57.5367 201.309 57.3214 203.139 55.8791C220.904 41.7352 191.404 23.0705 183.006 36.6116Z" fill="#FF7EAF" fill-opacity="0.66" stroke="#DF0006" stroke-width="4.77" stroke-miterlimit="10"/>
<path d="M198.747 44.5339C199.005 42.3595 195.754 40.8096 194.031 42.1658C192.308 43.5221 192.804 46.6651 194.763 47.6339C196.723 48.6026 198.338 48.4089 198.79 46.2992C198.962 46.0193 198.919 45.5887 198.747 44.5339Z" fill="#DF0006" stroke="#DF0006" stroke-width="4.77" stroke-miterlimit="10"/>
<path d="M255.25 21.0473C246.335 18.0119 236.322 17.7965 227.537 21.241C218.773 24.6855 211.387 31.962 208.588 40.9606C205.789 49.9593 207.899 60.508 214.553 67.2032C217.093 69.765 220.194 71.7455 223.51 73.2094C237.334 79.3664 254.819 76.0081 265.37 65.1795C267.502 63.0052 269.375 60.5295 270.452 57.6879C276.309 42.5107 270.689 26.3217 255.25 21.0473Z" fill="white" stroke="#DF0006" stroke-width="4.77" stroke-miterlimit="10"/>
<path d="M221.81 40.5947C220.54 44.685 221.853 49.4641 225.04 52.3273C226.203 53.3822 227.581 54.1572 229.024 54.8031C231.801 56.0732 234.902 56.8052 237.938 56.4392C240.975 56.0732 243.946 54.5232 245.604 51.9614C246.767 50.1746 247.219 48.0433 247.585 45.9551C248.662 39.712 246.831 32.2634 239.446 31.4238C232.577 30.6488 224.05 33.4474 221.81 40.5947Z" fill="#FF7EAF" fill-opacity="0.66" stroke="#DF0006" stroke-width="4.77" stroke-miterlimit="10"/>
<path d="M233.287 40.3566C232.77 40.4857 232.533 40.658 232.275 40.8948C231.715 41.7128 232.124 42.9184 232.921 43.4997C233.718 44.0809 234.773 44.1886 235.763 44.1455C236.28 44.124 236.797 44.0379 237.206 43.7365C238.196 43.0045 237.895 41.2824 236.861 40.5935C235.849 39.9046 234.471 40.0121 233.287 40.3566Z" fill="white" stroke="#DF0006" stroke-width="4.77" stroke-miterlimit="10"/>
<path d="M239.854 59.8402C231.715 56.3096 221.831 57.752 214.898 63.4784C207.943 69.2049 204.196 78.9999 205.402 88.2569C205.746 90.9694 206.5 93.639 207.813 95.9855C209.924 99.7529 213.369 102.487 217.051 104.424C225.212 108.73 235.332 109.333 243.386 104.79C261.215 94.7369 257.598 67.5257 239.854 59.8402Z" fill="white" stroke="#DF0006" stroke-width="4.77" stroke-miterlimit="10"/>
<path d="M227.795 75.7056C225.706 77.7292 224.673 80.8291 225.233 83.6708C225.792 86.5125 228.01 89.0098 230.81 89.8063C231.951 90.1292 233.157 90.1938 234.363 90.1938C235.956 90.1938 237.571 90.0862 239.078 89.548C240.586 89.0098 241.964 87.998 242.696 86.5771C243.385 85.1994 243.88 84.1444 243.88 82.6159C243.88 81.884 244.009 77.3417 241.145 75.1889C239.121 73.6604 237.571 73.4451 234.987 73.0576C232.511 72.67 229.539 74.0264 227.795 75.7056Z" fill="#FF7EAF" fill-opacity="0.66" stroke="#DF0006" stroke-width="4.77" stroke-miterlimit="10"/>
<path d="M236.924 80.1622C236.213 79.258 234.813 79.5593 234.124 80.3343C233.435 81.0878 233.457 82.4225 234.21 83.1329C234.533 83.4343 234.964 83.6496 235.416 83.6066C236.17 83.542 236.945 82.9177 237.246 82.2288C237.483 81.6475 237.656 80.808 236.924 80.1622Z" fill="#FF7EAF" fill-opacity="0.66" stroke="#DF0006" stroke-width="4.77" stroke-miterlimit="10"/>
<path d="M284.598 4.96557C279.581 7.11836 275.317 11.1872 273.53 16.3324C271.743 21.4775 272.669 27.613 276.351 31.6387C278.31 33.7699 280.894 35.2338 283.586 36.2241C285.782 37.0422 288.108 37.5803 290.455 37.6665C298.207 37.9678 305.894 32.995 308.758 25.8047C311.126 19.863 310.2 10.4337 305.334 5.71912C300.489 1.04757 290.132 2.5975 284.598 4.96557Z" fill="white" stroke="#DF0006" stroke-width="4.77" stroke-miterlimit="10"/>
<path d="M283.953 17.6021C282.919 21.4986 285.159 26.1486 289.142 27.3111C290.327 27.6555 291.575 27.6986 292.824 27.7201C294.095 27.7632 295.387 27.7847 296.571 27.3542C298.057 26.816 299.198 25.5674 299.823 24.1465C301.545 20.3146 300.856 12.9089 296.205 11.1867C291.209 9.31375 285.245 12.7798 283.953 17.6021Z" fill="#FF7EAF" fill-opacity="0.66" stroke="#DF0006" stroke-width="4.77" stroke-miterlimit="10"/>
<path d="M292.458 17.8829C291.748 17.4093 290.671 18.1412 290.757 18.9808C290.843 19.8204 291.92 20.3587 292.695 20.0142C293.319 19.7344 293.707 18.9593 293.492 18.3135C293.276 17.6676 292.415 17.3017 291.812 17.6461" fill="white"/>
<path d="M292.458 17.8829C291.748 17.4093 290.671 18.1412 290.757 18.9808C290.843 19.8204 291.92 20.3587 292.695 20.0142C293.319 19.7344 293.707 18.9593 293.492 18.3135C293.276 17.6676 292.415 17.3017 291.812 17.6461" stroke="#DF0006" stroke-width="4.77" stroke-miterlimit="10"/>
<path d="M379.925 51.2284C384.361 45.3297 387.225 32.4776 384.361 23.7803C382.531 18.2691 380.011 12.7149 375.188 9.46417C369.439 5.56762 362.096 5.11552 355.162 5.13704C351.329 5.13704 348.035 5.56763 343.814 6.51486C334.103 8.68918 327.686 18.8934 326.76 20.6156C321.054 31.3365 325.576 46.2339 328.117 50.4103C330.615 54.5221 339.077 60.2916 344.848 61.2603C355.722 63.0687 370.429 63.8652 379.925 51.2284Z" fill="white" stroke="#DF0006" stroke-width="4.77" stroke-miterlimit="10"/>
<path d="M368.448 28.2587C367.608 26.1704 365.864 24.5774 363.991 23.3504C360.546 21.1115 356.39 19.8413 352.298 20.2719C348.207 20.7024 344.245 22.8552 342.049 26.3428C339.852 29.8088 339.637 34.5449 341.833 38.0109C343.965 41.3477 347.884 43.1129 351.76 44.0171C354.581 44.6845 357.574 44.9643 360.309 44.0386C366.489 41.8859 371.011 34.5879 368.448 28.2587Z" fill="#FF7EAF" fill-opacity="0.66" stroke="#DF0006" stroke-width="4.77" stroke-miterlimit="10"/>
<path d="M355.118 30.1526C354.752 29.9803 354.084 29.8081 353.653 29.7651C352.577 29.679 351.565 30.0665 350.876 30.9706C350.316 31.7241 350.423 32.8866 350.983 33.6401C351.543 34.3935 352.448 34.781 353.352 34.8456C353.955 34.8887 354.601 34.8027 355.096 34.4152C355.742 33.877 356.043 33.4679 356.173 32.6068C356.302 31.6595 356.022 31.1644 355.828 30.9491C355.634 30.7123 355.505 30.3248 355.118 30.1526Z" fill="#DF0006" stroke="#DF0006" stroke-width="4.77" stroke-miterlimit="10"/>
<path d="M302.041 51.6589C289.811 60.5284 283.329 77.514 288.648 91.6578C291.986 100.506 299.436 107.481 308.135 111.205C316.835 114.93 326.632 115.554 335.977 114.09C345.538 112.583 355.249 108.514 360.826 100.592C367.049 91.7655 369.375 78.2675 362.807 63.241C359.061 54.6729 350.835 46.8368 340.155 45.05C327.773 43.0264 311.688 44.6624 302.041 51.6589Z" fill="white" stroke="#DF0006" stroke-width="4.77" stroke-miterlimit="10"/>
<path d="M340.994 93.7027C347.605 88.988 348.94 78.8914 344.935 71.8302C340.951 64.7691 332.769 60.2698 324.651 60.2698C320.796 60.2698 314.638 63.0254 311.365 67.0511C308.91 70.0865 307.187 73.8539 307.015 77.7504C306.671 85.9525 313.69 92.6908 321.098 94.9082C327.019 96.6735 335.805 97.3839 340.994 93.7027Z" fill="#FF7EAF" fill-opacity="0.66" stroke="#DF0006" stroke-width="4.77" stroke-miterlimit="10"/>
<path d="M328.03 72.5405C326.846 72.1745 325.446 72.5836 324.65 73.5308C323.853 74.478 323.681 75.9204 324.262 77.0183C325.834 77.8148 327.944 77.9225 329.193 76.6524C330.421 75.4038 329.796 72.6911 328.03 72.6481" fill="#DF0006"/>
<path d="M328.03 72.5405C326.846 72.1745 325.446 72.5836 324.65 73.5308C323.853 74.478 323.681 75.9204 324.262 77.0183C325.834 77.8148 327.944 77.9225 329.193 76.6524C330.421 75.4038 329.796 72.6911 328.03 72.6481" stroke="#DF0006" stroke-width="4.77" stroke-miterlimit="10"/>
<path d="M115.479 132.992C119.118 131.635 124.545 128.88 127.538 126.447C135.462 120.032 140.479 110.064 140.953 99.9464C141.383 90.8616 140.027 81.7122 136.969 73.1226C135.333 68.5156 133.179 64.0377 129.992 60.3134C126.633 56.3953 122.262 53.4676 117.719 50.9704C110.419 46.9447 102.473 43.8877 94.1616 43.0266C74.4805 41.0245 54.218 52.9939 46.6815 71.0774C39.3603 88.6872 44.9804 110.473 58.6538 123.735C73.4039 138.051 97.2408 139.773 115.479 132.992Z" fill="white" stroke="#DF0006" stroke-width="4.77" stroke-miterlimit="10"/>
<path d="M89.0151 94.4568C87.271 99.9894 88.606 106.254 92.1805 111.098C95.755 115.942 98.7265 118.59 104.842 120.075C107.598 120.742 113.735 121.238 117.245 119.989C122.542 118.073 124.609 114.693 126.289 109.763C134.902 84.6832 96.9823 69.0969 89.0151 94.4568Z" fill="#FF7EAF" fill-opacity="0.66" stroke="#DF0006" stroke-width="4.77" stroke-miterlimit="10"/>
<path d="M111.39 96.5453C110.895 96.3946 110.378 96.287 109.861 96.4377C109.28 96.6314 108.784 97.1696 108.483 97.7724C108.16 98.3752 108.009 99.064 107.837 99.7314C107.751 100.119 107.643 100.506 107.665 100.894C107.686 101.367 107.902 101.798 108.138 102.186C109.086 103.693 110.701 104.597 112.38 104.554C112.66 104.554 112.962 104.511 113.242 104.381C113.995 104.015 114.318 103.004 114.555 102.121C114.684 101.647 114.814 101.174 114.749 100.7C114.706 100.399 114.598 100.119 114.469 99.8605C113.78 98.3966 112.876 96.9974 111.39 96.5453Z" fill="#FF7EAF" fill-opacity="0.66" stroke="#DF0006" stroke-width="4.77" stroke-miterlimit="10"/>
<path d="M205.466 109.483C204.669 112.024 204.432 115.92 204.992 118.525C205.832 122.314 207.92 125.156 211.215 127.201C213.497 128.6 217.416 130.172 220.108 130.236C223.575 130.322 227.042 129.741 229.862 127.739C234.729 124.294 235.332 119.235 235.525 115.059C235.805 108.88 232.597 101.862 225.34 99.7958C219.268 98.052 207.468 103.133 205.466 109.483Z" fill="white" stroke="#DF0006" stroke-width="4.77" stroke-miterlimit="10"/>
<path d="M219.419 106.061C218.278 106.384 217.223 107.094 216.706 108.171C216.405 108.838 216.319 109.591 216.34 110.323C216.34 111.723 216.642 113.187 217.525 114.285C218.494 115.49 220.044 116.071 221.573 116.222C222.391 116.308 223.274 116.265 223.984 115.834C224.652 115.447 225.104 114.801 225.47 114.112C226.332 112.519 226.762 110.646 226.267 108.924C225.384 105.824 222.154 105.286 219.419 106.061Z" fill="#FF7EAF" fill-opacity="0.66" stroke="#DF0006" stroke-width="4.77" stroke-miterlimit="10"/>
<path d="M90.674 34.2438C88.3269 37.7098 87.2933 41.5848 87.0349 45.7612C86.755 50.2175 87.6809 54.8676 89.9203 58.7211C92.8273 63.7586 97.0908 66.8801 102.797 67.8489C108.503 68.8176 113.908 69.1405 119.464 67.4398C123.727 66.1266 128.572 62.8975 131.177 59.2808C133.46 56.0947 134.472 51.337 134.429 48.5168C134.3 37.6453 130.467 30.5626 120.11 27.2688C110.011 24.0612 97.3061 24.4917 90.674 34.2438Z" fill="white" stroke="#DF0006" stroke-width="4.77" stroke-miterlimit="10"/>
<path d="M117.159 37.9894C113.498 37.3866 109.493 37.9248 106.651 40.3144C103.808 42.704 102.603 47.1603 104.627 50.2603C106.026 52.4346 108.589 53.5326 111.087 54.1999C114.037 54.9749 117.245 55.2548 120.087 54.1784C122.951 53.102 125.341 50.4325 125.384 47.3971C125.406 43.0484 121.293 38.6783 117.159 37.9894Z" fill="#FF7EAF" fill-opacity="0.66" stroke="#DF0006" stroke-width="4.77" stroke-miterlimit="10"/>
<path d="M114.725 44.5988C114.208 44.4911 113.756 45.0509 113.734 45.5675C113.67 46.5363 114.595 47.3542 115.543 47.4834C116.081 47.548 116.706 47.4404 117.029 46.9883C117.438 46.4286 117.158 45.5675 116.598 45.1585C116.038 44.7495 115.414 44.5126 114.725 44.5988Z" fill="white" stroke="#DF0006" stroke-width="4.77" stroke-miterlimit="10"/>
<path d="M388.302 81.4974C380.162 77.9668 370.279 79.4092 363.345 85.1356C356.39 90.862 352.643 100.657 353.849 109.914C354.194 112.627 354.947 115.296 356.261 117.643C358.371 121.41 361.816 124.144 365.498 126.082C373.659 130.387 383.78 130.99 391.833 126.448C409.663 116.373 406.045 89.1828 388.302 81.4974Z" fill="white" stroke="#DF0006" stroke-width="4.77" stroke-miterlimit="10"/>
<path d="M376.243 97.3634C374.154 99.387 373.121 102.487 373.68 105.329C374.24 108.17 376.458 110.668 379.257 111.464C380.399 111.787 381.604 111.852 382.81 111.852C384.404 111.852 386.019 111.744 387.526 111.206C389.033 110.668 390.411 109.656 391.144 108.235C391.833 106.857 392.328 105.802 392.328 104.274C392.328 103.542 392.457 98.9995 389.593 96.8467C387.569 95.3182 386.019 95.1028 383.435 94.7153C380.937 94.3063 377.965 95.6842 376.243 97.3634Z" fill="#FF7EAF" fill-opacity="0.66" stroke="#DF0006" stroke-width="4.77" stroke-miterlimit="10"/>
<path d="M385.352 101.798C384.642 100.894 383.242 101.196 382.553 101.971C381.864 102.724 381.885 104.059 382.639 104.769C382.962 105.071 383.393 105.286 383.845 105.243C384.599 105.178 385.374 104.554 385.675 103.865C385.912 103.284 386.084 102.466 385.352 101.798Z" fill="#FF7EAF" fill-opacity="0.66" stroke="#DF0006" stroke-width="4.77" stroke-miterlimit="10"/>
<path d="M359.705 61.8416C358.8 64.7263 358.521 69.1826 359.167 72.1534C360.114 76.4805 362.504 79.7313 366.272 82.0348C368.878 83.6279 373.335 85.4146 376.414 85.5008C380.376 85.5869 384.317 84.941 387.547 82.6591C393.103 78.7194 393.792 72.95 394.007 68.1924C394.33 61.1527 390.669 53.1443 382.379 50.7978C375.445 48.8172 361.987 54.6082 359.705 61.8416Z" fill="white" stroke="#DF0006" stroke-width="4.77" stroke-miterlimit="10"/>
<path d="M375.618 57.9455C374.326 58.3115 373.098 59.1295 372.539 60.3351C372.173 61.0885 372.108 61.9497 372.108 62.7893C372.129 64.3823 372.452 66.0614 373.464 67.2885C374.563 68.6448 376.35 69.3337 378.094 69.506C379.042 69.5921 380.032 69.549 380.85 69.0754C381.604 68.6448 382.121 67.8914 382.551 67.1164C383.52 65.3081 384.037 63.1553 383.456 61.1962C382.422 57.6872 378.719 57.0628 375.618 57.9455Z" fill="#FF7EAF" fill-opacity="0.66" stroke="#DF0006" stroke-width="4.77" stroke-miterlimit="10"/>
<path d="M298.917 115.081C298.142 110.753 296.613 105.651 293.879 101.949C291.295 98.4395 288.431 95.0812 285.029 92.2395C274.521 83.4776 258.479 80.9804 247.282 87.1374C236.084 93.2944 231.39 108.106 237.678 119.774C240.972 125.866 246.636 130.645 252.579 134.649C258.995 138.998 266.274 143.799 273.832 143.411C290.024 142.572 301.415 129.074 298.917 115.081Z" fill="white" stroke="#DF0006" stroke-width="4.77" stroke-miterlimit="10"/>
<path d="M252.301 112.777C250.169 116.135 250.707 120.764 252.904 124.424C255.1 128.083 258.739 130.904 262.615 133.013C263.929 133.724 265.328 134.391 266.814 134.563C269.355 134.843 273.188 134.779 275.083 133.379C293.795 119.731 260.828 99.3006 252.301 112.777Z" fill="#FF7EAF" fill-opacity="0.66" stroke="#DF0006" stroke-width="4.77" stroke-miterlimit="10"/>
<path d="M269.806 121.583C270 119.365 266.382 117.643 264.573 118.934C262.764 120.248 263.432 123.477 265.628 124.553C267.825 125.63 269.547 125.5 269.956 123.369C270.086 123.132 270.021 122.68 269.806 121.583Z" fill="#DF0006" stroke="#DF0006" stroke-width="4.77" stroke-miterlimit="10"/>
<path d="M289.484 129.548C287.137 133.014 286.103 136.889 285.845 141.065C285.565 145.522 286.491 150.172 288.73 154.025C291.637 159.063 295.901 162.184 301.607 163.153C307.335 164.122 312.718 164.445 318.273 162.744C322.537 161.431 327.382 158.201 329.987 154.585C332.27 151.399 333.282 146.641 333.239 143.821C333.11 132.949 329.277 125.867 318.92 122.573C308.821 119.365 296.095 119.796 289.484 129.548Z" fill="white" stroke="#DF0006" stroke-width="4.77" stroke-miterlimit="10"/>
<path d="M315.972 133.293C312.312 132.69 308.306 133.229 305.464 135.618C302.622 137.986 301.416 142.464 303.44 145.564C304.84 147.738 307.402 148.836 309.9 149.504C312.85 150.279 316.058 150.559 318.901 149.482C321.765 148.406 324.155 145.736 324.198 142.701C324.219 138.331 320.085 133.982 315.972 133.293Z" fill="#FF7EAF" fill-opacity="0.66" stroke="#DF0006" stroke-width="4.77" stroke-miterlimit="10"/>
<path d="M313.538 139.881C313.021 139.773 312.569 140.333 312.548 140.85C312.483 141.819 313.409 142.637 314.356 142.766C314.895 142.83 315.519 142.723 315.842 142.271C316.251 141.711 315.971 140.85 315.411 140.441C314.83 140.053 314.227 139.816 313.538 139.881Z" fill="white" stroke="#DF0006" stroke-width="4.77" stroke-miterlimit="10"/>
<path d="M349.565 91.1197C342.975 89.9572 336.128 91.5503 330.12 94.4996C323.337 97.8149 317.287 102.982 313.949 109.741C310.611 116.501 310.267 124.94 314.057 131.463C316.834 136.264 321.593 139.751 326.804 141.646C332.015 143.54 337.678 144.014 343.212 143.734C345.947 143.605 348.682 143.282 351.309 142.55C359.018 140.376 365.52 134.283 368.19 126.727C373.014 113.1 364.508 93.7676 349.565 91.1197Z" fill="white" stroke="#DF0006" stroke-width="4.77" stroke-miterlimit="10"/>
<path d="M333.308 127.675C336.365 128.622 339.811 128.321 342.653 126.814C343.902 126.146 345.065 125.242 345.818 124.037C346.637 122.723 346.895 121.152 347.132 119.645C347.412 117.794 347.67 115.878 347.153 114.069C346.594 112.153 345.215 110.56 343.644 109.333C341.383 107.568 338.562 106.384 335.698 106.599C332.36 106.879 329.346 109.118 327.688 112.003C326.202 114.564 324.845 119.107 326.202 121.905C327.494 124.596 330.508 126.792 333.308 127.675Z" fill="#FF7EAF" fill-opacity="0.66" stroke="#DF0006" stroke-width="4.77" stroke-miterlimit="10"/>
<path d="M335.804 113.702C333.048 114.09 331.971 117.427 333.737 118.934C334.921 119.752 335.89 119.924 337.139 119.192C338.388 118.46 339.077 116.802 338.56 115.424C338.043 114.068 336.299 113.272 335.007 113.918" stroke="#DF0006" stroke-width="4.77" stroke-miterlimit="10"/>
<path d="M299.843 96.9541C294.848 97.2985 291.381 100.635 289.723 102.724C287.311 105.78 286.579 110.172 287.117 114.026C287.483 116.695 289.077 118.999 290.735 121.13C292.867 123.864 295.128 124.768 298.314 126.124C302.147 127.782 308.586 127.588 311.923 125.091C316.876 121.388 320.257 112.669 316.768 106.233C313.775 100.678 309.102 96.3082 299.843 96.9541Z" fill="white" stroke="#DF0006" stroke-width="4.77" stroke-miterlimit="10"/>
<path d="M303.741 108.73C302.557 108.687 301.329 109.053 300.532 109.935C300.037 110.474 299.736 111.184 299.52 111.873C299.111 113.208 298.961 114.693 299.477 116.006C300.037 117.449 301.351 118.482 302.772 119.063C303.526 119.386 304.387 119.601 305.184 119.429C305.937 119.257 306.562 118.762 307.122 118.224C308.414 116.975 309.404 115.296 309.426 113.509C309.49 110.301 306.562 108.816 303.741 108.73Z" fill="#FF7EAF" fill-opacity="0.66" stroke="#DF0006" stroke-width="4.77" stroke-miterlimit="10"/>
</svg>
