<svg width="91" height="112" viewBox="0 0 91 112" fill="none" xmlns="http://www.w3.org/2000/svg">
<path d="M2.77653 59.8855C2.34892 63.0941 2.15654 69.169 2.9476 74.7946C4.31593 84.5701 13.7874 99.03 18.2558 102.666C25.3113 108.42 37.4552 109.49 45.2162 108.378C53.1696 107.244 67.1095 98.7947 75.1057 87.1155C78.6975 81.8749 80.9852 75.6075 81.8831 69.5754C83.2301 60.5058 86.5227 51.9924 87.8482 42.9229C89.131 34.1956 85.6033 24.1634 80.0017 16.6982C76.5168 12.0565 70.851 8.91206 65.0142 6.64468C52.3999 1.74626 36.8993 0.548396 25.5465 7.00831C18.6407 10.9442 13.937 17.3399 11.4997 24.2062C8.93405 31.3934 7.39465 38.6448 5.727 45.9175C4.25177 52.463 3.58897 53.8106 2.77653 59.8855Z" fill="white" stroke="#DF0006" stroke-width="4.76691" stroke-miterlimit="10"/>
<path d="M59.1352 40.4628C58.9856 41.5538 60.7388 43.5431 61.6154 44.0778C67.6018 47.65 72.9896 45.9388 73.5241 45.6607C76.2822 44.2276 76.6884 42.6233 76.0897 40.8906C75.6835 39.7142 73.8448 37.4254 71.8137 36.4628C69.7826 35.4789 67.388 35.3719 65.0789 35.4147C63.1547 35.4575 59.349 36.5056 58.5152 37.1901C58.5152 37.1901 55.5006 36.6981 55.3296 37.5537C55.1585 38.388 59.1352 40.4628 59.1352 40.4628Z" fill="white" stroke="#DF0006" stroke-width="4.76691" stroke-miterlimit="10"/>
<path d="M59.4771 30.752C61.1875 29.9392 62.9192 29.4686 64.651 29.0622C66.0407 28.7413 68.136 28.6985 69.6968 28.8697C70.9154 28.998 73.481 29.5969 76.068 30.9659" fill="white"/>
<path d="M59.4771 30.752C61.1875 29.9392 62.9192 29.4686 64.651 29.0622C66.0407 28.7413 68.136 28.6985 69.6968 28.8697C70.9154 28.998 73.481 29.5969 76.068 30.9659" stroke="#DF0006" stroke-width="4.76691" stroke-miterlimit="10"/>
<path d="M67.8012 40.7115C67.8475 39.9805 67.2067 39.345 66.37 39.292C65.5333 39.239 64.8175 39.7886 64.7713 40.5195C64.725 41.2505 65.3658 41.8861 66.2025 41.9391C67.0391 41.9921 67.7549 41.4425 67.8012 40.7115Z" fill="white" stroke="#DF0006" stroke-width="4.76691" stroke-miterlimit="10"/>
<path d="M32.9431 37.4255C32.7721 38.4309 30.6768 39.7999 29.7361 40.0779C23.4289 41.8747 19.0887 39.1154 18.6825 38.7303C16.6086 36.8052 16.6941 35.2865 17.6776 33.8747C18.3618 32.9121 20.6281 31.3078 22.702 30.9014C24.7759 30.495 26.9566 30.9656 28.9878 31.5218C30.6982 31.9923 33.7983 33.8319 34.3542 34.6234C34.3542 34.6234 37.1764 34.88 37.1123 35.6929C37.0695 36.5057 32.9431 37.4255 32.9431 37.4255Z" fill="white" stroke="#DF0006" stroke-width="4.76691" stroke-miterlimit="10"/>
<path d="M35.2735 28.6982C33.9694 27.5859 32.5582 26.7517 31.1044 26.003C29.9499 25.3827 28.0898 24.8694 26.6573 24.6555C25.5456 24.4843 23.0868 24.4416 20.4143 25.0619" fill="white"/>
<path d="M35.2735 28.6982C33.9694 27.5859 32.5582 26.7517 31.1044 26.003C29.9499 25.3827 28.0898 24.8694 26.6573 24.6555C25.5456 24.4843 23.0868 24.4416 20.4143 25.0619" stroke="#DF0006" stroke-width="4.76691" stroke-miterlimit="10"/>
<path d="M27.9304 36.011C27.973 35.339 27.3769 34.7542 26.5992 34.7049C25.8214 34.6557 25.1564 35.1605 25.1139 35.8325C25.0713 36.5046 25.6674 37.0893 26.4451 37.1386C27.2229 37.1879 27.8879 36.683 27.9304 36.011Z" fill="white" stroke="#DF0006" stroke-width="4.76691" stroke-miterlimit="10"/>
<path d="M46.2311 74.867C46.2773 74.136 45.627 73.4999 44.7786 73.4461C43.9301 73.3923 43.2048 73.9413 43.1585 74.6723C43.1122 75.4033 43.7625 76.0394 44.611 76.0932C45.4595 76.1469 46.1848 75.598 46.2311 74.867Z" fill="white" stroke="#DF0006" stroke-width="4.76691" stroke-miterlimit="10"/>
<path d="M34.7098 72.4818C34.7561 71.7509 34.1058 71.1147 33.2573 71.0609C32.4088 71.0071 31.6835 71.5562 31.6372 72.2872C31.591 73.0182 32.2413 73.6543 33.0898 73.7081C33.9382 73.7618 34.6636 73.2128 34.7098 72.4818Z" fill="white" stroke="#DF0006" stroke-width="4.76691" stroke-miterlimit="10"/>
<path d="M22.5105 83.5222C22.5105 83.5222 43.2921 79.1371 48.9364 86.4313C54.5808 93.7254 41.325 90.7735 41.325 90.7735C41.325 90.7735 35.7235 87.9928 29.8867 88.8912C24.0499 89.7896 30.7419 94.5169 30.7419 94.5169" fill="white"/>
<path d="M22.5105 83.5222C22.5105 83.5222 43.2921 79.1371 48.9364 86.4313C54.5808 93.7254 41.325 90.7735 41.325 90.7735C41.325 90.7735 35.7235 87.9928 29.8867 88.8912C24.0499 89.7896 30.7419 94.5169 30.7419 94.5169" stroke="#DF0006" stroke-width="4.76691" stroke-miterlimit="10"/>
</svg>
