<svg width="90" height="123" viewBox="0 0 90 123" fill="none" xmlns="http://www.w3.org/2000/svg">
<path d="M8.32106 80.4742C9.13351 83.9394 11.2715 90.2069 14.1365 95.7042C19.118 105.223 33.4 116.539 38.9589 118.635C47.7034 121.929 59.4197 118.528 66.2399 114.528C73.2312 110.421 83.002 96.624 86.0166 81.6935C87.3635 74.9982 87.1284 67.7255 85.6746 61.2014C83.4724 51.4046 83.3227 41.458 81.1206 31.6612C79.0039 22.2494 71.9271 13.2654 63.8882 7.6825C58.8852 4.21725 52.4284 3.08357 46.1212 2.93383C32.5235 2.59159 17.6428 7.06217 9.51834 17.9071C4.57953 24.4954 2.63398 32.7949 2.95468 40.7307C3.29677 49.0516 4.60095 57.0517 5.81962 65.1159C6.88863 72.3458 6.78169 73.9501 8.32106 80.4742Z" fill="white" stroke="#DF0006" stroke-width="4.76691" stroke-miterlimit="10"/>
<path d="M55.0787 46.5706C55.3567 47.747 57.7512 49.1374 58.756 49.3513C65.6832 50.8059 70.0448 47.0625 70.451 46.5706C72.4607 44.0893 72.2256 42.271 71.0283 40.7309C70.2158 39.6614 67.6289 38.0144 65.3626 37.7791C63.0963 37.5224 60.8299 38.3138 58.6919 39.2122C56.9173 39.9609 53.7745 42.4422 53.2614 43.4689C53.2614 43.4689 50.2681 44.0893 50.4178 45.0304C50.5888 45.9288 55.0787 46.5706 55.0787 46.5706Z" fill="white" stroke="#DF0006" stroke-width="4.76691" stroke-miterlimit="10"/>
<path d="M50.6753 53.287C51.7015 54.4207 52.8561 55.4475 54.2031 56.2175C57.1749 57.886 61.0233 58.1213 64.3372 56.8165" fill="white"/>
<path d="M50.6753 53.287C51.7015 54.4207 52.8561 55.4475 54.2031 56.2175C57.1749 57.886 61.0233 58.1213 64.3372 56.8165" stroke="#DF0006" stroke-width="4.76691" stroke-miterlimit="10"/>
<path d="M51.7002 36.5171C53.0044 35.0625 54.4155 33.9288 55.8907 32.8593C57.0666 32.0037 59.0122 31.1908 60.5088 30.7844C61.6847 30.4635 64.2931 30.1427 67.2222 30.5919" fill="white"/>
<path d="M51.7002 36.5171C53.0044 35.0625 54.4155 33.9288 55.8907 32.8593C57.0666 32.0037 59.0122 31.1908 60.5088 30.7844C61.6847 30.4635 64.2931 30.1427 67.2222 30.5919" stroke="#DF0006" stroke-width="4.76691" stroke-miterlimit="10"/>
<path d="M62.3684 45.4397C63.1389 45.109 63.5106 44.2512 63.1986 43.5238C62.8867 42.7964 62.0092 42.4749 61.2388 42.8056C60.4683 43.1363 60.0966 43.9941 60.4086 44.7215C60.7205 45.4489 61.598 45.7705 62.3684 45.4397Z" fill="white" stroke="#DF0006" stroke-width="4.76691" stroke-miterlimit="10"/>
<path d="M29.55 53.1583C29.7852 54.2492 28.3313 56.431 27.583 57.0513C22.3877 61.2225 17.2992 60.0032 16.7861 59.7679C14.1349 58.5701 13.6218 56.9658 14.028 55.169C14.2846 53.9283 15.8026 51.4471 17.5771 50.2706C19.3517 49.0941 21.5539 48.7519 23.6705 48.5807C25.4237 48.431 29.0155 49.1583 29.8493 49.7786C29.8493 49.7786 32.586 49.0085 32.8212 49.8428C33.035 50.6984 29.55 53.1583 29.55 53.1583Z" fill="white" stroke="#DF0006" stroke-width="4.76691" stroke-miterlimit="10"/>
<path d="M28.4176 43.3406C26.7714 42.6775 25.1465 42.3567 23.5216 42.1C22.2174 41.9075 20.2931 42.0572 18.882 42.3567C17.7917 42.592 15.4826 43.4476 13.2163 45.0733" fill="white"/>
<path d="M28.4176 43.3406C26.7714 42.6775 25.1465 42.3567 23.5216 42.1C22.2174 41.9075 20.2931 42.0572 18.882 42.3567C17.7917 42.592 15.4826 43.4476 13.2163 45.0733" stroke="#DF0006" stroke-width="4.76691" stroke-miterlimit="10"/>
<path d="M23.5416 55.2224C24.2578 54.915 24.6043 54.1201 24.3157 53.447C24.027 52.7738 23.2125 52.4774 22.4963 52.7848C21.7801 53.0923 21.4335 53.8872 21.7221 54.5603C22.0108 55.2334 22.8254 55.5298 23.5416 55.2224Z" fill="white" stroke="#DF0006" stroke-width="4.76691" stroke-miterlimit="10"/>
<path d="M53.5717 81.6371C54.353 81.3017 54.7297 80.4313 54.4131 79.6931C54.0965 78.9548 53.2065 78.6282 52.4252 78.9636C51.6439 79.299 51.2672 80.1694 51.5838 80.9076C51.9004 81.6459 52.7904 81.9724 53.5717 81.6371Z" fill="white" stroke="#DF0006" stroke-width="4.76691" stroke-miterlimit="10"/>
<path d="M41.9572 83.4503C42.7385 83.1149 43.1152 82.2445 42.7986 81.5063C42.482 80.768 41.592 80.4414 40.8107 80.7768C40.0294 81.1122 39.6526 81.9826 39.9692 82.7208C40.2858 83.4591 41.1759 83.7857 41.9572 83.4503Z" fill="white" stroke="#DF0006" stroke-width="4.76691" stroke-miterlimit="10"/>
<path d="M35.6655 97.4373C35.6655 97.4373 53.3683 85.2447 61.3859 90.6565C69.4034 96.0469 55.9553 97.9079 55.9553 97.9079C55.9553 97.9079 49.6909 97.1378 44.6024 100.218C39.5139 103.298 47.5315 105.673 47.5315 105.673" fill="white"/>
<path d="M35.6655 97.4373C35.6655 97.4373 53.3683 85.2447 61.3859 90.6565C69.4034 96.0469 55.9553 97.9079 55.9553 97.9079C55.9553 97.9079 49.6909 97.1378 44.6024 100.218C39.5139 103.298 47.5315 105.673 47.5315 105.673" stroke="#DF0006" stroke-width="4.76691" stroke-miterlimit="10"/>
</svg>
