<svg width="88" height="112" viewBox="0 0 88 112" fill="none" xmlns="http://www.w3.org/2000/svg">
<path d="M3.01079 65.1205C2.98941 68.3719 3.60944 74.404 5.12744 79.8799C7.77858 89.3987 19.0246 102.49 23.942 105.527C31.6816 110.319 43.8683 109.784 51.4369 107.666C59.1765 105.506 71.8977 95.3238 78.2903 82.6821C81.1553 77.035 82.6305 70.5109 82.716 64.3933C82.8657 55.2168 85.0038 46.3611 85.1534 37.1846C85.2817 28.3717 80.4711 18.8744 73.9502 12.2219C69.8879 8.0722 63.8587 5.69786 57.7654 4.22192C44.6166 1.01335 29.0946 1.84758 18.6825 9.76204C12.3325 14.5749 8.52689 21.5268 7.0089 28.6498C5.40539 36.1151 4.82811 43.5162 4.12257 50.9387C3.50254 57.5911 3.03217 59.0029 3.01079 65.1205Z" fill="white" stroke="#DF0006" stroke-width="4.76691" stroke-miterlimit="10"/>
<path d="M56.3551 38.5109C56.3551 39.6232 58.3434 41.3558 59.3055 41.7622C65.7196 44.5216 70.8295 42.1259 71.3212 41.7622C73.8654 39.9868 74.0579 38.3184 73.2454 36.6927C72.6895 35.5804 70.5729 33.5483 68.4135 32.8638C66.2755 32.1579 63.8809 32.3718 61.5932 32.7141C59.6904 32.9921 56.0557 34.5536 55.3288 35.3237C55.3288 35.3237 52.2715 35.2381 52.2073 36.0938C52.1218 36.9708 56.3551 38.5109 56.3551 38.5109Z" fill="white" stroke="#DF0006" stroke-width="4.76691" stroke-miterlimit="10"/>
<path d="M55.4155 28.8426C57.019 27.8158 58.6653 27.11 60.3329 26.4896C61.6799 25.9977 63.7538 25.6768 65.3145 25.634C66.5332 25.6126 69.163 25.8693 71.8996 26.8747" fill="white"/>
<path d="M55.4155 28.8426C57.019 27.8158 58.6653 27.11 60.3329 26.4896C61.6799 25.9977 63.7538 25.6768 65.3145 25.634C66.5332 25.6126 69.163 25.8693 71.8996 26.8747" stroke="#DF0006" stroke-width="4.76691" stroke-miterlimit="10"/>
<path d="M63.5475 39.0211C64.384 38.9643 65.0218 38.3258 64.9722 37.595C64.9225 36.8642 64.2042 36.3179 63.3678 36.3748C62.5314 36.4317 61.8935 37.0702 61.9431 37.8009C61.9928 38.5317 62.7111 39.078 63.5475 39.0211Z" fill="white" stroke="#DF0006" stroke-width="4.76691" stroke-miterlimit="10"/>
<path d="M29.9928 38.9385C29.9714 39.9653 28.0472 41.5909 27.1706 41.976C21.1414 44.5856 16.4805 42.4038 16.0315 42.0829C13.7225 40.4572 13.6155 38.9171 14.4066 37.3984C14.9625 36.3503 16.9936 34.4679 19.0034 33.8048C21.0131 33.1417 23.2152 33.3128 25.3319 33.6123C27.0851 33.8476 30.399 35.2593 31.0618 35.9866C31.0618 35.9866 33.9053 35.8797 33.9267 36.6711C33.9481 37.4626 29.9928 38.9385 29.9928 38.9385Z" fill="white" stroke="#DF0006" stroke-width="4.76691" stroke-miterlimit="10"/>
<path d="M31.1696 29.9761C29.7157 29.0349 28.2191 28.3932 26.6797 27.837C25.4611 27.3878 23.5369 27.1098 22.1044 27.0884C20.9712 27.067 18.5339 27.3237 15.9683 28.3076" fill="white"/>
<path d="M31.1696 29.9761C29.7157 29.0349 28.2191 28.3932 26.6797 27.837C25.4611 27.3878 23.5369 27.1098 22.1044 27.0884C20.9712 27.067 18.5339 27.3237 15.9683 28.3076" stroke="#DF0006" stroke-width="4.76691" stroke-miterlimit="10"/>
<path d="M23.517 39.4723C24.2945 39.4195 24.8878 38.832 24.8422 38.1601C24.7965 37.4883 24.1292 36.9865 23.3517 37.0394C22.5742 37.0923 21.9808 37.6798 22.0265 38.3516C22.0721 39.0234 22.7394 39.5252 23.517 39.4723Z" fill="white" stroke="#DF0006" stroke-width="4.76691" stroke-miterlimit="10"/>
<path d="M46.595 75.7067C47.4432 75.649 48.0905 75.0099 48.0409 74.2791C47.9913 73.5483 47.2634 73.0027 46.4152 73.0604C45.567 73.118 44.9196 73.7572 44.9693 74.4879C45.0189 75.2187 45.7468 75.7644 46.595 75.7067Z" fill="white" stroke="#DF0006" stroke-width="4.76691" stroke-miterlimit="10"/>
<path d="M34.8787 74.8722C35.7269 74.8145 36.3743 74.1754 36.3246 73.4446C36.275 72.7139 35.5471 72.1682 34.6989 72.2259C33.8507 72.2836 33.2033 72.9227 33.253 73.6535C33.3026 74.3842 34.0305 74.9299 34.8787 74.8722Z" fill="white" stroke="#DF0006" stroke-width="4.76691" stroke-miterlimit="10"/>
<path d="M25.6536 85.9977C25.6536 85.9977 45.6868 78.9174 52.2291 85.4201C58.7714 91.9228 45.2592 90.725 45.2592 90.725C45.2592 90.725 39.3369 88.6929 33.6711 90.3613C28.0054 92.0084 35.2532 95.8373 35.2532 95.8373" fill="white"/>
<path d="M25.6536 85.9977C25.6536 85.9977 45.6868 78.9174 52.2291 85.4201C58.7714 91.9228 45.2592 90.725 45.2592 90.725C45.2592 90.725 39.3369 88.6929 33.6711 90.3613C28.0054 92.0084 35.2532 95.8373 35.2532 95.8373" stroke="#DF0006" stroke-width="4.76691" stroke-miterlimit="10"/>
</svg>
