<svg width="100" height="90" viewBox="0 0 100 90" fill="none" xmlns="http://www.w3.org/2000/svg">
<path d="M85.8459 73.7202C80.6719 79.0037 69.148 84.5652 62.285 86.1053C51.4666 88.5438 41.14 87.8166 32.8017 83.8165C10.716 73.2497 1.1163 48.394 2.54877 39.9234C3.76744 32.7362 7.74417 26.2762 9.81805 19.3029C11.8064 12.5863 14.821 7.49542 23.8648 4.13712C29.5092 2.04085 38.9378 2.70397 46.2498 3.15317C62.007 4.11574 78.7691 8.73608 88.6895 17.4206C94.7401 22.704 97.4126 28.7361 97.4126 34.533C97.4126 40.6078 97.3698 44.7576 97.1774 50.6613C96.8567 61.4421 91.1696 68.2657 85.8459 73.7202Z" fill="white" stroke="#DF0006" stroke-width="4.76691" stroke-miterlimit="10"/>
<path d="M37.6967 24.1156C37.4402 24.9498 34.7249 25.7627 33.549 25.8268C25.5742 26.2546 20.3361 23.1316 19.8657 22.7252C17.407 20.7145 17.5994 19.4097 18.925 18.383C19.8229 17.6771 22.752 16.6931 25.3604 16.7145C27.9688 16.7359 30.6413 17.506 33.1642 18.3616C35.2594 19.0675 39.0223 21.1851 39.6637 21.9765C39.6637 21.9765 43.1701 22.7038 43.0204 23.3669C42.8708 24.0514 37.6967 24.1156 37.6967 24.1156Z" fill="white" stroke="#DF0006" stroke-width="4.76691" stroke-miterlimit="10"/>
<path d="M27.8293 20.938C27.9213 20.3426 27.239 19.7429 26.3054 19.5986C25.3718 19.4543 24.5404 19.82 24.4485 20.4154C24.3565 21.0109 25.0388 21.6106 25.9724 21.7549C26.906 21.8992 27.7373 21.5335 27.8293 20.938Z" fill="white" stroke="#DF0006" stroke-width="4.76691" stroke-miterlimit="10"/>
<path d="M67.5868 31.2385C67.373 32.0299 69.1475 33.7626 70.0668 34.2759C76.2885 37.8054 82.1252 37.3562 82.7239 37.2492C85.7385 36.6075 86.2516 35.4738 85.7171 34.1262C85.3537 33.2064 83.3012 31.6235 81.0135 30.7893C78.4051 29.8481 76.8444 29.4417 74.3643 29.1209C72.3118 28.8642 68.0357 28.3722 67.1164 28.7358C67.1164 28.7358 63.9094 27.923 63.6742 28.5219C63.439 29.1209 67.5868 31.2385 67.5868 31.2385Z" fill="white" stroke="#DF0006" stroke-width="4.76691" stroke-miterlimit="10"/>
<path d="M79.5473 32.8151C79.6498 32.2934 79.0097 31.7283 78.1176 31.5529C77.2255 31.3774 76.4192 31.658 76.3167 32.1796C76.2142 32.7012 76.8543 33.2663 77.7464 33.4418C78.6385 33.6173 79.4448 33.3367 79.5473 32.8151Z" fill="white" stroke="#DF0006" stroke-width="4.76691" stroke-miterlimit="10"/>
<path d="M43.7528 53.3651C43.8644 52.7972 43.1659 52.1816 42.1927 51.9901C41.2195 51.7987 40.3401 52.104 40.2285 52.6719C40.1168 53.2399 40.8153 53.8556 41.7885 54.047C42.7617 54.2384 43.6412 53.9331 43.7528 53.3651Z" fill="white" stroke="#DF0006" stroke-width="4.76691" stroke-miterlimit="10"/>
<path d="M57.3226 55.6572C57.4342 55.0892 56.7357 54.4736 55.7625 54.2822C54.7893 54.0908 53.9099 54.396 53.7983 54.964C53.6867 55.532 54.3851 56.1476 55.3584 56.339C56.3316 56.5305 57.211 56.2252 57.3226 55.6572Z" fill="white" stroke="#DF0006" stroke-width="4.76691" stroke-miterlimit="10"/>
<path d="M62.2409 71.0247C62.2409 71.0247 41.7801 61.1637 32.1162 63.7305C22.431 66.2974 45.4147 71.5166 45.4147 71.5166" fill="white"/>
<path d="M62.2409 71.0247C62.2409 71.0247 41.7801 61.1637 32.1162 63.7305C22.431 66.2974 45.4147 71.5166 45.4147 71.5166" stroke="#DF0006" stroke-width="4.76691" stroke-miterlimit="10"/>
</svg>
