<svg width="108" height="106" viewBox="0 0 108 106" fill="none" xmlns="http://www.w3.org/2000/svg">
<path d="M20.8412 12.4257C11.6263 18.1797 5.72543 28.4044 3.84397 39.121C1.9839 49.8162 3.84395 60.9393 7.69238 71.0997C9.87315 76.8538 12.7381 82.4794 17.0569 86.8645C23.5992 93.4741 33.99 100.747 44.1455 102.073C61.5062 104.34 70.2721 103.635 85.281 93.6667C94.9449 87.2495 98.0022 80.2121 100.204 75.1425C101.722 71.6345 104.822 57.3885 104.951 53.5596C106.084 22.5862 96.9332 9.38827 69.1818 4.27596C51.3721 1.00322 29.6926 6.90698 20.8412 12.4257Z" fill="white" stroke="#DF0006" stroke-width="4.76691" stroke-miterlimit="10"/>
<path d="M34.9736 44.0835C35.0378 45.3883 32.8142 47.9765 31.7452 48.7038C24.4973 53.645 18.4681 52.1691 17.8695 51.891C14.8549 50.4578 14.5556 48.5541 15.3894 46.415C15.9666 44.9605 18.3184 42.0086 20.7558 40.6182C23.1931 39.2278 25.9726 38.8428 28.6237 38.6289C30.8259 38.4578 35.1019 39.3348 35.9998 40.0621C35.9998 40.0621 39.5276 39.1423 39.6345 40.1476C39.7414 41.153 34.9736 44.0835 34.9736 44.0835Z" fill="white" stroke="#DF0006" stroke-width="4.76691" stroke-miterlimit="10"/>
<path d="M23.9923 46.7653C24.7343 46.0713 24.8781 45.0189 24.3135 44.4147C23.749 43.8105 22.6897 43.8833 21.9477 44.5773C21.2057 45.2712 21.0619 46.3236 21.6265 46.9278C22.1911 47.5321 23.2503 47.4593 23.9923 46.7653Z" fill="white" stroke="#DF0006" stroke-width="4.76691" stroke-miterlimit="10"/>
<path d="M65.4188 37.6236C65.5043 38.8215 67.792 40.2546 68.8396 40.4685C75.9165 41.9658 81.1973 38.1583 81.6891 37.6663C84.2547 35.1423 84.3188 33.3027 83.314 31.7198C82.6298 30.6289 80.1497 29.5808 77.7124 29.6663C74.933 29.7733 73.3295 30.0941 70.9135 30.9925C68.9038 31.7412 64.756 33.3883 64.0291 34.415C64.0291 34.415 60.7365 35.0353 60.7579 35.9979C60.7793 36.9391 65.4188 37.6236 65.4188 37.6236Z" fill="white" stroke="#DF0006" stroke-width="4.76691" stroke-miterlimit="10"/>
<path d="M76.2443 34.847C77.049 34.352 77.3805 33.4285 76.9847 32.7844C76.5889 32.1403 75.6156 32.0195 74.8108 32.5146C74.0061 33.0096 73.6747 33.933 74.0705 34.5771C74.4663 35.2212 75.4396 35.3421 76.2443 34.847Z" fill="white" stroke="#DF0006" stroke-width="4.76691" stroke-miterlimit="10"/>
<path d="M73.6283 71.7202C74.5904 72.0197 75.6381 72.0411 76.365 72.9609C77.0919 73.8807 77.2843 75.763 76.4933 76.5759C75.467 78.4582 66.5943 77.4315 61.8906 79.6133C56.9304 81.9235 48.2928 87.2069 46.8817 85.2818C45.2568 78.6294 65.3756 69.132 73.6283 71.7202Z" stroke="#DF0006" stroke-width="4.76691" stroke-miterlimit="10"/>
</svg>
