<svg width="97" height="139" viewBox="0 0 97 139" fill="none" xmlns="http://www.w3.org/2000/svg">
<path d="M2.44496 79.0678C2.27392 83.132 3.53536 93.8272 5.33129 97.485C9.0942 105.186 10.7832 110.661 14.5461 118.362C16.5131 122.362 22.2002 128.031 25.5783 131.089C32.2275 137.1 42.3617 136.929 51.149 133.977C59.9362 131.025 67.4621 125.399 74.4534 119.496C78.9646 115.688 82.9627 109.613 85.849 104.587C89.7402 97.8272 93.2679 89.4422 93.6742 81.8058C94.2942 70.3405 93.8238 58.9822 94.4438 47.4955C95.0425 36.458 93.3748 24.7147 86.2338 16.0729C81.7868 10.6825 75.0092 7.45259 68.1248 5.31355C53.2442 0.714599 35.456 1.03543 23.141 10.4686C15.658 16.2013 10.9543 24.7361 8.83767 33.5917C6.63551 42.8752 5.58789 52.0944 4.43336 61.3565C3.38573 69.6346 2.78704 71.3886 2.44496 79.0678Z" fill="white" stroke="#DF0006" stroke-width="4.76691" stroke-miterlimit="10"/>
<path d="M65.4948 46.6399C65.4307 48.0303 67.6328 50.2977 68.7018 50.8538C75.8856 54.5971 81.8506 51.8378 82.4493 51.41C85.4425 49.2923 85.7418 47.2388 84.908 45.1426C84.3307 43.7094 82.0003 41.0998 79.5843 40.1158C77.1684 39.1318 74.4104 39.303 71.7806 39.6238C69.5998 39.9019 65.3665 41.6773 64.4685 42.6185C64.4685 42.6185 60.9622 42.3618 60.8553 43.4527C60.7484 44.5436 65.4948 46.6399 65.4948 46.6399Z" stroke="#DF0006" stroke-width="4.76691" stroke-miterlimit="10"/>
<path d="M58.5679 52.6718C59.3376 54.2333 60.2997 55.7306 61.5611 56.9927C64.3192 59.752 68.4883 61.2066 72.5291 60.8002" stroke="#DF0006" stroke-width="4.76691" stroke-miterlimit="10"/>
<path d="M64.8962 34.5115C66.7777 33.2922 68.7019 32.5008 70.6261 31.7949C72.1869 31.2174 74.5814 30.9179 76.356 30.9393C77.7457 30.9607 80.7389 31.3885 83.8176 32.8003" stroke="#DF0006" stroke-width="4.76691" stroke-miterlimit="10"/>
<path d="M73.8806 47.5849C74.8406 47.4582 75.5223 46.6244 75.4034 45.7226C75.2845 44.8208 74.4099 44.1924 73.45 44.3191C72.49 44.4458 71.8083 45.2796 71.9272 46.1814C72.0462 47.0833 72.9207 47.7116 73.8806 47.5849Z" stroke="#DF0006" stroke-width="4.76691" stroke-miterlimit="10"/>
<path d="M35.3281 45.9765C35.2426 47.2599 32.9763 49.2064 31.9501 49.6556C24.9374 52.6503 19.6992 49.7198 19.2074 49.292C16.6632 47.1529 16.5991 45.2278 17.5826 43.3668C18.2668 42.0834 20.6827 39.816 23.0131 39.0674C25.3435 38.3187 27.8664 38.6395 30.261 39.1101C32.2494 39.4951 35.9695 41.3989 36.6965 42.3401C36.6965 42.3401 39.9462 42.3401 39.9462 43.3454C39.9462 44.3508 35.3281 45.9765 35.3281 45.9765Z" stroke="#DF0006" stroke-width="4.76691" stroke-miterlimit="10"/>
<path d="M37.1232 34.8112C35.5197 33.5706 33.8306 32.715 32.0989 31.9235C30.7091 31.3032 28.5498 30.8754 26.9035 30.7684C25.6207 30.7043 22.8199 30.9182 19.8267 32.0091" stroke="#DF0006" stroke-width="4.76691" stroke-miterlimit="10"/>
<path d="M28.0676 46.3242C28.9573 46.2068 29.5897 45.4375 29.48 44.6059C29.3703 43.7744 28.5602 43.1954 27.6705 43.3129C26.7808 43.4303 26.1485 44.1996 26.2581 45.0312C26.3678 45.8627 27.1779 46.4416 28.0676 46.3242Z" stroke="#DF0006" stroke-width="4.76691" stroke-miterlimit="10"/>
<path d="M51.9687 85.6376C52.9403 85.5094 53.6304 84.6648 53.5099 83.7513C53.3894 82.8378 52.5041 82.2012 51.5325 82.3294C50.5608 82.4577 49.8709 83.3022 49.9913 84.2157C50.1118 85.1293 50.9971 85.7659 51.9687 85.6376Z" stroke="#DF0006" stroke-width="4.76691" stroke-miterlimit="10"/>
<path d="M38.1797 89.5741C39.1513 89.4459 39.8413 88.6014 39.7209 87.6878C39.6004 86.7743 38.7151 86.1377 37.7435 86.2659C36.7718 86.3942 36.0818 87.2387 36.2023 88.1523C36.3227 89.0658 37.2081 89.7024 38.1797 89.5741Z" stroke="#DF0006" stroke-width="4.76691" stroke-miterlimit="10"/>
<path d="M59.6574 106.212C59.6574 106.212 36.3745 98.2764 29.2121 106.704C22.0498 115.132 37.4434 113.014 37.4434 113.014C37.4434 113.014 44.114 110.212 50.6777 112.03C57.2415 113.849 49.1384 118.961 49.1384 118.961" stroke="#DF0006" stroke-width="4.76691" stroke-miterlimit="10"/>
</svg>
