<svg width="94" height="110" viewBox="0 0 94 110" fill="none" xmlns="http://www.w3.org/2000/svg">
<path d="M91.4417 61.5753C91.2279 69.7251 86.8877 82.3454 83.2531 88.292C77.5232 97.6824 70.1471 103.907 62.1295 105.939C40.8776 111.308 27.6219 95.4578 23.41 87.0086C19.8395 79.8214 7.39627 64.3347 4.50995 56.7411C1.73053 49.4469 1.49535 43.1154 5.51482 34.0886C8.0163 28.4629 14.6014 17.4896 19.754 13.019C30.8931 3.37191 42.7163 1.46816 54.3685 4.33448C66.8973 7.41471 71.6437 13.9174 75.1928 19.0511C78.9129 24.4415 81.4144 28.142 84.8994 33.5111C91.3134 43.3293 91.6769 53.1903 91.4417 61.5753Z" fill="white" stroke="#DF0006" stroke-width="4.76691" stroke-miterlimit="10"/>
<path d="M32.047 48.8484C32.3891 49.7682 30.8284 52.3564 29.9732 53.2334C24.0936 59.1586 17.9789 60.057 17.3589 60.0356C14.1304 59.9928 13.4249 58.7094 13.767 56.8912C14.0022 55.6505 15.6057 52.7628 17.6582 50.966C19.6893 49.1692 22.2763 47.9928 24.7778 46.9874C26.8516 46.1532 31.1704 45.3831 32.1753 45.6184C32.1753 45.6184 35.361 43.8216 35.703 44.5061C36.0024 45.1906 32.047 48.8484 32.047 48.8484Z" fill="white" stroke="#DF0006" stroke-width="4.76691" stroke-miterlimit="10"/>
<path d="M21.5756 54.8894C22.3696 54.3146 22.6991 53.4141 22.3115 52.8781C21.9239 52.3422 20.9659 52.3736 20.1719 52.9484C19.3778 53.5232 19.0484 54.4236 19.436 54.9596C19.8236 55.4956 20.7815 55.4642 21.5756 54.8894Z" fill="white" stroke="#DF0006" stroke-width="4.76691" stroke-miterlimit="10"/>
<path d="M51.3108 34.3025C51.6529 35.1367 54.1758 35.4148 55.2234 35.2437C62.3644 34.003 66.5762 29.5752 66.9611 29.0404C68.8639 26.388 68.5218 25.0404 67.2176 24.2276C66.3197 23.6714 63.7113 23.7142 61.3809 24.5698C58.7297 25.5538 57.2759 26.3025 55.1378 27.7356C53.3847 28.9335 49.75 31.4789 49.2797 32.4415C49.2797 32.4415 46.2651 33.9602 46.4789 34.6447C46.7141 35.3292 51.3108 34.3025 51.3108 34.3025Z" fill="white" stroke="#DF0006" stroke-width="4.76691" stroke-miterlimit="10"/>
<path d="M60.7019 29.2776C61.4895 28.7775 61.8715 27.9677 61.5551 27.469C61.2387 26.9703 60.3438 26.9715 59.5562 27.4716C58.7686 27.9718 58.3866 28.7815 58.703 29.2802C59.0194 29.7789 59.9143 29.7778 60.7019 29.2776Z" fill="white" stroke="#DF0006" stroke-width="4.76691" stroke-miterlimit="10"/>
<path d="M55.03 72.1517C55.8874 71.6072 56.3003 70.7211 55.9522 70.1725C55.6042 69.6239 54.627 69.6206 53.7697 70.1651C52.9123 70.7095 52.4994 71.5956 52.8474 72.1442C53.1955 72.6928 54.1726 72.6961 55.03 72.1517Z" fill="white" stroke="#DF0006" stroke-width="4.76691" stroke-miterlimit="10"/>
<path d="M67.0371 64.7073C67.8945 64.1628 68.3074 63.2768 67.9594 62.7282C67.6113 62.1796 66.6341 62.1763 65.7768 62.7207C64.9194 63.2652 64.5065 64.1513 64.8545 64.6998C65.2026 65.2484 66.1797 65.2518 67.0371 64.7073Z" fill="white" stroke="#DF0006" stroke-width="4.76691" stroke-miterlimit="10"/>
<path d="M81.9272 72.8479C81.9272 72.8479 59.6063 78.4308 53.8337 87.4148C48.0397 96.3988 69.2488 84.9763 69.2488 84.9763" fill="white"/>
<path d="M81.9272 72.8479C81.9272 72.8479 59.6063 78.4308 53.8337 87.4148C48.0397 96.3988 69.2488 84.9763 69.2488 84.9763" stroke="#DF0006" stroke-width="4.76691" stroke-miterlimit="10"/>
</svg>
