<svg width="97" height="139" viewBox="0 0 97 139" fill="none" xmlns="http://www.w3.org/2000/svg">
<path d="M3.13546 80.7464C3.11408 84.8106 4.76036 95.4631 6.68458 99.0567C10.7254 106.607 12.6283 112.019 16.6691 119.57C18.7644 123.506 24.6653 128.961 28.1503 131.87C35.0133 137.645 45.1261 137.089 53.8065 133.816C62.4868 130.543 69.7988 124.64 76.555 118.501C80.9379 114.522 84.7008 108.319 87.3947 103.185C91.0507 96.2759 94.2577 87.7839 94.386 80.1261C94.5784 68.6394 93.7019 57.3025 93.8943 45.8158C94.0867 34.7784 91.9914 23.0778 84.5511 14.7141C79.9116 9.49487 73.0272 6.5002 66.0573 4.63923C51.027 0.575043 33.2601 1.559 21.2872 11.42C14.018 17.4307 9.61368 26.1366 7.83912 35.0564C5.97905 44.4041 5.27348 53.6661 4.43965 62.971C3.73411 71.3133 3.1996 73.0673 3.13546 80.7464Z" fill="white" stroke="#DF0006" stroke-width="4.76691" stroke-miterlimit="10"/>
<path d="M64.2412 67.8694C64.2198 69.2598 66.5075 71.4416 67.5979 71.955C74.9099 75.4203 80.7894 72.447 81.3453 72.0192C84.253 69.7946 84.4882 67.7197 83.5689 65.6662C82.9488 64.2545 80.5115 61.7304 78.0528 60.8534C75.5941 59.9764 72.8574 60.2117 70.249 60.6395C68.0682 60.9817 63.8991 62.9282 63.0653 63.8908C63.0653 63.8908 59.5589 63.7625 59.4948 64.8534C59.4093 65.9443 64.2412 67.8694 64.2412 67.8694Z" stroke="#DF0006" stroke-width="4.76691" stroke-miterlimit="10"/>
<path d="M57.5481 74.1583C58.3819 75.6984 59.3868 77.153 60.691 78.3722C63.5559 81.0247 67.7678 82.3295 71.7873 81.7733" stroke="#DF0006" stroke-width="4.76691" stroke-miterlimit="10"/>
<path d="M63.2144 55.7626C65.053 54.4791 66.9345 53.6021 68.8587 52.8321C70.3981 52.2118 72.7713 51.8053 74.5459 51.7839C75.9356 51.7626 78.9288 52.0834 82.0717 53.3668" stroke="#DF0006" stroke-width="4.76691" stroke-miterlimit="10"/>
<path d="M72.6658 68.576C73.6205 68.4143 74.2715 67.5561 74.1197 66.6592C73.968 65.7623 73.071 65.1663 72.1163 65.328C71.1616 65.4897 70.5107 66.3478 70.6625 67.2447C70.8142 68.1416 71.7111 68.7377 72.6658 68.576Z" stroke="#DF0006" stroke-width="4.76691" stroke-miterlimit="10"/>
<path d="M34.0729 68.3186C34.0302 69.602 31.8494 71.6341 30.8232 72.1261C23.9174 75.3775 18.5937 72.6395 18.0806 72.2331C15.4508 70.1796 15.3225 68.2758 16.2419 66.3721C16.8619 65.0673 19.2137 62.7143 21.5228 61.8801C23.8318 61.0459 26.3547 61.2811 28.7707 61.6448C30.7804 61.9656 34.5647 63.7411 35.313 64.6394C35.313 64.6394 38.5628 64.5111 38.5842 65.5165C38.6055 66.5218 34.0729 68.3186 34.0729 68.3186Z" stroke="#DF0006" stroke-width="4.76691" stroke-miterlimit="10"/>
<path d="M35.4416 57.0883C33.7953 55.9118 32.0636 55.099 30.3318 54.3931C28.9207 53.8156 26.7399 53.4733 25.0936 53.4306C23.8108 53.4092 21.01 53.73 18.0596 54.9279" stroke="#DF0006" stroke-width="4.76691" stroke-miterlimit="10"/>
<path d="M26.8251 68.9826C27.71 68.8328 28.3138 68.0409 28.1739 67.2138C28.034 66.3868 27.2033 65.8379 26.3184 65.9877C25.4336 66.1376 24.8297 66.9295 24.9697 67.7565C25.1096 68.5835 25.9403 69.1325 26.8251 68.9826Z" stroke="#DF0006" stroke-width="4.76691" stroke-miterlimit="10"/>
<path d="M53.1658 94.2036C54.1321 94.0399 54.7909 93.1707 54.6371 92.2622C54.4834 91.3536 53.5754 90.7498 52.6091 90.9134C51.6428 91.0771 50.984 91.9462 51.1377 92.8548C51.2914 93.7634 52.1994 94.3672 53.1658 94.2036Z" stroke="#DF0006" stroke-width="4.76691" stroke-miterlimit="10"/>
<path d="M39.7617 93.1093C40.728 92.9456 41.3868 92.0764 41.233 91.1679C41.0793 90.2593 40.1713 89.6555 39.205 89.8191C38.2387 89.9828 37.5799 90.8519 37.7337 91.7605C37.8874 92.6691 38.7953 93.2729 39.7617 93.1093Z" stroke="#DF0006" stroke-width="4.76691" stroke-miterlimit="10"/>
<path d="M28.9846 106.992C28.9846 106.992 51.9469 98.2009 59.4086 106.372C66.8703 114.543 51.4124 112.982 51.4124 112.982C51.4124 112.982 44.6349 110.436 38.1567 112.49C31.6571 114.543 39.9526 119.356 39.9526 119.356" stroke="#DF0006" stroke-width="4.76691" stroke-miterlimit="10"/>
</svg>
