<svg width="99" height="131" viewBox="0 0 99 131" fill="none" xmlns="http://www.w3.org/2000/svg">
<path d="M95.6976 78.7254C95.3341 82.597 92.6402 92.6078 90.3525 95.8591C85.5206 102.704 83.0833 107.688 78.2514 114.533C75.7285 118.105 69.2076 122.768 65.4019 125.25C57.8761 130.148 47.635 128.715 39.1043 124.822C30.595 120.929 23.6892 114.64 17.4034 108.201C13.3198 104.009 10.0914 97.7629 7.80371 92.6505C4.74635 85.7414 2.28762 77.3564 2.88627 70.0408C3.76285 59.0675 5.72983 48.3509 6.6278 37.3776C7.483 26.8321 9.59965 18.4685 17.9593 11.1529C23.1761 6.59677 32.5833 5.18499 39.8526 4.00851C55.5456 1.48444 72.8422 4.11548 84.0882 14.5968C90.9298 20.9711 94.5644 29.292 95.5479 37.9552C96.5528 47.0461 96.0824 52.7146 96.0397 61.6558C95.9969 69.6558 96.3817 71.3884 95.6976 78.7254Z" fill="white" stroke="#DF0006" stroke-width="4.76691" stroke-miterlimit="10"/>
<path d="M34.8933 37.5061C34.7651 38.8323 32.2422 40.7146 31.0877 41.0996C23.3053 43.7735 17.6182 40.3938 17.0836 39.9232C14.3256 37.5488 14.3042 35.5595 15.416 33.6772C16.1857 32.3937 18.901 30.1905 21.488 29.5702C24.075 28.9499 26.833 29.4205 29.4628 30.0622C31.6436 30.5969 35.7058 32.8001 36.4755 33.8055C36.4755 33.8055 40.046 33.998 40.0246 35.0461C39.9818 36.0943 34.8933 37.5061 34.8933 37.5061Z" fill="white" stroke="#DF0006" stroke-width="4.76691" stroke-miterlimit="10"/>
<path d="M23.1778 36.974C24.1111 36.8279 24.7539 35.981 24.6134 35.0823C24.4729 34.1836 23.6024 33.5734 22.6691 33.7194C21.7358 33.8654 21.0931 34.7123 21.2336 35.6111C21.3741 36.5098 22.2445 37.12 23.1778 36.974Z" fill="white" stroke="#DF0006" stroke-width="4.76691" stroke-miterlimit="10"/>
<path d="M65.5736 40.6074C65.488 41.848 67.5405 43.9657 68.524 44.5219C75.2374 48.2224 80.9245 46.0834 81.4804 45.7625C84.3453 44.0299 84.666 42.2331 83.9177 40.3293C83.4046 39.0245 81.1169 37.1849 78.7223 36.5218C75.9857 35.7518 74.3822 35.5806 71.9021 35.709C69.8282 35.8373 65.5522 36.1796 64.697 36.971C64.697 36.971 61.4044 36.5646 61.2762 37.5272C61.1265 38.4897 65.5736 40.6074 65.5736 40.6074Z" fill="white" stroke="#DF0006" stroke-width="4.76691" stroke-miterlimit="10"/>
<path d="M77.5971 40.0447C77.6967 39.2476 77.046 38.5099 76.1438 38.3971C75.2416 38.2843 74.4295 38.8391 74.3299 39.6362C74.2304 40.4334 74.881 41.171 75.7832 41.2838C76.6855 41.3966 77.4976 40.8418 77.5971 40.0447Z" fill="white" stroke="#DF0006" stroke-width="4.76691" stroke-miterlimit="10"/>
<path d="M45.7345 79.8388C45.8443 78.9596 45.1354 78.1471 44.1512 78.024C43.167 77.901 42.2801 78.514 42.1703 79.3932C42.0605 80.2724 42.7693 81.0849 43.7535 81.2079C44.7378 81.331 45.6247 80.718 45.7345 79.8388Z" fill="white" stroke="#DF0006" stroke-width="4.76691" stroke-miterlimit="10"/>
<path d="M59.5016 79.8362C59.6114 78.957 58.9025 78.1445 57.9183 78.0214C56.9341 77.8984 56.0472 78.5114 55.9374 79.3906C55.8275 80.2698 56.5364 81.0822 57.5206 81.2053C58.5049 81.3283 59.3918 80.7154 59.5016 79.8362Z" fill="white" stroke="#DF0006" stroke-width="4.76691" stroke-miterlimit="10"/>
<path d="M66.9202 101.442C66.9202 101.442 45.0911 91.859 36.0045 98.1478C26.8752 104.437 41.6916 103.025 41.6916 103.025C41.6916 103.025 53.13 103.025 57.0853 105.87C62.58 109.827 54.3487 110.404 54.3487 110.404" fill="white"/>
<path d="M66.9202 101.442C66.9202 101.442 45.0911 91.859 36.0045 98.1478C26.8752 104.437 41.6916 103.025 41.6916 103.025C41.6916 103.025 53.13 103.025 57.0853 105.87C62.58 109.827 54.3487 110.404 54.3487 110.404" stroke="#DF0006" stroke-width="4.76691" stroke-miterlimit="10"/>
</svg>
