<svg width="101" height="109" viewBox="0 0 101 109" fill="none" xmlns="http://www.w3.org/2000/svg">
<path d="M97.5596 64.1483C97.303 67.3569 94.7587 75.6991 92.4497 78.4585C87.5964 84.2767 85.1804 88.4692 80.3271 94.2874C77.8042 97.3249 71.1123 101.41 67.1783 103.592C59.4387 107.892 48.6631 107.1 39.6406 104.213C30.6182 101.325 23.1993 96.4051 16.4432 91.3355C12.0602 88.0414 8.46837 83.0147 5.94551 78.8863C2.54607 73.3248 2.18262 67.3996 2.58885 61.3461C3.18749 52.2766 8.40424 42.7151 9.02426 33.6455C9.60153 24.9396 16.1866 15.7845 24.7387 9.4529C30.0623 5.49566 35.0653 5.77376 42.6339 4.53312C58.9897 1.85931 71.4544 3.59193 83.5128 11.8059C90.8676 16.7898 94.9084 23.5278 96.1698 30.608C97.4954 38.0519 97.1533 42.7364 97.3671 50.0947C97.5809 56.6616 98.0513 58.0734 97.5596 64.1483Z" fill="white" stroke="#DF0006" stroke-width="4.76691" stroke-miterlimit="10"/>
<path d="M37.3534 42.9934C37.2678 44.0843 34.6595 45.7313 33.4836 46.095C25.4232 48.5763 19.3726 46.0094 18.774 45.6458C15.8235 43.7848 15.738 42.1591 16.8498 40.5549C17.6195 39.464 20.3989 37.5602 23.0714 36.9399C25.7653 36.3196 28.673 36.619 31.431 37.0468C33.7187 37.3891 38.0375 39.0789 38.8713 39.8704C38.8713 39.8704 42.6343 39.8918 42.6129 40.7474C42.6343 41.6458 37.3534 42.9934 37.3534 42.9934Z" fill="white" stroke="#DF0006" stroke-width="4.76691" stroke-miterlimit="10"/>
<path d="M24.8084 43.0271C25.7986 42.9689 26.566 42.3194 26.5224 41.5764C26.4788 40.8335 25.6407 40.2783 24.6505 40.3364C23.6603 40.3946 22.893 41.044 22.9366 41.787C22.9802 42.53 23.8182 43.0852 24.8084 43.0271Z" fill="white" stroke="#DF0006" stroke-width="4.76691" stroke-miterlimit="10"/>
<path d="M65.1908 42.4158C65.148 43.4425 67.3288 45.111 68.3978 45.5174C75.5388 48.3196 81.4183 46.3516 81.9956 46.0522C84.9461 44.5334 85.224 43.0147 84.3688 41.496C83.7916 40.4479 81.3542 39.0147 78.81 38.5655C75.9236 38.0307 74.2346 37.9452 71.6476 38.1591C69.4882 38.3302 64.9984 38.7794 64.1432 39.4639C64.1432 39.4639 60.6796 39.25 60.5727 40.0415C60.4872 40.8329 65.1908 42.4158 65.1908 42.4158Z" fill="white" stroke="#DF0006" stroke-width="4.76691" stroke-miterlimit="10"/>
<path d="M77.8058 41.3978C77.8095 40.7244 77.0371 40.1742 76.0807 40.1689C75.1242 40.1636 74.3459 40.7053 74.3422 41.3786C74.3385 42.052 75.1108 42.6022 76.0672 42.6075C77.0237 42.6127 77.802 42.0711 77.8058 41.3978Z" fill="white" stroke="#DF0006" stroke-width="4.76691" stroke-miterlimit="10"/>
<path d="M45.2729 66.7979C45.277 66.0654 44.4379 65.4669 43.3988 65.4612C42.3597 65.4555 41.514 66.0446 41.51 66.7771C41.506 67.5095 42.3451 68.1079 43.3842 68.1137C44.4232 68.1194 45.2689 67.5303 45.2729 66.7979Z" fill="white" stroke="#DF0006" stroke-width="4.76691" stroke-miterlimit="10"/>
<path d="M59.6999 66.29C59.704 65.5576 58.8649 64.9592 57.8258 64.9535C56.7867 64.9477 55.941 65.5368 55.937 66.2693C55.933 67.0017 56.7721 67.6001 57.8112 67.6058C58.8503 67.6116 59.6959 67.0225 59.6999 66.29Z" fill="white" stroke="#DF0006" stroke-width="4.76691" stroke-miterlimit="10"/>
<path d="M68.0773 83.9131C68.0773 83.9131 44.9653 76.8328 35.6222 82.3515C26.2577 87.8703 41.7155 86.159 41.7155 86.159C41.7155 86.159 53.7098 85.7312 57.9003 87.9344C63.7798 90.9933 55.1636 91.7633 55.1636 91.7633" fill="white"/>
<path d="M68.0773 83.9131C68.0773 83.9131 44.9653 76.8328 35.6222 82.3515C26.2577 87.8703 41.7155 86.159 41.7155 86.159C41.7155 86.159 53.7098 85.7312 57.9003 87.9344C63.7798 90.9933 55.1636 91.7633 55.1636 91.7633" stroke="#DF0006" stroke-width="4.76691" stroke-miterlimit="10"/>
</svg>
