<svg width="97" height="140" viewBox="0 0 97 140" fill="none" xmlns="http://www.w3.org/2000/svg">
<path d="M94.0519 83.9179C93.8809 87.9821 91.7001 98.5276 89.6048 102.036C85.2005 109.394 83.0411 114.677 78.6154 122.036C76.3277 125.865 70.1489 130.998 66.5356 133.758C59.3946 139.191 49.3246 138.121 40.8153 134.421C32.3274 130.72 25.2933 124.453 18.8578 117.993C14.6887 113.8 11.2251 107.426 8.7878 102.164C5.47387 95.0837 2.71584 86.442 2.95102 78.7842C3.31448 67.2975 4.76831 56.0248 5.13178 44.5381C5.49524 33.5006 8.16778 21.9284 16.0143 13.9497C20.9104 8.96578 27.923 6.33475 34.9785 4.79464C50.2012 1.47912 67.8826 3.34009 79.3637 13.8C86.3336 20.153 90.289 29.0728 91.6146 38.0568C93.0043 47.49 93.2608 56.7734 93.6243 66.0997C93.9236 74.4419 94.3726 76.2387 94.0519 83.9179Z" fill="white" stroke="#DF0006" stroke-width="4.76691" stroke-miterlimit="10"/>
<path d="M39.4477 45.9286C39.4263 47.1693 37.0958 48.9447 36.0054 49.3297C28.6293 51.9179 22.878 48.8591 22.3222 48.4313C19.4786 46.2495 19.3075 44.4099 20.2696 42.6345C20.9324 41.4366 23.4126 39.3403 25.8713 38.72C28.33 38.0997 31.0453 38.5061 33.6323 39.0623C35.7916 39.5115 39.8753 41.5222 40.7091 42.442C40.7091 42.442 44.1941 42.5703 44.2368 43.5329C44.2796 44.4954 39.4477 45.9286 39.4477 45.9286Z" stroke="#DF0006" stroke-width="4.76691" stroke-miterlimit="10"/>
<path d="M40.0245 53.2224C39.1266 54.7197 38.0362 56.1315 36.6678 57.2651C33.6746 59.7892 29.3986 60.8587 25.4219 60.1101" stroke="#DF0006" stroke-width="4.76691" stroke-miterlimit="10"/>
<path d="M28.7519 44.7687C28.9481 43.8805 28.3406 42.991 27.3951 42.782C26.4496 42.5731 25.5241 43.1238 25.328 44.0121C25.1319 44.9003 25.7394 45.7898 26.6849 45.9988C27.6304 46.2077 28.5558 45.657 28.7519 44.7687Z" stroke="#DF0006" stroke-width="4.76691" stroke-miterlimit="10"/>
<path d="M63.7767 48.5596C63.7553 49.843 65.8506 51.9821 66.834 52.5169C73.5688 56.1105 79.0208 53.6292 79.5553 53.2441C82.2705 51.319 82.5057 49.4152 81.6719 47.4687C81.116 46.1425 78.8925 43.6612 76.6262 42.72C74.3599 41.7789 71.837 41.8644 69.3997 42.1425C67.39 42.3564 63.4988 43.9393 62.7077 44.8163C62.7077 44.8163 59.4579 44.5382 59.3938 45.5222C59.3296 46.5275 63.7767 48.5596 63.7767 48.5596Z" stroke="#DF0006" stroke-width="4.76691" stroke-miterlimit="10"/>
<path d="M62.9434 37.2866C64.6538 36.1957 66.4069 35.4684 68.1815 34.8481C69.614 34.3561 71.8161 34.0994 73.4624 34.1422C74.7452 34.185 77.5246 34.6342 80.4109 35.9818" stroke="#DF0006" stroke-width="4.76691" stroke-miterlimit="10"/>
<path d="M72.9032 48.4212C73.084 47.6021 72.5202 46.7811 71.6439 46.5875C70.7676 46.3938 69.9106 46.9008 69.7298 47.7198C69.5489 48.5389 70.1127 49.3599 70.9891 49.5535C71.8654 49.7472 72.7224 49.2402 72.9032 48.4212Z" stroke="#DF0006" stroke-width="4.76691" stroke-miterlimit="10"/>
<path d="M45.5122 82.8886C45.7109 81.9888 45.0961 81.0879 44.139 80.8764C43.182 80.6649 42.2451 81.2229 42.0465 82.1227C41.8478 83.0225 42.4626 83.9234 43.4196 84.1349C44.3767 84.3464 45.3135 83.7884 45.5122 82.8886Z" stroke="#DF0006" stroke-width="4.76691" stroke-miterlimit="10"/>
<path d="M58.979 82.4487C59.1776 81.5489 58.5629 80.648 57.6058 80.4365C56.6488 80.225 55.7119 80.783 55.5133 81.6828C55.3146 82.5826 55.9294 83.4835 56.8864 83.695C57.8434 83.9065 58.7803 83.3485 58.979 82.4487Z" stroke="#DF0006" stroke-width="4.76691" stroke-miterlimit="10"/>
<path d="M66.9419 108.816C66.9419 108.816 44.4286 98.8909 36.5821 106.677C28.7142 114.463 44.2576 113.672 44.2576 113.672C44.2576 113.672 51.142 111.447 57.5347 113.821C63.9273 116.196 55.3966 120.581 55.3966 120.581" stroke="#DF0006" stroke-width="4.76691" stroke-miterlimit="10"/>
</svg>
