<svg width="88" height="123" viewBox="0 0 88 123" fill="none" xmlns="http://www.w3.org/2000/svg">
<path d="M2.79033 71.9121C2.76895 75.4629 3.38897 82.0726 4.90696 88.0833C7.5581 98.5005 18.8041 112.832 23.7215 116.148C31.4611 121.388 43.6478 120.811 51.2164 118.501C58.956 116.126 71.6772 104.982 78.0699 91.1635C80.9348 84.9817 82.41 77.8373 82.4956 71.1421C82.6452 61.11 84.7833 51.3987 84.9329 41.3666C85.0612 31.7195 80.2507 21.3237 73.7297 14.0296C69.6675 9.49481 63.6383 6.88517 57.5449 5.28088C44.3961 1.77285 28.8741 2.67125 18.462 11.3344C12.1121 16.5964 8.3064 24.2114 6.78841 32.0189C5.1849 40.1901 4.60764 48.2757 3.90209 56.4041C3.28206 63.6768 2.81171 65.2169 2.79033 71.9121Z" fill="white" stroke="#DF0006" stroke-width="4.76691" stroke-miterlimit="10"/>
<path d="M56.1334 49.8156C56.1334 51.0349 58.1217 52.9386 59.0839 53.3878C65.4979 56.4039 70.6078 53.7728 71.0995 53.4092C73.6438 51.4627 73.8362 49.6445 73.0237 47.8691C72.4678 46.6498 70.3512 44.4466 68.1918 43.6766C66.0538 42.9065 63.6592 43.1418 61.3715 43.5054C59.4687 43.8263 55.8341 45.5161 55.1071 46.3717C55.1071 46.3717 52.0498 46.2648 51.9857 47.2274C51.9001 48.1472 56.1334 49.8156 56.1334 49.8156Z" fill="white" stroke="#DF0006" stroke-width="4.76691" stroke-miterlimit="10"/>
<path d="M50.2969 55.3132C51.0238 56.6608 51.9218 57.9229 53.0549 58.9924C55.5564 61.3026 59.2552 62.4363 62.7615 61.9229" fill="white"/>
<path d="M50.2969 55.3132C51.0238 56.6608 51.9218 57.9229 53.0549 58.9924C55.5564 61.3026 59.2552 62.4363 62.7615 61.9229" stroke="#DF0006" stroke-width="4.76691" stroke-miterlimit="10"/>
<path d="M55.1931 39.2279C56.7966 38.1156 58.4429 37.3241 60.1106 36.661C61.4575 36.1049 63.5314 35.7627 65.0921 35.7199C66.3108 35.6985 68.9405 35.9766 71.6772 37.0889" fill="white"/>
<path d="M55.1931 39.2279C56.7966 38.1156 58.4429 37.3241 60.1106 36.661C61.4575 36.1049 63.5314 35.7627 65.0921 35.7199C66.3108 35.6985 68.9405 35.9766 71.6772 37.0889" stroke="#DF0006" stroke-width="4.76691" stroke-miterlimit="10"/>
<path d="M63.4663 50.3447C64.2924 50.202 64.853 49.454 64.7185 48.6741C64.5839 47.8941 63.8051 47.3775 62.979 47.5202C62.1528 47.6628 61.5922 48.4108 61.7268 49.1908C61.8614 49.9707 62.6402 50.4873 63.4663 50.3447Z" fill="white" stroke="#DF0006" stroke-width="4.76691" stroke-miterlimit="10"/>
<path d="M29.7721 50.2652C29.7507 51.3989 27.8265 53.1743 26.9499 53.6021C20.9207 56.4685 16.2598 54.0727 15.8108 53.7305C13.5017 51.9551 13.3949 50.2652 14.1859 48.5968C14.7418 47.4631 16.7729 45.3882 18.7827 44.6609C20.7924 43.9337 22.9945 44.1262 25.1112 44.447C26.8643 44.7251 30.1783 46.2652 30.8411 47.0353C30.8411 47.0353 33.6846 46.9069 33.706 47.7839C33.7274 48.6609 29.7721 50.2652 29.7721 50.2652Z" fill="white" stroke="#DF0006" stroke-width="4.76691" stroke-miterlimit="10"/>
<path d="M30.9479 40.4685C29.494 39.4417 27.9974 38.7358 26.4581 38.1369C25.2394 37.6449 23.3152 37.3454 21.8827 37.3241C20.7495 37.3027 18.3122 37.6021 15.7466 38.6502" fill="white"/>
<path d="M30.9479 40.4685C29.494 39.4417 27.9974 38.7358 26.4581 38.1369C25.2394 37.6449 23.3152 37.3454 21.8827 37.3241C20.7495 37.3027 18.3122 37.6021 15.7466 38.6502" stroke="#DF0006" stroke-width="4.76691" stroke-miterlimit="10"/>
<path d="M23.4252 50.8393C24.1931 50.7067 24.7147 50.0141 24.5902 49.2923C24.4657 48.5706 23.7422 48.093 22.9742 48.2256C22.2063 48.3582 21.6847 49.0509 21.8092 49.7726C21.9337 50.4944 22.6573 50.9719 23.4252 50.8393Z" fill="white" stroke="#DF0006" stroke-width="4.76691" stroke-miterlimit="10"/>
<path d="M46.5161 83.4996C47.3539 83.3549 47.9223 82.5959 47.7857 81.8043C47.6492 81.0127 46.8593 80.4883 46.0215 80.633C45.1838 80.7777 44.6154 81.5367 44.7519 82.3283C44.8885 83.1199 45.6784 83.6443 46.5161 83.4996Z" fill="white" stroke="#DF0006" stroke-width="4.76691" stroke-miterlimit="10"/>
<path d="M34.8011 82.5773C35.6388 82.4326 36.2072 81.6736 36.0707 80.882C35.9341 80.0904 35.1442 79.566 34.3065 79.7107C33.4687 79.8554 32.9003 80.6144 33.0369 81.406C33.1734 82.1976 33.9633 82.722 34.8011 82.5773Z" fill="white" stroke="#DF0006" stroke-width="4.76691" stroke-miterlimit="10"/>
<path d="M25.4324 94.7571C25.4324 94.7571 45.4656 87.0138 52.0079 94.1368C58.5502 101.26 45.038 99.9336 45.038 99.9336C45.038 99.9336 39.1157 97.7304 33.4499 99.5272C27.7842 101.324 35.032 105.517 35.032 105.517" fill="white"/>
<path d="M25.4324 94.7571C25.4324 94.7571 45.4656 87.0138 52.0079 94.1368C58.5502 101.26 45.038 99.9336 45.038 99.9336C45.038 99.9336 39.1157 97.7304 33.4499 99.5272C27.7842 101.324 35.032 105.517 35.032 105.517" stroke="#DF0006" stroke-width="4.76691" stroke-miterlimit="10"/>
</svg>
