<svg width="101" height="89" viewBox="0 0 101 89" fill="none" xmlns="http://www.w3.org/2000/svg">
<path d="M90.3717 66.0672C86.1598 72.1421 75.7049 79.5431 69.2053 82.2169C58.9429 86.4309 48.659 87.4148 39.7648 84.8907C16.2252 78.1528 2.60609 55.2436 2.62747 46.666C2.64885 39.3719 5.47103 32.3558 6.369 25.1259C7.2242 18.174 9.34088 12.6552 17.7005 7.82099C22.9173 4.80494 32.3245 3.88514 39.5938 3.11508C55.2868 1.44663 72.5834 3.20065 83.8294 10.1098C90.671 14.3023 94.3056 19.7996 95.2891 25.5109C96.294 31.5002 96.9568 35.6072 97.7479 41.4468C99.2017 52.1206 94.7119 59.7998 90.3717 66.0672Z" fill="white" stroke="#DF0006" stroke-width="4.76691" stroke-miterlimit="10"/>
<path d="M34.6321 25.1901C34.5038 26.0671 31.9809 27.3077 30.8264 27.5644C23.044 29.3184 17.3569 27.0938 16.8224 26.7944C14.0644 25.2329 14.043 23.9067 15.1548 22.666C15.9245 21.8104 18.6397 20.3772 21.2267 19.9494C23.8137 19.543 26.5717 19.8639 29.2015 20.2703C31.3823 20.6125 35.4446 22.0671 36.2142 22.7516C36.2142 22.7516 39.7847 22.8799 39.7633 23.5644C39.7419 24.2489 34.6321 25.1901 34.6321 25.1901Z" fill="white" stroke="#DF0006" stroke-width="4.76691" stroke-miterlimit="10"/>
<path d="M22.6721 24.8568C23.6167 24.8435 24.3755 24.3443 24.367 23.7419C24.3585 23.1395 23.5859 22.6619 22.6414 22.6752C21.6968 22.6885 20.938 23.1877 20.9465 23.7901C20.955 24.3926 21.7276 24.8702 22.6721 24.8568Z" fill="white" stroke="#DF0006" stroke-width="4.76691" stroke-miterlimit="10"/>
<path d="M65.3138 27.2221C65.2283 28.035 67.2808 29.4467 68.2643 29.8104C74.9777 32.2489 80.6648 30.8371 81.2207 30.6232C84.0856 29.4895 84.4063 28.2916 83.658 27.0296C83.1449 26.174 80.8572 24.9547 78.4626 24.5269C75.726 24.035 74.1224 23.9066 71.6423 23.9922C69.5685 24.0777 65.2924 24.313 64.4372 24.8264C64.4372 24.8264 61.1447 24.5483 61.0164 25.19C60.8667 25.8317 65.3138 27.2221 65.3138 27.2221Z" fill="white" stroke="#DF0006" stroke-width="4.76691" stroke-miterlimit="10"/>
<path d="M77.3855 26.8178C77.3997 26.2864 76.6744 25.8359 75.7656 25.8116C74.8567 25.7873 74.1085 26.1985 74.0943 26.7299C74.0801 27.2613 74.8054 27.7117 75.7142 27.736C76.6231 27.7603 77.3713 27.3492 77.3855 26.8178Z" fill="white" stroke="#DF0006" stroke-width="4.76691" stroke-miterlimit="10"/>
<path d="M45.4968 53.0359C45.5123 52.4573 44.721 51.9668 43.7296 51.9403C42.7381 51.9138 41.9218 52.3613 41.9064 52.94C41.8909 53.5186 42.6822 54.0092 43.6736 54.0357C44.6651 54.0622 45.4814 53.6146 45.4968 53.0359Z" fill="white" stroke="#DF0006" stroke-width="4.76691" stroke-miterlimit="10"/>
<path d="M59.2632 53.0562C59.2786 52.4776 58.4874 51.9871 57.4959 51.9606C56.5045 51.9341 55.6882 52.3817 55.6727 52.9603C55.6573 53.5389 56.4485 54.0295 57.44 54.056C58.4315 54.0825 59.2477 53.6349 59.2632 53.0562Z" fill="white" stroke="#DF0006" stroke-width="4.76691" stroke-miterlimit="10"/>
<path d="M66.6611 67.3502C66.6611 67.3502 44.8319 61.04 35.7454 65.1684C26.616 69.3181 50.1556 70.6229 50.1556 70.6229" fill="white"/>
<path d="M66.6611 67.3502C66.6611 67.3502 44.8319 61.04 35.7454 65.1684C26.616 69.3181 50.1556 70.6229 50.1556 70.6229" stroke="#DF0006" stroke-width="4.76691" stroke-miterlimit="10"/>
</svg>
