<svg width="100" height="90" viewBox="0 0 100 90" fill="none" xmlns="http://www.w3.org/2000/svg">
<path d="M87.0212 71.726C82.061 77.2234 70.7509 83.1913 63.952 85.0095C53.2406 87.8758 42.8926 87.5336 34.4047 83.8758C11.9127 74.1646 1.3723 49.6939 2.48407 41.2019C3.42479 33.9719 7.14494 27.3836 8.96225 20.3034C10.694 13.5226 13.4948 8.32475 22.4317 4.60281C27.9906 2.29265 37.4406 2.5707 44.7526 2.74182C60.5312 3.10546 77.4643 7.06271 87.7268 15.3622C93.9698 20.4104 96.8775 26.3355 97.1127 32.1109C97.3479 38.1858 97.4761 42.3356 97.4975 48.2179C97.5617 59.0415 92.1311 66.0789 87.0212 71.726Z" fill="white" stroke="#DF0006" stroke-width="4.76691" stroke-miterlimit="10"/>
<path d="M36.9909 24.0253C36.7558 24.8809 34.0833 25.7793 32.9073 25.8862C24.9539 26.6349 19.6089 23.7044 19.1171 23.3194C16.5729 21.4156 16.7226 20.1108 18.0054 19.0199C18.8819 18.2712 21.7683 17.1803 24.3767 17.1161C26.985 17.0306 29.7003 17.7151 32.2446 18.4638C34.3612 19.0841 38.2096 21.052 38.8724 21.8221C38.8724 21.8221 42.4002 22.3996 42.2932 23.0841C42.165 23.7472 36.9909 24.0253 36.9909 24.0253Z" fill="white" stroke="#DF0006" stroke-width="4.76691" stroke-miterlimit="10"/>
<path d="M26.9785 21.2373C27.0474 20.6387 26.3426 20.0659 25.4042 19.9578C24.4658 19.8497 23.6492 20.2472 23.5803 20.8457C23.5114 21.4442 24.2163 22.0171 25.1547 22.1252C26.0931 22.2333 26.9096 21.8358 26.9785 21.2373Z" fill="white" stroke="#DF0006" stroke-width="4.76691" stroke-miterlimit="10"/>
<path d="M67.1591 29.9929C66.9666 30.7843 68.8053 32.4528 69.7461 32.9234C76.096 36.2175 81.9114 35.5544 82.4886 35.4047C85.4819 34.656 85.9522 33.5009 85.3536 32.1533C84.9474 31.2335 82.8521 29.7362 80.5217 28.9875C77.8705 28.1319 76.2884 27.8111 73.8083 27.5758C71.7558 27.3832 67.4584 27.0624 66.5391 27.4688C66.5391 27.4688 63.3106 26.7843 63.0968 27.3833C62.9258 28.025 67.1591 29.9929 67.1591 29.9929Z" fill="white" stroke="#DF0006" stroke-width="4.76691" stroke-miterlimit="10"/>
<path d="M79.1394 31.0608C79.2217 30.5357 78.5602 29.9958 77.662 29.855C76.7638 29.7142 75.969 30.0257 75.8867 30.5509C75.8045 31.0761 76.4659 31.616 77.3642 31.7568C78.2624 31.8976 79.0572 31.586 79.1394 31.0608Z" fill="white" stroke="#DF0006" stroke-width="4.76691" stroke-miterlimit="10"/>
<path d="M44.1576 53.0038C44.2471 52.4319 43.5254 51.8438 42.5456 51.6902C41.5657 51.5365 40.6988 51.8756 40.6092 52.4475C40.5196 53.0193 41.2414 53.6074 42.2212 53.7611C43.2011 53.9147 44.068 53.5756 44.1576 53.0038Z" fill="white" stroke="#DF0006" stroke-width="4.76691" stroke-miterlimit="10"/>
<path d="M57.7946 54.7623C57.8841 54.1904 57.1624 53.6023 56.1825 53.4486C55.2027 53.295 54.3357 53.6341 54.2462 54.206C54.1566 54.7778 54.8783 55.3659 55.8582 55.5195C56.838 55.6732 57.705 55.3341 57.7946 54.7623Z" fill="white" stroke="#DF0006" stroke-width="4.76691" stroke-miterlimit="10"/>
<path d="M63.3538 69.9502C63.3538 69.9502 42.5295 60.8807 32.9726 63.8326C23.3943 66.7844 46.5704 71.0839 46.5704 71.0839" fill="white"/>
<path d="M63.3538 69.9502C63.3538 69.9502 42.5295 60.8807 32.9726 63.8326C23.3943 66.7844 46.5704 71.0839 46.5704 71.0839" stroke="#DF0006" stroke-width="4.76691" stroke-miterlimit="10"/>
</svg>
