<svg width="113" height="138" viewBox="0 0 113 138" fill="none" xmlns="http://www.w3.org/2000/svg">
<path d="M3.89273 73.3878C3.12305 77.3878 2.95196 88.1686 4.38444 92.0402C7.39904 100.169 8.46804 105.816 11.4613 113.944C13.022 118.179 18.4526 124.532 21.7024 127.998C28.1164 134.843 39.2341 135.976 49.2828 134.201C59.3315 132.425 68.3967 127.826 76.906 122.907C82.4007 119.719 87.6602 114.222 91.5514 109.623C96.8109 103.42 101.857 95.5911 103.417 88.0616C105.748 76.7675 106.881 65.4519 109.211 54.1578C111.456 43.2914 111.328 31.4411 104.764 21.9438C100.681 16.0186 93.7322 11.933 86.4843 8.91697C70.834 2.41427 51.3139 0.403574 36.4547 8.12553C27.4109 12.8314 21.0396 20.6817 17.4478 29.1737C13.6848 38.0722 11.2261 47.0989 8.61773 56.1257C6.28729 64.1685 5.36796 65.8369 3.89273 73.3878Z" fill="white" stroke="#DF0006" stroke-width="4.76691" stroke-miterlimit="10"/>
<path d="M72.8448 70.9065C72.5668 72.2755 74.6621 74.821 75.7524 75.5055C83.0858 80.1472 90.0344 78.2007 90.74 77.8584C94.3318 76.1472 94.9518 74.1579 94.3318 71.976C93.9042 70.4787 91.7235 67.591 89.222 66.3076C86.7205 65.0241 83.6845 64.8102 80.7554 64.7889C78.3181 64.7675 73.422 65.9867 72.3103 66.7995C72.3103 66.7995 68.5046 66.0937 68.248 67.1632C67.9487 68.1899 72.8448 70.9065 72.8448 70.9065Z" fill="white" stroke="#DF0006" stroke-width="4.76691" stroke-miterlimit="10"/>
<path d="M64.3989 75.9761C65.019 77.6446 65.8528 79.2489 67.05 80.6606C69.6798 83.7623 74.0414 85.7516 78.5098 85.8585" fill="white"/>
<path d="M64.3989 75.9761C65.019 77.6446 65.8528 79.2489 67.05 80.6606C69.6798 83.7623 74.0414 85.7516 78.5098 85.8585" stroke="#DF0006" stroke-width="4.76691" stroke-miterlimit="10"/>
<path d="M81.8878 72.9595C82.9505 72.9595 83.8121 72.2221 83.8121 71.3125C83.8121 70.4028 82.9505 69.6654 81.8878 69.6654C80.8251 69.6654 79.9636 70.4028 79.9636 71.3125C79.9636 72.2221 80.8251 72.9595 81.8878 72.9595Z" fill="white" stroke="#DF0006" stroke-width="4.76691" stroke-miterlimit="10"/>
<path d="M39.8978 66.3073C39.6199 67.5693 36.8618 69.2164 35.6645 69.5159C27.54 71.5693 22.2378 67.9757 21.7461 67.4838C19.266 65.0239 19.4797 63.1201 20.8267 61.3875C21.746 60.211 24.7393 58.2645 27.3904 57.8367C30.0629 57.4089 32.7782 58.0506 35.3224 58.8206C37.4391 59.4623 41.2448 61.8367 41.9075 62.8634C41.9075 62.8634 45.478 63.2912 45.307 64.2752C45.1787 65.2806 39.8978 66.3073 39.8978 66.3073Z" fill="white" stroke="#DF0006" stroke-width="4.76691" stroke-miterlimit="10"/>
<path d="M43.4684 55.4626C41.8862 54.0294 40.1545 52.9385 38.3799 51.9546C36.9475 51.1631 34.6384 50.4358 32.8424 50.1364C31.4527 49.9011 28.3526 49.7513 24.9104 50.4358" fill="white"/>
<path d="M43.4684 55.4626C41.8862 54.0294 40.1545 52.9385 38.3799 51.9546C36.9475 51.1631 34.6384 50.4358 32.8424 50.1364C31.4527 49.9011 28.3526 49.7513 24.9104 50.4358" stroke="#DF0006" stroke-width="4.76691" stroke-miterlimit="10"/>
<path d="M31.8792 65.7087C32.871 65.7087 33.6751 65.0288 33.6751 64.19C33.6751 63.3512 32.871 62.6713 31.8792 62.6713C30.8873 62.6713 30.0833 63.3512 30.0833 64.19C30.0833 65.0288 30.8873 65.7087 31.8792 65.7087Z" fill="white" stroke="#DF0006" stroke-width="4.76691" stroke-miterlimit="10"/>
<path d="M51.6556 94.9917C52.7301 94.9917 53.6012 94.2447 53.6012 93.3232C53.6012 92.4018 52.7301 91.6548 51.6556 91.6548C50.581 91.6548 49.71 92.4018 49.71 93.3232C49.71 94.2447 50.581 94.9917 51.6556 94.9917Z" fill="white" stroke="#DF0006" stroke-width="4.76691" stroke-miterlimit="10"/>
<path d="M41.5215 91.6554C42.5961 91.6554 43.4671 90.9084 43.4671 89.9869C43.4671 89.0655 42.5961 88.3185 41.5215 88.3185C40.447 88.3185 39.5759 89.0655 39.5759 89.9869C39.5759 90.9084 40.447 91.6554 41.5215 91.6554Z" fill="white" stroke="#DF0006" stroke-width="4.76691" stroke-miterlimit="10"/>
<path d="M27.2195 107.847C27.2195 107.847 53.8592 103.013 60.487 112.318C67.1149 121.623 50.5452 117.495 50.5452 117.495C50.5452 117.495 43.6395 113.837 36.1778 114.778C28.7161 115.719 36.8619 121.837 36.8619 121.837" fill="white"/>
<path d="M27.2195 107.847C27.2195 107.847 53.8592 103.013 60.487 112.318C67.1149 121.623 50.5452 117.495 50.5452 117.495C50.5452 117.495 43.6395 113.837 36.1778 114.778C28.7161 115.719 36.8619 121.837 36.8619 121.837" stroke="#DF0006" stroke-width="4.76691" stroke-miterlimit="10"/>
</svg>
