<svg width="101" height="140" viewBox="0 0 101 140" fill="none" xmlns="http://www.w3.org/2000/svg">
<path d="M8.56061 91.2873C9.4372 95.266 13.4139 105.277 16.0864 108.357C21.7094 114.838 24.7454 119.672 30.3684 126.154C33.2975 129.533 40.246 133.533 44.2869 135.608C52.2617 139.715 61.9897 136.935 69.7293 131.822C77.4689 126.71 83.3057 119.33 88.5224 111.844C91.9005 106.988 94.2096 100.1 95.7062 94.5173C97.7373 86.9879 98.9773 77.9825 97.4166 70.4958C95.0648 59.2444 91.7081 48.3995 89.3563 37.1481C87.09 26.3459 82.4719 15.4154 73.3639 8.89132C67.6768 4.82714 60.322 3.43674 53.0955 3.15867C37.5307 2.53834 20.4266 7.41539 10.9338 19.6935C5.16116 27.1588 2.80934 36.6133 3.04452 45.7043C3.30108 55.2444 4.66942 64.4209 5.90947 73.6616C7.04262 81.9397 6.91434 83.8007 8.56061 91.2873Z" fill="white" stroke="#DF0006" stroke-width="4.76691" stroke-miterlimit="10"/>
<path d="M61.6267 45.0412C61.9046 46.2391 64.1709 47.7578 65.1117 48.0145C71.5899 49.8113 75.5452 46.3033 75.9087 45.8327C77.726 43.4369 77.4694 41.6187 76.3149 39.993C75.5238 38.8807 73.0864 37.1053 70.9698 36.7203C68.8532 36.3567 66.7579 37.0198 64.8123 37.8112C63.1875 38.4743 60.3225 40.8059 59.8735 41.7899C59.8735 41.7899 57.0941 42.2604 57.2652 43.2016C57.4362 44.1428 61.6267 45.0412 61.6267 45.0412Z" stroke="#DF0006" stroke-width="4.76691" stroke-miterlimit="10"/>
<path d="M56.9658 51.5439C58.1203 52.8701 59.4245 54.0679 60.9639 54.9663C64.342 56.9343 68.7463 57.2551 72.5519 55.822" stroke="#DF0006" stroke-width="4.76691" stroke-miterlimit="10"/>
<path d="M58.3982 32.3568C59.8948 30.7097 61.5624 29.4263 63.2515 28.2498C64.6198 27.3087 66.8433 26.3889 68.5751 25.961C69.9221 25.6188 72.9153 25.2766 76.272 25.8327" stroke="#DF0006" stroke-width="4.76691" stroke-miterlimit="10"/>
<path d="M70.4516 42.7043C71.3468 42.335 71.7915 41.3539 71.4449 40.5129C71.0983 39.672 70.0917 39.2896 69.1965 39.6589C68.3014 40.0282 67.8566 41.0092 68.2032 41.8502C68.5498 42.6912 69.5565 43.0736 70.4516 42.7043Z" stroke="#DF0006" stroke-width="4.76691" stroke-miterlimit="10"/>
<path d="M30.7748 51.7795C30.9886 52.9346 29.6417 55.1806 28.9575 55.8009C24.2111 60.0576 19.593 58.6672 19.1227 58.4105C16.7281 57.1057 16.2791 55.4373 16.6426 53.5549C16.8991 52.2715 18.2675 49.726 19.9137 48.5282C21.5386 47.3303 23.5484 47.0308 25.4726 46.9025C27.0761 46.7955 30.3259 47.6084 31.0742 48.2715C31.0742 48.2715 33.5543 47.5228 33.7681 48.3998C33.9819 49.2768 30.7748 51.7795 30.7748 51.7795Z" stroke="#DF0006" stroke-width="4.76691" stroke-miterlimit="10"/>
<path d="M31.6292 39.8006C29.7477 39.0091 27.8877 38.6241 26.049 38.3032C24.5523 38.0465 22.3502 38.1963 20.7253 38.5385C19.4639 38.7952 16.8127 39.7364 14.2043 41.5546" stroke="#DF0006" stroke-width="4.76691" stroke-miterlimit="10"/>
<path d="M25.8539 53.2806C26.6835 52.9383 27.097 52.0322 26.7774 51.2568C26.4578 50.4814 25.5262 50.1302 24.6966 50.4725C23.8669 50.8147 23.4534 51.7208 23.773 52.4962C24.0926 53.2716 25.0242 53.6228 25.8539 53.2806Z" stroke="#DF0006" stroke-width="4.76691" stroke-miterlimit="10"/>
<path d="M60.3522 93.2852C61.2583 92.9114 61.7082 91.9178 61.3571 91.066C61.006 90.2141 59.9868 89.8264 59.0808 90.2002C58.1747 90.574 57.7248 91.5676 58.0759 92.4195C58.427 93.2714 59.4461 93.659 60.3522 93.2852Z" stroke="#DF0006" stroke-width="4.76691" stroke-miterlimit="10"/>
<path d="M47.0111 95.193C47.9172 94.8192 48.3671 93.8256 48.016 92.9737C47.6649 92.1218 46.6458 91.7342 45.7397 92.108C44.8336 92.4818 44.3837 93.4754 44.7348 94.3273C45.0859 95.1792 46.1051 95.5668 47.0111 95.193Z" stroke="#DF0006" stroke-width="4.76691" stroke-miterlimit="10"/>
<path d="M39.584 111.138C39.584 111.138 60.0448 97.4906 69.1314 103.801C78.2179 110.111 62.7815 112.015 62.7815 112.015C62.7815 112.015 55.6191 111.031 49.7396 114.475C43.86 117.919 53.0107 120.763 53.0107 120.763" stroke="#DF0006" stroke-width="4.76691" stroke-miterlimit="10"/>
</svg>
