<svg width="99" height="111" viewBox="0 0 99 111" fill="none" xmlns="http://www.w3.org/2000/svg">
<path d="M24.0046 87.8383C25.9288 90.4479 29.9911 94.9399 34.4809 98.4694C42.2633 104.566 59.0894 108.395 64.8407 107.924C73.9059 107.175 83.3987 99.5175 88.2306 93.3143C93.1908 86.9827 97.36 71.2179 95.0295 57.25C93.9819 51.004 91.288 44.8863 87.7389 39.9023C82.4152 32.4371 78.8875 24.0306 73.5638 16.5653C68.4326 9.39954 58.9398 4.60808 49.725 3.13214C43.9951 2.21235 37.7307 3.8808 31.958 6.29792C19.472 11.5386 7.4777 21.3996 3.77893 33.9558C1.53402 41.5922 2.60304 49.4638 5.59626 56.0949C8.73915 63.0468 12.6517 69.357 16.5002 75.7313C19.921 81.4854 20.3914 82.8971 24.0046 87.8383Z" fill="white" stroke="#DF0006" stroke-width="4.76691" stroke-miterlimit="10"/>
<path d="M51.1358 34.7258C51.7986 35.6242 54.4284 35.8381 55.4333 35.6028C62.2322 34.0199 64.9261 29.0573 65.1185 28.4798C66.102 25.5279 65.2682 24.0948 63.6647 23.2605C62.5529 22.683 59.6452 22.3407 57.5072 23.0466C55.3691 23.7525 53.5732 25.3354 51.927 26.9825C50.5586 28.33 48.5703 31.7525 48.442 32.822C48.442 32.822 45.9191 34.5761 46.3895 35.3033C46.8385 36.0092 51.1358 34.7258 51.1358 34.7258Z" fill="white" stroke="#DF0006" stroke-width="4.76691" stroke-miterlimit="10"/>
<path d="M44.6362 27.5169C45.3204 25.7415 46.2183 24.2014 47.2018 22.704C47.9929 21.5062 49.4681 20.0089 50.6868 19.0677C51.6489 18.319 53.9152 16.9714 56.7374 16.1586" fill="white"/>
<path d="M44.6362 27.5169C45.3204 25.7415 46.2183 24.2014 47.2018 22.704C47.9929 21.5062 49.4681 20.0089 50.6868 19.0677C51.6489 18.319 53.9152 16.9714 56.7374 16.1586" stroke="#DF0006" stroke-width="4.76691" stroke-miterlimit="10"/>
<path d="M57.2702 30.8739C57.9098 30.3313 58.0444 29.4384 57.5708 28.8797C57.0971 28.3209 56.1947 28.3078 55.5551 28.8505C54.9155 29.3932 54.7809 30.2861 55.2545 30.8448C55.7282 31.4036 56.6306 31.4166 57.2702 30.8739Z" fill="white" stroke="#DF0006" stroke-width="4.76691" stroke-miterlimit="10"/>
<path d="M30.1843 50.7255C30.7615 51.5597 30.2056 54.0196 29.7139 54.8538C26.4214 60.5223 21.3756 61.549 20.8197 61.5704C17.9976 61.6346 16.9927 60.4581 16.7361 58.7683C16.5651 57.6132 17.0782 54.8752 18.2969 53.1426C19.5156 51.4099 21.397 50.2335 23.2571 49.2281C24.8179 48.3939 28.3242 47.5383 29.2863 47.7308C29.2863 47.7308 31.5099 45.9554 32.0016 46.5971C32.4933 47.2174 30.1843 50.7255 30.1843 50.7255Z" fill="white" stroke="#DF0006" stroke-width="4.76691" stroke-miterlimit="10"/>
<path d="M25.8002 42.8111C24.0684 42.918 22.4862 43.303 20.9255 43.7522C19.664 44.1159 17.975 45.0357 16.7991 45.8699C15.8797 46.533 14.0838 48.1801 12.5872 50.4903" fill="white"/>
<path d="M25.8002 42.8111C24.0684 42.918 22.4862 43.303 20.9255 43.7522C19.664 44.1159 17.975 45.0357 16.7991 45.8699C15.8797 46.533 14.0838 48.1801 12.5872 50.4903" stroke="#DF0006" stroke-width="4.76691" stroke-miterlimit="10"/>
<path d="M25.3103 55.0176C25.9049 54.5132 26.0339 53.6878 25.5985 53.1741C25.163 52.6604 24.3281 52.653 23.7335 53.1574C23.139 53.6619 23.0099 54.4872 23.4454 55.0009C23.8808 55.5146 24.7158 55.5221 25.3103 55.0176Z" fill="white" stroke="#DF0006" stroke-width="4.76691" stroke-miterlimit="10"/>
<path d="M65.3983 70.4697C66.0469 69.9193 66.1888 69.0203 65.7152 68.4615C65.2415 67.9028 64.3318 67.896 63.6832 68.4463C63.0346 68.9966 62.8927 69.8956 63.3663 70.4544C63.8399 71.0131 64.7497 71.02 65.3983 70.4697Z" fill="white" stroke="#DF0006" stroke-width="4.76691" stroke-miterlimit="10"/>
<path d="M55.4591 76.7598C56.1077 76.2095 56.2496 75.3104 55.7759 74.7517C55.3023 74.1929 54.3926 74.1861 53.744 74.7364C53.0954 75.2867 52.9535 76.1858 53.4271 76.7445C53.9007 77.3033 54.8105 77.3101 55.4591 76.7598Z" fill="white" stroke="#DF0006" stroke-width="4.76691" stroke-miterlimit="10"/>
<path d="M54.6208 91.1749C54.6208 91.1749 66.551 73.592 75.6803 74.9182C84.8097 76.2658 73.2002 83.3246 73.2002 83.3246C73.2002 83.3246 67.2352 85.207 63.6647 89.9129C60.0942 94.6188 68.1973 93.3781 68.1973 93.3781" fill="white"/>
<path d="M54.6208 91.1749C54.6208 91.1749 66.551 73.592 75.6803 74.9182C84.8097 76.2658 73.2002 83.3246 73.2002 83.3246C73.2002 83.3246 67.2352 85.207 63.6647 89.9129C60.0942 94.6188 68.1973 93.3781 68.1973 93.3781" stroke="#DF0006" stroke-width="4.76691" stroke-miterlimit="10"/>
</svg>
