<svg width="95" height="135" viewBox="0 0 95 135" fill="none" xmlns="http://www.w3.org/2000/svg">
<path d="M91.4872 81.0135C91.1452 85.0135 88.6009 95.345 86.4202 98.7033C81.8448 105.762 79.5144 110.917 74.939 117.976C72.5658 121.655 66.3655 126.468 62.7523 129.035C55.6113 134.083 45.8833 132.607 37.8016 128.586C29.7199 124.564 23.1776 118.083 17.2126 111.431C13.3428 107.11 10.264 100.671 8.10459 95.3664C5.19689 88.2434 2.86644 79.5803 3.42233 72.0295C4.25616 60.7139 6.13762 49.6337 6.97144 38.3181C7.78389 27.4304 9.77224 18.81 17.7257 11.2592C22.6645 6.55331 31.6014 5.09876 38.5072 3.8795C53.3878 1.26987 69.8078 4.00785 80.4765 14.81C86.9547 21.3769 90.4182 29.9759 91.3376 38.9171C92.2997 48.2861 91.8507 54.1471 91.808 63.3663C91.7652 71.6658 92.1286 73.4412 91.4872 81.0135Z" fill="white" stroke="#DF0006" stroke-width="4.76691" stroke-miterlimit="10"/>
<path d="M33.8035 38.4897C33.6966 39.8587 31.2807 41.8052 30.1903 42.2116C22.8141 44.971 17.405 41.4843 16.8918 41.0137C14.2834 38.5538 14.2407 36.5004 15.3097 34.5752C16.0366 33.249 18.6236 30.9816 21.061 30.3399C23.5197 29.6982 26.1281 30.1902 28.6082 30.8533C30.6821 31.3881 34.5305 33.6768 35.2574 34.725C35.2574 34.725 38.6568 34.9175 38.6141 36.0084C38.6355 37.0351 33.8035 38.4897 33.8035 38.4897Z" fill="white" stroke="#DF0006" stroke-width="4.76691" stroke-miterlimit="10"/>
<path d="M24.0384 36.4616C24.1802 35.5392 23.5761 34.6808 22.6891 34.5443C21.8021 34.4078 20.9681 35.045 20.8263 35.9674C20.6845 36.8899 21.2886 37.7483 22.1756 37.8848C23.0626 38.0213 23.8966 37.3841 24.0384 36.4616Z" fill="white" stroke="#DF0006" stroke-width="4.76691" stroke-miterlimit="10"/>
<path d="M62.9008 41.6768C62.8153 42.9388 64.7609 45.142 65.7016 45.7196C72.0729 49.5485 77.4607 47.3452 77.9952 46.9816C80.7105 45.2062 81.0098 43.3239 80.3043 41.3773C79.8125 40.0297 77.6531 38.1474 75.3655 37.4629C72.7785 36.6714 71.2391 36.4789 68.8873 36.6286C66.9203 36.757 62.8581 37.1206 62.0456 37.9335C62.0456 37.9335 58.9241 37.5056 58.7958 38.4896C58.6675 39.4949 62.9008 41.6768 62.9008 41.6768Z" fill="white" stroke="#DF0006" stroke-width="4.76691" stroke-miterlimit="10"/>
<path d="M74.2224 41.4731C74.5191 40.7013 74.0986 39.8212 73.2831 39.5074C72.4676 39.1935 71.5659 39.5648 71.2692 40.3366C70.9725 41.1084 71.393 41.9884 72.2085 42.3023C73.024 42.6161 73.9257 42.2449 74.2224 41.4731Z" fill="white" stroke="#DF0006" stroke-width="4.76691" stroke-miterlimit="10"/>
<path d="M43.9673 82.5631C44.2937 81.7141 43.8436 80.7508 42.9619 80.4115C42.0803 80.0722 41.101 80.4854 40.7746 81.3344C40.4482 82.1834 40.8983 83.1466 41.7799 83.4859C42.6616 83.8252 43.6408 83.412 43.9673 82.5631Z" fill="white" stroke="#DF0006" stroke-width="4.76691" stroke-miterlimit="10"/>
<path d="M57.0276 82.5599C57.354 81.7109 56.9039 80.7476 56.0223 80.4083C55.1406 80.0691 54.1613 80.4822 53.8349 81.3312C53.5085 82.1802 53.9586 83.1435 54.8402 83.4827C55.7219 83.822 56.7011 83.4089 57.0276 82.5599Z" fill="white" stroke="#DF0006" stroke-width="4.76691" stroke-miterlimit="10"/>
<path d="M64.1846 104.457C64.1846 104.457 43.4886 94.5749 34.851 101.056C26.1921 107.559 40.2388 106.083 40.2388 106.083C40.2388 106.083 51.0999 106.083 54.8415 109.013C60.0582 113.099 52.2545 113.698 52.2545 113.698" fill="white"/>
<path d="M64.1846 104.457C64.1846 104.457 43.4886 94.5749 34.851 101.056C26.1921 107.559 40.2388 106.083 40.2388 106.083C40.2388 106.083 51.0999 106.083 54.8415 109.013C60.0582 113.099 52.2545 113.698 52.2545 113.698" stroke="#DF0006" stroke-width="4.76691" stroke-miterlimit="10"/>
</svg>
