<svg width="94" height="113" viewBox="0 0 94 113" fill="none" xmlns="http://www.w3.org/2000/svg">
<path d="M14.9485 81.9184C16.2741 84.8703 19.3315 90.1109 22.9875 94.4746C29.3374 102.047 45.009 109.298 50.7175 110.025C59.74 111.181 70.6011 105.64 76.6303 100.592C82.7878 95.4157 90.1426 80.8702 90.7412 66.7098C91.0191 60.3782 89.6508 53.8327 87.1921 48.2284C83.5147 39.822 81.8043 30.8594 78.1483 22.4529C74.6206 14.3673 66.3037 7.7363 57.6233 4.378C52.1928 2.28174 45.736 2.62397 39.5785 3.80045C26.28 6.34591 12.5112 13.5117 6.28956 25.0412C2.50527 32.0359 1.92799 39.9503 3.48874 47.0734C5.11364 54.5386 7.65788 61.5119 10.0952 68.5493C12.276 74.8381 12.447 76.3141 14.9485 81.9184Z" fill="white" stroke="#DF0006" stroke-width="4.76691" stroke-miterlimit="10"/>
<path d="M52.4914 35.5866C52.9404 36.592 55.4846 37.362 56.5109 37.3406C63.4808 37.1909 67.1368 32.8914 67.4575 32.378C69.0397 29.7042 68.5266 28.1213 67.1155 26.9663C66.1534 26.1748 63.3739 25.2336 61.129 25.4689C58.8841 25.7256 56.7888 26.9021 54.8646 28.1642C53.2611 29.2123 50.5886 32.1214 50.2465 33.1481C50.2465 33.1481 47.4243 34.346 47.7236 35.1588C48.023 35.9289 52.4914 35.5866 52.4914 35.5866Z" fill="white" stroke="#DF0006" stroke-width="4.76691" stroke-miterlimit="10"/>
<path d="M47.6392 27.159C48.6654 25.5547 49.8841 24.2284 51.1455 22.9878C52.1504 21.9825 53.9035 20.8274 55.3146 20.1429C56.405 19.6081 58.9065 18.7525 61.8356 18.56" fill="white"/>
<path d="M47.6392 27.159C48.6654 25.5547 49.8841 24.2284 51.1455 22.9878C52.1504 21.9825 53.9035 20.8274 55.3146 20.1429C56.405 19.6081 58.9065 18.7525 61.8356 18.56" stroke="#DF0006" stroke-width="4.76691" stroke-miterlimit="10"/>
<path d="M59.2421 33.0619C59.9799 32.6636 60.2961 31.8182 59.9484 31.1736C59.6007 30.5291 58.7208 30.3295 57.9831 30.7278C57.2453 31.1261 56.9291 31.9716 57.2767 32.6161C57.6244 33.2607 58.5043 33.4603 59.2421 33.0619Z" fill="white" stroke="#DF0006" stroke-width="4.76691" stroke-miterlimit="10"/>
<path d="M28.674 46.8806C29.0802 47.8218 28.0112 50.1106 27.3698 50.8165C22.9655 55.6935 17.8342 55.6507 17.2783 55.5437C14.5203 55.009 13.772 53.6828 13.8575 51.9501C13.9216 50.7737 14.9906 48.2068 16.5514 46.7737C18.1121 45.3405 20.186 44.5705 22.2171 43.9715C23.9062 43.4795 27.5194 43.3726 28.4174 43.7576C28.4174 43.7576 30.9616 42.4742 31.3037 43.2015C31.6672 43.9287 28.674 46.8806 28.674 46.8806Z" fill="white" stroke="#DF0006" stroke-width="4.76691" stroke-miterlimit="10"/>
<path d="M26.0236 38.2392C24.3132 37.9825 22.6883 38.0253 21.0634 38.1536C19.7592 38.2392 17.8992 38.7953 16.5736 39.3729C15.5473 39.8221 13.4307 41.0627 11.4851 43.0307" fill="white"/>
<path d="M26.0236 38.2392C24.3132 37.9825 22.6883 38.0253 21.0634 38.1536C19.7592 38.2392 17.8992 38.7953 16.5736 39.3729C15.5473 39.8221 13.4307 41.0627 11.4851 43.0307" stroke="#DF0006" stroke-width="4.76691" stroke-miterlimit="10"/>
<path d="M23.0013 50.0553C23.6871 49.685 23.9839 48.9044 23.6643 48.3119C23.3447 47.7193 22.5296 47.5391 21.8438 47.9094C21.158 48.2797 20.8612 49.0602 21.1808 49.6528C21.5004 50.2453 22.3155 50.4256 23.0013 50.0553Z" fill="white" stroke="#DF0006" stroke-width="4.76691" stroke-miterlimit="10"/>
<path d="M59.0119 73.4842C59.76 73.0803 60.0847 72.2303 59.737 71.5858C59.3893 70.9412 58.501 70.7462 57.7528 71.1501C57.0047 71.5541 56.68 72.404 57.0277 73.0486C57.3754 73.6931 58.2637 73.8882 59.0119 73.4842Z" fill="white" stroke="#DF0006" stroke-width="4.76691" stroke-miterlimit="10"/>
<path d="M47.9782 77.5744C48.7263 77.1705 49.051 76.3205 48.7033 75.676C48.3557 75.0314 47.4673 74.8363 46.7192 75.2403C45.971 75.6442 45.6464 76.4942 45.994 77.1388C46.3417 77.7833 47.23 77.9784 47.9782 77.5744Z" fill="white" stroke="#DF0006" stroke-width="4.76691" stroke-miterlimit="10"/>
<path d="M44.2175 91.5228C44.2175 91.5228 59.5257 76.7848 68.1847 79.9934C76.8223 83.202 64.037 87.6939 64.037 87.6939C64.037 87.6939 57.8153 88.3143 53.3469 92.1646C48.8784 96.0148 57.0456 96.4854 57.0456 96.4854" fill="white"/>
<path d="M44.2175 91.5228C44.2175 91.5228 59.5257 76.7848 68.1847 79.9934C76.8223 83.2019 64.037 87.6939 64.037 87.6939C64.037 87.6939 57.8153 88.3143 53.3469 92.1646C48.8784 96.0148 57.0456 96.4854 57.0456 96.4854" stroke="#DF0006" stroke-width="4.76691" stroke-miterlimit="10"/>
</svg>
