<svg width="108" height="106" viewBox="0 0 108 106" fill="none" xmlns="http://www.w3.org/2000/svg">
<path d="M20.5794 12.1643C11.3645 17.9183 5.46363 28.143 3.58217 38.8596C1.70072 49.5762 3.58215 60.6779 7.43058 70.8383C9.61135 76.5924 12.4763 82.218 16.7951 86.6031C23.3374 93.2127 33.7282 100.485 43.8838 101.812C61.2445 104.079 70.0103 103.373 85.0192 93.4053C94.683 86.9881 97.7404 79.9507 99.9425 74.8811C101.461 71.3731 104.561 57.127 104.689 53.2982C105.822 22.3248 96.6714 9.12686 68.9199 4.01454C51.1103 0.741803 29.4308 6.64556 20.5794 12.1643Z" fill="white" stroke="#DF0006" stroke-width="4.76691" stroke-miterlimit="10"/>
<path d="M34.7109 43.8219C34.7751 45.1267 32.5515 47.7149 31.4825 48.4422C24.2346 53.3834 18.2054 51.9075 17.6068 51.6294C14.5922 50.1962 14.2929 48.2925 15.1267 46.1535C15.704 44.6989 18.0558 41.747 20.4931 40.3566C22.9304 38.9662 25.7099 38.5812 28.361 38.3673C30.5632 38.1962 34.8392 39.0732 35.7372 39.8005C35.7372 39.8005 39.2649 38.8807 39.3718 39.886C39.5001 40.8914 34.7109 43.8219 34.7109 43.8219Z" fill="white" stroke="#DF0006" stroke-width="4.76691" stroke-miterlimit="10"/>
<path d="M23.7096 46.5121C24.4516 45.8181 24.5954 44.7657 24.0308 44.1615C23.4662 43.5572 22.407 43.63 21.665 44.324C20.923 45.018 20.7792 46.0704 21.3438 46.6746C21.9084 47.2788 22.9676 47.2061 23.7096 46.5121Z" fill="white" stroke="#DF0006" stroke-width="4.76691" stroke-miterlimit="10"/>
<path d="M65.1344 37.3619C65.2199 38.5597 67.5076 39.9929 68.5552 40.2068C75.632 41.7041 80.9129 37.8966 81.4047 37.4046C83.9703 34.8806 84.0344 33.041 83.0295 31.4581C82.3454 30.3672 79.8653 29.3191 77.4279 29.4046C74.6485 29.5116 73.045 29.8324 70.6291 30.7308C68.6193 31.4795 64.4716 33.1266 63.7447 34.1533C63.7447 34.1533 60.4521 34.7736 60.4735 35.7362C60.4949 36.6987 65.1344 37.3619 65.1344 37.3619Z" fill="white" stroke="#DF0006" stroke-width="4.76691" stroke-miterlimit="10"/>
<path d="M75.9704 34.598C76.7751 34.103 77.1066 33.1795 76.7108 32.5354C76.3149 31.8913 75.3417 31.7705 74.5369 32.2655C73.7322 32.7606 73.4007 33.684 73.7966 34.3281C74.1924 34.9722 75.1657 35.093 75.9704 34.598Z" fill="white" stroke="#DF0006" stroke-width="4.76691" stroke-miterlimit="10"/>
</svg>
