<svg width="101" height="91" viewBox="0 0 101 91" fill="none" xmlns="http://www.w3.org/2000/svg">
<path d="M86.3564 74.1751C81.1824 79.4586 69.6585 85.0201 62.7955 86.5602C51.9771 88.9987 41.6505 88.2715 33.3122 84.2715C11.2265 73.7046 1.6268 48.8489 3.05927 40.3783C4.27794 33.1911 8.25464 26.7312 10.3285 19.7579C12.3169 13.0413 15.3315 7.95031 24.3753 4.59201C30.0197 2.49575 39.4483 3.15887 46.7603 3.60807C62.5175 4.57064 79.2796 9.19097 89.2 17.8755C95.2506 23.1589 97.923 29.191 97.923 34.9879C97.923 41.0627 97.8803 45.2125 97.6879 51.1162C97.3672 61.897 91.6587 68.7206 86.3564 74.1751Z" fill="white" stroke="#DF0006" stroke-width="4.76691" stroke-miterlimit="10"/>
<path d="M38.2082 24.5706C37.9517 25.4048 35.2364 26.2176 34.0605 26.2818C26.0857 26.7096 20.8475 23.5866 20.3772 23.1802C17.9185 21.1695 18.1109 19.8647 19.4364 18.8379C20.3344 18.132 23.2635 17.1481 25.8719 17.1695C28.4803 17.1909 31.1528 17.9609 33.6756 18.8165C35.7709 19.5224 39.5338 21.6401 40.1752 22.4315C40.1752 22.4315 43.6815 23.1588 43.5319 23.8219C43.3822 24.5064 38.2082 24.5706 38.2082 24.5706Z" fill="white" stroke="#DF0006" stroke-width="4.76691" stroke-miterlimit="10"/>
<path d="M28.3315 21.3821C28.4234 20.7867 27.7412 20.187 26.8076 20.0427C25.874 19.8983 25.0426 20.2641 24.9507 20.8595C24.8587 21.455 25.541 22.0546 26.4746 22.1989C27.4082 22.3432 28.2395 21.9776 28.3315 21.3821Z" fill="white" stroke="#DF0006" stroke-width="4.76691" stroke-miterlimit="10"/>
<path d="M68.0975 31.6935C67.8837 32.4849 69.6583 34.2176 70.5776 34.7309C76.7993 38.2603 82.636 37.8111 83.2347 37.7042C86.2493 37.0625 86.7624 35.9288 86.2279 34.5812C85.8644 33.6614 83.812 32.0785 81.5243 31.2443C78.9159 30.3031 77.3551 29.8967 74.875 29.5758C72.8225 29.3191 68.5465 28.8271 67.6272 29.1908C67.6272 29.1908 64.4201 28.378 64.1849 28.9769C63.9497 29.5758 68.0975 31.6935 68.0975 31.6935Z" fill="white" stroke="#DF0006" stroke-width="4.76691" stroke-miterlimit="10"/>
<path d="M80.0578 33.2742C80.1603 32.7526 79.5202 32.1874 78.6281 32.012C77.736 31.8365 76.9297 32.1171 76.8272 32.6388C76.7247 33.1604 77.3648 33.7255 78.2569 33.901C79.149 34.0764 79.9553 33.7958 80.0578 33.2742Z" fill="white" stroke="#DF0006" stroke-width="4.76691" stroke-miterlimit="10"/>
<path d="M44.2635 53.8243C44.3751 53.2563 43.6767 52.6407 42.7034 52.4493C41.7302 52.2578 40.8508 52.5631 40.7392 53.1311C40.6276 53.6991 41.3261 54.3147 42.2993 54.5061C43.2725 54.6975 44.1519 54.3923 44.2635 53.8243Z" fill="white" stroke="#DF0006" stroke-width="4.76691" stroke-miterlimit="10"/>
<path d="M57.8319 56.1169C57.9435 55.549 57.245 54.9334 56.2718 54.7419C55.2986 54.5505 54.4192 54.8558 54.3076 55.4237C54.196 55.9917 54.8944 56.6074 55.8676 56.7988C56.8409 56.9902 57.7203 56.6849 57.8319 56.1169Z" fill="white" stroke="#DF0006" stroke-width="4.76691" stroke-miterlimit="10"/>
<path d="M62.7521 71.501C62.7521 71.501 42.2913 61.64 32.6275 64.2068C22.9422 66.7737 45.9259 71.993 45.9259 71.993" fill="white"/>
<path d="M62.7521 71.501C62.7521 71.501 42.2913 61.64 32.6275 64.2068C22.9422 66.7737 45.9259 71.993 45.9259 71.993" stroke="#DF0006" stroke-width="4.76691" stroke-miterlimit="10"/>
</svg>
