<svg width="98" height="139" viewBox="0 0 98 139" fill="none" xmlns="http://www.w3.org/2000/svg">
<path d="M3.16053 79.7093C2.98949 83.7735 4.25093 94.4687 6.04687 98.1265C9.80978 105.827 11.4988 111.303 15.2617 119.004C17.2287 123.004 22.9158 128.672 26.2939 131.731C32.9431 137.742 43.0773 137.571 51.8646 134.619C60.6518 131.667 68.1776 126.041 75.1689 120.137C79.6801 116.33 83.6782 110.255 86.5646 105.228C90.4557 98.4688 93.9835 90.0837 94.3897 82.4473C95.0097 70.982 94.5394 59.6237 95.1594 48.137C95.758 37.0996 94.0904 25.3562 86.9494 16.7145C82.5023 11.3241 75.7248 8.09412 68.8404 5.95507C53.9598 1.35613 36.1715 1.67699 23.8565 11.1102C16.3735 16.8428 11.6699 25.3776 9.55321 34.2332C7.35106 43.5167 6.3034 52.736 5.14887 61.998C4.10124 70.2975 3.48124 72.0302 3.16053 79.7093Z" fill="white" stroke="#DF0006" stroke-width="4.76691" stroke-miterlimit="10"/>
<path d="M66.1884 47.3027C66.1242 48.6931 68.3264 50.9604 69.3954 51.5166C76.5792 55.2599 82.5442 52.5005 83.1429 52.0727C86.1361 49.9551 86.4354 47.9016 85.6016 45.8054C85.0243 44.3722 82.6939 41.7625 80.2779 40.7786C77.862 39.7946 75.1039 39.9658 72.4742 40.2866C70.2934 40.5647 66.0601 42.3401 65.1622 43.2813C65.1622 43.2813 61.6558 43.0246 61.5489 44.1155C61.442 45.185 66.1884 47.3027 66.1884 47.3027Z" stroke="#DF0006" stroke-width="4.76691" stroke-miterlimit="10"/>
<path d="M59.283 53.3132C60.0526 54.8747 61.0147 56.3721 62.2762 57.6341C65.0342 60.3935 69.2034 61.848 73.2442 61.4416" stroke="#DF0006" stroke-width="4.76691" stroke-miterlimit="10"/>
<path d="M65.6116 35.1531C67.493 33.9338 69.4172 33.1424 71.3414 32.4365C72.9022 31.8589 75.2968 31.5595 77.0713 31.5808C78.4611 31.6022 81.4543 32.0301 84.533 33.4418" stroke="#DF0006" stroke-width="4.76691" stroke-miterlimit="10"/>
<path d="M74.5787 48.2578C75.5386 48.1311 76.2204 47.2973 76.1014 46.3954C75.9825 45.4936 75.1079 44.8652 74.148 44.9919C73.1881 45.1187 72.5063 45.9525 72.6252 46.8543C72.7442 47.7561 73.6188 48.3845 74.5787 48.2578Z" stroke="#DF0006" stroke-width="4.76691" stroke-miterlimit="10"/>
<path d="M36.0205 46.6397C35.935 47.9231 33.6687 49.8696 32.6424 50.3188C25.6297 53.3135 20.3916 50.383 19.8998 49.9552C17.3556 47.8162 17.2915 45.891 18.275 44.03C18.9591 42.7466 21.3751 40.4792 23.7055 39.7306C26.0359 38.9819 28.5588 39.3027 30.9534 39.7733C32.9417 40.1584 36.6619 42.0621 37.3888 43.0033C37.3888 43.0033 40.6386 43.0033 40.6386 44.0087C40.6386 44.9926 36.0205 46.6397 36.0205 46.6397Z" stroke="#DF0006" stroke-width="4.76691" stroke-miterlimit="10"/>
<path d="M37.8176 35.4528C36.2141 34.2122 34.525 33.3566 32.7932 32.5651C31.4035 31.9448 29.2441 31.517 27.5978 31.41C26.315 31.3459 23.5142 31.5597 20.521 32.6507" stroke="#DF0006" stroke-width="4.76691" stroke-miterlimit="10"/>
<path d="M28.7668 46.9971C29.6565 46.8797 30.2888 46.1104 30.1792 45.2788C30.0695 44.4473 29.2594 43.8683 28.3697 43.9858C27.48 44.1032 26.8477 44.8725 26.9573 45.7041C27.067 46.5357 27.8771 47.1145 28.7668 46.9971Z" stroke="#DF0006" stroke-width="4.76691" stroke-miterlimit="10"/>
<path d="M52.668 86.3104C53.6396 86.1821 54.3296 85.3376 54.2091 84.424C54.0887 83.5105 53.2033 82.8739 52.2317 83.0022C51.2601 83.1304 50.5701 83.9749 50.6905 84.8885C50.811 85.802 51.6963 86.4386 52.668 86.3104Z" stroke="#DF0006" stroke-width="4.76691" stroke-miterlimit="10"/>
<path d="M38.8791 90.2475C39.8508 90.1192 40.5408 89.2747 40.4203 88.3612C40.2998 87.4476 39.4145 86.811 38.4429 86.9393C37.4713 87.0675 36.7813 87.9121 36.9017 88.8256C37.0222 89.7391 37.9075 90.3757 38.8791 90.2475Z" stroke="#DF0006" stroke-width="4.76691" stroke-miterlimit="10"/>
<path d="M60.3525 106.875C60.3525 106.875 37.0695 98.9393 29.9072 107.367C22.7448 115.795 38.1385 113.677 38.1385 113.677C38.1385 113.677 44.8092 110.875 51.3729 112.693C57.9366 114.512 49.8335 119.624 49.8335 119.624" stroke="#DF0006" stroke-width="4.76691" stroke-miterlimit="10"/>
</svg>
