<svg width="104" height="109" viewBox="0 0 104 109" fill="none" xmlns="http://www.w3.org/2000/svg">
<path d="M100.532 65.3252C100.148 68.5124 97.3469 76.7691 94.9309 79.4429C89.8638 85.09 87.3195 89.1969 82.2524 94.8226C79.6227 97.7531 72.781 101.603 68.7829 103.657C60.8937 107.7 50.1608 106.523 41.2453 103.315C32.3298 100.106 25.1033 94.9296 18.5182 89.6248C14.2421 86.1809 10.8427 81.0258 8.4695 76.8119C5.26248 71.122 2.69685 64.2129 3.31688 58.1808C4.23622 49.1326 6.3101 40.2984 7.22945 31.2716C8.12742 22.5871 10.3296 15.6994 19.0954 9.66728C24.5688 5.90256 34.425 4.74748 42.0364 3.78491C58.4777 1.68865 76.5867 3.89183 88.3672 12.5122C95.5295 17.7528 99.3566 24.6192 100.361 31.7636C101.43 39.2502 100.917 43.9348 100.875 51.2931C100.832 57.8599 101.238 59.2931 100.532 65.3252Z" fill="white" stroke="#DF0006" stroke-width="4.76691" stroke-miterlimit="10"/>
<path d="M41.095 42.074C40.9667 43.1649 38.3156 44.7264 37.1183 45.0472C28.9724 47.2504 23.0074 44.4697 22.4515 44.0847C19.5652 42.1167 19.5224 40.4911 20.7197 38.9296C21.5321 37.8814 24.3757 36.0632 27.0696 35.5499C29.7635 35.0365 32.6712 35.4215 35.4079 35.9563C37.6955 36.3841 41.9502 38.2023 42.7626 39.0365C42.7626 39.0365 46.5042 39.1862 46.4828 40.0633C46.4614 40.9403 41.095 42.074 41.095 42.074Z" fill="white" stroke="#DF0006" stroke-width="4.76691" stroke-miterlimit="10"/>
<path d="M28.5774 41.6186C29.569 41.5954 30.3587 40.9735 30.3413 40.2294C30.3239 39.4854 29.506 38.901 28.5144 38.9243C27.5228 38.9475 26.7331 39.5695 26.7505 40.3135C26.7679 41.0575 27.5858 41.6419 28.5774 41.6186Z" fill="white" stroke="#DF0006" stroke-width="4.76691" stroke-miterlimit="10"/>
<path d="M68.9528 42.4803C68.8673 43.4857 71.0053 45.2611 72.0315 45.7103C79.0656 48.7691 85.0307 46.9937 85.608 46.7156C88.6012 45.3038 88.9433 43.8065 88.1522 42.245C87.6177 41.1755 85.2231 39.6568 82.7002 39.122C79.8353 38.5017 78.1463 38.3306 75.5379 38.4589C73.3785 38.5658 68.8673 38.8439 67.9907 39.507C67.9907 39.507 64.5271 39.1648 64.3988 39.9562C64.2705 40.7477 68.9528 42.4803 68.9528 42.4803Z" fill="white" stroke="#DF0006" stroke-width="4.76691" stroke-miterlimit="10"/>
<path d="M81.6202 41.9215C81.6476 41.2487 80.8951 40.6716 79.9395 40.6325C78.9838 40.5935 78.1868 41.1073 78.1593 41.7801C78.1319 42.453 78.8843 43.0301 79.84 43.0691C80.7957 43.1081 81.5927 42.5943 81.6202 41.9215Z" fill="white" stroke="#DF0006" stroke-width="4.76691" stroke-miterlimit="10"/>
<path d="M48.2234 66.1409C48.2533 65.409 47.4358 64.7814 46.3975 64.739C45.3593 64.6966 44.4934 65.2554 44.4635 65.9873C44.4336 66.7192 45.2511 67.3468 46.2894 67.3892C47.3277 67.4317 48.1936 66.8728 48.2234 66.1409Z" fill="white" stroke="#DF0006" stroke-width="4.76691" stroke-miterlimit="10"/>
<path d="M62.6441 66.1508C62.674 65.4189 61.8565 64.7912 60.8182 64.7488C59.7799 64.7064 58.914 65.2653 58.8842 65.9972C58.8543 66.729 59.6718 67.3567 60.71 67.3991C61.7483 67.4415 62.6142 66.8826 62.6441 66.1508Z" fill="white" stroke="#DF0006" stroke-width="4.76691" stroke-miterlimit="10"/>
<path d="M70.3646 84.0416C70.3646 84.0416 47.5092 76.1486 37.9736 81.3251C28.4167 86.523 43.9387 85.3465 43.9387 85.3465C43.9387 85.3465 55.933 85.3465 60.0593 87.678C65.8106 90.9508 57.1944 91.4213 57.1944 91.4213" fill="white"/>
<path d="M70.3646 84.0416C70.3646 84.0416 47.5092 76.1486 37.9736 81.3251C28.4167 86.523 43.9387 85.3465 43.9387 85.3465C43.9387 85.3465 55.933 85.3465 60.0593 87.678C65.8106 90.9508 57.1944 91.4213 57.1944 91.4213" stroke="#DF0006" stroke-width="4.76691" stroke-miterlimit="10"/>
</svg>
