<svg width="101" height="90" viewBox="0 0 101 90" fill="none" xmlns="http://www.w3.org/2000/svg">
<path d="M90.9259 66.4847C86.714 72.5595 76.2591 79.9606 69.7595 82.6344C59.497 86.8484 49.2132 87.8323 40.319 85.3083C16.7795 78.5703 3.16029 55.6611 3.18167 47.0835C3.20305 39.7894 6.02523 32.7733 6.92319 25.5433C7.7784 18.5914 9.89504 13.0727 18.2547 8.23846C23.4714 5.2224 32.8787 4.30262 40.148 3.53257C55.841 1.86411 73.1376 3.61812 84.3836 10.5272C91.2252 14.7198 94.8598 20.2171 95.8433 25.9284C96.8482 31.9177 97.5109 36.0247 98.302 41.8642C99.7558 52.5595 95.2661 60.2386 90.9259 66.4847Z" fill="white" stroke="#DF0006" stroke-width="4.76691" stroke-miterlimit="10"/>
<path d="M35.1883 25.6076C35.06 26.4846 32.5371 27.7252 31.3826 27.9819C23.6002 29.7359 17.9131 27.5113 17.3786 27.2119C14.6205 25.6503 14.5992 24.3241 15.7109 23.0835C16.4806 22.2279 19.1959 20.7947 21.7829 20.3669C24.3699 19.9605 27.1279 20.2813 29.7577 20.6878C31.9385 21.03 36.0007 22.4846 36.7704 23.1691C36.7704 23.1691 40.3409 23.2974 40.3195 23.9819C40.2981 24.6664 35.1883 25.6076 35.1883 25.6076Z" fill="white" stroke="#DF0006" stroke-width="4.76691" stroke-miterlimit="10"/>
<path d="M23.2278 25.2723C24.1724 25.259 24.9311 24.7599 24.9227 24.1574C24.9142 23.555 24.1416 23.0774 23.1971 23.0907C22.2525 23.1041 21.4937 23.6032 21.5022 24.2057C21.5107 24.8081 22.2833 25.2857 23.2278 25.2723Z" fill="white" stroke="#DF0006" stroke-width="4.76691" stroke-miterlimit="10"/>
<path d="M65.8685 27.6612C65.783 28.474 67.8355 29.8858 68.819 30.2494C75.5324 32.6879 81.2195 31.2762 81.7754 31.0622C84.6403 29.9286 84.961 28.7307 84.2127 27.4687C83.6995 26.613 81.4119 25.3938 79.0173 24.966C76.2806 24.474 74.6771 24.3456 72.197 24.4312C70.1231 24.5168 65.8471 24.7521 64.9919 25.2654C64.9919 25.2654 61.6994 24.9874 61.5711 25.6291C61.4214 26.2494 65.8685 27.6612 65.8685 27.6612Z" fill="white" stroke="#DF0006" stroke-width="4.76691" stroke-miterlimit="10"/>
<path d="M77.9229 27.2373C77.9371 26.7059 77.2118 26.2555 76.303 26.2312C75.3941 26.2069 74.6458 26.618 74.6316 27.1494C74.6175 27.6808 75.3427 28.1313 76.2516 28.1555C77.1604 28.1798 77.9087 27.7687 77.9229 27.2373Z" fill="white" stroke="#DF0006" stroke-width="4.76691" stroke-miterlimit="10"/>
<path d="M46.0557 53.4566C46.0711 52.878 45.2799 52.3874 44.2884 52.3609C43.2969 52.3344 42.4807 52.782 42.4652 53.3607C42.4498 53.9393 43.241 54.4299 44.2325 54.4564C45.2239 54.4829 46.0402 54.0352 46.0557 53.4566Z" fill="white" stroke="#DF0006" stroke-width="4.76691" stroke-miterlimit="10"/>
<path d="M59.8232 53.4765C59.8387 52.8978 59.0475 52.4073 58.056 52.3808C57.0645 52.3543 56.2483 52.8019 56.2328 53.3805C56.2174 53.9592 57.0086 54.4497 58 54.4762C58.9915 54.5027 59.8078 54.0551 59.8232 53.4765Z" fill="white" stroke="#DF0006" stroke-width="4.76691" stroke-miterlimit="10"/>
<path d="M67.216 67.7892C67.216 67.7892 45.3869 61.479 36.3003 65.6074C27.171 69.7571 50.7105 71.062 50.7105 71.062" fill="white"/>
<path d="M67.216 67.7892C67.216 67.7892 45.3869 61.479 36.3003 65.6074C27.171 69.7571 50.7105 71.062 50.7105 71.062" stroke="#DF0006" stroke-width="4.76691" stroke-miterlimit="10"/>
</svg>
