<svg width="87" height="113" viewBox="0 0 87 113" fill="none" xmlns="http://www.w3.org/2000/svg">
<path d="M4.47425 70.517C4.88047 73.7255 6.29155 79.6293 8.53647 84.87C12.4063 93.9609 25.2986 105.426 30.5795 107.801C38.875 111.522 50.8906 109.383 58.0957 106.282C65.4933 103.116 76.7393 91.3299 81.4215 77.9609C83.5168 71.9715 84.1154 65.3191 83.3885 59.2442C82.3195 50.1319 83.2816 41.0623 82.2126 31.95C81.1863 23.2013 75.1571 14.4312 67.8023 8.67717C63.2269 5.10497 56.9412 3.54348 50.7196 2.88038C37.2714 1.44722 21.9846 4.31353 12.7056 13.5328C7.06126 19.1371 4.19632 26.5382 3.61906 33.8109C3.02041 41.4259 3.40527 48.827 3.70459 56.2709C3.96116 62.9875 3.68318 64.4421 4.47425 70.517Z" fill="white" stroke="#DF0006" stroke-width="4.76691" stroke-miterlimit="10"/>
<path d="M53.8188 37.0835C53.9685 38.1744 56.1706 39.6503 57.1541 39.9284C63.8675 41.8107 68.6139 38.7519 69.0629 38.3455C71.3506 36.2492 71.3078 34.5808 70.3029 33.062C69.6187 32.0353 67.2241 30.3027 65.0006 29.8963C62.7771 29.4898 60.4467 30.0032 58.2231 30.6449C56.3844 31.1797 52.985 33.1904 52.3436 34.0674C52.3436 34.0674 49.2862 34.3883 49.3504 35.2439C49.4359 36.1209 53.8188 37.0835 53.8188 37.0835Z" fill="white" stroke="#DF0006" stroke-width="4.76691" stroke-miterlimit="10"/>
<path d="M51.6172 27.6077C53.071 26.3884 54.6104 25.4686 56.1711 24.613C57.4325 23.9285 59.4423 23.351 60.9816 23.0943C62.1789 22.9018 64.8087 22.8162 67.6736 23.4579" fill="white"/>
<path d="M51.6172 27.6077C53.071 26.3884 54.6104 25.4686 56.1711 24.613C57.4325 23.9285 59.4423 23.351 60.9816 23.0943C62.1789 22.9018 64.8087 22.8162 67.6736 23.4579" stroke="#DF0006" stroke-width="4.76691" stroke-miterlimit="10"/>
<path d="M61.0627 36.6644C61.8843 36.4973 62.4321 35.78 62.2862 35.0622C62.1404 34.3444 61.3561 33.8979 60.5346 34.065C59.713 34.2321 59.1651 34.9494 59.3109 35.6672C59.4568 36.385 60.2411 36.8315 61.0627 36.6644Z" fill="white" stroke="#DF0006" stroke-width="4.76691" stroke-miterlimit="10"/>
<path d="M27.7561 40.9764C27.863 42.0032 26.174 43.8641 25.3616 44.3561C19.7386 47.7358 14.8211 46.1957 14.3507 45.939C11.8493 44.6342 11.5286 43.1369 12.1272 41.5112C12.5335 40.3989 14.308 38.2598 16.2109 37.3401C18.1137 36.4203 20.3372 36.2919 22.4538 36.3133C24.2284 36.3347 27.692 37.2759 28.4403 37.8962C28.4403 37.8962 31.2411 37.4042 31.3694 38.1957C31.4977 38.9871 27.7561 40.9764 27.7561 40.9764Z" fill="white" stroke="#DF0006" stroke-width="4.76691" stroke-miterlimit="10"/>
<path d="M27.7353 31.95C26.1745 31.2227 24.5924 30.7735 23.0103 30.4313C21.7275 30.1532 19.8032 30.1318 18.3708 30.3029C17.259 30.4312 14.8644 31.0088 12.4485 32.3136" fill="white"/>
<path d="M27.7353 31.95C26.1745 31.2227 24.5924 30.7735 23.0103 30.4313C21.7275 30.1532 19.8032 30.1318 18.3708 30.3029C17.259 30.4312 14.8644 31.0088 12.4485 32.3136" stroke="#DF0006" stroke-width="4.76691" stroke-miterlimit="10"/>
<path d="M21.4436 42.4002C22.2073 42.2449 22.7178 41.584 22.5837 40.9241C22.4496 40.2642 21.7218 39.8551 20.9581 40.0105C20.1943 40.1658 19.6839 40.8267 19.818 41.4866C19.952 42.1465 20.6799 42.5555 21.4436 42.4002Z" fill="white" stroke="#DF0006" stroke-width="4.76691" stroke-miterlimit="10"/>
<path d="M49.1119 75.2767C49.9451 75.1072 50.5023 74.388 50.3564 73.6702C50.2106 72.9524 49.417 72.5078 48.5838 72.6773C47.7506 72.8467 47.1934 73.5659 47.3392 74.2837C47.4851 75.0015 48.2787 75.4461 49.1119 75.2767Z" fill="white" stroke="#DF0006" stroke-width="4.76691" stroke-miterlimit="10"/>
<path d="M37.3707 75.9832C38.2038 75.8138 38.761 75.0946 38.6152 74.3768C38.4694 73.659 37.6757 73.2144 36.8426 73.3839C36.0094 73.5533 35.4522 74.2726 35.598 74.9903C35.7439 75.7081 36.5375 76.1527 37.3707 75.9832Z" fill="white" stroke="#DF0006" stroke-width="4.76691" stroke-miterlimit="10"/>
<path d="M29.6809 88.207C29.6809 88.207 48.6024 78.5385 55.9571 84.1214C63.3119 89.7043 49.7355 90.3033 49.7355 90.3033C49.7355 90.3033 43.5994 89.084 38.2116 91.4797C32.8024 93.8755 40.4993 96.699 40.4993 96.699" fill="white"/>
<path d="M29.6809 88.207C29.6809 88.207 48.6024 78.5385 55.9571 84.1214C63.3119 89.7043 49.7355 90.3033 49.7355 90.3033C49.7355 90.3033 43.5994 89.084 38.2116 91.4797C32.8024 93.8755 40.4993 96.699 40.4993 96.699" stroke="#DF0006" stroke-width="4.76691" stroke-miterlimit="10"/>
</svg>
