<svg width="88" height="112" viewBox="0 0 88 112" fill="none" xmlns="http://www.w3.org/2000/svg">
<path d="M2.6353 65.336C2.61392 68.5873 3.23392 74.6194 4.75191 80.0954C7.40306 89.6141 18.6491 102.705 23.5665 105.743C31.3061 110.534 43.4928 109.999 51.0614 107.882C58.801 105.721 71.5222 95.5393 77.9148 82.8975C80.7798 77.2504 82.255 70.7264 82.3406 64.6087C82.4902 55.4322 84.6283 46.5766 84.7779 37.4001C84.9062 28.5872 80.0956 19.0898 73.5747 12.4374C69.5124 8.28763 63.4833 5.91331 57.3899 4.43737C44.2411 1.22881 28.7191 2.06303 18.307 9.97749C11.9571 14.7903 8.15137 21.7422 6.63338 28.8653C5.02987 36.3305 4.45265 43.7316 3.74711 51.1541C3.12708 57.8065 2.65668 59.2183 2.6353 65.336Z" fill="white" stroke="#DF0006" stroke-width="4.76691" stroke-miterlimit="10"/>
<path d="M54.0101 52.3949C54.0101 53.7853 56.533 55.9885 57.7089 56.4805C65.7692 59.9457 72.2047 56.9297 72.8247 56.5019C76.0317 54.2559 76.2669 52.181 75.2406 50.1275C74.5564 48.7157 71.8625 46.1917 69.1686 45.2933C66.4747 44.4162 63.4602 44.6729 60.5952 45.1007C58.2007 45.4644 53.6253 47.4109 52.706 48.3949C52.706 48.3949 48.8575 48.2879 48.772 49.3788C48.6865 50.4697 54.0101 52.3949 54.0101 52.3949Z" fill="white" stroke="#DF0006" stroke-width="4.76691" stroke-miterlimit="10"/>
<path d="M53.7544 39.0899C55.3579 38.0632 57.0042 37.3573 58.6718 36.7369C60.0188 36.245 62.0927 35.9241 63.6534 35.8813C64.8721 35.8599 67.5018 36.1166 70.2385 37.122" fill="white"/>
<path d="M53.7544 39.0899C55.3579 38.0632 57.0042 37.3573 58.6718 36.7369C60.0188 36.245 62.0927 35.9241 63.6534 35.8813C64.8721 35.8599 67.5018 36.1166 70.2385 37.122" stroke="#DF0006" stroke-width="4.76691" stroke-miterlimit="10"/>
<path d="M63.0781 53.0277C64.1383 52.9556 64.9479 52.1615 64.8863 51.2539C64.8246 50.3463 63.9151 49.6691 62.8548 49.7412C61.7946 49.8133 60.985 50.6074 61.0467 51.515C61.1083 52.4225 62.0178 53.0998 63.0781 53.0277Z" fill="white" stroke="#DF0006" stroke-width="4.76691" stroke-miterlimit="10"/>
<path d="M29.6368 54.1272C29.6154 55.154 27.6912 56.7796 26.8146 57.1647C20.7854 59.7743 16.1246 57.5925 15.6756 57.2716C13.3665 55.646 13.2596 54.1058 14.0507 52.5871C14.6065 51.539 16.6376 49.6566 18.6474 48.9935C20.6571 48.3304 22.8593 48.5015 24.976 48.801C26.7291 49.0363 30.043 50.4481 30.7058 51.1753C30.7058 51.1753 33.5494 51.0684 33.5708 51.8598C33.5921 52.6727 29.6368 54.1272 29.6368 54.1272Z" fill="white" stroke="#DF0006" stroke-width="4.76691" stroke-miterlimit="10"/>
<path d="M30.7922 45.1433C29.3383 44.2021 27.8417 43.5604 26.3023 43.0043C25.0836 42.5551 23.1594 42.277 21.7269 42.2556C20.5938 42.2342 18.1564 42.4909 15.5908 43.4749" fill="white"/>
<path d="M30.7922 45.1433C29.3383 44.2021 27.8417 43.5604 26.3023 43.0043C25.0836 42.5551 23.1594 42.277 21.7269 42.2556C20.5938 42.2342 18.1564 42.4909 15.5908 43.4749" stroke="#DF0006" stroke-width="4.76691" stroke-miterlimit="10"/>
<path d="M23.1744 54.6345C23.952 54.5817 24.5453 53.9942 24.4997 53.3224C24.454 52.6506 23.7867 52.1488 23.0092 52.2016C22.2316 52.2545 21.6383 52.842 21.6839 53.5138C21.7296 54.1857 22.3969 54.6874 23.1744 54.6345Z" fill="white" stroke="#DF0006" stroke-width="4.76691" stroke-miterlimit="10"/>
<path d="M46.2537 75.9171C47.1019 75.8594 47.7493 75.2203 47.6996 74.4895C47.65 73.7587 46.9221 73.2131 46.0739 73.2708C45.2257 73.3284 44.5783 73.9676 44.628 74.6983C44.6776 75.4291 45.4054 75.9747 46.2537 75.9171Z" fill="white" stroke="#DF0006" stroke-width="4.76691" stroke-miterlimit="10"/>
<path d="M34.5147 75.0626C35.3629 75.0049 36.0103 74.3658 35.9606 73.635C35.911 72.9043 35.1831 72.3586 34.3349 72.4163C33.4867 72.4739 32.8393 73.1131 32.8889 73.8439C32.9386 74.5746 33.6664 75.1203 34.5147 75.0626Z" fill="white" stroke="#DF0006" stroke-width="4.76691" stroke-miterlimit="10"/>
<path d="M25.2971 86.213C25.2971 86.213 45.3303 79.1328 51.8727 85.6355C58.415 92.1382 44.9028 90.9403 44.9028 90.9403C44.9028 90.9403 38.9804 88.9082 33.3147 90.5767C27.6489 92.2237 34.8968 96.0526 34.8968 96.0526" fill="white"/>
<path d="M25.2971 86.213C25.2971 86.213 45.3303 79.1328 51.8727 85.6355C58.415 92.1382 44.9028 90.9403 44.9028 90.9403C44.9028 90.9403 38.9804 88.9082 33.3147 90.5767C27.6489 92.2237 34.8968 96.0526 34.8968 96.0526" stroke="#DF0006" stroke-width="4.76691" stroke-miterlimit="10"/>
</svg>
