<svg width="99" height="140" viewBox="0 0 99 140" fill="none" xmlns="http://www.w3.org/2000/svg">
<path d="M6.32749 88.5862C7.01166 92.5862 10.4752 102.789 12.9767 105.998C18.2576 112.757 21.0584 117.741 26.3393 124.479C29.0973 127.987 35.8321 132.33 39.7661 134.618C47.5271 139.11 57.3833 136.822 65.3581 132.116C73.3329 127.389 79.5332 120.308 85.1348 113.1C88.7694 108.415 91.3992 101.656 93.1737 96.1585C95.5897 88.736 97.2787 79.8161 96.0814 72.2439C94.3069 60.8856 91.4847 49.8909 89.6887 38.5326C87.9783 27.6235 83.8947 16.479 75.1289 9.50573C69.6555 5.16347 62.3649 3.40947 55.1812 2.76776C39.6592 1.35599 22.3412 5.39876 12.2498 17.1849C6.11367 24.3507 3.2915 33.6769 3.0777 42.7679C2.84252 52.308 3.76187 61.5487 4.55294 70.8321C5.27986 79.1744 5.04468 81.014 6.32749 88.5862Z" fill="white" stroke="#DF0006" stroke-width="4.76691" stroke-miterlimit="10"/>
<path d="M61.6372 45.0353C61.851 46.2546 64.0318 47.8803 64.9725 48.1797C71.3438 50.2974 75.4916 46.9819 75.855 46.5327C77.7793 44.2439 77.6082 42.4043 76.5392 40.7359C75.8123 39.5808 73.4605 37.677 71.3652 37.2064C69.27 36.7358 67.1533 37.292 65.165 37.9765C63.4973 38.554 60.5255 40.7359 60.0337 41.6984C60.0337 41.6984 57.2329 42.0193 57.3612 42.9819C57.4895 43.9445 61.6372 45.0353 61.6372 45.0353Z" stroke="#DF0006" stroke-width="4.76691" stroke-miterlimit="10"/>
<path d="M56.6353 51.3026C57.7043 52.6715 58.9657 53.9335 60.4623 54.9175C63.7335 57.0566 68.1164 57.5913 71.9862 56.3507" stroke="#DF0006" stroke-width="4.76691" stroke-miterlimit="10"/>
<path d="M59.0293 32.2011C60.6114 30.6182 62.3218 29.4418 64.075 28.3508C65.4861 27.4738 67.7524 26.6824 69.5056 26.3188C70.8739 26.0407 73.8885 25.8482 77.2024 26.5754" stroke="#DF0006" stroke-width="4.76691" stroke-miterlimit="10"/>
<path d="M70.5534 43.1555C71.4658 42.8315 71.959 41.8739 71.6549 41.0166C71.3507 40.1594 70.3645 39.7271 69.452 40.0512C68.5395 40.3752 68.0464 41.3328 68.3505 42.1901C68.6546 43.0473 69.6409 43.4796 70.5534 43.1555Z" stroke="#DF0006" stroke-width="4.76691" stroke-miterlimit="10"/>
<path d="M30.4647 50.2119C30.6144 51.3669 29.1605 53.5488 28.4336 54.1263C23.4734 58.1263 18.9408 56.5221 18.4918 56.244C16.1614 54.8108 15.7979 53.121 16.2683 51.2814C16.589 50.0193 18.0856 47.5381 19.7746 46.4258C21.4637 45.3135 23.4734 45.1209 25.3976 45.0782C27.0011 45.0354 30.2082 46.0407 30.9137 46.7252C30.9137 46.7252 33.4366 46.1049 33.5862 47.0033C33.7787 47.8803 30.4647 50.2119 30.4647 50.2119Z" stroke="#DF0006" stroke-width="4.76691" stroke-miterlimit="10"/>
<path d="M31.9195 38.2975C30.0808 37.4205 28.2421 36.9285 26.4035 36.5221C24.9282 36.2012 22.7047 36.2226 21.0798 36.4793C19.797 36.6718 17.1031 37.4633 14.4092 39.1745" stroke="#DF0006" stroke-width="4.76691" stroke-miterlimit="10"/>
<path d="M25.4807 51.461C26.3264 51.1607 26.7846 50.2764 26.5042 49.486C26.2238 48.6955 25.3108 48.2982 24.4651 48.5985C23.6194 48.8989 23.1612 49.7831 23.4416 50.5736C23.722 51.364 24.6349 51.7614 25.4807 51.461Z" stroke="#DF0006" stroke-width="4.76691" stroke-miterlimit="10"/>
<path d="M57.9272 93.1637C58.8508 92.8358 59.3498 91.8659 59.0417 90.9975C58.7336 90.1291 57.7351 89.6911 56.8115 90.019C55.8879 90.347 55.3889 91.3169 55.697 92.1853C56.0051 93.0537 57.0036 93.4917 57.9272 93.1637Z" stroke="#DF0006" stroke-width="4.76691" stroke-miterlimit="10"/>
<path d="M44.5226 94.4024C45.4462 94.0745 45.9452 93.1046 45.6371 92.2362C45.3291 91.3678 44.3306 90.9298 43.407 91.2577C42.4834 91.5857 41.9844 92.5556 42.2924 93.424C42.6005 94.2924 43.599 94.7304 44.5226 94.4024Z" stroke="#DF0006" stroke-width="4.76691" stroke-miterlimit="10"/>
<path d="M36.3022 109.955C36.3022 109.955 57.4045 97.3348 66.1703 104.094C74.9362 110.854 59.4142 111.987 59.4142 111.987C59.4142 111.987 52.316 110.64 46.2654 113.784C40.2148 116.928 49.2159 120.223 49.2159 120.223" stroke="#DF0006" stroke-width="4.76691" stroke-miterlimit="10"/>
</svg>
