<svg width="94" height="135" viewBox="0 0 94 135" fill="none" xmlns="http://www.w3.org/2000/svg">
<path d="M90.86 81.1366C90.518 85.1366 87.9737 95.4682 85.7929 98.8265C81.2175 105.885 78.8871 111.04 74.3118 118.099C71.9386 121.778 65.7383 126.591 62.1251 129.158C54.9841 134.206 45.2561 132.73 37.1744 128.709C29.0927 124.688 22.5504 118.206 16.5853 111.554C12.7155 107.233 9.63679 100.794 7.47739 95.4896C4.56969 88.3666 2.23925 79.7035 2.79513 72.1526C3.62896 60.8371 5.51042 49.7568 6.34425 38.4413C7.15669 27.5536 9.14505 18.9332 17.0985 11.3824C22.0373 6.67647 30.9742 5.22193 37.88 4.00267C52.7606 1.39304 69.1805 4.13102 79.8492 14.9332C86.3274 21.5001 89.791 30.099 90.7104 39.0402C91.6725 48.4092 91.2235 54.2702 91.1807 63.4895C91.138 71.789 91.5014 73.5644 90.86 81.1366Z" fill="white" stroke="#DF0006" stroke-width="4.76691" stroke-miterlimit="10"/>
<path d="M33.1776 38.6129C33.0707 39.9818 30.6547 41.9284 29.5643 42.3348C22.1882 45.0942 16.779 41.6075 16.2659 41.1369C13.6575 38.677 13.6147 36.6235 14.6837 34.6984C15.4107 33.3722 17.9977 31.1048 20.435 30.4631C22.8937 29.8214 25.5021 30.3134 27.9822 30.9765C30.0561 31.5112 33.9045 33.8 34.6314 34.8481C34.6314 34.8481 38.0309 35.0406 37.9881 36.1316C38.0095 37.1583 33.1776 38.6129 33.1776 38.6129Z" fill="white" stroke="#DF0006" stroke-width="4.76691" stroke-miterlimit="10"/>
<path d="M23.42 36.5877C23.5618 35.6653 22.9577 34.8068 22.0707 34.6704C21.1837 34.5339 20.3497 35.1711 20.2079 36.0935C20.0661 37.016 20.6702 37.8744 21.5572 38.0109C22.4442 38.1474 23.2782 37.5102 23.42 36.5877Z" fill="white" stroke="#DF0006" stroke-width="4.76691" stroke-miterlimit="10"/>
<path d="M62.276 41.7996C62.1905 43.0617 64.1362 45.2649 65.0769 45.8424C71.4482 49.6713 76.836 47.4681 77.3705 47.1045C80.0858 45.3291 80.3851 43.4467 79.6795 41.5002C79.1878 40.1526 77.0284 38.2702 74.7407 37.5857C72.1537 36.7943 70.6143 36.6018 68.2625 36.7515C66.2955 36.8798 62.2333 37.2435 61.4208 38.0563C61.4208 38.0563 58.2994 37.6285 58.1711 38.6125C58.0428 39.5964 62.276 41.7996 62.276 41.7996Z" fill="white" stroke="#DF0006" stroke-width="4.76691" stroke-miterlimit="10"/>
<path d="M73.6099 41.5883C73.9066 40.8165 73.4861 39.9365 72.6705 39.6227C71.855 39.3088 70.9534 39.68 70.6567 40.4518C70.3599 41.2236 70.7805 42.1037 71.596 42.4176C72.4115 42.7314 73.3132 42.3601 73.6099 41.5883Z" fill="white" stroke="#DF0006" stroke-width="4.76691" stroke-miterlimit="10"/>
<path d="M43.3535 82.6784C43.6799 81.8295 43.2298 80.8661 42.3482 80.5268C41.4666 80.1876 40.4872 80.6008 40.1608 81.4498C39.8344 82.2987 40.2845 83.262 41.1662 83.6013C42.0478 83.9406 43.0271 83.5274 43.3535 82.6784Z" fill="white" stroke="#DF0006" stroke-width="4.76691" stroke-miterlimit="10"/>
<path d="M56.4136 82.6751C56.74 81.8262 56.2899 80.8629 55.4082 80.5236C54.5266 80.1843 53.5473 80.5975 53.2209 81.4465C52.8945 82.2954 53.3446 83.2588 54.2262 83.598C55.1078 83.9373 56.0872 83.5241 56.4136 82.6751Z" fill="white" stroke="#DF0006" stroke-width="4.76691" stroke-miterlimit="10"/>
<path d="M63.5579 104.581C63.5579 104.581 42.8619 94.6982 34.2243 101.18C25.5654 107.682 39.6122 106.206 39.6122 106.206C39.6122 106.206 50.4733 106.206 54.2148 109.137C59.4315 113.222 51.6278 113.821 51.6278 113.821" fill="white"/>
<path d="M63.5579 104.581C63.5579 104.581 42.8619 94.6982 34.2243 101.18C25.5654 107.682 39.6122 106.206 39.6122 106.206C39.6122 106.206 50.4733 106.206 54.2148 109.137C59.4315 113.222 51.6278 113.821 51.6278 113.821" stroke="#DF0006" stroke-width="4.76691" stroke-miterlimit="10"/>
</svg>
