<svg width="668" height="872" viewBox="0 0 668 872" fill="none" xmlns="http://www.w3.org/2000/svg">
<path d="M606.91 744.422C602.912 733.491 595.173 723.716 584.739 718.561C578.646 715.545 571.505 713.042 564.834 711.823C542.77 707.802 520.812 706.433 498.406 705.449C490.388 705.106 486.091 704.657 478.266 706.475C472.707 707.78 466 709.5 458.5 708.5C443 708.5 429.5 708 416.841 712.358C400.5 717.983 390.5 714 382 707.5C378.077 704.5 375.766 703.059 373.5 700C370.699 696.193 370 696 367 691.5C364.5 682.5 358 680.5 356.5 677.5C355 674.5 353.721 671.5 354.5 668C355.721 665 358.5 662 358.5 662C358.5 662 353.098 659.823 352.5 655.759C352.029 652.571 353 650 353 650L355.5 645C355.5 645 360.614 639.345 363.5 636.5C366.386 633.655 371 630.304 376 629C387.5 626 393.5 627 393.5 627C393.5 627 397.5 627 401.5 627C401.5 627 404 627 406.5 627.5C419 633.5 421 639.5 435 648.5C448.5 656 446 657.5 464 657C468 656.889 473 657.759 477 655.759C480 654.259 483.611 653.106 486.519 653.342C494.729 654.026 500.993 660.678 508.241 664.636C519.722 670.903 533.534 670.283 546.597 670.154C560.622 670.026 574.006 671.481 587.07 676.529C600.154 681.577 612.769 693.555 616.66 707.031C619.845 718.112 616.082 727.588 617.836 738.967C619.696 750.968 630.236 757.598 623.651 774.411C623.886 773.727 614.565 774.454 613.987 774.283C610.096 773.128 612.127 772.058 611.935 768.037C611.571 759.823 609.775 752.208 606.91 744.422Z" fill="white"/>
<path d="M635.261 797.321C642.103 790.134 639.794 778.497 636.737 769.064C631.883 754.112 628.163 739.246 629.232 723.567C630.237 708.829 636.501 695.331 643.642 681.834C650.548 668.764 650.698 652.294 646.55 638.112C644.776 632.08 643.493 622.048 633.444 614.86C631.563 613.513 628.548 611.053 626.346 610.347C604.624 603.352 594.596 615.181 578.262 616.4C569.71 617.042 561.307 618.368 553.504 620.443C539.414 624.208 526.267 633.979 508.5 634C506.426 634 503.132 632.764 494.494 631.909C492.762 631.737 474.326 629.134 473 628C420.5 634 421.5 618 424 612C424 612 408.919 611.668 408 610C399.5 605.5 405.5 599 405.5 599C399.733 597.362 395.301 596.256 396 591.5C395 582.5 405.5 586.5 406.5 576C410 565 453.234 570.233 451.061 567C447.568 561.8 444.64 555.902 447 553C450.699 548.465 456.878 550.5 461.996 550.5C464.496 550.5 469 550.5 471 550.5C473 550.5 475.405 550.671 477.5 550.5C485.304 549.858 487.675 549.671 495.5 549.5C498.472 549.436 504.614 550.751 507.5 551.5C511.541 552.527 519.793 555.369 523 558C531.381 564.909 530.866 566.585 541 570.5C551.733 574.628 566.118 569.962 577.492 568.293C591.603 566.219 605.543 566.368 619.547 569.063C633.551 571.759 647.32 579.096 654.461 591.459C657.475 596.678 659.656 601.042 661.024 606.903C663.761 618.561 665.172 630.54 665.215 642.54C665.279 662.005 660.982 680.871 655.679 699.588C653.648 706.711 651.318 713.855 650.976 721.256C650.783 725.727 650.228 743.93 650.762 748.358C653.413 770.433 655.295 778.797 657.967 800.872C660.362 820.808 662.628 836.016 653.648 853.984C650.89 859.503 642.124 867.503 631.156 869.428C627.693 870.048 622.946 870.326 621.963 866.947C627.158 861.15 630.045 856.637 632.29 849.899C634.534 843.182 636.373 835.588 636.63 828.487C636.972 818.07 635.411 807.674 635.261 797.321Z" fill="white"/>
<path d="M169 29.5C160.704 22.1417 152.37 19.0932 141.359 17.7884C134.667 16.997 127.676 16.0986 121.176 17.8954C103.431 22.7938 84.4238 20.3553 66.0582 21.5959C62.1243 21.8526 58.1262 22.1307 54.3847 23.4141C43.5235 27.1147 37.0881 38.2805 33.3466 49.1254C27.8946 64.9544 26.0773 81.7886 24.9869 98.4946C24.3242 108.762 20.2619 118.644 20.4116 128.933C20.4971 134.751 21.1599 140.548 21.8227 146.324C24.26 167.586 26.7187 188.848 29.1561 210.11C30.1609 218.901 31.1872 227.693 31.6789 236.527C32.1279 244.72 34.1804 254.238 34.1804 262.431C34.2018 276.848 32.1921 289.96 32.2134 304.378C32.2348 316.164 29.2202 327.907 28.0657 339.629C22.7848 392.57 24.9228 436.442 31.9355 486.41C32.7693 492.335 33.988 498.132 34.3515 504.1C34.886 513.277 33.5604 522.86 32.0852 531.951C30.0113 544.699 31.2086 558.56 28.5147 571.373C27.1677 577.769 27.5 585.801 27.5 593.5C27.5 601.199 31.0589 608.58 34.3515 613.5C39.0337 620.537 38.086 620.503 44.5 626C50.914 631.519 71.0762 635.094 79.5 635.5C88.8218 635.928 87.4384 635.5 109 635.5C123 635.5 138.889 637.511 153 639.5C156.934 640.056 164.5 638 171.291 636.5C172.322 636.104 185.5 629 204.5 631C219.497 630.6 230.5 630.19 242 628C252.5 626 273 621.5 273 627.5C274.011 633.569 266 638 253.5 639.5C239.117 640.026 231.931 640.702 229.5 644C233 651 287.5 641 291 648.5C297.773 663.013 236.5 656.5 238.5 661C255.362 664.867 281.301 662.233 293.5 663.5C301 667 292 674.5 290 676C262.5 680 234 672 233 680C233.77 684.064 290.5 683.5 279.5 699.5C283.498 703.564 249.5 701 218.5 691C212.5 691 207.5 689 205.5 697C210.5 701.5 219 726.5 217 727.5C208 745.5 196.5 712 189.5 701.5C186.626 697.188 185 696 182 690.5C176.5 683.759 174.5 683 167 678.5C155 676 152.95 678.906 150 678.5C146.943 678.094 135 682.454 131 682.5C118 683.759 112.5 683.759 104 683.759C94.5 683.759 93.5 683.759 87.4384 683.759C80.5 683.759 79.207 683.331 74.8455 682.454C65.8017 680.614 53.0521 682.008 44.5 678.5C38.0646 675.869 31.9733 672.299 26.5 668C19.7225 662.652 17.6963 656.479 14.4038 648.5C7.11312 630.81 11.6243 610.71 11.4533 594.56C11.1754 567.074 15.3872 545.148 19.4281 517.811C20.7109 509.234 19.9198 502.389 18.5943 493.491C18.1239 490.282 14.9169 480.999 14.4038 477.79C13.4203 471.608 11.5816 463.63 9.84978 457.619C6.98484 447.629 6.68552 438.004 5.87307 427.651C4.6544 411.672 4.6544 396.228 6.17239 379.651C7.60486 364.078 11.1326 348.185 13.0354 332.677C15.1307 315.586 16.1355 298.303 17.2046 281.105C18.3805 261.939 16.6487 242.987 13.6341 224.035C6.57862 179.671 4.65441 135.286 8.90906 91.4785C9.5077 85.2111 9.42218 77.9811 10.876 71.8849C12.3085 65.9169 11.774 57.3394 14.0403 51.6281C16.9694 44.2698 17.9529 40.5051 20.8819 33.1468C21.8868 30.6441 25.2863 25.4676 27.0608 23.4355C28.814 21.4462 31.6576 18.9863 33.7956 17.382C43.3953 10.1734 54.2991 6.2162 66.9562 8.39802C79.6988 10.6012 87.0749 9.80979 99.9458 8.61192C111.662 7.52101 129.45 2.94346 141.231 3.24293C158.185 3.67073 172.011 12.0802 183 25C178 25.5 174 26.5 169 29.5Z" fill="white"/>
<path d="M621.877 774C626.73 766.791 622.819 755.005 618.5 746C612.535 733.572 616.5 730 616.5 716.5C616.5 716.5 616.5 694 589.914 679.267C571.463 670.283 553.819 669.233 534 671.5C509.135 674.324 497.829 657.277 497.829 657.277C495.713 654.197 492 652.5 487 652.5C483.836 652.5 482 653.897 475 656C468 658.103 463.5 656.655 455.5 657.277" stroke="#DF0006" stroke-width="4.76691" stroke-miterlimit="10"/>
<path d="M474.439 707.63C480.468 705.277 487.16 705.705 493.617 706.176L507.001 706.668C507.001 706.668 562.996 706.347 585.637 718.668C611.571 732.785 617.237 766.839 607.424 783.224" stroke="#DF0006" stroke-width="4.76691" stroke-miterlimit="10"/>
<path d="M618.992 864.615C620.894 871.054 632.867 868.529 632.867 868.529C655 861.5 658.679 834.856 659 826C659.385 815.134 653.371 779.5 653.371 779.5C644 733 653.371 708.957 653.371 708.957C673 658 662.628 617.128 662.628 617.128C662.628 617.128 659 596 651 588C640.951 574.417 616 570.5 616 570.5C601.053 567.642 589.5 568 564 572C560.5 573 543.5 574.4 539.5 572" stroke="#DF0006" stroke-width="4.76691" stroke-miterlimit="10"/>
<path d="M540 624.5C550.5 621.833 557 615.5 573.5 615.5C588.5 615.5 594.7 614.5 601.5 610.5C610 605.5 634 604.5 643.5 626.5C651.1 644.1 649.667 659.5 649 666C646.846 687 641.457 687.378 634 707C624.5 732 631.833 756.833 637.5 772.5C640.333 780 643.6 795.3 634 796.5" stroke="#DF0006" stroke-width="4.77"/>
<path d="M457.409 657C445.409 657.5 440.288 652.808 425.888 642.008C422.888 639.508 415.688 633.508 410.888 629.508C406.088 625.508 387.221 627.174 378.388 628.508C374.721 628.341 367.288 630.108 366.888 638.508C366.488 646.908 364.721 652.674 363.888 654.508C362.221 658.508 361.488 665.908 371.888 663.508C384.888 660.508 386.388 650.508 385.888 644.508V643.008" stroke="#DF0006" stroke-width="4.77"/>
<path d="M367.409 645C370.409 644.833 375.209 646.9 370.409 656.5C368.909 657.167 365.409 658.2 363.409 657" stroke="#DF0006" stroke-width="4.77"/>
<path d="M367.909 635C359.242 640.167 345.209 652.8 358.409 662C355.242 665.5 352.109 675.1 364.909 685.5C365.409 690 368.209 699.4 375.409 701C376.909 703.5 382.209 709.3 391.409 712.5C393.242 715.5 400.109 719.7 412.909 712.5C431 703 464 711.5 475 707.5" stroke="#DF0006" stroke-width="4.77"/>
<path d="M386.909 645C389.475 647.139 395.033 648.016 398.369 648.059" stroke="#DF0006" stroke-width="4.76691" stroke-miterlimit="10"/>
<path d="M423.099 680.118C419.956 679.989 416.813 679.754 413.798 678.877C410.784 678 407.897 676.439 405.909 674" stroke="#DF0006" stroke-width="4.76691" stroke-miterlimit="10"/>
<path d="M364.909 685.343C365.187 681.408 368.458 678.349 371.793 676.252C376.796 673.108 382.441 671.162 388.042 669.215C390.373 668.402 392.703 667.611 395.034 666.798C396.274 666.37 397.535 665.942 398.839 666.006C401.576 666.156 403.735 668.552 404.804 671.076C405.403 672.488 405.788 674.028 405.617 675.547C405.467 677.065 404.719 678.563 403.436 679.418" stroke="#DF0006" stroke-width="4.76691" stroke-miterlimit="10"/>
<path d="M375.75 700.951C382.678 691.668 391.679 683.775 402.54 679.775C404.143 679.176 406.688 679.368 408.163 680.224C409.317 680.887 409.916 682.213 410.386 683.475C411.712 687.004 412.567 691.026 411.113 694.513C410.108 696.908 408.12 698.726 406.132 700.395C403.181 702.855 400.081 705.122 396.853 707.176" stroke="#DF0006" stroke-width="4.76691" stroke-miterlimit="10"/>
<path d="M403.449 703C403.064 703.449 402.914 704.048 402.765 704.626C402.294 706.572 401.994 708.562 401.909 710.551" stroke="#DF0006" stroke-width="4.76691" stroke-miterlimit="10"/>
<path d="M394.693 667.154C395.613 664.759 395.955 660.609 394.95 658.256C392.705 653 389.261 652.484 386.909 651.5" stroke="#DF0006" stroke-width="4.76691" stroke-miterlimit="10"/>
<path d="M436.45 701.357C435.402 698.662 434.248 695.988 432.665 693.593C431.083 691.175 429.009 689.036 426.444 687.71" stroke="#DF0006" stroke-width="4.76691" stroke-miterlimit="10"/>
<path d="M434.012 674.619C436.449 672.694 437.048 669.314 437.369 666.234C437.711 662.983 437.925 659.689 437.476 656.459C437.027 653.229 435.851 650.02 433.67 647.582" stroke="#DF0006" stroke-width="4.76691" stroke-miterlimit="10"/>
<path d="M110.892 44.6762C123.72 46.1522 133.955 50.7245 145.5 56.4999C149 49.9999 152 42.9999 160 35.4999C152.282 29.7245 143.005 31.8419 133.384 32.4195C123.485 33.0184 113.543 33.104 103.623 32.719C96.6313 32.4409 86.9461 31.7564 80.19 33.5746C73.7118 35.3072 72.0441 36.7404 66.8701 41.0185C63.2997 43.9703 58.2753 46.7353 55.6028 50.5C52.9303 54.2861 52.347 57.5722 51 62C48.413 70.4706 48.3122 86.302 47.9273 95.0293C47.2004 110.815 43.8437 123.778 44.8699 139.543C45.6183 151.243 48.248 163.65 48.9963 175.35C49.5094 183.372 51.4337 190.088 52.3958 198.067C52.9089 202.26 53.4006 205.126 53.8924 208.527C54.3414 211.586 55.3249 219.393 55.6028 222.495C57.1636 240.57 58.147 252.442 57.6767 270.859C57.1208 292.078 55.9449 310.902 51.9895 333.896C51.0274 339.522 50.2791 345.362 49.3598 351.009C48.8039 354.495 47.6066 357.896 47.5639 361.426C47.3287 380.014 46.6873 400.014 49.7019 419.03C53.6572 443.95 47.4142 467.523 53.7 491.608C54.3414 494.111 54.32 497.212 54.5979 499.801C54.8759 502.282 54.94 510.581 54.7476 513.084C54.2131 519.48 53.7 519.48 53.9993 525.897C54.5124 536.999 56.4152 548.036 59.6223 558.667C60.9906 563.202 62.6796 567.801 65.8653 571.33C67.3619 572.978 68.3454 575.544 70.1199 576.892C72.7711 578.924 75.0801 580.571 77.7313 582.603C79.9976 584.336 83.4612 585.298 86.1337 586.368C89.9821 587.908 94.2795 587.844 98.4273 587.758C108.839 587.544 113 584.5 128.5 592.5C137.507 602.874 155.405 614.912 164 613.5C172.595 612.088 183 610 193 607.5C200.5 604.5 204.5 604 208 601L215 594.5L219.5 576.892L208 566.5L204.5 551.5L198.5 536.25L195 528.5L184 527.5C174.614 528.078 161.886 525.12 152.5 524.5L151.712 524.692C109.361 535.035 98.0879 537.787 81.2162 526.945C78.3727 525.127 77.7959 520.366 76 517.5C73.9903 514.291 75.2084 505.201 74.4601 501.5C74.4601 476.25 70.1199 464 69 447C68 391.5 60.0071 355.159 71.5524 305.854C78.0306 278.174 75.6574 250.88 73.6049 221.147C72.9207 211.415 70.4193 195.522 69.0509 185.853C67.5329 175.094 65.1597 164.441 63.6845 153.661C60.0071 126.901 61.91 99.4144 69.2006 73.425C70.7827 67.7779 72.6855 62.088 76.1705 57.3608C83.846 46.965 98.0638 43.2003 110.892 44.6762Z" fill="white"/>
<path d="M78 682.996C109.315 686.257 144.184 679.735 144.184 679.735C149.937 678.243 161.069 678.557 166.881 679.991C172.672 681.425 178.091 684.744 181.468 689.596C183.235 692.15 184.413 695.057 186.102 697.65C189.145 702.364 193.739 705.978 196.782 710.712C200.218 716.075 201.416 722.518 204.596 728.037C205.617 729.825 206.992 731.612 208.975 732.261C211.448 733.066 214.256 731.789 215.729 729.707C217.201 727.625 217.535 724.914 217.26 722.38C216.671 716.743 213.451 711.734 210.702 706.744C207.698 701.264 203.634 694.762 211.939 693.112C218.34 691.835 225.054 693.819 231.239 695.352C244.393 698.593 257.882 700.302 271.37 701.421C275.1 701.736 279.694 701.559 281.442 698.337C282.875 695.685 281.383 692.209 278.929 690.382C276.474 688.555 273.313 687.966 270.27 687.436C259.766 685.569 249.243 683.703 238.739 681.857C236.638 681.484 234.459 681.071 232.79 679.794C230.454 677.3 242.214 676.769 247.24 676.887C257.41 677.123 267.58 677.339 277.751 677.575C281.383 677.653 285.113 677.732 288.549 676.593C291.985 675.453 295.146 672.841 295.872 669.344C296.226 667.616 295.872 665.632 294.478 664.512C293.359 663.609 291.828 663.432 290.375 663.334C272.469 662.018 254.328 664.63 236.599 661.802C235.794 661.664 234.753 660.8 235.401 660.328C235.892 658.384 251.324 658.443 259.374 658.207C265.421 658.03 271.488 657.853 277.535 657.657C281.363 657.539 285.486 657.323 288.49 655.005C291.494 652.687 292.279 647.403 289.04 645.38C287.489 644.418 285.525 644.457 283.7 644.535C269.76 645.105 255.82 645.655 241.939 647.03C238.13 647.403 233.929 647.757 230.827 645.537C230.159 645.046 229.511 644.319 229.649 643.514C229.845 642.493 231.121 642.139 232.181 641.982C241.959 640.607 251.717 639.212 261.494 637.837C264.871 637.366 268.425 636.796 271.016 634.655C273.608 632.514 274.668 628.212 272.253 625.835C270.741 624.343 268.405 624.048 266.245 624.009C258.294 623.851 250.499 625.875 242.685 627.348C229.138 629.901 215.277 630.864 201.475 630.176C197.096 629.96 192.679 629.587 188.34 630.176C184.237 630.746 180.31 632.16 176.344 633.319C166.566 636.187 156.298 637.543 146.069 637.326L76 633.319" stroke="#DF0006" stroke-width="4.77" stroke-miterlimit="10"/>
<path d="M206.854 686.709C205.047 690.834 205.283 695.764 207.443 699.752" stroke="#DF0006" stroke-width="4.37746" stroke-miterlimit="10"/>
<path d="M202.003 659.366C196.997 657.264 191.617 656.007 186.179 655.692C184.824 655.614 183.47 655.594 182.115 655.791C178.149 656.36 174.536 658.934 172.769 662.45" stroke="#DF0006" stroke-width="4.37746" stroke-miterlimit="10"/>
<path d="M179.23 662.587C177.365 664.63 176.206 667.203 175.657 669.894C175.107 672.585 175.146 675.355 175.539 678.066" stroke="#DF0006" stroke-width="4.37746" stroke-miterlimit="10"/>
<path d="M208.621 630.471C210.584 630.923 212.155 632.494 213.038 634.282C213.922 636.069 214.216 638.073 214.472 640.037C215.12 645.144 215.532 650.31 217.083 655.241C218.634 660.152 221.5 664.905 225.996 667.596" stroke="#DF0006" stroke-width="4.37746" stroke-miterlimit="10"/>
<path d="M199.982 645.341C210.839 658.266 216.356 675.375 215.021 692.013" stroke="#DF0006" stroke-width="4.37746" stroke-miterlimit="10"/>
<path d="M169.708 667.537C169.119 669.934 168.687 672.369 168.766 674.825C168.864 677.28 169.532 679.755 170.984 681.66" stroke="#DF0006" stroke-width="4.37746" stroke-miterlimit="10"/>
<path d="M246.22 639.585C247.104 637.346 246.789 634.675 245.434 632.651" stroke="#DF0006" stroke-width="4.37746" stroke-miterlimit="10"/>
<path d="M259.256 637.896C257.646 636.226 256.664 633.987 256.527 631.708" stroke="#DF0006" stroke-width="4.37746" stroke-miterlimit="10"/>
<path d="M257.705 676.671C258.982 674.078 259.473 671.112 259.099 668.225" stroke="#DF0006" stroke-width="4.37746" stroke-miterlimit="10"/>
<path d="M269.013 677.064C272.214 676.003 274.609 672.939 274.825 669.639" stroke="#DF0006" stroke-width="4.37746" stroke-miterlimit="10"/>
<path d="M235.44 659.936C235.99 658.305 236.029 656.518 235.577 654.848" stroke="#DF0006" stroke-width="4.37746" stroke-miterlimit="10"/>
<path d="M102.5 534C110 534 116.786 534.116 123.8 531.723C130.813 529.33 137.689 526.179 145.047 525.281C157.12 523.809 169.169 528.617 181.311 528.18C185.91 528.019 190.923 527.191 194.832 529.629C200.029 532.85 200.696 540.166 199.845 546.217C203.754 548.311 206.008 553.119 205.134 557.467C204.904 558.548 204.513 559.676 204.743 560.757C205.019 562.068 206.1 563.012 206.973 564.024C208.79 566.094 209.963 568.763 210.239 571.501C212.998 572.099 217.206 572.421 218.793 577.667C219.621 580.358 217.735 584.062 217.206 586.133C216.608 588.434 216.194 590.573 214.861 593.242C214.424 594.116 212.492 596.831 211.181 598.165C204.444 604.998 194.901 607.184 185.542 609.254C179.931 610.497 174.32 611.739 168.709 612.981C165.283 613.741 161.673 614.5 158.292 613.58C155.901 612.935 153.808 611.509 151.762 610.106C143.989 604.745 136.194 599.385 128.422 594.024C124.213 591.125 119.752 588.135 114.647 587.789C111.083 587.559 107.22 588.595 104.07 586.892" stroke="#DF0006" stroke-width="4.77" stroke-miterlimit="10"/>
<path d="M199.201 605.55C201.018 604.423 202.283 602.789 203.317 600.443C206.399 593.495 212.791 588.525 218.264 583.303" stroke="#DF0006" stroke-width="4.77" stroke-miterlimit="10"/>
<path d="M184.738 594.553C184.002 592.298 182.806 588.249 184.209 586.363C184.807 585.557 185.681 585.005 186.555 584.499C188.624 583.28 190.763 582.199 192.625 580.726C193.821 579.783 194.879 578.679 196.052 577.758C197.799 576.355 199.317 575.09 201.088 573.709C202.927 572.283 207.204 570.695 210.217 571.524" stroke="#DF0006" stroke-width="4.77" stroke-miterlimit="10"/>
<path d="M183.61 589.284C181.448 589.307 179.31 589.307 177.148 589.33C175.63 589.33 174.067 589.353 172.664 589.906C171.353 590.412 170.157 591.355 168.732 591.401C167.95 591.424 167.191 591.171 166.409 591.194C164.317 591.263 162.868 593.241 161.764 595.036" stroke="#DF0006" stroke-width="4.77" stroke-miterlimit="10"/>
<path d="M156.407 592.344C157.051 591.355 158.017 590.596 159.12 590.228C160.063 589.906 161.075 589.86 162.064 589.814C162.547 589.791 163.03 589.768 163.513 589.814C164.501 589.883 165.467 590.251 166.272 590.803" stroke="#DF0006" stroke-width="4.77" stroke-miterlimit="10"/>
<path d="M167.699 590.619C166.089 581.738 160.064 573.755 151.947 569.821" stroke="#DF0006" stroke-width="4.77" stroke-miterlimit="10"/>
<path d="M129.503 594.599C126.513 588.457 126.513 580.841 129.503 574.699" stroke="#DF0006" stroke-width="4.77" stroke-miterlimit="10"/>
<path d="M130.469 573.157C132.883 568.832 137.965 566.186 142.886 566.647" stroke="#DF0006" stroke-width="4.77" stroke-miterlimit="10"/>
<path d="M173.862 589.515C172.826 588.963 172.481 587.651 172.297 586.501C172.044 584.845 171.883 583.096 172.573 581.578" stroke="#DF0006" stroke-width="4.77" stroke-miterlimit="10"/>
<path d="M192.533 580.818C187.727 581.072 182.921 581.118 178.115 581.187C176.252 581.21 174.367 581.233 172.619 580.565C170.527 579.783 168.825 577.989 168.25 575.826C167.675 573.664 168.296 571.225 169.883 569.66C170.987 568.579 172.435 567.981 173.884 567.429C175.379 566.854 176.873 566.325 178.437 566.025C179.587 565.818 180.737 565.726 181.909 565.588C189.222 564.852 196.442 563.127 203.295 560.458" stroke="#DF0006" stroke-width="4.77" stroke-miterlimit="10"/>
<path d="M187.681 527.927C184.921 530.802 181.334 534.736 177.471 535.657C175.217 536.209 172.826 536.002 170.503 535.933C168.641 535.887 164.295 537.727 163.651 539.039C162.271 541.868 162.731 545.181 164.8 547.919C166.18 549.737 168.204 549.875 170.48 550.105C171.63 550.22 172.803 549.921 173.953 549.783C176.16 549.507 178.368 549.852 180.575 549.852C183.128 549.852 185.657 549.391 188.141 548.747C191.958 547.758 195.683 546.355 199.178 544.56" stroke="#DF0006" stroke-width="4.77" stroke-miterlimit="10"/>
<path d="M178.391 566.002C176.091 565.634 173.815 565.266 171.515 564.898C170.779 564.783 170.066 564.668 169.331 564.645C168.342 564.622 167.445 564.484 166.479 564.392C165.513 564.3 164.295 563.311 163.72 562.505C163.283 561.907 162.961 561.056 162.846 560.297C162.547 558.479 162.478 557.858 162.915 556.271C163.375 554.545 163.927 552.659 165.352 551.554C166.64 550.542 169.653 550.105 170.687 549.967" stroke="#DF0006" stroke-width="4.77" stroke-miterlimit="10"/>
<path d="M123.041 546.815C122.259 542.973 121.707 538.809 123.432 535.289C124.627 532.85 126.789 531.01 129.18 529.744" stroke="#DF0006" stroke-width="4.77" stroke-miterlimit="10"/>
<path d="M156.316 562.482C149.67 558.433 141.622 556.708 133.896 557.697" stroke="#DF0006" stroke-width="4.77" stroke-miterlimit="10"/>
<path d="M157.74 557.858C157.212 554.269 155.211 551.002 152.612 548.471C150.014 545.941 146.864 544.054 143.621 542.421" stroke="#DF0006" stroke-width="4.77" stroke-miterlimit="10"/>
<path d="M121.915 574.331C120.719 571.11 120.604 567.475 121.639 564.185C122.559 561.194 124.399 558.41 124.445 555.305" stroke="#DF0006" stroke-width="4.77" stroke-miterlimit="10"/>
<path d="M205.848 594.576C203.318 593.564 201.134 591.746 199.639 589.492C199.501 589.285 199.363 589.054 199.34 588.778C199.317 588.525 199.409 588.295 199.501 588.065C200.513 585.603 201.984 583.349 203.824 581.416C204.859 580.335 206.032 579.346 207.388 578.725C208.745 578.103 210.332 577.85 211.757 578.287C213.712 578.863 215.506 581.439 216.333 583.809" stroke="#DF0006" stroke-width="4.77" stroke-miterlimit="10"/>
<path d="M78.5 683C61 681.5 39.2261 680.035 25.5 667.5C12.2657 655.414 11.5378 637.042 11.3026 619.117C11.0247 597.299 9.42115 583.733 11.3026 562C13.5689 535.818 24.6011 512.186 17.0111 487.031C5.82928 449.962 0.424644 415.46 5 377C6.81731 361.834 11.8371 341.94 13.8896 326.795C17.9091 297.362 20.9932 269.562 18 240C14.4723 204.962 3.5416 168.1 4.76027 132.891C5.18787 120.634 6.77001 108.463 8.33076 96.3133C10.3619 80.4843 11.2171 55.3292 17.3959 40.6126C23.5748 25.8959 30.5661 15.9708 45.4681 10.2809C55.7733 6.34505 76.4694 9.31833 87.5015 9.40389C103.558 9.53223 127.547 3.02954 143.603 3.15788C157.522 3.26483 175.486 17.6657 185 26.5" stroke="#DF0006" stroke-width="4.76691" stroke-miterlimit="10"/>
<path d="M170.563 31.4147C162.332 24.3345 151.749 17.8746 140.161 17.404C126.82 16.8692 107.492 21.404 94.0866 21.1901C84.5511 21.019 63.4369 21.6845 54.5 25C42.0781 29.6417 40.1659 35.0511 34.4574 46.9656C30.9082 54.3881 30.8683 64.4679 29.5 74.5C28.4096 82.5 25.6701 90.431 24.8363 96.9551C23.4038 107.95 22.8206 119.898 22.4999 131C21.6234 162.786 28.813 193.757 32.4262 225.5C34.8422 246.826 33.6235 259.652 32.4262 281C32.1269 286.433 35.4326 295.267 34.0001 309C32.5677 322.733 31.2615 329.246 30 343C29.1662 351.963 24.1521 365.876 23.6818 374.881C23.2755 382.753 25.2007 394.992 25.5 402.5C26.2483 420.211 25.3708 431.352 27.2309 448.892C28.5351 461.17 29.622 475.586 33 487.5C38.7727 507.842 33.7483 527.294 33 548C32.3586 565.177 23.8314 594.027 31.9345 609C42.1115 627.802 50 629.5 76.5 633.5" stroke="#DF0006" stroke-width="4.76691" stroke-miterlimit="10"/>
<path d="M161.775 36.9978C154.805 31.6502 152.218 32.4416 142.982 31.6074C132.356 30.6662 117.711 33.2545 106.957 32.9336C98.9176 32.6983 85.9185 31.3935 78.3499 34.1101C68.3867 37.6823 59.514 43.8663 54.4041 53C50.6839 59.6524 49 69 49 79.5C49 90 48.3963 91.522 47.6052 97.5969C46.3224 107.458 45.3389 117.34 45.1679 127.265C44.6761 155.629 50.7267 183.929 54.4041 212.357C56.8628 231.437 56.3635 246.42 56 265.5C56 281 58.1884 287.644 57.8891 292.5C57.098 304.821 54.8531 308.87 54.0192 321.213C53.3351 331.373 49.166 344.036 48.5245 354.218C47.9473 363.266 47.0707 374.518 47.4555 382.839C48.4604 404.571 45 411.5 51.1757 441.363C54.0192 460.5 47.4555 466 51.1757 483C54.5986 498.642 54.2117 516.572 54.9814 531.802C55.58 544.422 51 588 105.5 587" stroke="#DF0006" stroke-width="4.76691" stroke-miterlimit="10"/>
<path d="M102.831 533.855C68.6436 532.786 76.0312 504.016 74 485C72.2896 468.914 68.9643 450.026 68.6864 433.876C68.2374 408.144 66.5911 392.25 65.3297 366.496C64.8807 357.341 66.1849 343.801 66.9332 333.576C67.767 322.24 73.0636 310.793 75.7632 294.5C78 281 75.5922 273.961 75.7632 263.052C75.8274 258.753 75.806 254.475 75.6777 250.175C75.2073 233.362 71.5229 216.856 69 200C65.2585 174.866 62.0158 149.426 62.1441 124.463C62.1868 115.693 63.8455 109.685 65 101C66.1545 92.3155 65.6718 86.6452 66.9118 80.5917C68.4726 72.998 70.8244 65.4686 74.7797 59.629C79.1413 53.1905 84.1015 48.5701 91.5846 46.0461C97.8062 43.9284 106.914 44.3776 113.478 44.7199C121.581 45.1263 141.807 54.4953 147.515 58.0675" stroke="#DF0006" stroke-width="4.76691" stroke-miterlimit="10"/>
<path d="M458.102 601.117C456.797 601.481 455.771 600.069 454.809 599.107C452.821 597.096 449.699 596.668 446.877 596.904C444.055 597.139 441.275 597.909 438.453 597.866C436.657 597.845 434.904 597.481 433.108 597.246C429.901 596.818 426.63 596.818 423.423 597.203C421.798 597.395 420.152 597.695 418.506 597.481C417.116 597.289 415.812 596.732 414.443 596.476C412.904 596.176 411.3 596.283 409.74 596.519C407.644 596.818 405.399 597.438 404.117 599.128C402.385 601.374 403.069 604.861 405.036 606.914C407.003 608.968 409.911 609.845 412.733 610.187C415.555 610.529 418.42 610.465 421.221 611C422.439 611.235 423.637 611.599 424.855 611.898C428.832 612.904 432.916 613.139 436.999 613.46C446.043 614.166 455.579 615.257 464.623 614.166" stroke="#DF0006" stroke-width="4.76691" stroke-miterlimit="10"/>
<path d="M467.317 618.123C466.013 616.796 464.986 615.192 464.046 613.567C463.062 611.898 462.121 610.123 461.993 608.176" stroke="#DF0006" stroke-width="4.76691" stroke-miterlimit="10"/>
<path d="M459.405 598.893C457.373 594.978 456.39 592.497 456.304 591.128" stroke="#DF0006" stroke-width="4.76691" stroke-miterlimit="10"/>
<path d="M457.267 582.593C455.001 580.946 451.986 580.689 449.207 581.032C446.427 581.374 443.712 582.208 440.932 582.508C436.528 582.978 432.081 582.101 427.655 582.508C425.496 582.7 423.379 583.213 421.241 583.534C415.298 584.411 409.247 583.77 403.261 583.941C401.807 583.984 400.396 584.262 399.091 584.903C398.151 585.352 396.804 586.957 396.44 587.877C395.564 590.294 395.991 593.096 397.766 594.957C399.54 596.818 402.106 597.716 404.629 598.165" stroke="#DF0006" stroke-width="4.76691" stroke-miterlimit="10"/>
<path d="M457.373 585.716C457.138 583.941 456.903 582.144 457.095 580.369C457.395 577.374 458.827 574.636 460.238 571.984" stroke="#DF0006" stroke-width="4.76691" stroke-miterlimit="10"/>
<path d="M410.658 583.962C407.665 584.069 405.164 580.026 405.313 577.032C405.463 574.037 407.772 571.449 410.551 570.315C413.331 569.181 416.474 569.31 419.381 569.973C420.857 570.294 422.353 570.764 423.85 570.7C425.09 570.636 426.266 570.229 427.442 569.887C433.043 568.176 438.88 567.513 444.696 566.85C448.565 566.401 452.478 565.93 456.348 566.272L457.224 566.144" stroke="#DF0006" stroke-width="4.76691" stroke-miterlimit="10"/>
<path d="M524.401 598.743C527.886 597.374 530.837 594.7 532.569 591.384C533.146 590.272 533.595 589.096 534.044 587.919C535.177 584.946 536.31 581.973 537.443 578.999C538.063 577.395 538.683 575.748 538.854 574.037C539.047 572.326 538.491 570.971 537.443 569.602" stroke="#DF0006" stroke-width="4.76691" stroke-miterlimit="10"/>
<path d="M533.145 600.711C528.035 604.197 521.642 605.331 515.442 605.331C513.881 605.331 512.299 605.267 510.76 604.989C506.185 604.219 502.08 601.78 498.082 599.385C493.805 596.818 489.529 594.272 485.253 591.705" stroke="#DF0006" stroke-width="4.76691" stroke-miterlimit="10"/>
<path d="M503.576 616.411C499.856 615.256 497.098 612.197 494.533 609.267C491.732 606.058 488.867 602.743 487.477 598.721C486.793 596.711 486.494 594.571 485.895 592.518C484.89 589.074 483.009 585.887 480.464 583.341" stroke="#DF0006" stroke-width="4.76691" stroke-miterlimit="10"/>
<path d="M500.101 633.602C491.601 632.102 487.736 627.18 484.101 622.602C482.626 620.762 481.384 618.57 480.101 616.602C479.161 615.147 478.926 611.684 477.964 610.23C476.959 608.668 475.954 607.128 475.077 605.481C473.431 602.422 472.255 599.064 471.849 595.62" stroke="#DF0006" stroke-width="4.76691" stroke-miterlimit="10"/>
<path d="M432.808 597.096C434.155 597.609 435.523 598.144 436.678 599.042C437.832 599.919 438.73 601.224 438.816 602.657" stroke="#DF0006" stroke-width="4.76691" stroke-miterlimit="10"/>
<path d="M425.133 597.096C423.764 597.588 422.631 598.55 421.861 599.684C421.092 600.818 420.664 602.101 420.429 603.406" stroke="#DF0006" stroke-width="4.76691" stroke-miterlimit="10"/>
<path d="M425.367 590.7C425.346 593.181 426.779 595.62 429.023 596.925" stroke="#DF0006" stroke-width="4.76691" stroke-miterlimit="10"/>
<path d="M423.422 571.128C424.961 572.047 425.988 573.759 426.116 575.555" stroke="#DF0006" stroke-width="4.76691" stroke-miterlimit="10"/>
<path d="M466.601 552.102C466.601 553.44 466.58 554.854 466.015 556.037C465.039 558.121 462.825 559.175 460.806 559.098C458.787 558.995 457.008 558.867 454.663 558.532C453.448 556.963 452.84 555.137 452.601 553.002" fill="#FF7EAF"/>
<path d="M466.601 552.102C466.601 553.44 466.58 554.854 466.015 556.037C465.039 558.121 462.825 559.175 460.806 559.098C458.787 558.995 457.008 558.867 454.663 558.532C453.448 556.963 452.84 555.137 452.601 553.002" stroke="#DF0006" stroke-width="4.76691" stroke-miterlimit="10"/>
<path d="M539.101 572.602C538.768 570.935 535.701 566.202 526.101 560.602C514.101 553.602 504.101 550.602 498.601 550.102C493.101 549.602 478.101 551.102 472.101 551.102C467.301 551.102 457.101 551.769 452.601 552.102C449.268 552.269 444.101 554.502 450.101 562.102C453.101 564.769 462.801 569.802 477.601 568.602C481.601 568.602 482.101 568.602 484.601 571.602" stroke="#DF0006" stroke-width="4.77"/>
<path d="M428.101 612.602C422.935 615.102 416.101 621.302 430.101 626.102C444.101 630.902 461.268 629.435 468.101 628.102C471.435 627.602 479.601 627.402 485.601 630.602C493.101 634.602 516.101 635.102 528.101 630.602C530.435 629.602 535.401 627.302 536.601 626.102C537.801 624.902 541.333 624.167 542 624" stroke="#DF0006" stroke-width="4.77"/>
<path d="M483.601 570.602C483.601 570.602 485.489 572.347 486.6 573.438C489.102 575.855 492.394 577.481 495.858 577.973" stroke="#DF0006" stroke-width="4.76691" stroke-miterlimit="10"/>
</svg>
