<svg width="447" height="266" viewBox="0 0 447 266" fill="none" xmlns="http://www.w3.org/2000/svg">
<path d="M264.753 262.753V170.373L127.152 167.698C89.9526 168.65 80.3438 139.015 79.9463 124.738C77.9592 108.478 74.4617 72.8632 76.3694 60.4894C78.2771 48.1156 78.754 33.9175 78.754 28.3651C76.8463 17.895 77.9591 5.75915 78.754 1H4.83135C1.01598 21.9403 4.03649 70.8009 6.02366 92.6137C7.21596 106.098 9.60056 135.684 9.60056 146.154C9.60056 156.624 11.9852 173.519 13.1775 180.658C14.7672 187.004 19.8544 203.502 27.4851 218.731C35.1158 233.96 52.9209 244.907 60.8696 248.476C79.9464 259.898 204.741 262.753 264.753 262.753Z" fill="#FF7EAF"/>
<path d="M79.1466 1C79.1466 6.94894 77.9566 18.7875 77.9566 30.7447C77.9566 49.7813 75.5771 64.0588 75.5771 77.1464C75.1307 84.2852 74.592 107.674 81.5263 134.256C88.6649 161.621 106.332 167.4 125.369 168.59C125.369 168.59 129.015 168.464 133.394 168.59C146.874 168.976 176.55 167.862 201.695 168.76C229.068 169.738 264.474 172.157 264.474 172.157M4.18974 1C3.79314 11.3115 3 27.1753 3 41.4528C3 60.4894 5.37959 78.3362 5.37959 85.4749C5.37959 85.4749 7.19927 147.344 10.1387 164.001C13.0782 180.658 17.2775 218.731 43.4528 238.958C56.2581 248.853 82.7158 255.615 132.687 259.184C149.344 260.374 165.174 260.435 198.489 260.435C217.922 260.832 258.764 262.219 264.474 262.219" stroke="#DF0006" stroke-width="4.77"/>
<path d="M16.0878 0.999939C14.8982 20.0366 16.3258 51.6849 17.2776 59.2996C18.2294 66.9142 20.0538 93.4068 20.847 105.701C22.0368 117.203 22.8764 146.292 25.6061 169.95C29.1755 200.884 47.1628 236.283 106.644 243.493C115.212 244.531 120.019 244.907 132.687 244.907C161.037 244.907 180.655 247.06 195.814 247.06C195.814 247.06 231.482 249.289 264.754 248.397M27.9859 0.999939C27.9859 18.0536 28.2239 55.2543 29.1757 67.6281C30.1275 80.0019 31.9519 111.65 32.745 125.928C33.5382 152.5 43.2152 208.023 75.5774 217.541C82.3905 220.504 105.752 228.334 134.286 230.117C144.509 231.255 153.233 231.337 166.001 231.819C216.448 233.723 232.629 233.009 242.148 233.009H253.451H264.754" stroke="#DF0006" stroke-width="4.77"/>
<path d="M264.754 209.213C245.717 209.213 203.837 208.975 193.367 208.023C180.279 206.833 161.061 208.421 128.936 206.041C106.33 204.367 69.3597 198.253 61.3003 164.001C56.541 143.775 55.3513 114.426 55.3513 106.891C55.7479 97.7694 54.1616 68.3419 44.6432 23.6059C43.8501 18.8468 42.2637 7.66275 42.2637 0.999939" stroke="#DF0006" stroke-width="4.77"/>
<path d="M55.3513 0.999939C55.7479 4.9659 56.5411 11.708 60.1105 23.6059C64.5291 38.3347 65.2662 60.4893 64.8696 72.3872C63.6798 94.2 65.7009 137.109 73.1981 152.103C81.6174 168.942 91.1635 180.346 128.045 181.074C132.859 181.169 142.522 180.933 148.155 180.658C158.863 179.865 173.203 178.99 202.948 183.749C213.822 185.489 251.929 184.227 264.475 184.641" stroke="#DF0006" stroke-width="4.77"/>
<path d="M264.306 262.262V172.532L279.016 173.682L291.463 174.832C324.279 175.983 326.542 173.682 346.91 172.532C366.146 171.445 370.295 185.953 369.541 193.239H418.198C427.25 192.472 445.355 193.239 445.355 202.442C445.355 211.645 434.794 214.712 429.513 215.096L371.804 213.945C376.33 216.706 378.216 221.998 378.593 224.299C378.593 236.263 370.295 238.487 366.146 238.104C369.918 238.487 377.688 241.555 378.593 250.758C379.499 259.961 368.409 263.029 362.751 263.412L264.306 262.262Z" fill="#FF7EAF"/>
<path d="M263.809 172.474C287.503 173.681 301.284 176.693 324.876 174.196C336.856 172.926 357.11 170.241 365.138 179.358C370.503 185.435 367.37 193.595 368.251 193.595M368.251 193.595C371.077 193.595 382.873 193.366 386.19 193.345C402.451 193.262 408.083 192.284 423.79 192.95C427.783 193.116 431.879 193.262 435.791 194.095C441.873 195.406 444.74 201.65 443.962 205.626C442.692 212.12 433.661 214.66 426.33 214.764C405.093 215.055 387.706 213.14 366.469 213.432M368.251 193.595C359.945 200.141 337.325 203.592 300.001 193.345C287.721 189.974 284.798 185.474 263.809 184.974M366.469 213.432C372.879 213.432 378.326 219.177 378.163 225.463C377.999 231.728 372.613 239.284 366.469 238.639M366.469 213.432C346.952 212.453 299.096 208.974 263.809 208.974M366.469 213.432C363.338 220.848 300.001 233.894 263.809 232.974M366.469 238.639C375.377 239.908 381.972 248.651 376.299 257.601C371.241 265.573 346.85 263.117 340.543 263.117C315.342 262.832 264.713 262.262 263.809 262.262M366.469 238.639C333.932 240.405 296.382 249.394 263.809 248.474" stroke="#DF0006" stroke-width="4.77" stroke-miterlimit="10"/>
<path d="M426.246 197.613C423.072 198.3 420.123 199.382 420.103 202.317C420.103 202.837 420.717 205.085 421.106 205.46C421.413 205.751 421.843 205.897 422.253 206.022C426.082 207.146 429.462 207.666 433.496 207.5C435.974 207.042 435.912 203.691 435.728 201.693C435.257 196.572 430.649 196.655 426.246 197.613Z" fill="white" stroke="#DF0006" stroke-width="4.77" stroke-miterlimit="10"/>
</svg>
