<svg width="665" height="872" viewBox="0 0 665 872" fill="none" xmlns="http://www.w3.org/2000/svg">
<path d="M143.5 56.5C131.955 50.7246 121.72 46.1522 108.892 44.6763C96.0638 43.2003 81.846 46.965 74.1705 57.3608C70.6855 62.0881 68.7827 67.778 67.2006 73.425C59.91 99.4144 58.0071 126.901 61.6845 153.661C63.1597 164.441 65.5329 175.094 67.0509 185.853C68.4193 195.522 70.9207 211.415 71.6049 221.147C73.6574 250.88 76.0306 278.174 69.5524 305.854C58.0071 355.159 66.6661 418.153 65.5329 476.25C65.3619 485.277 66.7944 495.501 68.5689 504.357C69.3172 508.057 70.4504 515.245 72.4601 518.453C74.256 521.32 76.3727 525.127 79.2162 526.945C96.1921 537.854 123.195 534.817 145.538 536.293C154.923 536.913 169.633 536.828 179.019 536.25C187.079 535.758 188.341 533.063 196.273 531.566C207.283 529.491 215.365 526.945 230.203 529.726C250.899 533.619 270.291 522.667 292.569 522.239C295.028 522.197 297.615 523.138 299.56 524.656C302.382 526.838 302.104 530.261 299.774 532.935C297.444 535.608 292.569 536.635 289.127 537.534C281.323 539.566 275.101 540.165 267.062 540.656C262.679 540.935 251.562 540.293 254.469 546.09C263.791 551.074 286.262 546.475 301.527 544.721C308.711 543.886 318.225 543.908 319.871 548.614C320.962 551.737 318.717 555.266 315.916 557.042C313.115 558.817 309.673 559.159 306.359 559.309C291.5 559.951 276.234 557.256 261.974 561.469C261.268 561.683 260.392 562.282 260.712 562.945C260.841 563.202 261.097 563.33 261.354 563.437C263.77 564.507 266.506 564.528 269.158 564.528C283.824 564.507 298.513 564.486 313.179 564.464C315.531 564.464 317.947 564.464 320.171 565.255C322.394 566.047 324.425 567.78 324.917 570.068C325.238 571.566 324.874 573.149 324.169 574.496C322.715 577.363 319.871 579.33 316.814 580.357C313.778 581.384 310.507 581.555 307.3 581.598C294.108 581.705 281.002 579.395 267.811 579.523C264.86 579.544 260.627 580.015 258.019 581.405C257.677 581.576 256.351 582.347 256.223 582.689C256.009 583.352 257.741 584.165 258.403 584.421C271.467 589.405 286.647 590.282 301.057 592.443C303.067 592.742 305.953 594.175 307.492 595.502C309.502 597.234 310.208 598.817 310.635 601.427C310.721 601.94 310.143 606.304 304.456 606.86C300.309 607.266 296.417 606.732 292.27 606.389C272.985 604.699 254.384 598.454 235.078 597.042C232.769 596.871 228.685 597.919 227.937 600.101C225.264 607.951 234.051 615.138 237.365 622.732C239.161 626.817 241.706 632.165 239.653 636.122C237.429 640.422 232.662 642.625 228.835 639.63C227.231 638.389 225.008 634.518 224.152 632.678C221.352 626.689 218.893 620.486 215.044 615.117C212.8 611.994 209.657 609.619 207.369 606.518C204.867 603.117 203.499 599.01 201.19 595.48C196.422 588.186 187.956 583.951 179.361 582.539C170.766 581.127 161.979 582.218 153.384 583.63C144.789 585.042 136.194 586.796 127.493 586.667C117.081 586.881 106.839 587.544 96.4273 587.758C92.2795 587.844 87.9821 587.908 84.1337 586.368C81.4612 585.298 77.9976 584.336 75.7313 582.603C73.0801 580.571 70.7711 578.924 68.1199 576.892C66.3454 575.544 65.3619 572.978 63.8653 571.331C60.6796 567.801 58.9906 563.202 57.6223 558.667C54.4152 548.036 52.5124 536.999 51.9993 525.897C51.7 519.48 52.2131 519.48 52.7476 513.084C52.94 510.582 52.8759 502.282 52.5979 499.801C52.32 497.213 52.3414 494.111 51.7 491.608C45.4142 467.523 51.6572 443.95 47.7019 419.03C44.6873 400.014 45.3287 380.014 45.5639 361.426C45.6066 357.897 46.8039 354.495 47.3598 351.009C48.2791 345.362 49.0274 339.522 49.9895 333.896C53.9449 310.902 55.1208 292.078 55.6767 270.859C56.147 252.442 55.1636 240.57 53.6028 222.495C53.3249 219.393 52.3414 211.586 51.8924 208.527C51.4006 205.126 50.9089 202.26 50.3958 198.067C49.4337 190.089 47.5094 183.372 46.9963 175.35C46.248 163.65 43.6183 151.243 42.8699 139.543C41.8437 123.778 45.2004 110.816 45.9273 95.0294C46.3122 86.3021 47.6377 76.8261 50.2247 68.3555C51.5717 63.9277 53.6242 56.1629 56.2967 52.3768C58.9692 48.6121 61.2997 43.9704 64.8701 41.0185C70.0441 36.7404 71.7118 35.3073 78.19 33.5746C84.9461 31.7564 94.6313 32.4409 101.623 32.719C111.543 33.104 121.485 33.0185 131.384 32.4195C141.005 31.842 150.282 29.7246 158 35.5C150 43 147 50 143.5 56.5Z" fill="white"/>
<path d="M633.261 797.321C640.103 790.134 637.794 778.497 634.736 769.064C629.883 754.112 626.163 739.246 627.232 723.567C628.237 708.829 634.501 695.331 641.642 681.834C648.548 668.764 648.698 652.294 644.55 638.112C642.775 632.08 641.493 622.048 631.444 614.86C629.562 613.513 626.548 611.053 624.346 610.347C602.623 603.352 592.596 615.181 576.262 616.401C567.71 617.042 559.307 618.368 551.503 620.443C537.414 624.208 523.987 629.278 506.22 629.299C504.146 629.299 501.132 632.764 492.494 631.909C490.762 631.737 485.182 627.994 483.857 626.86C475.86 619.994 466.945 616.614 462.263 606.026C461.493 604.272 460.916 602.454 459.996 600.786C458.671 598.39 456.661 596.422 455.1 594.176C451.893 589.556 452.919 581.684 453.882 576.165C450.033 571.459 447.981 565.085 451.808 560.379C455.506 555.844 462.07 553.876 464.614 548.593C465.256 547.267 465.619 545.748 466.646 544.657C468.057 543.117 470.344 542.839 472.44 542.668C480.243 542.026 488.069 541.62 495.894 541.448C498.865 541.384 501.901 541.363 504.788 542.112C508.829 543.138 511.544 546.497 514.751 549.128C523.132 556.037 531.278 563.866 541.412 567.78C552.145 571.908 564.118 569.962 575.492 568.293C589.603 566.219 603.543 566.368 617.547 569.063C631.551 571.759 645.32 579.096 652.461 591.459C655.475 596.679 657.656 601.042 659.024 606.903C661.761 618.561 663.172 630.54 663.215 642.54C663.279 662.005 658.982 680.871 653.679 699.588C651.648 706.711 649.318 713.855 648.976 721.257C648.783 725.727 648.227 743.93 648.762 748.358C651.413 770.433 653.294 778.797 655.967 800.872C658.362 820.808 660.628 836.016 651.648 853.984C648.89 859.503 640.124 867.503 629.156 869.428C625.693 870.048 620.946 870.327 619.963 866.947C625.158 861.15 628.044 856.637 630.289 849.899C632.534 843.182 634.373 835.588 634.63 828.487C634.972 818.07 633.411 807.674 633.261 797.321Z" fill="white"/>
<path d="M167 29.5C158.704 22.1417 150.37 19.0932 139.359 17.7884C132.667 16.997 125.676 16.0986 119.176 17.8954C101.431 22.7938 82.4238 20.3553 64.0582 21.5959C60.1243 21.8526 56.1262 22.1307 52.3847 23.4141C41.5235 27.1147 35.0881 38.2805 31.3466 49.1254C25.8946 64.9544 24.0773 81.7886 22.9869 98.4946C22.3242 108.762 18.2619 118.644 18.4116 128.933C18.4971 134.751 19.1599 140.548 19.8227 146.324C22.26 167.586 24.7187 188.848 27.1561 210.11C28.1609 218.901 29.1872 227.693 29.6789 236.527C30.1279 244.72 32.1804 254.238 32.1804 262.431C32.2018 276.848 30.1921 289.96 30.2134 304.378C30.2348 316.164 27.2202 327.907 26.0657 339.629C20.7848 392.57 22.9228 436.442 29.9355 486.41C30.7693 492.335 31.988 498.132 32.3515 504.1C32.886 513.277 31.5604 522.86 30.0852 531.951C28.0113 544.699 29.2086 558.56 26.5147 571.373C25.1677 577.769 25.5312 585.576 27.5409 591.801C29.3368 597.427 32.0735 602.411 35.3661 607.331C40.0483 614.368 45.5003 618.946 51.9143 624.443C58.3284 629.962 70.2799 633.919 78.7037 634.325C88.0254 634.753 93.7767 629.192 102.842 626.988C116.675 623.63 130.358 626.069 144.469 628.058C148.403 628.614 153.983 626.924 157.233 629.192C159.478 630.753 161.509 635.224 162.022 637.919C162.792 641.983 160.055 641.405 163.07 644.486C167.068 648.55 169.099 654.561 167.089 660.122C169.035 661.684 170.318 664.015 170.617 666.475C176.497 666.432 179.319 673.855 179.084 679.737C178.806 687.096 175.406 692.721 169.291 696.807C166.191 698.882 160.59 701.406 156.976 702.326C150.135 704.08 145.538 704.572 138.696 706.326C135.81 707.074 130.059 709.235 127.108 708.828C124.051 708.422 121.592 706.732 118.941 705.192C111.287 700.7 106.434 696.721 98.7796 692.251C94.4181 689.684 90.3131 685.106 85.4384 683.759C81.141 682.561 77.207 683.331 72.8455 682.454C63.8017 680.614 53.924 677.726 45.372 674.218C38.9365 671.587 33.057 667.309 27.5837 663.01C20.8062 657.662 17.6419 650.561 14.3494 642.582C7.05872 624.892 9.62434 610.71 9.4533 594.56C9.17535 567.074 13.3872 545.148 17.4281 517.811C18.7109 509.234 17.9198 502.389 16.5943 493.491C16.1239 490.282 12.9169 480.999 12.4038 477.79C11.4203 471.608 9.58158 463.63 7.84978 457.619C4.98484 447.629 4.68552 438.004 3.87307 427.651C2.6544 411.672 2.6544 396.228 4.17239 379.651C5.60486 364.078 9.13259 348.185 11.0354 332.677C13.1307 315.586 14.1355 298.303 15.2046 281.105C16.3805 261.939 14.6487 242.987 11.6341 224.035C4.57862 179.671 2.65441 135.286 6.90906 91.4785C7.5077 85.2111 7.42218 77.9811 8.87603 71.8849C10.3085 65.9169 9.774 57.3394 12.0403 51.6281C14.9694 44.2698 15.9529 40.5051 18.8819 33.1468C19.8868 30.6441 23.2863 25.4676 25.0608 23.4355C26.814 21.4462 29.6576 18.9863 31.7956 17.382C41.3953 10.1734 52.2991 6.2162 64.9562 8.39802C77.6988 10.6012 85.0749 9.80979 97.9458 8.61192C109.662 7.52101 127.45 2.94346 139.231 3.24293C156.185 3.67073 170.011 12.0802 181 25C176 25.5 172 26.5 167 29.5Z" fill="white"/>
<path d="M604.91 744.422C600.912 733.491 593.173 723.716 582.739 718.561C576.646 715.545 569.505 713.042 562.834 711.823C540.77 707.802 518.813 706.433 496.406 705.449C488.389 705.106 484.091 704.657 476.266 706.475C470.707 707.78 464.507 711.438 458.969 712.871C447.83 715.737 426.407 714.475 414.841 712.358C392.456 708.251 400.26 716.935 367.142 709.727C363.443 708.914 359.081 708.978 356.815 705.919C354.014 702.112 357.136 695.673 361.861 695.523C356.58 694.753 351.299 693.983 346.039 693.235C342.726 692.764 338.856 691.887 337.509 688.807C336.867 687.352 337.53 684.293 337.017 682.775C335.734 678.86 330.261 678.133 329.662 674.069C329.192 670.882 331.779 667.887 334.815 666.775C337.851 665.662 341.186 666.005 344.393 666.325C340.545 665.063 338.556 658.603 341.443 655.759C344.329 652.914 349.589 652.4 353.779 652.892C364.576 654.176 376.25 650.261 387.089 649.192C384.289 645.406 381.808 639.331 385.721 636.7C386.683 636.058 387.859 635.823 388.992 635.609C402.376 632.999 415.867 631.373 429.486 632.058C443.105 632.764 454.907 638.775 466.046 646.539C469.211 648.742 472.097 651.694 475.796 652.807C478.596 653.641 481.611 653.106 484.519 653.341C492.729 654.026 498.993 660.678 506.241 664.636C517.722 670.903 531.534 670.283 544.597 670.154C558.622 670.026 572.006 671.481 585.07 676.529C598.154 681.577 610.769 693.555 614.66 707.031C617.845 718.112 614.083 727.588 615.836 738.967C617.696 750.967 628.236 757.598 621.651 774.411C621.886 773.727 612.565 774.454 611.987 774.283C608.096 773.128 610.127 772.058 609.935 768.037C609.571 759.823 607.775 752.208 604.91 744.422Z" fill="white"/>
<path d="M418.797 654.283C413.259 651.095 406.546 651.117 400.175 650.496C393.803 649.876 386.876 648.165 383.263 642.903C382.515 641.812 381.916 640.507 382.108 639.202C382.344 637.598 383.755 636.357 385.294 635.823C386.833 635.288 388.501 635.309 390.126 635.288C407.594 635.117 425.446 629.962 442.251 634.774C450.995 637.277 458.756 642.347 466.368 647.331C468.442 648.7 470.558 650.09 472.162 652.015C472.589 652.528 473.017 653.106 473.594 653.448C474.321 653.876 475.24 653.897 476.074 653.897C479.26 653.897 482.446 653.897 485.61 653.897C489.351 653.897 493.713 654.197 495.83 657.277C495.83 657.277 512.036 672.828 536.901 670.004C556.72 667.737 569.463 670.283 587.914 679.267C617.696 693.748 615.387 719.502 615.387 719.502C614.447 728.743 613.912 737.962 619.877 750.39C624.196 759.395 625.03 766.753 620.177 773.962" stroke="#DF0006" stroke-width="4.76691" stroke-miterlimit="10"/>
<path d="M399.533 697.042C387.731 699.801 377.704 696.293 365.987 697.833C363.913 698.112 359.723 697.384 358.098 698.689C356.473 699.994 355.383 702.154 355.81 704.186C356.537 707.609 360.685 708.871 364.149 709.448C370.819 710.582 377.533 711.588 384.289 711.973C391.729 712.4 399.469 711.566 406.845 710.454C419.459 715.566 433.57 714.882 447.168 714.112C453.411 713.748 459.803 713.363 465.555 710.903C467.885 709.898 470.087 708.55 472.439 707.63C478.468 705.277 485.16 705.705 491.617 706.176L505.001 706.668C505.001 706.668 560.996 706.347 583.637 718.668C609.571 732.785 615.237 766.839 605.424 783.224" stroke="#DF0006" stroke-width="4.76691" stroke-miterlimit="10"/>
<path d="M392.5 684.015C391.196 684.379 390.17 682.967 389.208 682.005C387.219 679.994 384.098 679.566 381.276 679.801C378.453 680.037 375.674 680.807 372.852 680.764C371.056 680.743 369.303 680.379 367.507 680.144C364.3 679.716 361.029 679.716 357.822 680.101C356.197 680.293 354.55 680.593 352.904 680.379C351.514 680.186 350.21 679.63 348.842 679.374C347.303 679.074 345.699 679.181 344.138 679.416C342.043 679.716 339.798 680.336 338.515 682.026C336.784 684.272 337.468 687.759 339.435 689.812C341.402 691.866 344.309 692.743 347.132 693.085C349.954 693.427 352.819 693.363 355.619 693.898C356.838 694.133 358.035 694.497 359.254 694.796C363.231 695.801 367.314 696.037 371.398 696.358C380.442 697.064 389.977 698.154 399.021 697.064" stroke="#DF0006" stroke-width="4.76691" stroke-miterlimit="10"/>
<path d="M401.716 701.021C400.412 699.694 399.385 698.09 398.445 696.465C397.461 694.796 396.52 693.021 396.392 691.074" stroke="#DF0006" stroke-width="4.76691" stroke-miterlimit="10"/>
<path d="M393.803 681.791C391.772 677.876 390.789 675.395 390.703 674.026" stroke="#DF0006" stroke-width="4.76691" stroke-miterlimit="10"/>
<path d="M391.666 665.491C389.399 663.844 386.385 663.587 383.605 663.93C380.826 664.272 378.111 665.106 375.331 665.406C370.927 665.876 366.48 664.999 362.054 665.406C359.895 665.598 357.778 666.111 355.64 666.432C349.697 667.309 343.646 666.668 337.659 666.839C336.206 666.882 334.795 667.16 333.49 667.801C332.55 668.25 331.203 669.855 330.839 670.775C329.963 673.192 330.39 675.994 332.165 677.855C333.939 679.716 336.505 680.614 339.028 681.063" stroke="#DF0006" stroke-width="4.76691" stroke-miterlimit="10"/>
<path d="M391.772 668.614C391.537 666.839 391.302 665.042 391.494 663.267C391.794 660.272 393.226 657.534 394.637 654.882" stroke="#DF0006" stroke-width="4.76691" stroke-miterlimit="10"/>
<path d="M345.057 666.86C342.064 666.967 339.563 662.924 339.712 659.93C339.862 656.935 342.171 654.347 344.95 653.213C347.73 652.079 350.873 652.208 353.78 652.871C355.256 653.192 356.752 653.662 358.249 653.598C359.489 653.534 360.665 653.128 361.841 652.785C367.442 651.074 373.279 650.411 379.094 649.748C382.964 649.299 386.877 648.828 390.747 649.17L391.623 649.042" stroke="#DF0006" stroke-width="4.76691" stroke-miterlimit="10"/>
<path d="M458.8 681.641C462.285 680.272 465.236 677.598 466.968 674.282C467.545 673.17 467.994 671.994 468.443 670.817C469.576 667.844 470.709 664.871 471.842 661.897C472.462 660.293 473.082 658.646 473.253 656.935C473.446 655.224 473.146 653.384 472.099 652.015" stroke="#DF0006" stroke-width="4.76691" stroke-miterlimit="10"/>
<path d="M467.544 683.609C462.434 687.095 456.041 688.229 449.841 688.229C448.28 688.229 446.698 688.165 445.159 687.887C440.584 687.117 436.479 684.678 432.48 682.283C428.204 679.716 423.928 677.17 419.652 674.603" stroke="#DF0006" stroke-width="4.76691" stroke-miterlimit="10"/>
<path d="M437.975 699.309C434.255 698.154 431.497 695.095 428.931 692.165C426.131 688.956 423.266 685.641 421.876 681.619C421.192 679.609 420.892 677.469 420.294 675.416C419.289 671.972 417.408 668.785 414.863 666.24" stroke="#DF0006" stroke-width="4.76691" stroke-miterlimit="10"/>
<path d="M433.016 713.941C427.649 711.566 422.882 707.887 419.247 703.31C417.772 701.47 416.489 699.481 415.206 697.513C414.265 696.058 413.325 694.582 412.363 693.128C411.358 691.566 410.353 690.026 409.476 688.379C407.83 685.32 406.654 681.962 406.248 678.518" stroke="#DF0006" stroke-width="4.76691" stroke-miterlimit="10"/>
<path d="M417.472 653.299C418.883 653.983 419.888 655.245 420.999 656.336C423.501 658.753 426.793 660.379 430.257 660.871" stroke="#DF0006" stroke-width="4.76691" stroke-miterlimit="10"/>
<path d="M367.207 679.994C368.554 680.507 369.922 681.042 371.077 681.94C372.231 682.818 373.129 684.122 373.215 685.555" stroke="#DF0006" stroke-width="4.76691" stroke-miterlimit="10"/>
<path d="M359.532 679.994C358.163 680.486 357.03 681.448 356.26 682.582C355.491 683.716 355.063 684.999 354.828 686.304" stroke="#DF0006" stroke-width="4.76691" stroke-miterlimit="10"/>
<path d="M359.766 673.598C359.745 676.079 361.177 678.518 363.422 679.823" stroke="#DF0006" stroke-width="4.76691" stroke-miterlimit="10"/>
<path d="M357.821 654.026C359.36 654.945 360.386 656.657 360.515 658.453" stroke="#DF0006" stroke-width="4.76691" stroke-miterlimit="10"/>
<path d="M400.902 636.678C400.902 637.79 400.881 638.967 400.325 639.951C399.363 641.684 397.182 642.561 395.194 642.496C393.205 642.411 391.452 642.304 389.143 642.026C387.946 640.721 387.347 639.202 387.112 637.427" fill="#FF7EAF"/>
<path d="M400.902 636.678C400.902 637.79 400.881 638.967 400.325 639.951C399.363 641.684 397.182 642.561 395.194 642.496C393.205 642.411 391.452 642.304 389.143 642.026C387.946 640.721 387.347 639.202 387.112 637.427" stroke="#FF0A11" stroke-width="4.76691" stroke-miterlimit="10"/>
<path d="M481.954 557.491C483.13 562.71 481.719 568.443 478.256 572.529C474.792 576.614 469.383 578.967 464.038 578.668C462.947 578.603 461.814 578.432 460.895 577.833C458.885 576.507 458.607 573.598 459.313 571.309C460.018 568.999 461.451 566.988 462.199 564.7C464.166 558.646 461.408 550.967 465.748 546.347C468.335 543.609 472.44 543.138 476.203 542.86C481.484 542.475 486.765 542.154 492.067 541.876C496.45 541.641 501.004 541.491 505.066 543.138C508.594 544.571 511.438 547.266 514.238 549.855C520.61 555.737 527.259 561.448 534.892 565.555C542.524 569.662 551.312 572.101 559.907 571.01C580.154 568.443 593.302 564.593 614.447 568.357C614.447 568.357 637.645 572.422 647.694 586.005C657.806 599.673 660.628 617.128 660.628 617.128C660.628 617.128 668.133 657.962 651.371 708.957C651.371 708.957 643.931 732.529 654.728 789.749C654.728 789.749 658.127 819.952 657.742 830.818C657.421 839.674 656.374 860.679 630.867 868.53C630.867 868.53 618.894 871.054 616.992 864.615" stroke="#DF0006" stroke-width="4.76691" stroke-miterlimit="10"/>
<path d="M463.396 551.544C461.814 553.02 459.163 554.496 457.581 555.972C455.528 557.876 453.476 559.822 451.979 562.197C450.482 564.571 449.627 567.459 450.226 570.197C450.782 572.764 452.642 574.646 454.331 576.635C452.022 580.4 451.551 585.213 453.048 589.363C453.583 590.86 454.374 592.25 455.143 593.641C456.683 596.4 458.5 599.16 461.472 600.208C461.536 604.379 462.177 608.807 464.935 611.93C465.662 612.742 466.496 613.448 467.416 614.047C468.741 614.903 470.366 615.438 471.884 615.844C472.312 619.202 475.155 621.769 478.127 623.416C481.099 625.042 484.413 626.112 487.128 628.144C488.881 629.47 490.399 631.202 492.473 631.887C493.585 632.251 494.782 632.272 495.958 632.208C500.576 632.015 504.788 629.256 509.385 628.785C513.917 628.336 518.493 628.978 523.047 628.7C527.601 628.422 532.561 627.224 535.298 623.566C544.812 623.951 554.454 618.518 562.664 617.277C571.644 615.93 567.133 616.55 576.219 616.336C587.615 616.058 615.046 595.395 637.495 620.871C637.495 620.871 662.082 650.989 634.95 694.368C634.95 694.368 619.108 722.326 632.107 758.369C632.107 758.369 644.892 795.139 632.513 796.08" stroke="#DF0006" stroke-width="4.76691" stroke-miterlimit="10"/>
<path d="M459.655 572.122C460.596 572.251 461.558 572.379 462.498 572.486C463.61 572.614 464.85 572.7 465.769 572.058C466.411 571.609 466.796 570.839 467.095 570.112C467.801 568.357 468.25 566.518 468.442 564.636C468.506 563.93 468.528 563.181 468.271 562.518C467.929 561.684 467.159 561.085 466.304 560.742C465.47 560.422 464.551 560.315 463.653 560.229" stroke="#DF0006" stroke-width="4.76691" stroke-miterlimit="10"/>
<path d="M481.291 565.298C483.857 567.437 489.416 568.314 492.751 568.357" stroke="#DF0006" stroke-width="4.76691" stroke-miterlimit="10"/>
<path d="M519.626 593.256C516.483 593.127 513.34 592.892 510.326 592.015C507.311 591.138 504.425 589.576 502.437 587.138" stroke="#DF0006" stroke-width="4.76691" stroke-miterlimit="10"/>
<path d="M461.964 600.229C462.242 596.293 465.513 593.235 468.849 591.138C473.851 587.994 479.496 586.047 485.097 584.101C487.428 583.288 489.758 582.497 492.089 581.684C493.329 581.256 494.59 580.828 495.894 580.892C498.631 581.042 500.791 583.438 501.86 585.962C502.458 587.374 502.843 588.914 502.672 590.433C502.522 591.951 501.774 593.449 500.491 594.304" stroke="#DF0006" stroke-width="4.76691" stroke-miterlimit="10"/>
<path d="M471.842 615.951C478.769 606.668 487.77 598.775 498.631 594.775C500.234 594.176 502.779 594.368 504.254 595.224C505.408 595.887 506.007 597.213 506.477 598.475C507.803 602.005 508.658 606.026 507.204 609.513C506.199 611.908 504.211 613.727 502.223 615.395C499.272 617.855 496.172 620.122 492.944 622.176" stroke="#DF0006" stroke-width="4.76691" stroke-miterlimit="10"/>
<path d="M500.364 617.127C499.979 617.577 499.829 618.176 499.679 618.753C499.209 620.7 498.909 622.689 498.823 624.678" stroke="#DF0006" stroke-width="4.76691" stroke-miterlimit="10"/>
<path d="M490.785 582.154C491.704 579.759 492.046 575.609 491.041 573.256C490.036 570.903 487.043 568.079 484.691 567.095" stroke="#DF0006" stroke-width="4.76691" stroke-miterlimit="10"/>
<path d="M532.541 616.357C531.493 613.662 530.339 610.988 528.757 608.593C527.174 606.175 525.101 604.036 522.535 602.71" stroke="#DF0006" stroke-width="4.76691" stroke-miterlimit="10"/>
<path d="M530.103 589.619C532.54 587.694 533.139 584.314 533.46 581.234C533.802 577.983 534.016 574.689 533.567 571.459C533.118 568.229 531.942 565.02 529.761 562.582" stroke="#DF0006" stroke-width="4.76691" stroke-miterlimit="10"/>
<path d="M87.9395 586.946C122.041 590.496 160.012 583.395 160.012 583.395C166.276 581.769 178.399 582.111 184.727 583.673C191.035 585.234 196.936 588.849 200.613 594.133C202.537 596.914 203.82 600.079 205.659 602.903C208.973 608.037 213.976 611.972 217.289 617.128C221.031 622.967 222.335 629.983 225.799 635.994C226.911 637.94 228.407 639.887 230.567 640.593C233.26 641.47 236.318 640.08 237.921 637.812C239.525 635.545 239.888 632.593 239.589 629.833C238.948 623.694 235.441 618.24 232.448 612.807C229.177 606.839 224.751 599.759 233.795 597.962C240.765 596.571 248.077 598.732 254.812 600.4C269.136 603.93 283.825 605.791 298.513 607.01C302.575 607.352 307.578 607.16 309.481 603.652C311.041 600.764 309.417 596.978 306.744 594.988C304.072 592.999 300.629 592.357 297.315 591.78C285.877 589.748 274.417 587.716 262.979 585.705C260.691 585.299 258.318 584.849 256.501 583.459C253.956 580.742 266.763 580.165 272.236 580.293C283.311 580.55 294.386 580.785 305.461 581.042C309.417 581.127 313.479 581.213 317.22 579.972C320.962 578.732 324.404 575.887 325.195 572.079C325.58 570.197 325.195 568.036 323.677 566.817C322.458 565.833 320.791 565.641 319.209 565.534C299.71 564.101 279.955 566.946 260.648 563.865C259.772 563.716 258.639 562.774 259.344 562.261C259.879 560.143 276.684 560.208 285.449 559.951C292.035 559.758 298.641 559.566 305.226 559.352C309.395 559.224 313.885 558.988 317.156 556.464C320.427 553.94 321.283 548.186 317.755 545.983C316.066 544.935 313.928 544.978 311.939 545.063C296.76 545.683 281.58 546.282 266.464 547.78C262.316 548.186 257.741 548.571 254.363 546.154C253.636 545.619 252.93 544.828 253.08 543.951C253.294 542.839 254.683 542.454 255.838 542.282C266.485 540.785 277.111 539.266 287.758 537.769C291.436 537.256 295.306 536.635 298.128 534.304C300.95 531.972 302.105 527.288 299.475 524.699C297.829 523.074 295.284 522.753 292.932 522.71C284.274 522.539 275.786 524.742 267.276 526.346C252.524 529.127 237.43 530.175 222.399 529.427C217.632 529.191 212.821 528.785 208.096 529.427C203.628 530.047 199.351 531.587 195.033 532.849C184.385 535.972 173.204 537.448 162.064 537.213L96.2991 533.641" stroke="#DF0006" stroke-width="4.76691" stroke-miterlimit="10"/>
<path d="M228.257 590.988C226.289 595.48 226.546 600.849 228.899 605.192" stroke="#DF0006" stroke-width="4.76691" stroke-miterlimit="10"/>
<path d="M222.975 561.213C217.523 558.924 211.665 557.555 205.743 557.213C204.268 557.127 202.792 557.106 201.317 557.32C196.998 557.94 193.064 560.742 191.14 564.571" stroke="#DF0006" stroke-width="4.76691" stroke-miterlimit="10"/>
<path d="M198.176 564.721C196.144 566.945 194.883 569.748 194.284 572.678C193.686 575.609 193.728 578.625 194.156 581.577" stroke="#DF0006" stroke-width="4.76691" stroke-miterlimit="10"/>
<path d="M230.181 529.748C232.319 530.24 234.03 531.951 234.992 533.897C235.954 535.844 236.274 538.026 236.552 540.165C237.258 545.726 237.707 551.352 239.396 556.721C241.085 562.069 244.207 567.245 249.103 570.176" stroke="#DF0006" stroke-width="4.76691" stroke-miterlimit="10"/>
<path d="M220.774 545.941C232.597 560.016 238.605 578.647 237.151 596.764" stroke="#DF0006" stroke-width="4.76691" stroke-miterlimit="10"/>
<path d="M187.807 570.111C187.165 572.721 186.695 575.373 186.781 578.047C186.887 580.721 187.614 583.416 189.197 585.491" stroke="#DF0006" stroke-width="4.76691" stroke-miterlimit="10"/>
<path d="M271.125 539.673C272.088 537.234 271.745 534.325 270.27 532.122" stroke="#DF0006" stroke-width="4.76691" stroke-miterlimit="10"/>
<path d="M285.321 537.833C283.568 536.015 282.499 533.576 282.349 531.095" stroke="#DF0006" stroke-width="4.76691" stroke-miterlimit="10"/>
<path d="M283.632 580.058C285.022 577.234 285.557 574.004 285.151 570.86" stroke="#DF0006" stroke-width="4.76691" stroke-miterlimit="10"/>
<path d="M295.947 580.486C299.432 579.331 302.04 575.994 302.275 572.4" stroke="#DF0006" stroke-width="4.76691" stroke-miterlimit="10"/>
<path d="M259.386 561.833C259.985 560.058 260.028 558.111 259.536 556.293" stroke="#DF0006" stroke-width="4.76691" stroke-miterlimit="10"/>
<path d="M70.9202 632.721C77.4839 634.839 84.6676 633.342 91.1886 631.117C97.7095 628.892 104.102 625.962 110.944 625.128C122.168 623.759 133.372 628.229 144.66 627.823C148.936 627.673 153.597 626.903 157.232 629.17C162.064 632.165 162.684 638.967 161.893 644.593C165.527 646.539 167.623 651.01 166.81 655.053C166.596 656.058 166.233 657.106 166.447 658.112C166.703 659.331 167.708 660.208 168.521 661.149C170.21 663.074 171.3 665.556 171.557 668.101C174.122 668.657 178.035 668.957 179.51 673.834C180.28 676.336 178.527 679.78 178.035 681.705C177.479 683.844 177.094 685.834 175.854 688.315C175.448 689.128 173.652 691.652 172.433 692.893C166.169 699.246 157.296 701.278 148.594 703.203C143.378 704.358 138.161 705.513 132.944 706.668C129.758 707.374 126.402 708.08 123.259 707.224C121.035 706.625 119.09 705.299 117.187 703.994C109.96 699.01 102.712 694.026 95.486 689.042C91.5734 686.347 87.4257 683.566 82.6793 683.245C79.3653 683.032 75.7735 683.994 72.8444 682.411" stroke="#DF0006" stroke-width="4.76691" stroke-miterlimit="10"/>
<path d="M161.294 699.759C162.983 698.711 164.159 697.192 165.121 695.01C167.986 688.55 173.93 683.93 179.019 679.074" stroke="#DF0006" stroke-width="4.76691" stroke-miterlimit="10"/>
<path d="M147.847 689.534C147.163 687.438 146.051 683.673 147.355 681.919C147.911 681.17 148.724 680.657 149.536 680.186C151.46 679.053 153.449 678.047 155.181 676.678C156.292 675.801 157.276 674.775 158.366 673.919C159.991 672.614 161.402 671.438 163.048 670.154C164.759 668.828 168.736 667.352 171.536 668.122" stroke="#DF0006" stroke-width="4.76691" stroke-miterlimit="10"/>
<path d="M146.798 684.635C144.788 684.657 142.8 684.657 140.79 684.678C139.379 684.678 137.925 684.7 136.621 685.213C135.402 685.684 134.291 686.561 132.965 686.603C132.238 686.625 131.533 686.389 130.806 686.411C128.86 686.475 127.513 688.315 126.487 689.983" stroke="#DF0006" stroke-width="4.76691" stroke-miterlimit="10"/>
<path d="M121.506 687.48C122.105 686.561 123.002 685.855 124.029 685.512C124.905 685.213 125.846 685.17 126.765 685.127C127.214 685.106 127.663 685.085 128.112 685.127C129.032 685.192 129.93 685.534 130.678 686.047" stroke="#DF0006" stroke-width="4.76691" stroke-miterlimit="10"/>
<path d="M132.005 685.876C130.508 677.619 124.906 670.197 117.359 666.539" stroke="#DF0006" stroke-width="4.76691" stroke-miterlimit="10"/>
<path d="M96.4913 689.577C93.7119 683.866 93.7119 676.785 96.4913 671.074" stroke="#DF0006" stroke-width="4.76691" stroke-miterlimit="10"/>
<path d="M97.3892 669.641C99.6341 665.62 104.359 663.16 108.934 663.588" stroke="#DF0006" stroke-width="4.76691" stroke-miterlimit="10"/>
<path d="M137.735 684.85C136.772 684.336 136.451 683.117 136.28 682.048C136.045 680.507 135.895 678.882 136.537 677.47" stroke="#DF0006" stroke-width="4.76691" stroke-miterlimit="10"/>
<path d="M155.095 676.764C150.626 676.999 146.158 677.042 141.689 677.106C139.957 677.128 138.204 677.149 136.579 676.529C134.634 675.802 133.052 674.133 132.517 672.122C131.983 670.112 132.56 667.844 134.035 666.39C135.061 665.384 136.408 664.828 137.755 664.315C139.145 663.78 140.535 663.288 141.989 663.01C143.058 662.818 144.127 662.732 145.217 662.604C152.016 661.919 158.729 660.315 165.1 657.834" stroke="#DF0006" stroke-width="4.76691" stroke-miterlimit="10"/>
<path d="M150.583 627.587C148.018 630.261 144.682 633.919 141.09 634.774C138.995 635.288 136.772 635.095 134.612 635.031C132.88 634.988 128.839 636.699 128.241 637.919C126.958 640.55 127.386 643.63 129.31 646.175C130.593 647.865 132.474 647.994 134.591 648.208C135.66 648.314 136.75 648.036 137.819 647.908C139.872 647.651 141.924 647.972 143.977 647.972C146.35 647.972 148.702 647.544 151.011 646.946C154.56 646.026 158.023 644.721 161.273 643.053" stroke="#DF0006" stroke-width="4.76691" stroke-miterlimit="10"/>
<path d="M141.946 662.989C139.808 662.646 137.691 662.304 135.553 661.962C134.869 661.855 134.206 661.748 133.522 661.727C132.602 661.705 131.769 661.577 130.871 661.491C129.973 661.406 128.84 660.486 128.305 659.737C127.899 659.181 127.599 658.39 127.493 657.684C127.215 655.994 127.15 655.416 127.557 653.94C127.984 652.336 128.497 650.582 129.823 649.555C131.02 648.614 133.821 648.208 134.783 648.079" stroke="#DF0006" stroke-width="4.76691" stroke-miterlimit="10"/>
<path d="M90.4829 645.149C89.7559 641.577 89.2428 637.705 90.8463 634.432C91.9581 632.165 93.9678 630.454 96.1914 629.277" stroke="#DF0006" stroke-width="4.76691" stroke-miterlimit="10"/>
<path d="M121.421 659.716C115.242 655.951 107.759 654.347 100.576 655.267" stroke="#DF0006" stroke-width="4.76691" stroke-miterlimit="10"/>
<path d="M122.746 655.416C122.254 652.079 120.394 649.042 117.978 646.689C115.562 644.336 112.633 642.582 109.618 641.063" stroke="#DF0006" stroke-width="4.76691" stroke-miterlimit="10"/>
<path d="M89.4366 670.732C88.3248 667.737 88.2179 664.358 89.1801 661.299C90.0353 658.518 91.7457 655.93 91.7884 653.042" stroke="#DF0006" stroke-width="4.76691" stroke-miterlimit="10"/>
<path d="M167.474 689.555C165.122 688.614 163.091 686.924 161.701 684.828C161.573 684.635 161.445 684.422 161.423 684.165C161.402 683.93 161.488 683.716 161.573 683.502C162.514 681.213 163.882 679.117 165.593 677.32C166.555 676.315 167.645 675.395 168.907 674.817C170.168 674.24 171.643 674.004 172.969 674.411C174.786 674.946 176.454 677.341 177.223 679.545" stroke="#DF0006" stroke-width="4.76691" stroke-miterlimit="10"/>
<path d="M73.6355 682.775C59.8881 676.786 41.3087 675.524 27.5826 662.989C14.3483 650.903 9.53779 637.042 9.30261 619.117C9.02466 597.299 8.875 585.983 10.7565 564.251C13.0228 538.069 22.6011 512.186 15.0111 487.031C3.82928 449.962 0.408456 410.582 4.98381 372.122C6.80113 356.956 9.83711 341.94 11.8896 326.795C15.9091 297.362 16.2298 267.458 13.2366 237.897C9.70883 202.859 1.5416 168.1 2.76027 132.891C3.18788 120.634 4.77001 108.463 6.33077 96.3133C8.36188 80.4843 9.21708 55.3292 15.396 40.6126C21.5748 25.8959 28.5661 15.9708 43.4681 10.2809C53.7733 6.34505 74.4694 9.31833 85.5015 9.40389C101.558 9.53223 125.547 3.02954 141.603 3.15788C155.522 3.26483 173.486 17.6657 183 26.5" stroke="#DF0006" stroke-width="4.76691" stroke-miterlimit="10"/>
<path d="M168.563 31.4147C160.332 24.3345 149.749 17.8746 138.161 17.404C124.82 16.8692 105.492 21.404 92.0866 21.1901C82.5511 21.019 65.7035 18.9013 56.7666 22.2168C44.3447 26.8586 38.1658 35.0511 32.4573 46.9656C28.9082 54.3881 26.8771 64.4843 25.5088 74.5165C24.4184 82.5165 23.6701 90.431 22.8362 96.9551C21.4038 107.95 20.1423 118.987 19.8216 130.089C18.9451 161.875 26.0647 193.405 29.6779 225.148C32.0939 246.474 32.9277 267.972 31.7304 289.319C31.4311 294.753 31.0035 300.164 30.4262 305.555C28.9937 319.287 26.5992 332.913 25.3377 346.667C24.5039 355.63 22.1521 365.876 21.6817 374.881C21.2755 382.753 20.8479 391.715 21.1472 399.223C21.8955 416.935 23.3708 431.352 25.2308 448.892C26.535 461.17 26.5564 474.454 29.9345 486.368C35.7071 506.711 29.4427 527.309 28.6944 548.015C28.053 565.192 22.3445 584.336 30.4476 599.31C40.6245 618.112 53.0464 626.411 70.8989 632.7" stroke="#DF0006" stroke-width="4.76691" stroke-miterlimit="10"/>
<path d="M159.775 36.9978C152.805 31.6502 150.218 32.4416 140.982 31.6074C130.356 30.6662 115.711 33.2545 104.957 32.9336C96.9176 32.6983 83.9185 31.3935 76.3499 34.1101C66.3867 37.6823 60.9134 44.1422 55.8035 53.2759C52.0834 59.9283 49.8385 68.7198 48.3846 77.5327C47.2301 84.5488 46.3963 91.522 45.6052 97.5969C44.3224 107.458 43.3389 117.34 43.1679 127.265C42.6761 155.629 48.7267 183.929 52.4041 212.357C54.8628 231.437 56.2525 250.646 55.8891 269.726C55.8036 274.581 55.5898 279.437 55.2904 284.293C54.4994 296.614 52.8531 308.87 52.0193 321.213C51.3351 331.373 47.166 344.036 46.5245 354.218C45.9473 363.266 45.0707 374.518 45.4555 382.839C46.4604 404.571 47.9998 419.737 49.1757 441.363C49.9454 455.566 47.5294 471.951 51.2068 485.727C55.3546 501.192 52.2117 516.572 52.9814 531.802C53.58 544.422 55.5897 582.24 89.2421 587.032" stroke="#DF0006" stroke-width="4.76691" stroke-miterlimit="10"/>
<path d="M100.83 533.855C66.6436 532.786 68.0974 504.165 66.0663 485.149C64.3559 469.064 66.9643 450.026 66.6863 433.876C66.2374 408.144 64.5911 392.25 63.3297 366.496C62.8807 357.341 64.1849 343.801 64.9332 333.576C65.767 322.24 71.7748 307.138 72.288 295.78C72.7583 284.849 73.5921 273.961 73.7632 263.052C73.8273 258.753 73.8059 254.475 73.6777 250.175C73.2073 233.362 71.2831 216.464 68.7602 199.608C65.0187 174.474 60.0157 149.426 60.144 124.463C60.1868 115.693 60.8709 106.945 62.0255 98.2602C62.7738 92.6773 63.6718 86.6452 64.9118 80.5917C66.4726 72.998 68.8244 65.4686 72.7797 59.629C77.1413 53.1905 82.1015 48.5701 89.5845 46.0461C95.8061 43.9284 104.914 44.3776 111.478 44.7199C119.581 45.1263 139.807 54.4953 145.515 58.0675" stroke="#DF0006" stroke-width="4.76691" stroke-miterlimit="10"/>
</svg>
