<svg width="663" height="300" viewBox="0 0 663 300" fill="none" xmlns="http://www.w3.org/2000/svg">
<path d="M515.811 45.557C516.281 65.7496 515.64 85.9636 514.998 106.156C514.699 115.525 514.4 124.894 514.122 134.263C512.497 185.857 510.872 237.472 511.406 289.109C511.406 290.007 511.449 291.012 512.069 291.676C512.625 292.296 513.502 292.467 514.336 292.595C535.587 295.804 557.609 287.825 574.008 273.943C590.406 260.06 601.567 240.745 608.558 220.424C609.627 217.322 610.61 214.157 612.235 211.312C613.924 208.381 616.233 205.878 618.521 203.397C624.23 197.237 629.938 191.098 635.647 184.937C638.084 182.306 640.564 179.611 641.954 176.338C644.797 169.686 642.766 161.664 645.781 155.098C648.111 149.985 653.071 146.606 656.107 141.878C660.255 135.44 660.426 127.269 660.084 119.611C659.657 110.584 657.454 99.8031 649.009 96.5732C643.108 94.3058 636.587 96.8086 630.494 98.5412C629.275 98.8835 627.843 99.1828 626.795 98.477C625.961 97.8994 625.598 96.8514 625.299 95.8888C622.84 87.739 620.787 79.4823 619.184 71.1186C617.88 64.3165 616.832 57.3645 613.817 51.1399C611.124 45.5998 606.997 40.8725 602.571 36.5944C588.995 23.5035 571.934 14.1987 553.739 9.36442C544.46 6.90452 534.861 5.57834 525.261 5.51417C520.536 5.47139 515.768 5.70656 511.086 6.32688C504.437 7.20389 506.254 9.04358 509.097 13.7923C514.742 23.2041 515.554 34.819 515.811 45.557Z" fill="white"/>
<path d="M148.088 49.4073C147.617 69.5999 148.259 89.8139 148.9 110.006C149.2 119.375 149.499 128.745 149.777 138.114C151.402 189.707 153.027 241.322 152.492 292.959C152.492 293.857 152.449 294.863 151.829 295.526C151.273 296.146 150.397 296.317 149.563 296.446C128.311 299.654 106.29 291.676 89.891 277.793C73.4924 263.911 62.332 244.595 55.3407 224.274C54.2716 221.173 53.2882 218.007 51.6633 215.162C49.9742 212.231 47.6652 209.729 45.3775 207.248C39.669 201.087 33.9605 194.948 28.252 188.788C25.8146 186.157 23.3345 183.461 21.9448 180.189C19.1013 173.536 21.1324 165.515 18.1178 158.948C15.7874 153.836 10.8271 150.456 7.79117 145.729C3.64341 139.29 3.47237 131.119 3.81445 123.461C4.24206 114.434 6.44422 103.654 14.8894 100.424C20.7903 98.1562 27.3113 100.659 33.4046 102.391C34.6233 102.734 36.0557 103.033 37.1034 102.327C37.9372 101.75 38.3007 100.702 38.6 99.7391C41.0587 91.5893 43.1112 83.3326 44.7147 74.9689C46.0189 68.1667 47.0665 61.2148 50.0811 54.9902C52.775 49.45 56.9014 44.7228 61.3271 40.4447C74.9035 27.3537 91.9649 18.0489 110.159 13.2147C119.438 10.7548 129.038 9.42861 138.638 9.36444C143.363 9.32166 148.131 9.55696 152.813 10.1773C159.462 11.0543 157.645 12.8939 154.801 17.6425C149.135 27.0543 148.323 38.6907 148.088 49.4073Z" fill="white"/>
<path d="M167.037 15.204C166.225 13.7494 165.263 12.2094 163.702 11.6532C161.307 10.7976 158.827 12.7013 157.181 14.6478C152.349 20.4232 149.719 27.9955 149.933 35.5249C151.665 35.9099 153.226 34.5624 154.615 33.4501C158.72 30.1132 164.45 29.5356 168.427 26.5409C172.318 23.6104 169.175 18.9901 167.037 15.204Z" fill="#DF0006"/>
<path d="M621.516 105.236C626.497 102.926 630.324 98.4768 635.477 96.5088C641.356 94.2628 648.497 95.8457 652.88 100.381C657.776 105.45 658.824 112.979 659.636 119.974C660.427 126.84 661.09 134.37 657.242 140.124C654.184 144.702 648.732 147.354 646.103 152.188C642.447 158.883 645.312 167.654 641.955 174.498C638.641 181.236 630.346 184.124 626.283 190.434C624.38 193.386 623.525 196.916 621.601 199.867C617.945 205.515 610.312 208.231 603.92 206.156" stroke="#DF0006" stroke-width="4.76691" stroke-miterlimit="10"/>
<path d="M622.691 142.883C619.462 138.263 618.094 132.381 618.949 126.798C619.826 121.215 622.926 116.038 627.416 112.616C630.174 110.519 633.445 109.065 635.925 106.648C636.695 105.899 637.379 105.065 638.319 104.552C640.351 103.397 642.959 104.038 645.011 105.172C648.689 107.204 651.468 110.798 652.537 114.883C653.606 118.947 652.922 123.439 650.72 127.033" stroke="#DF0006" stroke-width="4.76691" stroke-miterlimit="10"/>
<path d="M613.755 137.707C613.242 143.397 617.176 148.937 616.021 154.52C614.802 160.467 608.41 163.91 605.93 169.451C605.395 170.67 605.032 172.017 605.288 173.322C605.545 174.627 606.486 175.846 607.79 176.124C609.821 176.531 611.531 174.648 612.729 172.959C613.691 171.632 614.653 170.263 615.123 168.702" stroke="#DF0006" stroke-width="4.76691" stroke-miterlimit="10"/>
<path d="M621.495 121.899C627.096 124.68 631.351 129.792 633.767 135.589C636.183 141.386 636.803 147.782 636.333 154.006C636.119 156.915 635.584 159.974 633.767 162.263C631.736 164.83 628.443 166.028 625.985 168.188C623.398 170.477 621.858 173.707 619.87 176.53C617.882 179.354 614.974 182.006 611.51 182.006" stroke="#DF0006" stroke-width="4.76691" stroke-miterlimit="10"/>
<path d="M628.849 112.595C629.469 114.97 630.859 117.066 632.249 119.098C633.04 120.253 633.873 121.472 635.092 122.157C636.311 122.841 638.064 122.82 638.941 121.729C639.325 121.237 639.518 120.638 639.646 120.018C640.63 115.568 639.774 110.734 637.294 106.905" stroke="#DF0006" stroke-width="4.76691" stroke-miterlimit="10"/>
<path d="M610.569 207.055C608.816 218.306 604.946 229.151 599.686 239.247C591.37 255.226 579.418 269.493 564.302 279.247C549.165 289.001 530.778 294.028 512.904 291.868C509.761 291.483 506.747 290.028 503.989 288.445C503.069 287.91 502.172 287.333 501.445 286.563C500.696 285.75 500.162 284.745 499.713 283.739C498.43 280.809 497.767 277.579 497.789 274.37" stroke="#DF0006" stroke-width="4.76691" stroke-miterlimit="10"/>
<path d="M527 127.5C530.186 130.516 533.97 132.412 538.075 133.995C540.106 134.786 542.201 135.364 544.339 135.813C548.851 136.754 553.576 137.032 558.001 135.834C562.427 134.636 566.883 132.586 569 128.5" stroke="#DF0006" stroke-width="4.76691" stroke-miterlimit="10"/>
<path d="M564.5 144C560.053 146.481 553.099 147.568 548.139 146.37C540.955 144.638 532 137.5 527.5 128" stroke="#DF0006" stroke-width="4.76691" stroke-miterlimit="10"/>
<path d="M531.034 142.926C535.225 147.889 539.522 152.894 544.974 156.423C550.426 159.931 557.289 161.814 563.511 159.953C568.727 158.37 573.068 154.135 574.757 148.937" stroke="#DF0006" stroke-width="4.76691" stroke-miterlimit="10"/>
<path d="M555.985 168.659C561.33 169.878 567.146 169.322 571.999 166.777C576.852 164.231 580.701 159.654 582.005 154.306" stroke="#DF0006" stroke-width="4.76691" stroke-miterlimit="10"/>
<path d="M528.128 128.766C528 127.568 525.841 128.274 528 124.766C529.86 121.75 531.506 118.605 533.259 115.525C534.542 113.258 535.889 110.926 538.006 109.429C539.096 108.659 540.336 108.145 541.619 107.739C548.311 105.664 554.212 106.071 560.049 109.921C561.075 110.584 562.614 112.915 563.363 113.878C564.539 115.418 566.121 116.787 566.484 118.691C567.04 121.557 568.879 127.547 568.986 130.456" stroke="#DF0006" stroke-width="4.76691" stroke-miterlimit="10"/>
<path d="M601.397 153.344C596.629 164.937 587.735 174.798 576.66 180.723C574.757 181.75 572.726 182.691 571.336 184.36C570.502 185.344 569.947 186.542 569.433 187.739C567.702 191.761 566.312 195.953 565.328 200.231" stroke="#DF0006" stroke-width="4.76691" stroke-miterlimit="10"/>
<path d="M526.566 193.429C527.037 194.242 527.614 195.033 528.448 195.461C529.281 195.889 530.436 195.803 531.013 195.076C531.355 194.627 531.462 193.985 531.933 193.664C532.296 193.429 532.766 193.429 533.151 193.236C533.793 192.894 533.942 191.996 533.707 191.333C533.472 190.648 532.916 190.135 532.403 189.621C530.757 188.06 529.11 186.498 527.464 184.937C526.267 183.803 526.737 179.268 524.449 180.873C522.547 184.145 524.813 190.477 526.566 193.429Z" stroke="#DF0006" stroke-width="4.76691" stroke-miterlimit="10"/>
<path d="M537.043 199.718C540.613 197.066 542.965 192.488 542.088 188.125C541.511 185.216 539.629 182.756 537.662 180.531C535.717 178.328 533.643 176.253 531.441 174.328" stroke="#DF0006" stroke-width="4.76691" stroke-miterlimit="10"/>
<path d="M586.923 188.338C583.951 190.755 582.604 194.691 582.198 198.52C581.813 202.349 582.219 206.199 582.091 210.028C581.941 214.114 581.129 218.156 580.338 222.156C578.67 230.563 577.003 238.969 575.335 247.376C574.822 249.964 574.309 252.552 573.454 255.055C571.038 262.178 565.821 268.296 559.172 271.825" stroke="#DF0006" stroke-width="4.76691" stroke-miterlimit="10"/>
<path d="M526.951 146.99C528.789 154.049 533.493 160.017 538.517 165.3C543.542 170.605 549.058 175.525 553.099 181.6C557.139 187.675 559.598 195.29 557.674 202.349" stroke="#DF0006" stroke-width="4.76691" stroke-miterlimit="10"/>
<path d="M600.093 130.948C597.805 128.573 595.518 126.199 593.251 123.825C591.22 121.707 589.146 119.525 587.97 116.83C585.276 110.605 588.013 103.546 590.194 97.1507C594.171 85.5143 596.052 71.7816 589.125 61.6212" stroke="#DF0006" stroke-width="4.76691" stroke-miterlimit="10"/>
<path d="M524.706 111.91C529.473 102.519 540.762 96.9151 551.11 98.7975" stroke="#DF0006" stroke-width="4.76691" stroke-miterlimit="10"/>
<path d="M503.155 6.49778C499.456 7.16088 498.002 9.10739 496.292 11.2892C495.33 12.5085 494.645 13.8775 494.261 15.2465C493.662 17.3856 493.341 19.931 493.876 23.9952" stroke="#DF0006" stroke-width="4.76691" stroke-miterlimit="10"/>
<path d="M509.569 232.937C525.54 232.98 541.489 233.002 557.46 233.045C557.995 233.045 558.551 232.788 558.251 232.296C551.987 229.451 545.637 226.777 539.223 224.274C536.037 223.034 532.51 220.702 529.26 221.75C522.996 223.761 516.09 224.788 510.061 222.093" fill="#FF7EAF"/>
<path d="M509.569 232.937C525.54 232.98 541.489 233.002 557.46 233.045C557.995 233.045 558.551 232.788 558.251 232.296C551.987 229.451 545.637 226.777 539.223 224.274C536.037 223.034 532.51 220.702 529.26 221.75C522.996 223.761 516.09 224.788 510.061 222.093" stroke="#DF0006" stroke-width="4.76691" stroke-miterlimit="10"/>
<path d="M558.337 231.911C558.23 232.616 558.016 233.28 557.717 233.921C556.605 236.317 554.36 238.135 552.115 239.526C539.693 247.162 524.513 247.312 510.231 246.157L509.975 233.921H557.738" fill="#FF7EAF"/>
<path d="M558.337 231.911C558.23 232.616 558.016 233.28 557.717 233.921C556.605 236.317 554.36 238.135 552.115 239.526C539.693 247.162 524.513 247.312 510.231 246.157L509.975 233.921H557.738" stroke="#DF0006" stroke-width="4.76691" stroke-miterlimit="10"/>
<path d="M496.227 11.91C497.04 10.4554 498.002 8.91525 499.563 8.3591C501.957 7.50348 504.437 9.40728 506.084 11.3538C510.916 17.1292 513.545 24.7015 513.331 32.2309C511.6 32.6159 510.039 31.2683 508.649 30.156C504.544 26.8191 498.814 26.2416 494.838 23.2469C490.946 20.3164 494.068 15.7175 496.227 11.91Z" fill="#DF0006"/>
<path d="M41.8074 109.557C36.8259 107.247 32.9988 102.797 27.8462 100.83C21.9666 98.5836 14.8257 100.166 10.4427 104.701C5.54668 109.771 4.49906 117.3 3.68661 124.295C2.89554 131.161 2.23276 138.691 6.08119 144.445C9.13855 149.022 14.5905 151.675 17.2203 156.509C20.8763 163.204 18.0113 171.974 21.368 178.819C24.6819 185.557 32.9774 188.445 37.0397 194.755C38.9425 197.707 39.7977 201.236 41.7219 204.188C45.3779 209.835 53.0106 212.552 59.4033 210.477" stroke="#DF0006" stroke-width="4.76691" stroke-miterlimit="10"/>
<path d="M40.6108 147.204C43.8392 142.584 45.2075 136.702 44.3523 131.119C43.4757 125.536 40.3756 120.359 35.8858 116.937C33.1277 114.84 29.8566 113.386 27.3765 110.969C26.6068 110.22 25.9226 109.386 24.9819 108.872C22.9508 107.717 20.3424 108.359 18.2899 109.493C14.6125 111.525 11.8331 115.119 10.7641 119.204C9.69505 123.268 10.3792 127.76 12.5814 131.354" stroke="#DF0006" stroke-width="4.76691" stroke-miterlimit="10"/>
<path d="M49.5694 142.028C50.0825 147.718 46.1486 153.258 47.3031 158.841C48.5218 164.787 54.9144 168.231 57.3945 173.771C57.929 174.991 58.2925 176.338 58.0359 177.643C57.7794 178.948 56.8386 180.167 55.5344 180.445C53.5033 180.852 51.7929 178.969 50.5956 177.279C49.6335 175.953 48.6714 174.584 48.201 173.023" stroke="#DF0006" stroke-width="4.76691" stroke-miterlimit="10"/>
<path d="M41.829 126.22C36.2274 129.001 31.9728 134.113 29.5568 139.91C27.1409 145.707 26.5208 152.102 26.9912 158.327C27.205 161.236 27.7395 164.295 29.5568 166.584C31.5879 169.151 34.8805 170.348 37.3392 172.509C39.9262 174.797 41.4656 178.028 43.4539 180.851C45.4423 183.675 48.35 186.327 51.8136 186.327" stroke="#DF0006" stroke-width="4.76691" stroke-miterlimit="10"/>
<path d="M34.4743 116.916C33.8542 119.29 32.4645 121.386 31.0748 123.419C30.2838 124.574 29.4499 125.793 28.2313 126.477C27.0126 127.162 25.2594 127.14 24.3828 126.05C23.998 125.558 23.8056 124.959 23.6773 124.338C22.6938 119.889 23.549 115.055 26.0291 111.226" stroke="#DF0006" stroke-width="4.76691" stroke-miterlimit="10"/>
<path d="M52.7542 211.354C54.5073 222.606 58.3771 233.451 63.6367 243.547C71.9535 259.526 83.9051 273.793 99.0208 283.547C114.158 293.301 132.545 298.328 150.419 296.167C153.562 295.782 156.576 294.328 159.334 292.745C160.254 292.21 161.152 291.633 161.879 290.863C162.627 290.05 163.161 289.044 163.61 288.039C164.893 285.108 165.556 281.879 165.535 278.67" stroke="#DF0006" stroke-width="4.76691" stroke-miterlimit="10"/>
<path d="M136.607 134.349C133.422 131.333 129.427 136.5 127.5 138.5C123.5 142.651 118.795 144 115.5 144C112.205 144 106 142.111 104 141C102 139.889 96.1166 131.914 94 136" stroke="#DF0006" stroke-width="4.76691" stroke-miterlimit="10"/>
<path d="M100.304 149.343C104.752 151.825 111.04 153.198 116 152C123.184 150.267 132.5 143.5 136 132" stroke="#DF0006" stroke-width="4.76691" stroke-miterlimit="10"/>
<path d="M132.289 147.247C128.099 152.21 123.801 157.215 118.349 160.744C112.898 164.252 106.034 166.135 99.8129 164.274C94.5961 162.691 90.2559 158.456 88.5669 153.258" stroke="#DF0006" stroke-width="4.76691" stroke-miterlimit="10"/>
<path d="M107.338 172.958C101.993 174.178 96.1773 173.622 91.324 171.076C86.4494 168.531 82.6223 163.953 81.3181 158.605" stroke="#DF0006" stroke-width="4.76691" stroke-miterlimit="10"/>
<path d="M135.196 133.087C135.325 131.889 137.484 132.595 135.325 129.087C133.465 126.071 131.818 122.926 130.065 119.846C128.782 117.579 127.435 115.247 125.319 113.75C124.228 112.98 122.988 112.466 121.705 112.06C115.013 109.985 109.113 110.391 103.276 114.242C102.25 114.905 100.71 117.236 99.9618 118.199C98.7859 119.739 97.2038 121.108 96.8403 123.012C96.2845 125.878 94.4458 131.867 94.3389 134.777" stroke="#DF0006" stroke-width="4.76691" stroke-miterlimit="10"/>
<path d="M61.9263 157.664C66.694 169.258 75.5882 179.119 86.6631 185.044C88.566 186.071 90.5971 187.012 91.9868 188.681C92.8206 189.664 93.3765 190.862 93.8896 192.06C95.6214 196.082 97.0111 200.274 97.9946 204.552" stroke="#DF0006" stroke-width="4.76691" stroke-miterlimit="10"/>
<path d="M136.757 197.75C136.287 198.562 135.71 199.354 134.876 199.782C134.042 200.209 132.888 200.124 132.31 199.397C131.968 198.947 131.861 198.306 131.391 197.985C131.027 197.75 130.557 197.75 130.172 197.557C129.531 197.215 129.381 196.316 129.616 195.653C129.852 194.969 130.407 194.455 130.921 193.942C132.567 192.381 134.213 190.819 135.859 189.258C137.057 188.124 136.586 183.589 138.874 185.193C140.777 188.466 138.511 194.798 136.757 197.75Z" stroke="#DF0006" stroke-width="4.76691" stroke-miterlimit="10"/>
<path d="M126.281 204.039C122.71 201.386 120.359 196.809 121.235 192.445C121.812 189.536 123.694 187.076 125.661 184.851C127.606 182.648 129.68 180.573 131.882 178.648" stroke="#DF0006" stroke-width="4.76691" stroke-miterlimit="10"/>
<path d="M76.4011 192.659C79.373 195.076 80.7199 199.012 81.1262 202.841C81.511 206.67 81.1048 210.52 81.233 214.349C81.3827 218.434 82.1952 222.477 82.9862 226.477C84.6539 234.884 86.3215 243.29 87.9892 251.696C88.5023 254.285 89.0154 256.873 89.8706 259.376C92.2866 266.499 97.5034 272.616 104.153 276.146" stroke="#DF0006" stroke-width="4.76691" stroke-miterlimit="10"/>
<path d="M136.372 151.311C134.533 158.37 129.83 164.338 124.805 169.621C119.781 174.926 114.265 179.846 110.224 185.921C106.183 191.995 103.724 199.61 105.649 206.669" stroke="#DF0006" stroke-width="4.76691" stroke-miterlimit="10"/>
<path d="M63.2317 135.268C65.5194 132.894 67.807 130.52 70.0733 128.145C72.1045 126.028 74.1783 123.846 75.3542 121.151C78.0481 114.926 75.3115 107.867 73.1307 101.471C69.154 89.835 67.2725 76.1024 74.1997 65.9419" stroke="#DF0006" stroke-width="4.76691" stroke-miterlimit="10"/>
<path d="M138.617 116.231C133.849 106.84 122.561 101.236 112.213 103.118" stroke="#DF0006" stroke-width="4.76691" stroke-miterlimit="10"/>
<path d="M160.167 10.7973C163.866 11.4604 165.32 13.4069 167.031 15.5887C167.993 16.808 168.677 18.177 169.062 19.546C169.66 21.6851 169.981 24.2305 169.446 28.2946" stroke="#DF0006" stroke-width="4.76691" stroke-miterlimit="10"/>
<path d="M152.151 225.815C146.057 228.339 140.199 227.932 133.892 226.05C130.621 225.087 127.05 227.269 123.843 228.424C117.386 230.756 110.994 233.237 104.665 235.911C105.072 238.221 111.293 236.061 110.652 236.061C94.5525 236.082 136.244 236.638 152.343 236.617L104.665 236.767C105.221 240.018 108.086 241.579 110.93 243.226C123.523 250.478 137.719 251.034 152.193 249.922" fill="#FF7EAF"/>
<path d="M152.151 225.815C146.057 228.339 140.199 227.932 133.892 226.05C130.621 225.087 127.05 227.269 123.843 228.424C117.386 230.756 110.994 233.237 104.665 235.911C105.072 238.221 111.293 236.061 110.652 236.061C94.5525 236.082 136.244 236.638 152.343 236.617L104.665 236.767C105.221 240.018 108.086 241.579 110.93 243.226C123.523 250.478 137.719 251.034 152.193 249.922" stroke="#DF0006" stroke-width="4.76691" stroke-miterlimit="10"/>
<path d="M35.7998 103.503C39.2848 95.2468 41.7221 86.5408 42.9835 77.6638C43.5608 73.6852 43.9029 69.6638 44.8864 65.7707C47.281 56.3161 53.2888 48.1877 60.0022 41.1074C72.6592 27.7598 88.395 17.1716 105.884 11.5031C123.373 5.83467 142.636 5.2357 160.168 10.7972C153.22 18.1555 150.59 28.1021 149.393 38.1343C144.582 78.3483 152.343 118.969 152.087 159.461C151.958 179.504 149.863 199.675 152.642 219.525C156.106 244.188 149.35 268.894 151.744 293.686C152.044 296.659 151.552 295.803 149.286 296.295" stroke="#DF0006" stroke-width="4.76691" stroke-miterlimit="10"/>
<path d="M627.524 99.1827C624.039 90.926 621.602 82.2201 620.34 73.343C619.763 69.3644 619.421 65.343 618.437 61.45C616.043 51.9954 610.035 43.8671 603.322 36.7868C590.665 23.4392 574.929 12.8509 557.44 7.1824C539.951 1.51393 520.687 0.914959 503.156 6.47648C510.104 13.8348 512.734 23.7814 513.931 33.8135C518.742 74.0276 510.981 114.648 511.237 155.14C511.365 175.183 513.461 195.354 510.681 215.204C507.218 239.868 513.974 264.574 511.579 289.365C511.28 292.338 511.772 291.483 514.038 291.975" stroke="#DF0006" stroke-width="4.76691" stroke-miterlimit="10"/>
</svg>
