<svg width="663" height="300" viewBox="0 0 663 300" fill="none" xmlns="http://www.w3.org/2000/svg">
<path d="M200.555 249.386C200.555 257.472 200.876 262.67 200.876 270.756C200.876 272.381 201.966 277.28 202.244 278.884C203.356 285.173 208.295 286.413 213.512 284.788C214.132 284.595 215.928 283.975 216.419 283.547C216.826 283.205 218.173 282.456 218.493 282.028C222.192 277.066 227.644 270.007 222.919 263.932C220.653 261.044 214.816 259.29 211.673 257.322C210.155 256.338 200.555 251.14 200.555 249.386Z" fill="#DF0006"/>
<path d="M461.67 245.686C461.67 253.772 462.397 263.462 462.397 271.547C462.397 273.173 461.863 277.9 461.029 279.676C458.314 285.451 454.978 287.205 449.762 285.579C449.142 285.387 447.346 284.767 446.854 284.339C446.448 283.996 445.101 283.248 444.78 282.82C441.081 277.857 437.468 270.307 440.44 267.141C442.963 264.467 448.457 260.082 451.6 258.114C453.14 257.151 461.67 247.44 461.67 245.686Z" fill="#DF0006"/>
<path d="M153.155 267.675C151.167 276.253 149.157 285.173 151.124 293.772C151.21 294.178 151.338 294.606 151.637 294.884C151.958 295.162 152.407 295.248 152.813 295.269C156.683 295.526 160.296 292.959 162.392 289.708C164.594 286.285 167.01 280.937 164.701 277.643C163.375 275.761 152.535 270.371 153.155 267.675Z" fill="#DF0006"/>
<path d="M509.691 262.82C511.679 271.398 513.689 280.317 511.722 288.916C511.636 289.323 511.508 289.751 511.209 290.029C510.888 290.307 510.439 290.392 510.033 290.414C506.163 290.67 502.55 288.104 500.455 284.852C498.252 281.43 495.836 276.082 498.146 272.788C499.471 270.884 510.311 265.494 509.691 262.82Z" fill="#DF0006"/>
<path d="M505.699 30.049C508.757 32.1025 511.686 34.541 513.31 37.8566C514.828 40.9368 515.042 44.4875 515.171 47.91C516.026 70.3913 512.712 92.8085 512.306 115.311C511.429 164.595 511.258 210.285 510.745 258.371C510.723 260.959 510.98 263.804 509.355 265.836C508.436 266.991 506.982 267.504 505.806 268.381C497.788 274.392 494.346 276.959 487.163 280.745C479.402 284.831 467.792 287.996 459.283 285.836C461.549 276.146 460.416 265.13 461.87 254.713C462.832 247.761 462.618 240.702 462.404 233.707C461.1 190.542 461.442 154.434 461.036 111.247C460.993 106.349 462.789 93.7925 463.687 88.9797C464.82 82.9475 466.659 76.231 467.813 70.1989C469.78 59.9957 467.022 50.9475 465.12 40.7442C463.088 29.7495 457.594 25.1079 459.347 22.3485C461.057 19.6533 472.453 20.2949 475.297 20.4019C485.666 20.7014 497.254 23.7174 505.699 30.049Z" fill="white"/>
<path d="M154.21 32.423C150.917 34.4551 147.732 36.8722 145.979 40.145C144.332 43.2038 144.097 46.6905 143.948 50.0916C143.028 72.3376 146.599 94.5195 147.048 116.766C148.01 165.536 148.181 210.734 148.737 258.285C148.758 260.852 148.48 263.675 150.233 265.686C151.217 266.82 152.799 267.333 154.082 268.21C162.762 274.157 166.482 276.702 174.265 280.424C182.688 284.467 195.239 287.611 204.453 285.472C201.995 275.889 203.213 264.98 201.653 254.67C200.605 247.804 200.84 240.809 201.075 233.878C202.486 191.183 202.123 155.44 202.551 112.723C202.593 107.867 200.669 95.4607 199.686 90.6906C198.446 84.7227 196.479 78.0702 195.217 72.1023C193.079 62.006 196.072 53.0649 198.125 42.9472C200.327 32.0595 206.271 27.4819 204.389 24.7439C202.551 22.0701 190.193 22.7118 187.135 22.8187C175.89 23.161 163.339 26.1556 154.21 32.423Z" fill="white"/>
<path d="M167.037 15.2041C166.225 13.7495 165.263 12.2095 163.702 11.6533C161.307 10.7977 158.827 12.7014 157.181 14.6479C152.349 20.4233 149.719 27.9956 149.933 35.525C151.665 35.91 153.226 34.5625 154.615 33.4502C158.72 30.1133 164.45 29.5357 168.427 26.541C172.318 23.6105 169.175 18.9902 167.037 15.2041Z" fill="#DF0006"/>
<path d="M515.811 45.5571C516.281 65.7497 515.64 85.9637 514.998 106.156C514.699 115.525 514.4 124.894 514.122 134.263C512.497 185.857 510.872 237.472 511.406 289.109C511.406 290.007 511.449 291.013 512.069 291.676C512.625 292.296 513.502 292.467 514.336 292.595C535.587 295.804 557.609 287.825 574.008 273.943C590.406 260.061 601.567 240.745 608.558 220.424C609.627 217.322 610.61 214.157 612.235 211.312C613.924 208.381 616.233 205.878 618.521 203.397C624.23 197.237 629.938 191.098 635.647 184.937C638.084 182.306 640.564 179.611 641.954 176.338C644.797 169.686 642.766 161.665 645.781 155.098C648.111 149.985 653.071 146.606 656.107 141.878C660.255 135.44 660.426 127.269 660.084 119.611C659.657 110.584 657.454 99.8032 649.009 96.5733C643.108 94.3059 636.587 96.8087 630.494 98.5413C629.275 98.8836 627.843 99.183 626.795 98.4771C625.961 97.8995 625.598 96.8515 625.299 95.8889C622.84 87.7391 620.787 79.4824 619.184 71.1187C617.88 64.3166 616.832 57.3646 613.817 51.14C611.124 45.5999 606.997 40.8726 602.572 36.5945C588.995 23.5036 571.934 14.1988 553.739 9.36451C544.46 6.90461 534.861 5.57843 525.261 5.51426C520.536 5.47148 515.768 5.70665 511.086 6.32698C504.437 7.20398 506.254 9.04367 509.097 13.7924C514.742 23.2042 515.554 34.8191 515.811 45.5571Z" fill="white"/>
<path d="M148.088 49.4074C147.617 69.6 148.259 89.814 148.9 110.007C149.2 119.376 149.499 128.745 149.777 138.114C151.402 189.707 153.027 241.322 152.492 292.959C152.492 293.857 152.449 294.863 151.829 295.526C151.273 296.146 150.397 296.317 149.563 296.446C128.311 299.654 106.29 291.676 89.891 277.793C73.4924 263.911 62.332 244.595 55.3407 224.274C54.2716 221.173 53.2882 218.007 51.6633 215.162C49.9742 212.231 47.6652 209.729 45.3775 207.248C39.669 201.087 33.9605 194.948 28.252 188.788C25.8146 186.157 23.3345 183.461 21.9448 180.189C19.1013 173.536 21.1324 165.515 18.1178 158.948C15.7874 153.836 10.8271 150.456 7.79117 145.729C3.64341 139.29 3.47237 131.119 3.81445 123.461C4.24206 114.434 6.44422 103.654 14.8894 100.424C20.7903 98.1563 27.3113 100.659 33.4046 102.392C34.6233 102.734 36.0557 103.033 37.1034 102.327C37.9372 101.75 38.3007 100.702 38.6 99.7392C41.0587 91.5894 43.1112 83.3327 44.7147 74.969C46.0189 68.1668 47.0665 61.2149 50.0811 54.9903C52.775 49.4501 56.9014 44.7229 61.3271 40.4448C74.9035 27.3538 91.9649 18.049 110.159 13.2148C119.438 10.7549 129.038 9.4287 138.638 9.36453C143.363 9.32175 148.131 9.55705 152.813 10.1774C159.462 11.0544 157.645 12.8939 154.801 17.6426C149.135 27.0544 148.323 38.6908 148.088 49.4074Z" fill="white"/>
<path d="M627.524 99.1828C624.039 90.9261 621.602 82.2202 620.34 73.3431C619.763 69.3645 619.421 65.3431 618.437 61.45C616.043 51.9955 610.035 43.8672 603.322 36.7869C590.665 23.4393 574.929 12.851 557.44 7.18249C539.951 1.51402 520.687 0.915047 503.156 6.47656C510.104 13.8349 512.734 23.7815 513.931 33.8136C518.742 74.0277 510.981 114.648 511.237 155.14C511.365 175.183 513.461 195.354 510.681 215.205C507.218 239.868 513.974 264.574 511.579 289.365C511.28 292.339 511.772 291.483 514.038 291.975" stroke="#DF0006" stroke-width="4.76691" stroke-miterlimit="10"/>
<path d="M621.516 105.236C626.497 102.926 630.324 98.4768 635.477 96.5089C641.356 94.2629 648.497 95.8458 652.88 100.381C657.776 105.45 658.824 112.98 659.636 119.974C660.427 126.841 661.09 134.37 657.242 140.124C654.184 144.702 648.732 147.354 646.103 152.188C642.447 158.883 645.312 167.654 641.955 174.499C638.641 181.237 630.346 184.124 626.283 190.434C624.38 193.386 623.525 196.916 621.601 199.868C617.945 205.515 610.312 208.231 603.92 206.156" stroke="#DF0006" stroke-width="4.76691" stroke-miterlimit="10"/>
<path d="M622.691 142.883C619.462 138.263 618.094 132.381 618.949 126.798C619.826 121.215 622.926 116.038 627.416 112.616C630.174 110.52 633.445 109.065 635.925 106.648C636.695 105.899 637.379 105.065 638.319 104.552C640.351 103.397 642.959 104.038 645.011 105.172C648.689 107.204 651.468 110.798 652.537 114.883C653.606 118.947 652.922 123.44 650.72 127.033" stroke="#DF0006" stroke-width="4.76691" stroke-miterlimit="10"/>
<path d="M613.755 137.707C613.242 143.397 617.176 148.937 616.021 154.52C614.802 160.467 608.41 163.91 605.93 169.451C605.395 170.67 605.032 172.017 605.288 173.322C605.545 174.627 606.486 175.846 607.79 176.124C609.821 176.531 611.531 174.649 612.729 172.959C613.691 171.632 614.653 170.264 615.123 168.702" stroke="#DF0006" stroke-width="4.76691" stroke-miterlimit="10"/>
<path d="M621.495 121.899C627.096 124.68 631.351 129.792 633.767 135.589C636.183 141.386 636.803 147.782 636.333 154.006C636.119 156.915 635.584 159.974 633.767 162.263C631.736 164.83 628.443 166.028 625.985 168.188C623.398 170.477 621.858 173.707 619.87 176.53C617.882 179.354 614.974 182.006 611.51 182.006" stroke="#DF0006" stroke-width="4.76691" stroke-miterlimit="10"/>
<path d="M628.849 112.595C629.469 114.97 630.859 117.066 632.249 119.098C633.04 120.253 633.873 121.472 635.092 122.157C636.311 122.841 638.064 122.82 638.941 121.729C639.325 121.237 639.518 120.638 639.646 120.018C640.63 115.568 639.774 110.734 637.294 106.905" stroke="#DF0006" stroke-width="4.76691" stroke-miterlimit="10"/>
<path d="M610.569 207.055C608.816 218.306 604.946 229.151 599.686 239.247C591.37 255.226 579.418 269.493 564.302 279.247C549.165 289.002 530.778 294.028 512.904 291.868C509.761 291.483 506.747 290.028 503.989 288.445C503.069 287.911 502.172 287.333 501.445 286.563C500.696 285.75 500.162 284.745 499.713 283.739C498.43 280.809 497.767 277.579 497.789 274.37" stroke="#DF0006" stroke-width="4.76691" stroke-miterlimit="10"/>
<path d="M526.715 130.028C529.901 127.012 533.685 124.616 537.79 123.033C539.821 122.242 541.916 121.664 544.054 121.215C548.566 120.274 553.291 119.996 557.716 121.194C562.142 122.392 566.888 125.942 569.005 130.028" stroke="#DF0006" stroke-width="4.76691" stroke-miterlimit="10"/>
<path d="M546.579 121.814C544.654 122.584 542.965 124.145 542.452 126.177C541.832 128.701 543.222 131.375 545.274 132.958C548.631 135.503 553.634 135.418 557.119 133.044C557.932 132.488 558.701 131.824 559.236 130.969C560.497 129.001 560.262 126.284 558.958 124.338C556.349 120.509 550.577 120.231 546.579 121.814Z" fill="#FF7EAF" stroke="#DF0006" stroke-width="4.76691" stroke-miterlimit="10"/>
<path d="M569.006 130.028C570.117 135.012 567.466 142.541 563.019 145.023C558.572 147.504 553.099 147.568 548.139 146.37C540.955 144.638 534.413 140.295 529.987 134.37" stroke="#DF0006" stroke-width="4.76691" stroke-miterlimit="10"/>
<path d="M531.034 142.926C535.225 147.889 539.522 152.894 544.974 156.424C550.426 159.932 557.289 161.814 563.511 159.953C568.727 158.37 573.068 154.135 574.757 148.937" stroke="#DF0006" stroke-width="4.76691" stroke-miterlimit="10"/>
<path d="M555.985 168.659C561.33 169.878 567.146 169.322 571.999 166.777C576.852 164.231 580.701 159.654 582.005 154.306" stroke="#DF0006" stroke-width="4.76691" stroke-miterlimit="10"/>
<path d="M528.128 128.766C528 127.568 525.841 128.274 528 124.766C529.86 121.75 531.506 118.605 533.259 115.525C534.542 113.258 535.889 110.926 538.006 109.429C539.096 108.659 540.336 108.145 541.619 107.739C548.311 105.664 554.212 106.071 560.049 109.921C561.075 110.584 562.614 112.916 563.363 113.878C564.539 115.418 566.121 116.787 566.484 118.691C567.04 121.557 568.879 127.547 568.986 130.456" stroke="#DF0006" stroke-width="4.76691" stroke-miterlimit="10"/>
<path d="M601.397 153.344C596.629 164.937 587.735 174.798 576.66 180.723C574.757 181.75 572.726 182.691 571.336 184.36C570.502 185.344 569.947 186.542 569.433 187.739C567.702 191.761 566.312 195.953 565.328 200.232" stroke="#DF0006" stroke-width="4.76691" stroke-miterlimit="10"/>
<path d="M526.566 193.429C527.037 194.242 527.614 195.033 528.448 195.461C529.281 195.889 530.436 195.803 531.013 195.076C531.355 194.627 531.462 193.985 531.933 193.664C532.296 193.429 532.766 193.429 533.151 193.236C533.793 192.894 533.942 191.996 533.707 191.333C533.472 190.648 532.916 190.135 532.403 189.621C530.757 188.06 529.11 186.498 527.464 184.937C526.267 183.803 526.737 179.268 524.449 180.873C522.547 184.146 524.813 190.477 526.566 193.429Z" stroke="#DF0006" stroke-width="4.76691" stroke-miterlimit="10"/>
<path d="M537.043 199.718C540.613 197.066 542.965 192.488 542.088 188.125C541.511 185.216 539.629 182.756 537.662 180.531C535.717 178.328 533.643 176.253 531.441 174.328" stroke="#DF0006" stroke-width="4.76691" stroke-miterlimit="10"/>
<path d="M586.923 188.338C583.951 190.755 582.604 194.691 582.198 198.52C581.813 202.349 582.219 206.199 582.091 210.028C581.941 214.114 581.129 218.156 580.338 222.156C578.67 230.563 577.003 238.969 575.335 247.376C574.822 249.964 574.309 252.552 573.454 255.055C571.038 262.178 565.821 268.296 559.172 271.825" stroke="#DF0006" stroke-width="4.76691" stroke-miterlimit="10"/>
<path d="M526.951 146.99C528.789 154.049 533.493 160.017 538.517 165.3C543.542 170.605 549.058 175.525 553.099 181.6C557.139 187.675 559.598 195.29 557.674 202.349" stroke="#DF0006" stroke-width="4.76691" stroke-miterlimit="10"/>
<path d="M600.093 130.948C597.805 128.573 595.518 126.199 593.251 123.825C591.22 121.707 589.146 119.525 587.97 116.83C585.276 110.605 588.013 103.546 590.194 97.1508C594.171 85.5143 596.052 71.7817 589.125 61.6213" stroke="#DF0006" stroke-width="4.76691" stroke-miterlimit="10"/>
<path d="M524.706 111.91C529.473 102.52 540.762 96.9152 551.11 98.7976" stroke="#DF0006" stroke-width="4.76691" stroke-miterlimit="10"/>
<path d="M503.155 6.49787C499.456 7.16097 498.002 9.10748 496.292 11.2893C495.33 12.5086 494.645 13.8776 494.261 15.2466C493.662 17.3857 493.341 19.9311 493.876 23.9952" stroke="#DF0006" stroke-width="4.76691" stroke-miterlimit="10"/>
<path d="M509.569 232.938C525.54 232.98 541.489 233.002 557.46 233.045C557.995 233.045 558.551 232.788 558.251 232.296C551.987 229.451 545.637 226.777 539.223 224.274C536.037 223.034 532.51 220.702 529.26 221.75C522.996 223.761 516.09 224.788 510.061 222.093" fill="#FF7EAF"/>
<path d="M509.569 232.938C525.54 232.98 541.489 233.002 557.46 233.045C557.995 233.045 558.551 232.788 558.251 232.296C551.987 229.451 545.637 226.777 539.223 224.274C536.037 223.034 532.51 220.702 529.26 221.75C522.996 223.761 516.09 224.788 510.061 222.093" stroke="#DF0006" stroke-width="4.76691" stroke-miterlimit="10"/>
<path d="M558.337 231.911C558.23 232.617 558.016 233.28 557.717 233.921C556.605 236.317 554.36 238.135 552.115 239.526C539.693 247.162 524.513 247.312 510.231 246.157L509.975 233.921H557.738" fill="#FF7EAF"/>
<path d="M558.337 231.911C558.23 232.617 558.016 233.28 557.717 233.921C556.605 236.317 554.36 238.135 552.115 239.526C539.693 247.162 524.513 247.312 510.231 246.157L509.975 233.921H557.738" stroke="#DF0006" stroke-width="4.76691" stroke-miterlimit="10"/>
<path d="M496.227 11.9101C497.04 10.4555 498.002 8.91534 499.563 8.35919C501.957 7.50357 504.437 9.40737 506.084 11.3539C510.916 17.1293 513.545 24.7016 513.331 32.231C511.6 32.616 510.039 31.2684 508.649 30.1561C504.544 26.8191 498.814 26.2416 494.838 23.247C490.946 20.3165 494.068 15.7176 496.227 11.9101Z" fill="#DF0006"/>
<path d="M35.7998 103.504C39.2848 95.2469 41.7221 86.5409 42.9835 77.6639C43.5608 73.6852 43.9029 69.6638 44.8864 65.7708C47.281 56.3162 53.2888 48.1878 60.0022 41.1075C72.6592 27.7599 88.395 17.1717 105.884 11.5032C123.373 5.83476 142.636 5.23579 160.168 10.7973C153.22 18.1556 150.59 28.1022 149.393 38.1344C144.582 78.3484 152.343 118.969 152.087 159.461C151.958 179.504 149.863 199.675 152.642 219.525C156.106 244.189 149.35 268.894 151.744 293.686C152.044 296.659 151.552 295.804 149.286 296.296" stroke="#DF0006" stroke-width="4.76691" stroke-miterlimit="10"/>
<path d="M41.8074 109.557C36.8259 107.247 32.9988 102.798 27.8462 100.83C21.9666 98.5837 14.8257 100.167 10.4427 104.701C5.54668 109.771 4.49906 117.3 3.68661 124.295C2.89554 131.161 2.23276 138.691 6.08119 144.445C9.13855 149.022 14.5905 151.675 17.2203 156.509C20.8763 163.204 18.0113 171.974 21.368 178.819C24.6819 185.557 32.9774 188.445 37.0397 194.755C38.9425 197.707 39.7977 201.236 41.7219 204.188C45.3779 209.835 53.0106 212.552 59.4033 210.477" stroke="#DF0006" stroke-width="4.76691" stroke-miterlimit="10"/>
<path d="M40.6105 147.204C43.8389 142.584 45.2073 136.702 44.3521 131.119C43.4755 125.536 40.3754 120.359 35.8855 116.937C33.1275 114.841 29.8563 113.386 27.3762 110.969C26.6065 110.22 25.9224 109.386 24.9816 108.873C22.9505 107.717 20.3421 108.359 18.2896 109.493C14.6122 111.525 11.8328 115.119 10.7638 119.204C9.69481 123.268 10.379 127.76 12.5811 131.354" stroke="#DF0006" stroke-width="4.76691" stroke-miterlimit="10"/>
<path d="M49.5694 142.028C50.0825 147.718 46.1486 153.258 47.3031 158.841C48.5218 164.788 54.9144 168.231 57.3945 173.771C57.929 174.991 58.2925 176.338 58.0359 177.643C57.7794 178.948 56.8386 180.167 55.5344 180.445C53.5033 180.852 51.7929 178.969 50.5956 177.28C49.6335 175.953 48.6714 174.584 48.201 173.023" stroke="#DF0006" stroke-width="4.76691" stroke-miterlimit="10"/>
<path d="M41.829 126.22C36.2274 129.001 31.9728 134.113 29.5568 139.91C27.1409 145.707 26.5208 152.102 26.9912 158.327C27.205 161.236 27.7395 164.295 29.5568 166.584C31.5879 169.151 34.8805 170.348 37.3392 172.509C39.9262 174.798 41.4656 178.028 43.4539 180.851C45.4423 183.675 48.35 186.327 51.8136 186.327" stroke="#DF0006" stroke-width="4.76691" stroke-miterlimit="10"/>
<path d="M34.474 116.916C33.854 119.29 32.4643 121.387 31.0746 123.419C30.2835 124.574 29.4497 125.793 28.231 126.477C27.0124 127.162 25.2592 127.141 24.3826 126.05C23.9977 125.558 23.8053 124.959 23.677 124.338C22.6936 119.889 23.5488 115.055 26.0289 111.226" stroke="#DF0006" stroke-width="4.76691" stroke-miterlimit="10"/>
<path d="M52.7542 211.354C54.5073 222.606 58.3771 233.451 63.6367 243.547C71.9535 259.526 83.9051 273.793 99.0208 283.547C114.158 293.301 132.545 298.328 150.419 296.167C153.562 295.782 156.576 294.328 159.334 292.745C160.254 292.21 161.152 291.633 161.879 290.863C162.627 290.05 163.161 289.044 163.61 288.039C164.893 285.109 165.556 281.879 165.535 278.67" stroke="#DF0006" stroke-width="4.76691" stroke-miterlimit="10"/>
<path d="M136.607 134.349C133.421 131.333 129.637 128.937 125.532 127.354C123.501 126.563 121.406 125.985 119.268 125.536C114.757 124.595 110.032 124.317 105.606 125.514C101.159 126.712 96.4338 130.263 94.3171 134.349" stroke="#DF0006" stroke-width="4.76691" stroke-miterlimit="10"/>
<path d="M116.745 126.135C118.669 126.905 120.358 128.466 120.871 130.498C121.491 133.022 120.102 135.696 118.049 137.279C114.692 139.825 109.689 139.739 106.204 137.365C105.392 136.808 104.622 136.145 104.088 135.29C102.826 133.322 103.062 130.605 104.366 128.659C106.974 124.83 112.747 124.53 116.745 126.135Z" fill="#FF7EAF" stroke="#DF0006" stroke-width="4.76691" stroke-miterlimit="10"/>
<path d="M94.3178 134.349C93.206 139.333 95.8572 146.862 100.304 149.344C104.751 151.825 110.225 151.889 115.185 150.691C122.369 148.959 128.911 144.616 133.337 138.691" stroke="#DF0006" stroke-width="4.76691" stroke-miterlimit="10"/>
<path d="M132.289 147.247C128.099 152.21 123.801 157.215 118.349 160.744C112.897 164.252 106.034 166.135 99.8126 164.274C94.5959 162.691 90.2557 158.456 88.5667 153.258" stroke="#DF0006" stroke-width="4.76691" stroke-miterlimit="10"/>
<path d="M107.338 172.959C101.993 174.178 96.1773 173.622 91.324 171.076C86.4494 168.531 82.6223 163.953 81.3181 158.606" stroke="#DF0006" stroke-width="4.76691" stroke-miterlimit="10"/>
<path d="M135.196 133.087C135.325 131.889 137.484 132.595 135.325 129.087C133.465 126.071 131.818 122.926 130.065 119.846C128.782 117.579 127.435 115.247 125.319 113.75C124.228 112.98 122.988 112.466 121.705 112.06C115.013 109.985 109.113 110.391 103.276 114.242C102.25 114.905 100.71 117.236 99.9618 118.199C98.7859 119.739 97.2038 121.108 96.8403 123.012C96.2845 125.878 94.4458 131.868 94.3389 134.777" stroke="#DF0006" stroke-width="4.76691" stroke-miterlimit="10"/>
<path d="M61.9263 157.664C66.694 169.258 75.5882 179.119 86.6631 185.044C88.566 186.071 90.5971 187.012 91.9868 188.681C92.8206 189.665 93.3765 190.862 93.8896 192.06C95.6214 196.082 97.0111 200.274 97.9946 204.552" stroke="#DF0006" stroke-width="4.76691" stroke-miterlimit="10"/>
<path d="M136.757 197.75C136.287 198.563 135.71 199.354 134.876 199.782C134.042 200.209 132.888 200.124 132.31 199.397C131.968 198.947 131.861 198.306 131.391 197.985C131.027 197.75 130.557 197.75 130.172 197.557C129.531 197.215 129.381 196.316 129.616 195.653C129.852 194.969 130.407 194.456 130.921 193.942C132.567 192.381 134.213 190.819 135.859 189.258C137.057 188.124 136.586 183.589 138.874 185.194C140.777 188.466 138.511 194.798 136.757 197.75Z" stroke="#DF0006" stroke-width="4.76691" stroke-miterlimit="10"/>
<path d="M126.281 204.039C122.71 201.386 120.359 196.809 121.235 192.445C121.812 189.536 123.694 187.076 125.661 184.851C127.606 182.648 129.68 180.573 131.882 178.648" stroke="#DF0006" stroke-width="4.76691" stroke-miterlimit="10"/>
<path d="M76.4011 192.659C79.373 195.076 80.7199 199.012 81.1262 202.841C81.511 206.67 81.1048 210.52 81.233 214.349C81.3827 218.434 82.1952 222.477 82.9862 226.477C84.6539 234.884 86.3215 243.29 87.9892 251.697C88.5023 254.285 89.0154 256.873 89.8706 259.376C92.2866 266.499 97.5034 272.616 104.153 276.146" stroke="#DF0006" stroke-width="4.76691" stroke-miterlimit="10"/>
<path d="M136.372 151.311C134.533 158.37 129.83 164.338 124.805 169.621C119.781 174.926 114.265 179.846 110.224 185.921C106.183 191.995 103.724 199.611 105.649 206.669" stroke="#DF0006" stroke-width="4.76691" stroke-miterlimit="10"/>
<path d="M63.2314 135.268C65.5191 132.894 67.8068 130.52 70.0731 128.145C72.1042 126.028 74.1781 123.846 75.354 121.151C78.0479 114.926 75.3112 107.867 73.1305 101.471C69.1537 89.8351 67.2723 76.1025 74.1995 65.942" stroke="#DF0006" stroke-width="4.76691" stroke-miterlimit="10"/>
<path d="M138.617 116.231C133.849 106.84 122.56 101.236 112.212 103.118" stroke="#DF0006" stroke-width="4.76691" stroke-miterlimit="10"/>
<path d="M160.167 10.7974C163.866 11.4605 165.32 13.407 167.031 15.5888C167.993 16.8081 168.677 18.1771 169.062 19.5461C169.66 21.6852 169.981 24.2306 169.446 28.2947" stroke="#DF0006" stroke-width="4.76691" stroke-miterlimit="10"/>
<path d="M152.151 225.815C146.057 228.339 140.199 227.932 133.892 226.05C130.621 225.087 127.05 227.269 123.843 228.424C117.386 230.756 110.994 233.237 104.665 235.911C105.072 238.221 111.293 236.061 110.652 236.061C94.5525 236.082 136.244 236.638 152.343 236.617L104.665 236.767C105.221 240.018 108.086 241.579 110.93 243.226C123.523 250.478 137.719 251.034 152.193 249.922" fill="#FF7EAF"/>
<path d="M152.151 225.815C146.057 228.339 140.199 227.932 133.892 226.05C130.621 225.087 127.05 227.269 123.843 228.424C117.386 230.756 110.994 233.237 104.665 235.911C105.072 238.221 111.293 236.061 110.652 236.061C94.5525 236.082 136.244 236.638 152.343 236.617L104.665 236.767C105.221 240.018 108.086 241.579 110.93 243.226C123.523 250.478 137.719 251.034 152.193 249.922" stroke="#DF0006" stroke-width="4.76691" stroke-miterlimit="10"/>
<path d="M285.819 48.8299C292.981 50.9261 299.823 54.0277 306.622 57.108C314.468 60.6588 322.315 64.2096 330.161 67.7818C333.967 69.5144 337.922 71.2684 342.091 71.2684C345.576 71.2684 348.099 68.5946 351.178 66.9689C361.611 61.4502 371.66 56.9582 382.992 53.6213C401.485 48.1667 423.571 48.6586 441.937 54.4768C452.028 57.6854 462.205 64.787 467.935 73.7068C472.168 80.2737 479.48 92.8086 480.849 100.509C486.065 130.092 484.569 155.632 481.233 185.472C477.898 215.333 466.16 245.215 443.711 265.194C437.532 270.692 429.558 273.708 421.668 276.125C405.141 281.194 386.583 279.569 372.943 268.916C360.628 259.312 346.325 249.387 330.482 242.456C326.313 240.617 319.664 239.226 315.11 239.354C305.959 239.568 299.716 246.627 292.169 251.782C269.142 267.483 236.302 274.2 212.934 258.991C208.038 255.804 202.18 251.804 198.331 247.654C189.929 238.627 181.013 214.178 180.051 201.878C177.892 174.05 177.314 160.103 178.255 132.21C178.64 121.065 179.26 108.21 181.099 97.1936C182.531 88.5519 190.271 76.6161 196.086 69.6856C201.795 62.862 213.703 56.3806 221.678 52.9154C231.086 48.8084 241.22 46.3058 251.418 45.0437C263.006 43.5678 274.551 45.5143 285.819 48.8299Z" fill="white"/>
<path d="M436.677 267.526C439.029 276.039 441.573 285.109 450.21 286.949C451.771 287.291 455.106 287.077 456.689 286.906C458.869 286.671 460.002 283.355 460.302 282.2C463.338 270.521 462.504 258.97 462.44 246.906C462.226 211.59 458.378 178.264 460.045 142.948C460.965 123.718 459.917 104.21 464.471 85.4933C469.025 66.7767 468.426 45.9638 461.328 28.445C456.518 16.5947 448.692 28.4237 447.623 37.044C447.623 37.044 446.362 49.9211 446.362 55.7607" stroke="#DF0006" stroke-width="4.76691" stroke-miterlimit="10"/>
<path d="M152.193 268.21C159.334 275.44 168.485 280.638 178.341 283.077C187.235 285.28 197.797 285.087 206.948 285.023" stroke="#DF0006" stroke-width="4.76691" stroke-miterlimit="10"/>
<path d="M453.697 286.862C475.611 288.403 498.039 278.841 512.107 261.964" stroke="#DF0006" stroke-width="4.76691" stroke-miterlimit="10"/>
<path d="M455.365 23.1828C465.2 18.4983 490.129 17.5785 504.261 27.9315C508.281 30.8834 512.984 36.0171 514.631 40.723" stroke="#DF0006" stroke-width="4.76691" stroke-miterlimit="10"/>
<path d="M226.211 265.558C223.859 274.071 221.315 283.141 212.678 284.98C211.117 285.322 207.782 285.108 206.199 284.937C204.019 284.702 202.886 281.387 202.586 280.232C199.55 268.552 200.384 257.001 200.448 244.937C200.662 209.622 204.51 176.295 202.843 140.98C201.923 121.75 202.971 102.242 198.417 83.5249C193.863 64.8083 194.462 43.9954 201.56 26.4766C206.371 14.6263 214.196 26.4551 215.265 35.0755C215.265 35.0755 216.526 47.9525 216.526 53.7921" stroke="#DF0006" stroke-width="4.76691" stroke-miterlimit="10"/>
<path d="M149.393 38.1561C149.393 38.1561 172.676 18.6053 206.927 21.6" stroke="#DF0006" stroke-width="4.76691" stroke-miterlimit="10"/>
<path d="M467.079 72.1454C462.312 63.91 453.567 58.755 444.652 55.4394C412.966 43.5891 376.278 51.0544 347.65 69.108C337.922 75.247 324.859 65.3432 314.468 60.402C295.995 51.632 280.088 46.0919 259.67 45.0865C239.252 44.0812 202.478 56.9154 196.3 71.8887" stroke="#DF0006" stroke-width="4.76691" stroke-miterlimit="10"/>
<path d="M462.611 239.954C461.243 243.248 458.763 248.51 456.475 251.226C450.724 258.093 445.4 263.034 436.656 269.002C425.132 276.895 410.037 280.039 396.204 278.028C382.863 276.082 371.852 266.692 360.585 259.29C351.948 253.601 345.341 249.707 335.186 244.574C325.009 239.44 314.938 237.601 307.755 241.023C303.179 243.205 294.969 250.349 290.48 252.724C274.915 260.895 266.683 265.408 249.152 266.734C231.62 268.061 212.057 262.071 200.533 248.788" stroke="#DF0006" stroke-width="4.76691" stroke-miterlimit="10"/>
<path d="M347.843 233.408C360.735 240.852 374.461 248.467 389.192 250.756C403.902 253.045 421.198 247.227 429.793 235.055C433.877 229.259 436.87 224.702 438.131 217.729C438.751 214.264 439.307 207.74 436.678 205.408C434.347 203.355 428.874 204.895 425.774 205.023C418.355 205.344 411.278 202.521 404.18 204.681C400.93 205.665 397.851 207.398 394.452 207.633C390.09 207.911 386.028 205.665 381.859 204.36C376.941 202.841 372.345 204.959 367.278 204.082C349.169 200.873 333.24 185.066 314.896 184.253C305.446 183.847 295.419 186.328 286.546 189.601C277.973 192.767 275.813 197.472 266.684 197.258C263.904 197.194 256.721 195.761 251.525 198.093C249.815 198.863 248.318 200.039 246.629 200.831C240.493 203.718 233.138 199.761 226.489 201.216C220.118 202.606 215.778 208.788 214.196 215.12C213.447 218.071 213.169 221.216 214.089 224.103C215.949 229.943 222.106 233.259 228.007 234.948C238.633 237.964 250.2 237.537 260.591 233.751C277.139 227.718 291.699 215.376 309.295 214.649C321.567 214.136 329.948 221.537 340.082 228.146C343.011 229.986 344.101 231.205 347.843 233.408Z" fill="#FF7EAF" stroke="#DF0006" stroke-width="4.76691" stroke-miterlimit="10"/>
<path d="M420.215 160.552C421.647 163.91 425.282 165.964 428.917 166.285C432.551 166.627 436.165 165.493 439.457 163.91C441.638 162.862 443.883 161.429 444.631 159.14C444.973 158.114 444.973 157.001 444.93 155.91C444.802 153.13 444.353 150.242 442.771 147.974C439.906 143.889 434.176 142.905 429.259 143.675C426.501 144.103 423.7 145.023 421.733 147.012C419.787 148.98 418.889 151.718 418.056 154.349C417.029 154.563 415.362 155.012 414.742 155.868C413.972 156.894 414.314 158.52 415.319 159.333C416.281 160.167 418.996 161.001 420.215 160.552Z" fill="#FF7EAF" stroke="#DF0006" stroke-width="4.76691" stroke-miterlimit="10"/>
<path d="M418.954 168.188C422.075 173.557 428.746 175.675 434.903 176.445C438.752 176.937 442.878 177.023 446.256 175.119C449.634 173.215 451.794 168.702 449.933 165.301" stroke="#DF0006" stroke-width="4.76691" stroke-miterlimit="10"/>
<path d="M416.943 143.397C419.06 138.67 420.385 133.237 424.426 130.028C427.12 127.868 430.84 127.033 434.197 127.846C437.554 128.659 440.483 131.076 441.915 134.221" stroke="#DF0006" stroke-width="4.76691" stroke-miterlimit="10"/>
<path d="M299.845 141.664C295.633 142.777 291.015 143.269 287.017 141.515C283.019 139.761 280.068 135.14 281.394 130.969C282.313 128.06 285.007 126.092 287.765 124.809C295.227 121.365 303.8 121.771 311.989 122.263C315.26 122.456 318.552 122.648 321.695 123.547C325.009 124.488 328.088 126.199 331.402 127.204C343.909 130.969 358.405 124.231 370.1 130.049C375.017 132.509 379.657 136.937 380.277 142.392C380.619 145.365 384.125 148.124 384.617 148.894C386.028 151.098 385.344 152.702 383.377 153.472C382.244 153.9 379.999 152.082 379.571 152.424C378.374 153.322 375.466 155.953 370.335 154.927C367.171 154.306 364.605 153.515 361.783 151.953C356.139 148.83 350.986 144.873 345.577 141.365C340.168 137.857 334.331 134.734 327.981 133.579C322.978 132.659 317.355 133.023 312.801 135.461C308.354 137.771 304.89 140.317 299.845 141.664Z" stroke="#DF0006" stroke-width="4.76691" stroke-miterlimit="10"/>
<path d="M369.822 140.659C368.261 140.552 367.769 142.306 368.582 143.119C369.116 143.653 369.971 143.846 370.655 143.504C371.318 143.161 371.682 142.284 371.34 141.6C370.912 140.744 369.779 140.594 368.838 140.573" stroke="#DF0006" stroke-width="4.76691" stroke-miterlimit="10"/>
<path d="M287.658 133.514C287.615 134.477 288.235 136.466 290.523 136.916C293.623 137.536 295.461 136.124 296.039 135.226C296.167 135.033 296.53 134.434 296.573 133.985C297.3 127.632 287.978 127.76 287.658 133.514Z" fill="#FF7EAF" stroke="#DF0006" stroke-width="4.76691" stroke-miterlimit="10"/>
<path d="M270.233 144.958C274.98 149.514 280.774 153.087 287.145 154.712C293.516 156.338 300.486 155.974 306.43 153.172C312.609 150.263 319.044 148.145 325.865 148.53C331.488 148.83 336.811 151.012 342.007 153.172C347.202 155.333 352.397 157.472 357.593 159.632C360.8 160.958 364.05 162.306 367.492 162.734C370.934 163.162 374.654 162.584 377.348 160.381" stroke="#DF0006" stroke-width="4.76691" stroke-miterlimit="10"/>
<path d="M388.465 138.113C388.166 133.814 386.263 129.707 383.377 126.52C380.491 123.333 376.642 121.087 372.494 119.889" stroke="#DF0006" stroke-width="4.76691" stroke-miterlimit="10"/>
<path d="M270.746 124.873C271.002 122.263 272.328 119.846 274.038 117.878C277.737 113.557 283.189 111.012 288.748 109.814C294.307 108.595 300.058 108.595 305.745 108.595" stroke="#DF0006" stroke-width="4.76691" stroke-miterlimit="10"/>
<path d="M385.9 180.638C388.979 184.317 394.409 185.836 398.963 184.295C401.229 183.525 403.325 182.05 405.741 181.9C407.879 181.771 410.102 182.905 411.043 184.809C411.171 185.066 411.257 185.386 411.086 185.6C410.979 185.729 410.808 185.771 410.658 185.814C409.354 186.114 407.943 185.9 406.788 185.215" stroke="#DF0006" stroke-width="4.76691" stroke-miterlimit="10"/>
<path d="M415.896 179.076C418.012 181.792 418.975 185.365 418.526 188.766C418.461 189.236 418.141 190.434 417.072 191.333C415.169 192.916 412.603 193.6 410.145 193.343" stroke="#DF0006" stroke-width="4.76691" stroke-miterlimit="10"/>
<path d="M236.474 174.028C235.512 173.75 234.165 173.771 233.823 174.734C233.523 175.568 234.293 176.381 235.02 176.873C236.046 177.536 241.605 180.424 242.353 178.691C243.23 176.659 237.757 174.392 236.474 174.028Z" stroke="#DF0006" stroke-width="4.76691" stroke-miterlimit="10"/>
<path d="M257.939 178.584C257.426 179.269 257.148 180.167 257.384 180.98C259.8 182.221 262.964 182.52 265.102 180.83C266.149 180.017 267.005 179.247 268.223 178.648C268.993 178.285 271.088 177.921 271.559 177.215C272.371 175.996 271.323 175.611 270.105 175.14C266.235 173.665 260.462 175.269 257.939 178.584Z" stroke="#DF0006" stroke-width="4.76691" stroke-miterlimit="10"/>
<path d="M377.796 167.867C372.387 169.579 366.892 171.29 361.205 171.525C355.518 171.761 349.553 170.285 345.427 166.391" stroke="#DF0006" stroke-width="4.76691" stroke-miterlimit="10"/>
<path d="M382.992 106.028C387.139 107.354 391.095 109.343 394.622 111.889C397.081 113.664 399.369 115.696 402.041 117.108C407.814 120.145 414.72 119.889 421.198 119.161C427.676 118.413 434.304 117.279 440.654 118.755C444.759 119.718 448.543 121.75 452.007 124.145" stroke="#DF0006" stroke-width="4.76691" stroke-miterlimit="10"/>
<path d="M413.202 107.055C419.338 109.087 426.03 109.365 432.295 107.825" stroke="#DF0006" stroke-width="4.76691" stroke-miterlimit="10"/>
<path d="M219.883 132.253C217.296 133.258 215.735 134.306 214.709 136.873C214.153 138.264 214.238 139.847 214.516 141.323C214.837 142.905 215.457 144.595 216.847 145.43C217.937 146.093 219.263 146.135 220.524 146.157C224.757 146.221 229.439 146.135 232.561 143.29C234.293 141.708 235.319 139.333 235.169 136.98C235.02 134.627 233.63 132.381 231.556 131.269C228.67 129.708 226.232 130.777 223.025 131.419C222.747 131.462 220.032 132.018 219.883 132.253Z" fill="#FF7EAF" stroke="#DF0006" stroke-width="4.76691" stroke-miterlimit="10"/>
<path d="M223.688 121.13C230.059 121.408 236.195 125.151 239.36 130.691" stroke="#DF0006" stroke-width="4.76691" stroke-miterlimit="10"/>
<path d="M500.219 149.279C498.188 148.124 495.836 147.675 493.505 147.568C490.085 147.397 486.236 148.145 484.226 150.905C483.393 152.038 482.88 153.514 481.639 154.199C480.635 154.755 479.416 154.605 478.283 154.841C477.15 155.054 475.952 155.996 476.209 157.108C476.38 157.899 477.235 158.37 478.048 158.477C478.86 158.584 479.672 158.455 480.485 158.541C482.345 158.755 483.799 160.145 485.317 161.258C487.583 162.926 490.256 164.081 493.014 164.616C496.071 165.193 499.471 164.958 501.993 163.119C506.889 159.568 504.944 151.974 500.219 149.279Z" fill="white" stroke="#DF0006" stroke-width="4.76691" stroke-miterlimit="10"/>
<path d="M479.609 164.595C480.614 167.226 481.661 169.857 483.222 172.21C484.783 174.541 486.9 176.595 489.529 177.6C492.416 178.691 495.623 178.434 498.701 178.156" stroke="#DF0006" stroke-width="4.76691" stroke-miterlimit="10"/>
<path d="M478.776 202.52C479.802 202.434 480.871 202.434 481.769 202.926C482.667 203.418 483.287 204.552 482.881 205.472C482.475 206.413 481.32 206.734 480.294 206.926C478.455 207.29 470.544 210.007 470.673 206.991C470.78 203.932 476.552 202.691 478.776 202.52Z" stroke="#DF0006" stroke-width="4.76691" stroke-miterlimit="10"/>
<path d="M480.849 193.344C484.078 194.05 486.836 196.189 488.995 198.67C490.256 200.125 491.39 201.772 491.796 203.654C492.245 205.707 491.774 207.953 490.534 209.665C489.294 211.376 487.285 212.488 485.189 212.681" stroke="#DF0006" stroke-width="4.76691" stroke-miterlimit="10"/>
<path d="M462.612 235.675C473.944 235.504 484.42 239.269 495.752 239.675" stroke="#DF0006" stroke-width="4.76691" stroke-miterlimit="10"/>
<path d="M162.776 151.119C164.807 149.964 167.159 149.515 169.489 149.408C172.91 149.237 176.759 149.985 178.768 152.745C179.602 153.878 180.115 155.354 181.355 156.039C182.36 156.595 183.579 156.445 184.712 156.68C185.845 156.916 187.042 157.836 186.786 158.948C186.615 159.739 185.76 160.21 184.947 160.317C184.135 160.424 183.322 160.295 182.51 160.381C180.65 160.595 179.196 161.985 177.678 163.098C175.412 164.766 172.739 165.921 169.981 166.456C166.924 167.033 163.524 166.798 161.001 164.959C156.105 161.429 158.051 153.835 162.776 151.119Z" fill="white" stroke="#DF0006" stroke-width="4.76691" stroke-miterlimit="10"/>
<path d="M183.408 166.456C182.403 169.087 181.355 171.718 179.794 174.071C178.234 176.402 176.117 178.456 173.487 179.461C170.601 180.552 167.394 180.295 164.315 180.017" stroke="#DF0006" stroke-width="4.76691" stroke-miterlimit="10"/>
<path d="M184.242 204.381C183.216 204.296 182.147 204.296 181.249 204.788C180.351 205.28 179.731 206.413 180.137 207.333C180.544 208.274 181.698 208.595 182.724 208.788C184.563 209.151 192.474 211.868 192.345 208.852C192.217 205.793 186.445 204.552 184.242 204.381Z" stroke="#DF0006" stroke-width="4.76691" stroke-miterlimit="10"/>
<path d="M182.168 195.205C178.94 195.911 176.182 198.05 174.022 200.531C172.761 201.986 171.628 203.633 171.222 205.515C170.773 207.569 171.243 209.815 172.483 211.526C173.723 213.237 175.733 214.349 177.828 214.542" stroke="#DF0006" stroke-width="4.76691" stroke-miterlimit="10"/>
<path d="M199.699 236.467C188.367 236.296 178.597 245.408 167.265 245.815" stroke="#DF0006" stroke-width="4.76691" stroke-miterlimit="10"/>
<path d="M478.967 146.884C478.818 141.151 483.329 135.782 488.909 134.456C494.489 133.13 500.647 135.611 504.175 140.125C505.137 141.365 505.928 142.734 506.698 144.103" stroke="#DF0006" stroke-width="4.76691" stroke-miterlimit="10"/>
<path d="M181.056 146.477C180.992 143.697 179.068 141.172 176.609 139.825C174.172 138.477 171.264 138.178 168.485 138.328C167.009 138.413 165.534 138.627 164.145 139.14C160.574 140.445 157.88 143.868 157.431 147.632" stroke="#DF0006" stroke-width="4.76691" stroke-miterlimit="10"/>
<path d="M429.601 214.584C425.432 232.253 405.441 241.279 386.477 239.675C361.527 237.557 342.819 215.033 318.488 209.087C303.116 205.322 286.375 208.723 272.927 217.108C268.202 220.06 263.798 223.632 258.602 225.643C246.501 230.328 218.835 221.493 225.356 213.087C227.473 208.766 235.704 212.231 240.964 212.488C254.54 213.108 267.347 206.884 279.662 201.151C291.977 195.418 305.297 189.878 318.723 191.953C326.912 193.215 334.374 197.215 341.664 201.172C348.698 204.98 355.626 209.258 362.767 212.809C369.01 215.91 376.899 216.616 383.762 217.279C391.865 218.049 399.327 219.098 407.43 218.178C411.471 217.707 416.367 216.402 420.215 215.033C423.444 213.878 429.601 213.023 429.601 214.584Z" fill="#DF0006" stroke="#DF0006" stroke-width="4.76691" stroke-miterlimit="10"/>
<path d="M366.508 221.429C366.55 220.958 367.384 219.268 368.346 219.332C371.575 219.504 372.515 221.643 372.515 222.391C372.473 225.707 372.43 229.022 372.387 232.338C372.387 232.851 372.216 233.493 371.617 233.579C371.339 233.6 371.062 233.493 370.826 233.365C369.757 232.851 367.427 232.188 366.679 231.397C366.016 230.691 366.272 229.258 366.272 228.338C366.208 225.814 366.123 223.889 366.508 221.429Z" fill="white" stroke="#FF7EAF" stroke-width="4.76691" stroke-miterlimit="10"/>
<path d="M378.053 223.761C378.139 222.67 378.588 221.279 379.443 220.296C379.892 219.782 380.94 219.376 381.666 219.333C383.099 219.269 384.189 219.44 385.322 220.167C386.669 221.023 387.439 222.413 387.567 223.825C387.931 227.782 388.187 230.05 387.909 234.028C387.888 234.413 388.016 236.467 386.52 236.852C386.092 236.959 385.707 237.173 385.258 237.215C383.655 237.322 382.778 237.322 381.239 236.916C377.968 236.06 377.797 233.879 377.797 231.44C377.797 228.531 377.839 226.67 378.053 223.761Z" fill="white" stroke="#FF7EAF" stroke-width="4.76691" stroke-miterlimit="10"/>
<path d="M393.896 233.279C394.003 232.531 394.088 231.782 393.896 231.055C393.725 230.413 393.34 229.835 393.126 229.194C392.891 228.509 392.869 227.761 392.869 227.012C392.869 226.028 392.934 225.044 393.211 224.124C393.489 223.183 394.045 222.306 394.836 221.771C395.97 221.001 397.573 221.022 398.663 221.835C399.177 222.22 399.583 222.755 399.968 223.29C400.716 224.359 401.4 225.536 401.635 226.841C401.742 227.44 401.742 228.06 401.742 228.659C401.742 229.985 401.742 231.311 401.742 232.638C401.742 233.814 401.678 235.119 400.844 235.91C400.074 236.638 398.92 236.659 397.894 236.659C396.974 236.659 395.649 237.13 394.729 237.13C394.174 237.13 393.746 236.573 393.554 235.932C393.361 235.269 393.81 233.964 393.896 233.279Z" fill="white" stroke="#FF7EAF" stroke-width="4.76691" stroke-miterlimit="10"/>
<path d="M406.596 223.247C406.617 222.755 406.681 222.242 407.109 221.878C407.558 221.493 408.285 221.365 408.969 221.28C410.145 221.151 411.406 221.151 412.432 221.579C414.207 222.306 414.741 223.953 415.105 225.429C415.362 226.477 415.618 227.525 415.875 228.574C416.024 229.215 416.195 229.9 415.875 230.499C415.554 231.162 414.763 231.611 413.95 231.953C412.603 232.531 410.957 232.98 409.396 233.023C407.323 233.087 407.921 232.338 407.878 231.055C407.793 228.424 406.51 225.9 406.596 223.247Z" fill="white" stroke="#FF7EAF" stroke-width="4.76691" stroke-miterlimit="10"/>
<path d="M419.039 221.301C419.039 221.066 419.06 220.809 419.167 220.595C419.445 220.018 420.172 219.953 420.749 219.975C421.198 219.975 421.647 219.996 422.032 220.21C422.331 220.381 422.588 220.659 422.78 220.959C423.4 221.814 423.849 222.798 424.127 223.825C424.234 224.231 424.32 224.638 424.234 225.044C424.063 225.964 423.186 226.52 422.417 226.948C420.792 227.825 420.172 228.509 419.637 226.392C419.21 224.745 418.975 223.055 419.039 221.301Z" fill="white" stroke="#FF7EAF" stroke-width="4.76691" stroke-miterlimit="10"/>
<path d="M232.262 216.852C232.86 218.114 233.951 219.269 235.447 219.632C236.046 219.782 236.687 219.803 237.329 219.782C237.607 219.782 237.863 219.761 238.12 219.675C238.911 219.397 239.253 218.563 239.317 217.793C239.424 216.424 238.911 215.033 237.906 213.985C237.756 213.814 237.564 213.664 237.372 213.536C237.179 213.429 236.965 213.365 236.752 213.301C235.533 212.916 233.224 211.932 232.112 212.894C230.979 213.793 231.77 215.825 232.262 216.852Z" fill="white" stroke="#FF7EAF" stroke-width="4.76691" stroke-miterlimit="10"/>
<path d="M245.304 217.835C245.346 218.113 245.411 218.413 245.517 218.691C245.859 219.504 246.651 220.124 247.527 220.509C248.404 220.894 249.387 221.044 250.328 221.13C250.627 221.151 250.948 221.194 251.205 221.087C251.803 220.873 251.931 220.188 251.953 219.611C252.017 218.028 251.803 216.402 251.354 214.841C251.247 214.456 251.119 214.071 250.862 213.728C250.093 212.659 248.489 212.402 247.1 212.231C245.389 212.039 245.325 212.552 245.175 213.9C245.068 215.204 245.09 216.531 245.304 217.835Z" fill="white" stroke="#FF7EAF" stroke-width="4.76691" stroke-miterlimit="10"/>
<path d="M263.156 209.579C262.365 209.023 261.488 208.573 260.526 208.509C259.564 208.467 258.559 208.873 258.067 209.729C257.832 210.156 257.747 210.627 257.682 211.119C257.426 213.044 257.554 215.205 258.923 216.574C260.141 217.793 262.236 218.007 263.669 217.044C263.99 216.83 264.289 216.552 264.503 216.21C264.888 215.568 264.952 214.798 264.952 214.049C264.973 212.082 264.823 210.777 263.156 209.579Z" fill="white" stroke="#FF7EAF" stroke-width="4.76691" stroke-miterlimit="10"/>
<path d="M269.272 208.83C269.122 207.632 269.079 206.306 269.614 205.279C270.212 204.124 271.431 203.675 272.436 204.06C273.462 204.466 274.253 205.6 274.574 206.926C274.895 208.231 274.788 209.686 274.403 210.969C274.253 211.482 274.039 212.017 273.633 212.252C273.398 212.402 273.12 212.402 272.842 212.402C270.341 212.381 269.721 212.295 269.272 208.83Z" fill="white" stroke="#FF7EAF" stroke-width="4.76691" stroke-miterlimit="10"/>
<path d="M317.889 193.129C316.5 193.878 315.944 195.611 315.516 197.151C314.918 199.29 314.255 200.103 314.233 202.52C314.362 203.974 315.751 204.916 316.607 205.151C317.718 205.45 318.616 205.6 319.792 205.579C320.027 205.579 322.144 205.023 322.999 202.883C323.363 201.942 323.705 201.001 323.919 199.996C324.325 198.156 324.795 195.846 323.32 194.413C322.059 193.172 319.578 192.231 317.889 193.129Z" fill="white" stroke="#FF7EAF" stroke-width="4.76691" stroke-miterlimit="10"/>
<path d="M301.832 193.643C300.891 194.649 300.913 196.21 300.998 197.622C301.105 199.547 300.784 200.403 301.426 202.392C301.939 203.547 303.35 203.932 304.12 203.889C305.125 203.825 305.894 203.697 306.878 203.355C307.07 203.29 308.674 202.242 308.781 200.253C308.823 199.376 308.845 198.499 308.738 197.622C308.567 195.996 308.31 193.964 306.707 193.194C305.296 192.531 302.965 192.424 301.832 193.643Z" fill="white" stroke="#FF7EAF" stroke-width="4.76691" stroke-miterlimit="10"/>
<path d="M330.567 199.076C330.203 199.461 329.968 199.953 329.733 200.445C329.327 201.343 328.963 202.284 328.835 203.29C328.728 204.295 328.878 205.407 329.412 206.199C329.925 206.969 330.716 207.354 331.486 207.696C332.341 208.103 333.197 208.509 334.052 208.915C334.608 209.172 335.27 209.45 335.805 209.108C336.126 208.916 336.339 208.552 336.511 208.188C337.537 205.985 338.093 201.236 336.425 199.204C335.185 197.707 331.85 197.707 330.567 199.076Z" fill="white" stroke="#FF7EAF" stroke-width="4.76691" stroke-miterlimit="10"/>
<path d="M448.564 34.6051C449.227 30.4768 450.595 25.7066 454.101 24.4018C456.56 23.482 459.34 24.7227 461.178 26.7976C463.017 28.8724 464.065 31.6746 464.92 34.4768C468.448 45.8779 469.452 58.263 467.828 70.1989C467.699 71.1614 467.186 72.402 466.374 72.1239C466.053 72.017 465.839 71.6748 465.625 71.3753C461.371 64.6801 456.026 61.5143 450.317 56.9153C446.832 54.1346 446.789 54.6052 447.025 49.0437C447.217 44.188 447.794 39.3538 448.564 34.6051Z" fill="#DF0006"/>
<path d="M214.837 32.4661C214.174 28.3377 212.806 23.5676 209.3 22.2628C206.841 21.343 204.061 22.5836 202.223 24.6585C200.384 26.7334 199.336 29.5356 198.481 32.3377C194.954 43.7388 193.949 56.1239 195.574 68.0598C195.702 69.0224 196.215 70.2629 197.027 69.9849C197.348 69.8779 197.562 69.5357 197.776 69.2362C202.03 62.541 207.375 59.3752 213.084 54.7763C216.569 51.9955 216.612 52.4661 216.376 46.9046C216.205 42.049 215.607 37.2147 214.837 32.4661Z" fill="#DF0006"/>
<circle cx="431.5" cy="154.5" r="3.5" fill="#DF0006"/>
<ellipse cx="493" cy="156.5" rx="3" ry="2.5" fill="#DF0006"/>
<circle cx="551.5" cy="127.5" r="2.5" fill="#DF0006"/>
<circle cx="111.5" cy="132.5" r="2.5" fill="#DF0006"/>
<path d="M171 157.5C171 158.881 169.433 160 167.5 160C165.567 160 164 158.881 164 157.5C164 156.119 165.567 155 167.5 155C169.433 155 171 156.119 171 157.5Z" fill="#DF0006"/>
<path d="M228 138.5C228 140.433 226.433 142 224.5 142C222.567 142 221 140.433 221 138.5C221 136.567 222.567 135 224.5 135C226.433 135 228 136.567 228 138.5Z" fill="#DF0006"/>
</svg>
