<svg width="374" height="279" viewBox="0 0 374 279" fill="none" xmlns="http://www.w3.org/2000/svg">
<path d="M362.699 13.0489C365.757 15.1024 368.686 17.541 370.311 20.8565C371.829 23.9367 372.043 27.4874 372.171 30.9099C373.026 53.3912 369.712 75.8084 369.306 98.3112C368.429 147.595 368.258 193.285 367.745 241.37C367.724 243.959 367.98 246.804 366.355 248.836C365.436 249.991 363.982 250.504 362.806 251.381C354.789 257.392 351.346 259.959 344.163 263.745C336.402 267.831 324.792 270.996 316.283 268.836C318.549 259.146 317.416 248.13 318.87 237.713C319.832 230.761 319.618 223.702 319.405 216.707C318.1 173.541 318.442 137.434 318.036 94.2471C317.993 89.3487 319.789 76.7924 320.687 71.9796C321.821 65.9475 323.659 59.2309 324.814 53.1988C326.781 42.9956 324.023 33.9474 322.12 23.7441C320.089 12.7494 314.594 8.10777 316.347 5.3484C318.058 2.65321 329.453 3.29485 332.297 3.4018C342.666 3.70127 354.254 6.71734 362.699 13.0489Z" fill="white"/>
<path d="M11.21 15.4229C7.91747 17.455 4.73181 19.8721 2.97863 23.1449C1.33236 26.2037 1.09719 29.6904 0.947525 33.0915C0.0281778 55.3375 3.59866 77.5194 4.04764 99.7655C5.00975 148.536 5.18079 193.734 5.73668 241.285C5.75806 243.852 5.48013 246.675 7.2333 248.686C8.21679 249.819 9.79891 250.333 11.0817 251.21C19.7621 257.156 23.4822 259.702 31.2646 263.424C39.6884 267.467 52.2385 270.611 61.4534 268.472C58.9947 258.889 60.2133 247.98 58.6526 237.67C57.605 230.803 57.8401 223.809 58.0753 216.878C59.4864 174.183 59.1229 138.439 59.5506 95.7228C59.5933 90.8671 57.6691 78.4606 56.6856 73.6905C55.4456 67.7226 53.4786 61.0701 52.2172 55.1022C50.0792 45.0059 53.0724 36.0648 55.1249 25.9471C57.327 15.0594 63.2707 10.4818 61.3892 7.74385C59.5506 5.07004 47.1928 5.71171 44.1355 5.81866C32.8895 6.16091 20.3393 9.15555 11.21 15.4229Z" fill="white"/>
<path d="M318.67 228.686C318.67 236.772 319.397 246.462 319.397 254.547C319.397 256.173 318.863 260.9 318.029 262.676C315.314 268.451 311.978 270.205 306.762 268.579C306.142 268.387 304.346 267.766 303.854 267.339C303.448 266.996 302.101 266.248 301.78 265.82C298.081 260.857 294.468 253.307 297.44 250.141C299.963 247.467 305.457 243.082 308.6 241.114C310.14 240.151 318.67 230.44 318.67 228.686Z" fill="#DF0006"/>
<path d="M10.1554 250.675C8.16706 259.253 6.15733 268.173 8.12431 276.772C8.20983 277.178 8.3381 277.606 8.63742 277.884C8.95813 278.162 9.40712 278.248 9.81334 278.269C13.6832 278.526 17.2964 275.959 19.3916 272.707C21.5938 269.285 24.0098 263.937 21.7007 260.643C20.3751 258.761 9.53539 253.371 10.1554 250.675Z" fill="#DF0006"/>
<path d="M366.691 245.82C368.679 254.398 370.689 263.317 368.722 271.916C368.636 272.323 368.508 272.751 368.209 273.029C367.888 273.307 367.439 273.392 367.033 273.414C363.163 273.67 359.55 271.103 357.455 267.852C355.252 264.43 352.836 259.082 355.146 255.788C356.471 253.884 367.311 248.494 366.691 245.82Z" fill="#DF0006"/>
<path d="M293.677 250.526C296.029 259.039 298.573 268.109 307.21 269.948C308.771 270.291 312.106 270.077 313.689 269.906C315.869 269.67 317.002 266.355 317.302 265.2C320.338 253.521 319.504 241.97 319.44 229.906C319.226 194.59 315.378 161.264 317.045 125.948C317.965 106.718 316.917 87.2099 321.471 68.4932C326.025 49.7766 325.426 28.9637 318.328 11.4449C313.518 -0.405371 305.692 11.4236 304.623 20.0439C304.623 20.0439 303.362 32.921 303.362 38.7606" stroke="#DF0006" stroke-width="4.76691" stroke-miterlimit="10"/>
<path d="M9.19312 251.21C16.3341 258.44 25.4848 263.638 35.3411 266.077C44.2352 268.28 54.797 268.087 63.9477 268.023" stroke="#DF0006" stroke-width="4.76691" stroke-miterlimit="10"/>
<path d="M310.697 269.862C332.611 271.403 355.039 261.841 369.107 244.964" stroke="#DF0006" stroke-width="4.76691" stroke-miterlimit="10"/>
<path d="M312.365 6.18271C322.2 1.4982 347.129 0.578479 361.261 10.9315C365.281 13.8833 369.985 19.017 371.631 23.7229" stroke="#DF0006" stroke-width="4.76691" stroke-miterlimit="10"/>
<path d="M83.2115 248.557C80.8597 257.071 78.3155 266.14 69.6779 267.98C68.1171 268.322 64.7818 268.108 63.1997 267.937C61.0189 267.702 59.8858 264.387 59.5865 263.231C56.5505 251.552 57.3843 240.001 57.4484 227.937C57.6622 192.622 61.5107 159.295 59.843 123.98C58.9237 104.75 59.9713 85.2415 55.4173 66.5248C50.8634 47.8082 51.462 26.9953 58.5602 9.47655C63.3707 -2.37376 71.1959 9.45507 72.2649 18.0754C72.2649 18.0754 73.5263 30.9525 73.5263 36.7921" stroke="#DF0006" stroke-width="4.76691" stroke-miterlimit="10"/>
<path d="M357.219 132.279C355.188 131.124 352.836 130.675 350.505 130.568C347.085 130.397 343.236 131.145 341.226 133.905C340.393 135.038 339.88 136.514 338.639 137.199C337.635 137.755 336.416 137.605 335.283 137.84C334.15 138.054 332.952 138.996 333.209 140.108C333.38 140.899 334.235 141.37 335.048 141.477C335.86 141.584 336.672 141.455 337.485 141.541C339.345 141.755 340.799 143.145 342.317 144.258C344.583 145.926 347.256 147.081 350.014 147.616C353.071 148.193 356.471 147.958 358.993 146.119C363.889 142.568 361.944 134.974 357.219 132.279Z" fill="white" stroke="#DF0006" stroke-width="4.76691" stroke-miterlimit="10"/>
<path d="M336.609 147.595C337.614 150.226 338.661 152.857 340.222 155.21C341.783 157.541 343.9 159.595 346.529 160.6C349.416 161.691 352.623 161.434 355.701 161.156" stroke="#DF0006" stroke-width="4.76691" stroke-miterlimit="10"/>
<path d="M335.776 185.52C336.802 185.434 337.871 185.434 338.769 185.926C339.667 186.418 340.287 187.552 339.881 188.472C339.475 189.413 338.32 189.734 337.294 189.926C335.455 190.29 327.544 193.007 327.673 189.99C327.78 186.932 333.552 185.691 335.776 185.52Z" stroke="#DF0006" stroke-width="4.76691" stroke-miterlimit="10"/>
<path d="M337.849 176.344C341.078 177.05 343.836 179.189 345.995 181.67C347.256 183.125 348.39 184.772 348.796 186.654C349.245 188.707 348.774 190.953 347.534 192.665C346.294 194.376 344.285 195.488 342.189 195.681" stroke="#DF0006" stroke-width="4.76691" stroke-miterlimit="10"/>
<path d="M319.613 218.675C330.944 218.504 341.42 222.269 352.752 222.675" stroke="#DF0006" stroke-width="4.76691" stroke-miterlimit="10"/>
<path d="M19.776 134.119C21.8071 132.964 24.1589 132.515 26.4894 132.408C29.9102 132.237 33.7586 132.985 35.7684 135.745C36.6022 136.878 37.1153 138.354 38.3553 139.039C39.3602 139.595 40.5789 139.445 41.712 139.68C42.8452 139.916 44.0425 140.836 43.7859 141.948C43.6149 142.739 42.7597 143.21 41.9472 143.317C41.1348 143.424 40.3223 143.295 39.5099 143.381C37.6498 143.595 36.1959 144.985 34.678 146.098C32.4117 147.766 29.7391 148.921 26.9811 149.456C23.9237 150.033 20.5243 149.798 18.0014 147.959C13.1054 144.429 15.051 136.835 19.776 134.119Z" fill="white" stroke="#DF0006" stroke-width="4.76691" stroke-miterlimit="10"/>
<path d="M40.4077 149.456C39.4028 152.087 38.3552 154.718 36.7944 157.071C35.2337 159.402 33.117 161.456 30.4873 162.461C27.601 163.552 24.3939 163.295 21.3152 163.017" stroke="#DF0006" stroke-width="4.76691" stroke-miterlimit="10"/>
<path d="M41.2424 187.381C40.2161 187.296 39.1471 187.296 38.2492 187.788C37.3512 188.28 36.7312 189.413 37.1374 190.333C37.5436 191.274 38.6982 191.595 39.7244 191.788C41.5631 192.151 49.4738 194.868 49.3455 191.852C49.2172 188.793 43.4445 187.552 41.2424 187.381Z" stroke="#DF0006" stroke-width="4.76691" stroke-miterlimit="10"/>
<path d="M39.1683 178.205C35.9399 178.911 33.1818 181.05 31.0224 183.531C29.761 184.986 28.6279 186.633 28.2216 188.515C27.7726 190.569 28.243 192.815 29.4831 194.526C30.7231 196.237 32.7328 197.349 34.8281 197.542" stroke="#DF0006" stroke-width="4.76691" stroke-miterlimit="10"/>
<path d="M56.6988 219.467C45.3674 219.296 35.5966 228.408 24.2651 228.815" stroke="#DF0006" stroke-width="4.76691" stroke-miterlimit="10"/>
<path d="M335.967 129.884C335.818 124.151 340.329 118.782 345.909 117.456C351.489 116.13 357.647 118.611 361.175 123.125C362.137 124.365 362.928 125.734 363.698 127.103" stroke="#DF0006" stroke-width="4.76691" stroke-miterlimit="10"/>
<path d="M38.0562 129.477C37.9921 126.696 36.0679 124.172 33.6092 122.825C31.1718 121.477 28.2641 121.178 25.4847 121.327C24.0095 121.413 22.5342 121.627 21.1445 122.14C17.574 123.445 14.8801 126.868 14.4312 130.632" stroke="#DF0006" stroke-width="4.76691" stroke-miterlimit="10"/>
<path d="M305.564 17.6051C306.227 13.4767 307.595 8.70658 311.102 7.40177C313.56 6.48198 316.34 7.72261 318.178 9.79748C320.017 11.8724 321.065 14.6746 321.92 17.4767C325.448 28.8778 326.453 41.2629 324.828 53.1988C324.699 54.1614 324.186 55.4019 323.374 55.1238C323.053 55.0169 322.839 54.6747 322.626 54.3752C318.371 47.68 313.026 44.5142 307.317 39.9153C303.832 37.1345 303.79 37.6051 304.025 32.0436C304.217 27.188 304.795 22.3537 305.564 17.6051Z" fill="#DF0006"/>
<path d="M71.8373 15.466C71.1745 11.3376 69.8062 6.56752 66.2999 5.26271C63.8412 4.34292 61.0617 5.58355 59.223 7.65843C57.3843 9.7333 56.3367 12.5355 55.4815 15.3377C51.9538 26.7388 50.9489 39.1239 52.5738 51.0597C52.7021 52.0223 53.2152 53.2629 54.0276 52.9848C54.3483 52.8778 54.5622 52.5356 54.776 52.2362C59.0306 45.541 64.3757 42.3752 70.0842 37.7762C73.5691 34.9955 73.6119 35.4661 73.3767 29.9045C73.2057 25.0489 72.607 20.2147 71.8373 15.466Z" fill="#DF0006"/>
<ellipse cx="350" cy="139.5" rx="3" ry="2.5" fill="#DF0006"/>
<path d="M28 140.5C28 141.881 26.433 143 24.5 143C22.567 143 21 141.881 21 140.5C21 139.119 22.567 138 24.5 138C26.433 138 28 139.119 28 140.5Z" fill="#DF0006"/>
<path d="M57.5554 232.386C57.5554 240.472 57.8761 245.67 57.8761 253.755C57.8761 255.381 58.9665 260.28 59.2444 261.884C60.3562 268.173 65.295 269.413 70.5118 267.788C71.1318 267.595 72.9278 266.975 73.4195 266.547C73.8257 266.205 75.1727 265.456 75.4934 265.028C79.1921 260.066 84.6441 253.007 79.9191 246.932C77.6528 244.044 71.816 242.29 68.6731 240.322C67.1551 239.338 57.5554 234.14 57.5554 232.386Z" fill="#DF0006"/>
<path d="M6.39258 21.1561C6.39258 21.1561 29.6756 1.60523 63.9266 4.59989" stroke="#DF0006" stroke-width="4.76691" stroke-miterlimit="10"/>
</svg>
