<svg width="247" height="247" viewBox="0 0 247 247" fill="none" xmlns="http://www.w3.org/2000/svg">
<path d="M123.721 244C190.393 244 244.441 190.05 244.441 123.5C244.441 56.9497 190.393 3 123.721 3C57.0484 3 3 56.9497 3 123.5C3 190.05 57.0484 244 123.721 244Z" fill="white" stroke="#DF0006" stroke-width="4.29264" stroke-miterlimit="10"/>
<path d="M61.078 153.36H186.252C186.961 153.36 187.427 154.067 187.161 154.709C183.881 162.384 165.468 200.206 121.638 200.295C77.7191 200.383 62.6956 162.141 60.1695 154.62C59.9257 154.001 60.4132 153.36 61.078 153.36Z" fill="#FF7EAF" stroke="#DF0006" stroke-width="4.29264" stroke-miterlimit="10"/>
<path d="M147.386 111.224C147.386 111.224 142.644 75.4814 160.016 74.3755C177.389 73.2474 173.976 111.224 173.976 111.224C173.976 111.224 161.589 102.952 147.386 111.224Z" fill="white" stroke="#DF0006" stroke-width="4.29264" stroke-miterlimit="10"/>
<path d="M71.6031 109.388C71.6031 109.388 66.8611 73.6453 84.2335 72.5394C101.606 71.4114 98.1935 109.388 98.1935 109.388C98.1935 109.388 85.8068 101.116 71.6031 109.388Z" fill="white" stroke="#DF0006" stroke-width="4.29264" stroke-miterlimit="10"/>
<path d="M65.7976 115.029C65.7976 115.029 72.5782 105.364 84.7211 105.74C96.8641 106.093 103.977 115.029 103.977 115.029" fill="white"/>
<path d="M65.7976 115.029C65.7976 115.029 72.5782 105.364 84.7211 105.74C96.8641 106.093 103.977 115.029 103.977 115.029" stroke="#DF0006" stroke-width="4.29264" stroke-miterlimit="10"/>
<path d="M141.425 116.4C141.425 116.4 148.205 106.735 160.348 107.111C172.491 107.464 179.604 116.4 179.604 116.4" fill="white"/>
<path d="M141.425 116.4C141.425 116.4 148.205 106.735 160.348 107.111C172.491 107.464 179.604 116.4 179.604 116.4" stroke="#DF0006" stroke-width="4.29264" stroke-miterlimit="10"/>
<path d="M91.3023 100.829C94.0681 100.829 96.3102 97.1849 96.3102 92.6895C96.3102 88.1942 94.0681 84.55 91.3023 84.55C88.5366 84.55 86.2944 88.1942 86.2944 92.6895C86.2944 97.1849 88.5366 100.829 91.3023 100.829Z" fill="#DF0006" stroke="#DF0006" stroke-width="2.14632" stroke-miterlimit="10"/>
<path d="M167.661 103.195C170.427 103.195 172.669 99.5513 172.669 95.056C172.669 90.5607 170.427 86.9165 167.661 86.9165C164.895 86.9165 162.653 90.5607 162.653 95.056C162.653 99.5513 164.895 103.195 167.661 103.195Z" fill="#DF0006" stroke="#DF0006" stroke-width="2.14632" stroke-miterlimit="10"/>
<path d="M83.4358 187.024C83.4358 187.024 97.4844 157.496 115.455 169.418C115.455 169.418 119.399 171.762 124.474 168.887C144.372 157.629 159.529 188.174 159.529 188.174C159.529 188.174 122.657 216.176 83.4358 187.024Z" fill="#DF0006"/>
</svg>
