<svg width="205" height="383" viewBox="0 0 205 383" fill="none" xmlns="http://www.w3.org/2000/svg">
<path d="M3.46362 81.3356C7.46875 86.5022 12.8305 88.6335 19.0104 86.4807C25.1904 84.3279 30.0568 79.5272 34.105 74.382C38.1532 69.2369 41.5985 63.6181 46.1635 58.9465C50.1902 54.8132 54.9705 51.4979 59.8154 48.3763C69.699 42.0041 80.1855 36.2131 91.6841 33.7158C103.118 31.2401 115.241 32.1012 126.331 28.3123C129.281 27.3005 132.123 25.9658 135.138 25.1908C139.595 24.0283 144.268 24.0498 148.854 24.0929C154.69 24.1574 160.503 24.2005 166.339 24.2651C171.184 24.3081 176.072 24.3727 180.744 25.6214C185.417 26.8915 189.896 29.5179 192.372 33.6728C193.858 36.1485 197.152 36.945 199.801 35.804C203.289 34.2756 202.557 29.1519 201.136 25.5998C197.949 17.656 194.892 11.2192 187.204 7.49485C183.953 5.92332 178.72 4.17955 175.124 3.81358C162.937 2.56496 151.05 3.31844 138.884 4.80387C118.708 7.3011 79.8841 9.60459 63.2607 15.1588C50.707 19.3567 35.7631 26.138 24.9535 38.6457C19.7641 44.652 10.6556 58.6021 3.46362 81.3356Z" fill="#FF7EAF" stroke="#DF0006" stroke-width="4.77" stroke-miterlimit="10"/>
<path d="M23.2068 309.381C27.4273 310.716 30.8941 313.751 34.2747 316.679C62.2676 340.941 92.7798 362.77 126.91 376.333C122.452 378.507 117.435 379.11 112.525 379.411C97.9692 380.316 83.2838 378.938 69.1151 375.364C63.6026 373.965 58.1332 372.243 53.0515 369.616C49.8861 367.98 46.8931 366 43.9215 363.997C40.993 362.017 38.0861 360.015 35.3514 357.754C28.6977 352.265 23.2068 345.29 19.2017 337.54C17.1776 333.579 15.5196 329.402 14.3137 325.097C13.4093 321.846 11.3852 316.335 11.902 312.955C12.5911 308.326 19.8477 308.326 23.2068 309.381Z" fill="#FF7EAF" stroke="#DF0006" stroke-width="4.77" stroke-miterlimit="10"/>
<path d="M35.9784 90.7437C37.3134 91.9493 38.7131 93.2194 40.4357 93.7361C42.1584 94.2528 44.2901 93.8222 45.216 92.2507C45.7544 91.3465 45.7759 90.2271 45.7328 89.1722C45.4529 81.6374 42.0076 74.6409 38.6485 67.9026C37.1196 64.8457 35.4831 61.6595 32.6623 59.8081C28.9156 57.3324 23.5539 57.9567 20.2594 61.0352C16.4911 64.5443 15.0914 71.4332 18.9243 75.2221C24.3936 80.6041 30.3152 85.577 35.9784 90.7437Z" fill="white" stroke="#DF0006" stroke-width="4.77" stroke-miterlimit="10"/>
<path d="M41.2302 41.2514C40.4334 42.2202 39.6582 44.8897 39.4644 46.1383C38.9907 49.2814 39.4645 51.7571 40.3473 54.2543C42.5006 60.4328 47.1517 65.2335 51.7597 69.8405C53.5685 71.6488 55.3773 73.5433 57.7029 74.5982C60.0284 75.653 63 75.653 64.8518 73.8878C66.9836 71.8641 66.8544 68.4412 66.3591 65.5134C65.0241 57.5911 62.0095 49.9272 57.5952 43.2535C55.9156 40.7132 53.6332 37.6563 50.2094 37.7855C47.6039 37.85 43.6203 38.3452 41.2302 41.2514Z" fill="white" stroke="#DF0006" stroke-width="4.77" stroke-miterlimit="10"/>
<path d="M69.6116 49.2592C68.6641 47.3648 67.7813 45.1689 66.9199 43.2099C64.0345 36.5362 65.6495 30.8959 66.4893 29.1952C66.9415 28.291 67.5659 27.516 68.255 26.8271C69.8269 25.2771 70.8174 24.416 72.8415 23.8348C74.9302 23.232 77.1697 23.641 79.0645 24.7605C80.9594 25.8799 82.1437 28.0973 83.6726 29.7765C84.8784 31.0897 85.912 33.8237 87.0748 35.18C88.0653 36.364 88.8836 38.3446 89.5726 39.7654C90.9938 42.6717 91.4891 44.7168 90.5631 47.8814C90.0033 49.8189 89.4219 50.4648 88.9266 51.0676C85.3952 55.3947 86.7733 55.3516 81.8423 57.1384C79.8828 57.8488 73.5952 56.6218 72.6477 54.5766C71.528 52.1439 70.8174 51.6488 69.6116 49.2592Z" fill="white" stroke="#DF0006" stroke-width="4.77" stroke-miterlimit="10"/>
<path d="M121.249 19.7232C121.249 19.7232 106.456 11.1766 100.707 22.1989C100.707 22.1989 98.7257 25.7295 101.869 37.7636C105.099 50.1636 106.908 49.5393 106.908 49.5393C106.908 49.5393 120.259 41.6171 133.889 38.7108C133.889 38.6893 125.879 21.8329 121.249 19.7232Z" fill="white" stroke="#DF0006" stroke-width="4.77" stroke-miterlimit="10"/>
<path d="M145.493 36.1489C145.622 31.5634 145.02 26.9565 145.687 22.4141C146.355 17.8717 148.616 13.2217 152.728 11.3487C154.688 10.4661 156.863 10.2939 158.994 10.2723C160.846 10.2723 162.784 10.4015 164.442 11.2626C166.639 12.3821 168.081 14.5779 169.136 16.8168C171.548 21.9405 172.388 27.8391 171.527 33.4579C162.87 33.4148 153.891 34.1683 145.493 36.1489Z" fill="white" stroke="#DF0006" stroke-width="4.77" stroke-miterlimit="10"/>
<path d="M177.925 33.8022C177.925 33.8022 176.697 14.1687 184.751 15.891C192.804 17.6132 192.74 34.7494 192.74 34.7494L177.925 33.8022Z" fill="white" stroke="#DF0006" stroke-width="4.77" stroke-miterlimit="10"/>
<path d="M29.8373 328.325C29.6651 326.259 29.4928 324.171 29.8804 322.147C30.2465 320.123 31.237 318.121 32.9381 316.98C34.2301 316.119 35.8235 315.818 37.3739 315.624C38.9673 315.43 40.6684 315.301 42.1542 315.925C44.7597 317.023 46.0516 319.994 46.7837 322.75C47.4513 325.225 47.8604 327.766 48.0542 330.306C48.3342 334.009 48.0542 337.862 46.4608 341.199C44.5874 345.117 38.8596 350.026 34.876 346.323C30.634 342.362 30.2895 333.686 29.8373 328.325Z" fill="white" stroke="#DF0006" stroke-width="4.77" stroke-miterlimit="10"/>
<path d="M54.3232 353.363C53.0958 350.047 53.0312 346.409 53.0528 342.857C53.0958 338.013 53.3327 332.997 55.4645 328.648C56.0889 327.357 56.9287 326.108 58.113 325.333C60.4817 323.805 63.5609 324.472 66.274 325.204C70.4299 326.302 74.801 327.529 77.8157 330.629C80.7872 333.664 82.0146 338.164 81.7562 342.448C81.4978 346.732 79.9044 350.822 77.9234 354.59C76.9113 356.527 75.727 358.443 73.9613 359.713C67.566 364.406 56.9933 360.574 54.3232 353.363Z" fill="white" stroke="#DF0006" stroke-width="4.77" stroke-miterlimit="10"/>
<path d="M89.3778 367.076C87.0522 365.935 84.9851 363.976 84.296 361.435C83.607 358.809 84.4683 356.032 85.4373 353.492C86.7508 350.026 88.2581 346.646 89.9592 343.352C91.2081 340.941 92.6939 338.422 95.1486 337.324C97.3665 336.334 100.015 336.721 102.211 337.776C104.408 338.831 106.238 340.51 108.047 342.168C111.298 345.139 114.744 348.454 115.476 352.846C116.423 358.464 112.526 363.846 107.939 367.119C101.845 371.51 95.73 370.197 89.3778 367.076Z" fill="white" stroke="#DF0006" stroke-width="4.77" stroke-miterlimit="10"/>
</svg>
