<svg width="289" height="461" viewBox="0 0 289 461" fill="none" xmlns="http://www.w3.org/2000/svg">
<path d="M276.066 94.696C282.16 82.1237 286.855 68.432 286.381 54.4388C285.907 40.4457 279.512 26.0651 267.626 18.9393C257.807 13.0622 245.77 12.7608 234.357 13.0622C213.901 13.5789 193.122 15.4303 173.225 10.5865C165.258 8.64898 136.985 2.40588 122.407 2.40588C104.104 2.40588 84.8539 2.81491 69.0272 12.158C56.6027 19.499 47.5588 31.8345 41.8741 45.2464C36.1894 58.6583 33.584 73.2112 31.6891 87.6779C28.8683 109.206 27.4901 130.927 27.5978 152.649C27.6624 168.192 28.3514 184.403 21.9562 198.525C17.8003 207.718 10.8882 215.36 6.40936 224.38C1.93051 233.4 0.315528 245.198 6.60315 253.034C25.466 276.521 31.8183 307.607 34.3591 337.811C35.5865 352.493 35.2635 367.304 36.9 381.964C38.5365 396.625 42.3048 411.415 50.8103 423.363C59.6388 435.741 73.0323 444.202 87.2441 449.218C101.456 454.234 116.55 456.085 131.537 457.291C160.628 459.637 190.818 459.529 217.777 448.163C226.756 444.374 235.412 439.25 241.786 431.78C248.16 424.31 252.014 414.235 250.571 404.461C249.258 395.549 248.246 386.399 245.683 377.766C239.051 355.442 238.276 331.847 238.104 308.576C237.824 270.148 239.008 231.42 247.212 193.875C249.775 182.164 252.983 170.625 256.213 159.086C259.099 148.753 262.005 138.376 266.097 128.473C270.576 117.623 270.942 105.245 276.066 94.696Z" fill="white" stroke="#DF0006" stroke-width="4.77" stroke-miterlimit="10"/>
<path d="M244.284 74.2014C246.437 62.1243 238.492 49.961 227.209 45.6124C215.904 41.2637 203.35 42.8783 191.378 44.5575C174.991 46.861 158.605 49.1645 142.196 51.468C118.596 54.7833 93.5966 58.7013 75.4013 74.3521C59.9406 87.6564 51.6504 107.656 46.4395 127.548C41.5945 146.019 38.9245 165.049 38.4723 184.166C38.257 193.444 38.4723 203.175 34.3164 211.42C31.797 216.436 27.8135 220.548 24.9711 225.392C22.1288 230.236 17.3485 234.907 23.1409 241.43C33.1321 250.472 37.7401 261.042 41.0562 273.098C45.4489 288.985 49.0665 305.11 51.4782 321.428C54.7942 343.881 56.4738 368.337 71.2023 385.409C74.7553 389.521 78.9542 393.03 83.347 396.194C108.454 414.213 141.098 420.973 171.137 414.321C191.658 409.778 211.403 399.596 220.813 380.802C228.673 365.086 228.135 346.551 225.874 329.135C221.675 296.714 215.021 273.571 212.329 241C211.382 229.504 207.527 207.459 209.099 196.114C211.425 179.279 220.06 164.382 222.837 160.012C239.461 133.834 238.47 106.73 244.284 74.2014Z" fill="#DF0006" stroke="#DF0006" stroke-width="4.77" stroke-miterlimit="10"/>
</svg>
