<svg width="257" height="351" viewBox="0 0 257 351" fill="none" xmlns="http://www.w3.org/2000/svg">
<path d="M160.561 259.2C155.802 244.281 151.754 230.998 150.527 215.391C148.933 195.154 151.302 170.892 156.922 152.464C158.429 147.535 171.586 114.618 198.287 100.281C213.554 92.0787 233.235 86.3953 244.152 76.6862C254.402 67.5799 257.804 47.2576 251.107 33.5658C247.726 26.6554 244.475 19.788 232.869 13.1358C226.99 9.77749 217.472 5.66565 210.259 4.3955C200.548 2.69479 185.065 2.50105 180.436 2.73786C134.355 5.0844 106.729 21.1227 75.4412 56.0625C49.1925 85.362 31.0833 122.885 16.484 159.805C14.223 165.51 3.84412 176.296 3.32733 182.517C2.9182 187.512 9.50734 201.72 11.1869 210.956C12.565 218.534 21.2643 281.804 28.241 297.11C35.2176 312.417 45.7042 325.958 59.8944 334.978C69.4335 341.027 80.889 343.202 91.7201 346.431C97.857 348.261 106.858 348.347 113.275 348.089C118.292 347.895 123.158 346.495 127.96 345.01C135.561 342.642 142 338.207 148.136 333.148C159.118 324.106 171.004 291.879 160.561 259.2Z" fill="#FF7EAF" stroke="#DF0006" stroke-width="4.77" stroke-miterlimit="10"/>
<path d="M3.30786 182.538C10.7798 168.717 30.2455 147.447 38.7941 140.709C49.7113 132.12 62.1574 125.726 76.9075 121.679C88.3845 118.536 97.2131 116.813 104.19 116.189C129.642 113.929 150.529 115.952 175.744 119.676C185.046 121.054 194.348 122.841 202.918 126.242C224.667 134.875 240.127 151.086 241.527 171.623C241.721 174.314 240.213 179.05 239.158 181.591C237.5 185.53 231.6 191.472 227.595 193.84C217.841 199.588 206.816 202.903 195.576 203.98C185.52 204.948 167.044 202.107 159.508 210.546C156.041 214.442 154.211 219.631 153.888 224.862C153.263 234.894 153.888 241.869 154.641 250.781" fill="#FF7EAF"/>
<path d="M3.30786 182.538C10.7798 168.717 30.2455 147.447 38.7941 140.709C49.7113 132.12 62.1574 125.726 76.9075 121.679C88.3845 118.536 97.2131 116.813 104.19 116.189C129.642 113.929 150.529 115.952 175.744 119.676C185.046 121.054 194.348 122.841 202.918 126.242C224.667 134.875 240.127 151.086 241.527 171.623C241.721 174.314 240.213 179.05 239.158 181.591C237.5 185.53 231.6 191.472 227.595 193.84C217.841 199.588 206.816 202.903 195.576 203.98C185.52 204.948 167.044 202.107 159.508 210.546C156.041 214.442 154.211 219.631 153.888 224.862C153.263 234.894 153.888 241.869 154.641 250.781" stroke="#DF0006" stroke-width="4.77" stroke-miterlimit="10"/>
<path d="M16.9154 236.294C16.2048 223.915 42.0874 206.133 75.4634 220.987C77.6167 221.956 78.5857 222.085 80.0715 220.901C102.703 202.667 134.658 234.442 144.929 242.192C154.683 249.555 160.863 259.716 172.362 263.699C181.922 267.014 192.452 265.184 202.4 267.035C214.136 269.21 223.352 270.997 228.993 279.522C233.321 286.045 236.207 294.311 236.336 302.191C236.508 312.567 233.192 320.941 226.366 328.368C223.61 331.361 219.433 334.827 215.815 336.614C213.188 337.927 209.355 339.735 206.642 340.855C197.448 344.622 187.284 347.528 177.4 348.174C151.992 349.789 125.42 341.953 103.327 329.079C93.4004 323.288 84.9164 315.301 75.8511 308.197C66.7642 301.114 40.9677 296.163 29.6413 294.462C29.6413 294.462 18.9826 272.783 16.9154 236.294Z" fill="#FF7EAF" stroke="#DF0006" stroke-width="4.77" stroke-miterlimit="10"/>
<path d="M77.0159 221.634C77.0159 221.634 95.8357 227.339 113.256 254.27Z" fill="#FF7EAF" fill-opacity="0.66"/>
<path d="M77.0159 221.634C77.0159 221.634 95.8357 227.339 113.256 254.27" stroke="#DF0006" stroke-width="4.77" stroke-miterlimit="10"/>
<path d="M121.675 189.686C130.223 196.726 140.99 200.644 151.885 202.56C162.781 204.476 173.935 204.454 185.003 204.39" stroke="#DF0006" stroke-width="4.77" stroke-miterlimit="10"/>
<path d="M196.652 283.418C191.894 283.418 192.41 288.564 193.035 289.554C193.444 290.178 194.155 290.523 194.865 290.716C195.942 291.018 197.083 291.039 198.203 291.018C199.387 291.018 200.593 290.953 201.691 290.544C202.789 290.135 203.823 289.339 204.21 288.219C205.912 283.332 199.365 283.418 196.652 283.418Z" stroke="#DF0006" stroke-width="4.77" stroke-miterlimit="10"/>
<path d="M142.389 297.735C139.439 297.735 139.762 302.213 140.149 303.074C140.408 303.612 140.838 303.913 141.291 304.086C141.958 304.344 142.647 304.365 143.358 304.344C144.09 304.344 144.822 304.279 145.511 303.935C146.2 303.59 146.825 302.88 147.061 301.911C148.095 297.67 144.047 297.735 142.389 297.735Z" stroke="#DF0006" stroke-width="4.77" stroke-miterlimit="10"/>
<path d="M183.216 301.868C180.976 301.868 181.213 305.248 181.515 305.915C181.708 306.324 182.053 306.54 182.376 306.669C182.893 306.863 183.431 306.884 183.948 306.863C184.508 306.863 185.068 306.819 185.606 306.561C186.123 306.303 186.618 305.765 186.79 305.033C187.587 301.803 184.486 301.868 183.216 301.868Z" stroke="#DF0006" stroke-width="4.77" stroke-miterlimit="10"/>
<path d="M78.8465 240.406C78.1144 240.04 76.7363 240.535 76.198 241.159C75.509 241.956 76.1334 243.334 77.1024 243.743C78.0929 244.152 79.2126 243.937 80.2462 243.678C80.8706 243.183 81.5597 242.214 81.1506 241.525C80.7414 240.88 79.5787 240.083 78.8465 240.406Z" stroke="#DF0006" stroke-width="4.77" stroke-miterlimit="10"/>
<path d="M66.8077 231.644C65.4727 231.386 63.3409 231.687 62.6088 232.527C61.6613 233.625 62.5227 235.476 63.8577 236.036C65.1928 236.596 66.7216 236.294 68.1213 235.95C68.9611 235.282 69.1979 233.948 68.6381 233.022C68.0782 232.096 67.7336 231.709 66.3771 231.558" stroke="#DF0006" stroke-width="4.77" stroke-miterlimit="10"/>
<path d="M235.217 62.8223C236.53 63.1452 238.684 62.9514 239.459 62.1334C240.449 61.0785 239.674 59.1841 238.382 58.5597C237.069 57.9354 235.54 58.1722 234.119 58.4306C233.236 59.0549 232.956 60.3681 233.473 61.3153C233.989 62.2625 234.312 62.6501 235.647 62.8869" stroke="#DF0006" stroke-width="4.77" stroke-miterlimit="10"/>
<path d="M219.518 60.2607C220.375 60.2607 221.069 59.5667 221.069 58.7107C221.069 57.8546 220.375 57.1606 219.518 57.1606C218.662 57.1606 217.968 57.8546 217.968 58.7107C217.968 59.5667 218.662 60.2607 219.518 60.2607Z" stroke="#DF0006" stroke-width="4.77" stroke-miterlimit="10"/>
<path d="M215.083 74.5549C217.533 74.5549 219.519 73.2441 219.519 71.6271C219.519 70.0102 217.533 68.6993 215.083 68.6993C212.633 68.6993 210.647 70.0102 210.647 71.6271C210.647 73.2441 212.633 74.5549 215.083 74.5549Z" stroke="#DF0006" stroke-width="4.77" stroke-miterlimit="10"/>
</svg>
