<svg width="289" height="461" viewBox="0 0 289 461" fill="none" xmlns="http://www.w3.org/2000/svg">
<path d="M276.066 94.696C282.16 82.1237 286.855 68.432 286.381 54.4388C285.907 40.4457 279.512 26.0651 267.626 18.9393C257.807 13.0622 245.77 12.7608 234.357 13.0622C213.901 13.5789 193.122 15.4303 173.225 10.5865C165.258 8.64898 136.985 2.40588 122.407 2.40588C104.104 2.40588 84.8539 2.81491 69.0272 12.158C56.6027 19.499 47.5588 31.8345 41.8741 45.2464C36.1894 58.6583 33.584 73.2112 31.6891 87.6779C28.8683 109.206 27.4901 130.927 27.5978 152.649C27.6624 168.192 28.3514 184.403 21.9562 198.525C17.8003 207.718 10.8882 215.36 6.40936 224.38C1.93051 233.4 0.315528 245.198 6.60315 253.034C25.466 276.521 31.8183 307.607 34.3591 337.811C35.5865 352.493 35.2635 367.304 36.9 381.964C38.5365 396.625 42.3048 411.415 50.8103 423.363C59.6388 435.741 73.0323 444.202 87.2441 449.218C101.456 454.234 116.55 456.085 131.537 457.291C160.628 459.637 190.818 459.529 217.777 448.163C226.756 444.374 235.412 439.25 241.786 431.78C248.16 424.31 252.014 414.235 250.571 404.461C249.258 395.549 248.246 386.399 245.683 377.766C239.051 355.442 238.276 331.847 238.104 308.576C237.824 270.148 239.008 231.42 247.212 193.875C249.775 182.164 252.983 170.625 256.213 159.086C259.099 148.753 262.005 138.376 266.097 128.473C270.576 117.623 270.942 105.245 276.066 94.696Z" fill="white" stroke="#DF0006" stroke-width="4.77" stroke-miterlimit="10"/>
<path d="M244.284 74.2014C246.437 62.1243 238.492 49.961 227.209 45.6124C215.904 41.2637 203.35 42.8783 191.378 44.5575C174.991 46.861 158.605 49.1645 142.196 51.468C118.596 54.7833 93.5966 58.7013 75.4013 74.3521C59.9406 87.6564 51.6504 107.656 46.4395 127.548C41.5945 146.019 38.9245 165.049 38.4723 184.166C38.257 193.444 38.4723 203.175 34.3164 211.42C31.797 216.436 27.8135 220.548 24.9711 225.392C22.1288 230.236 17.3485 234.907 23.1409 241.43C33.1321 250.472 37.7401 261.042 41.0562 273.098C45.4489 288.985 49.0665 305.11 51.4782 321.428C54.7942 343.881 56.4738 368.337 71.2023 385.409C74.7553 389.521 78.9542 393.03 83.347 396.194C108.454 414.213 141.098 420.973 171.137 414.321C191.658 409.778 211.403 399.596 220.813 380.802C228.673 365.086 228.135 346.551 225.874 329.135C221.675 296.714 215.021 273.571 212.329 241C211.382 229.504 207.527 207.459 209.099 196.114C211.425 179.279 220.06 164.382 222.837 160.012C239.461 133.834 238.47 106.73 244.284 74.2014Z" fill="#DF0006" stroke="#DF0006" stroke-width="4.77" stroke-miterlimit="10"/>
<path d="M48.4636 120.336C52.4688 125.502 57.8305 127.634 64.0104 125.481C70.1904 123.328 75.0568 118.527 79.105 113.382C83.1532 108.237 86.5985 102.618 91.1635 97.9465C95.1902 93.8132 99.9705 90.4979 104.815 87.3763C114.699 81.0041 125.186 75.2131 136.684 72.7158C148.118 70.2401 160.241 71.1012 171.331 67.3123C174.281 66.3005 177.123 64.9658 180.138 64.1908C184.595 63.0283 189.268 63.0498 193.854 63.0929C199.69 63.1574 205.503 63.2005 211.339 63.2651C216.184 63.3081 221.072 63.3727 225.744 64.6214C230.417 65.8915 234.896 68.5179 237.372 72.6728C238.858 75.1485 242.152 75.945 244.801 74.804C248.289 73.2756 247.557 68.1519 246.136 64.5998C242.949 56.656 239.892 50.2192 232.204 46.4949C228.953 44.9233 223.72 43.1796 220.124 42.8136C207.937 41.565 196.05 42.3184 183.884 43.8039C163.708 46.3011 124.884 48.6046 108.261 54.1588C95.707 58.3567 80.7631 65.138 69.9535 77.6457C64.7641 83.652 55.6556 97.6021 48.4636 120.336Z" fill="#FF7EAF" stroke="#DF0006" stroke-width="4.77" stroke-miterlimit="10"/>
<path d="M192.561 329.2C187.802 314.281 183.754 300.998 182.527 285.391C180.933 265.154 183.302 240.892 188.922 222.464C190.429 217.535 203.586 184.618 230.287 170.281C245.554 162.079 265.235 156.395 276.152 146.686C286.402 137.58 289.804 117.258 283.107 103.566C279.726 96.6554 276.475 89.788 264.869 83.1358C258.99 79.7775 249.472 75.6656 242.259 74.3955C232.548 72.6948 217.065 72.5011 212.436 72.7379C166.355 75.0844 138.729 91.1227 107.441 126.062C81.1925 155.362 63.0833 192.885 48.484 229.805C46.223 235.51 35.8441 246.296 35.3273 252.517C34.9182 257.512 41.5073 271.72 43.1869 280.956C44.565 288.534 53.2643 351.804 60.241 367.11C67.2176 382.417 77.7042 395.958 91.8944 404.978C101.434 411.027 112.889 413.202 123.72 416.431C129.857 418.261 138.858 418.347 145.275 418.089C150.292 417.895 155.158 416.495 159.96 415.01C167.561 412.642 174 408.207 180.136 403.148C191.118 394.106 203.004 361.879 192.561 329.2Z" fill="#FF7EAF" stroke="#DF0006" stroke-width="4.77" stroke-miterlimit="10"/>
<path d="M35.3079 252.538C42.7798 238.717 62.2455 217.447 70.7941 210.709C81.7113 202.12 94.1574 195.726 108.907 191.679C120.385 188.536 129.213 186.813 136.19 186.189C161.642 183.929 182.529 185.952 207.744 189.676C217.046 191.054 226.348 192.841 234.918 196.242C256.667 204.875 272.127 221.086 273.527 241.623C273.721 244.314 272.213 249.05 271.158 251.591C269.5 255.53 263.6 261.472 259.595 263.84C249.841 269.588 238.816 272.903 227.576 273.98C217.52 274.948 199.044 272.107 191.508 280.546C188.041 284.442 186.211 289.631 185.888 294.862C185.263 304.894 185.888 311.869 186.641 320.781" fill="#FF7EAF"/>
<path d="M35.3079 252.538C42.7798 238.717 62.2455 217.447 70.7941 210.709C81.7113 202.12 94.1574 195.726 108.907 191.679C120.385 188.536 129.213 186.813 136.19 186.189C161.642 183.929 182.529 185.952 207.744 189.676C217.046 191.054 226.348 192.841 234.918 196.242C256.667 204.875 272.127 221.086 273.527 241.623C273.721 244.314 272.213 249.05 271.158 251.591C269.5 255.53 263.6 261.472 259.595 263.84C249.841 269.588 238.816 272.903 227.576 273.98C217.52 274.948 199.044 272.107 191.508 280.546C188.041 284.442 186.211 289.631 185.888 294.862C185.263 304.894 185.888 311.869 186.641 320.781" stroke="#DF0006" stroke-width="4.77" stroke-miterlimit="10"/>
<path d="M48.9154 306.294C48.2048 293.915 74.0874 276.133 107.463 290.987C109.617 291.956 110.586 292.085 112.072 290.901C134.703 272.667 166.658 304.442 176.929 312.192C186.683 319.555 192.863 329.716 204.362 333.699C213.922 337.014 224.452 335.184 234.4 337.035C246.136 339.21 255.352 340.997 260.993 349.522C265.321 356.045 268.207 364.311 268.336 372.191C268.508 382.567 265.192 390.941 258.366 398.368C255.61 401.361 251.433 404.827 247.815 406.614C245.188 407.927 241.355 409.735 238.642 410.855C229.448 414.622 219.284 417.528 209.4 418.174C183.992 419.789 157.42 411.953 135.327 399.079C125.4 393.288 116.916 385.301 107.851 378.197C98.7642 371.114 72.9677 366.163 61.6413 364.462C61.6413 364.462 50.9826 342.783 48.9154 306.294Z" fill="#FF7EAF" stroke="#DF0006" stroke-width="4.77" stroke-miterlimit="10"/>
<path d="M68.2068 348.381C72.4273 349.716 75.8941 352.751 79.2747 355.679C107.268 379.941 137.78 401.77 171.91 415.333C167.452 417.507 162.435 418.11 157.525 418.411C142.969 419.316 128.284 417.938 114.115 414.364C108.603 412.965 103.133 411.243 98.0515 408.616C94.8861 406.98 91.8931 405 88.9215 402.997C85.993 401.017 83.0861 399.015 80.3514 396.754C73.6977 391.265 68.2068 384.29 64.2017 376.54C62.1776 372.579 60.5196 368.402 59.3137 364.097C58.4093 360.846 56.3852 355.335 56.902 351.955C57.5911 347.326 64.8477 347.326 68.2068 348.381Z" fill="#FF7EAF" stroke="#FF0A11" stroke-width="4.77" stroke-miterlimit="10"/>
<path d="M80.9784 129.744C82.3134 130.949 83.7131 132.219 85.4357 132.736C87.1584 133.253 89.2901 132.822 90.216 131.251C90.7544 130.347 90.7759 129.227 90.7328 128.172C90.4529 120.637 87.0076 113.641 83.6485 106.903C82.1196 103.846 80.4831 100.66 77.6623 98.8081C73.9156 96.3324 68.5539 96.9567 65.2594 100.035C61.4911 103.544 60.0914 110.433 63.9243 114.222C69.3936 119.604 75.3152 124.577 80.9784 129.744Z" fill="white" stroke="#DF0006" stroke-width="4.77" stroke-miterlimit="10"/>
<path d="M86.2302 80.2514C85.4334 81.2202 84.6582 83.8897 84.4644 85.1383C83.9907 88.2814 84.4645 90.7571 85.3473 93.2543C87.5006 99.4328 92.1517 104.234 96.7597 108.84C98.5685 110.649 100.377 112.543 102.703 113.598C105.028 114.653 108 114.653 109.852 112.888C111.984 110.864 111.854 107.441 111.359 104.513C110.024 96.5911 107.009 88.9272 102.595 82.2535C100.916 79.7132 98.6332 76.6563 95.2094 76.7855C92.6039 76.85 88.6203 77.3452 86.2302 80.2514Z" fill="white" stroke="#DF0006" stroke-width="4.77" stroke-miterlimit="10"/>
<path d="M114.612 88.2592C113.664 86.3648 112.781 84.1689 111.92 82.2099C109.035 75.5362 110.65 69.8959 111.489 68.1952C111.942 67.291 112.566 66.516 113.255 65.8271C114.827 64.2771 115.817 63.416 117.841 62.8348C119.93 62.232 122.17 62.641 124.065 63.7605C125.959 64.8799 127.144 67.0973 128.673 68.7765C129.878 70.0897 130.912 72.8237 132.075 74.18C133.065 75.364 133.884 77.3446 134.573 78.7654C135.994 81.6717 136.489 83.7168 135.563 86.8814C135.003 88.8189 134.422 89.4648 133.927 90.0676C130.395 94.3947 131.773 94.3516 126.842 96.1384C124.883 96.8488 118.595 95.6218 117.648 93.5766C116.528 91.1439 115.817 90.6488 114.612 88.2592Z" fill="white" stroke="#DF0006" stroke-width="4.77" stroke-miterlimit="10"/>
<path d="M166.249 58.7232C166.249 58.7232 151.456 50.1766 145.707 61.1989C145.707 61.1989 143.726 64.7295 146.869 76.7636C150.099 89.1636 151.908 88.5393 151.908 88.5393C151.908 88.5393 165.259 80.6171 178.889 77.7108C178.889 77.6893 170.879 60.8329 166.249 58.7232Z" fill="white" stroke="#DF0006" stroke-width="4.77" stroke-miterlimit="10"/>
<path d="M190.493 75.1489C190.622 70.5634 190.02 65.9565 190.687 61.4141C191.355 56.8717 193.616 52.2217 197.728 50.3487C199.688 49.4661 201.863 49.2939 203.994 49.2723C205.846 49.2723 207.784 49.4015 209.442 50.2626C211.639 51.3821 213.081 53.5779 214.136 55.8168C216.548 60.9405 217.388 66.8391 216.527 72.4579C207.87 72.4148 198.891 73.1683 190.493 75.1489Z" fill="white" stroke="#DF0006" stroke-width="4.77" stroke-miterlimit="10"/>
<path d="M222.925 72.8022C222.925 72.8022 221.697 53.1687 229.751 54.891C237.804 56.6132 237.74 73.7494 237.74 73.7494L222.925 72.8022Z" fill="white" stroke="#DF0006" stroke-width="4.77" stroke-miterlimit="10"/>
<path d="M74.8373 367.325C74.6651 365.259 74.4928 363.171 74.8804 361.147C75.2465 359.123 76.237 357.121 77.9381 355.98C79.2301 355.119 80.8235 354.818 82.3739 354.624C83.9673 354.43 85.6684 354.301 87.1542 354.925C89.7597 356.023 91.0516 358.994 91.7837 361.75C92.4513 364.225 92.8604 366.766 93.0542 369.306C93.3342 373.009 93.0542 376.862 91.4608 380.199C89.5874 384.117 83.8596 389.026 79.876 385.323C75.634 381.362 75.2895 372.686 74.8373 367.325Z" fill="white" stroke="#DF0006" stroke-width="4.77" stroke-miterlimit="10"/>
<path d="M99.3232 392.363C98.0958 389.047 98.0312 385.409 98.0528 381.857C98.0958 377.013 98.3327 371.997 100.464 367.648C101.089 366.357 101.929 365.108 103.113 364.333C105.482 362.805 108.561 363.472 111.274 364.204C115.43 365.302 119.801 366.529 122.816 369.629C125.787 372.664 127.015 377.164 126.756 381.448C126.498 385.732 124.904 389.822 122.923 393.59C121.911 395.527 120.727 397.443 118.961 398.713C112.566 403.406 101.993 399.574 99.3232 392.363Z" fill="white" stroke="#DF0006" stroke-width="4.77" stroke-miterlimit="10"/>
<path d="M134.378 406.076C132.052 404.935 129.985 402.976 129.296 400.435C128.607 397.809 129.468 395.032 130.437 392.492C131.751 389.026 133.258 385.646 134.959 382.352C136.208 379.941 137.694 377.422 140.149 376.324C142.367 375.334 145.015 375.721 147.211 376.776C149.408 377.831 151.238 379.51 153.047 381.168C156.298 384.139 159.744 387.454 160.476 391.846C161.423 397.464 157.526 402.846 152.939 406.119C146.845 410.51 140.73 409.197 134.378 406.076Z" fill="white" stroke="#DF0006" stroke-width="4.77" stroke-miterlimit="10"/>
<path d="M109.016 291.634C109.016 291.634 127.836 297.339 145.256 324.27Z" fill="#FF7EAF" fill-opacity="0.66"/>
<path d="M109.016 291.634C109.016 291.634 127.836 297.339 145.256 324.27" stroke="#DF0006" stroke-width="4.77" stroke-miterlimit="10"/>
<path d="M153.675 259.686C162.223 266.726 172.99 270.644 183.885 272.56C194.781 274.476 205.935 274.454 217.003 274.39" stroke="#DF0006" stroke-width="4.77" stroke-miterlimit="10"/>
<path d="M228.652 353.418C223.894 353.418 224.41 358.564 225.035 359.554C225.444 360.178 226.155 360.523 226.865 360.716C227.942 361.018 229.083 361.039 230.203 361.018C231.387 361.018 232.593 360.953 233.691 360.544C234.789 360.135 235.823 359.339 236.21 358.219C237.912 353.332 231.365 353.418 228.652 353.418Z" stroke="#DF0006" stroke-width="4.77" stroke-miterlimit="10"/>
<path d="M174.389 367.735C171.439 367.735 171.762 372.213 172.149 373.074C172.408 373.612 172.838 373.913 173.291 374.086C173.958 374.344 174.647 374.365 175.358 374.344C176.09 374.344 176.822 374.279 177.511 373.935C178.2 373.59 178.825 372.88 179.061 371.911C180.095 367.67 176.047 367.735 174.389 367.735Z" stroke="#DF0006" stroke-width="4.77" stroke-miterlimit="10"/>
<path d="M215.216 371.868C212.976 371.868 213.213 375.248 213.515 375.915C213.708 376.324 214.053 376.54 214.376 376.669C214.893 376.863 215.431 376.884 215.948 376.863C216.508 376.863 217.068 376.819 217.606 376.561C218.123 376.303 218.618 375.765 218.79 375.033C219.587 371.803 216.486 371.868 215.216 371.868Z" stroke="#DF0006" stroke-width="4.77" stroke-miterlimit="10"/>
<path d="M110.847 310.406C110.114 310.04 108.736 310.535 108.198 311.159C107.509 311.956 108.133 313.334 109.102 313.743C110.093 314.152 111.213 313.937 112.246 313.678C112.871 313.183 113.56 312.214 113.151 311.525C112.741 310.88 111.579 310.083 110.847 310.406Z" stroke="#DF0006" stroke-width="4.77" stroke-miterlimit="10"/>
<path d="M98.8077 301.644C97.4727 301.386 95.3409 301.687 94.6088 302.527C93.6613 303.625 94.5227 305.476 95.8577 306.036C97.1928 306.596 98.7216 306.294 100.121 305.95C100.961 305.282 101.198 303.948 100.638 303.022C100.078 302.096 99.7336 301.709 98.3771 301.558" stroke="#DF0006" stroke-width="4.77" stroke-miterlimit="10"/>
<path d="M267.217 132.822C268.53 133.145 270.684 132.951 271.459 132.133C272.449 131.079 271.674 129.184 270.382 128.56C269.069 127.935 267.54 128.172 266.119 128.431C265.236 129.055 264.956 130.368 265.473 131.315C265.989 132.263 266.312 132.65 267.647 132.887" stroke="#DF0006" stroke-width="4.77" stroke-miterlimit="10"/>
<path d="M251.518 130.261C252.375 130.261 253.069 129.567 253.069 128.711C253.069 127.855 252.375 127.161 251.518 127.161C250.662 127.161 249.968 127.855 249.968 128.711C249.968 129.567 250.662 130.261 251.518 130.261Z" stroke="#DF0006" stroke-width="4.77" stroke-miterlimit="10"/>
<path d="M247.083 144.555C249.533 144.555 251.519 143.244 251.519 141.627C251.519 140.01 249.533 138.699 247.083 138.699C244.633 138.699 242.647 140.01 242.647 141.627C242.647 143.244 244.633 144.555 247.083 144.555Z" stroke="#DF0006" stroke-width="4.77" stroke-miterlimit="10"/>
</svg>
