<svg width="444" height="461" viewBox="0 0 444 461" fill="none" xmlns="http://www.w3.org/2000/svg">
<path d="M171.432 244.377C157.165 244.377 147.059 251.51 143.789 255.077C152.349 265.777 159.84 284.503 162.515 292.528L171.432 244.377Z" fill="white" stroke="#FF0A11" stroke-width="4.77"/>
<path d="M411.471 149.179C410.976 147.93 410.739 146.553 410.933 145.218C411.278 142.871 413.129 142.441 414.917 140.869C429.99 127.393 438.301 105.284 436.45 85.1336C435.158 71.0974 428.482 59.257 421.829 46.8354C416.941 37.7291 412.311 27.3957 404.925 20.1624C391.23 6.75047 371.269 0.205964 352.213 2.3157C333.156 4.40391 332.488 8.40812 315.779 22.7888C314.853 23.5853 308.974 22.6596 306.068 24.7047C298.897 29.7638 304.733 34.2631 302.622 34.8229C300.189 35.4902 287.463 38.9993 285.008 39.6021C280.874 40.6139 279.324 44.9625 280.12 46.1896C284.578 53.1646 283.544 51.3563 288.454 59.8383C297.304 67.9758 314.471 78.3036 327.843 84.7619C334.023 87.7328 335.865 89.2204 340.779 87.9537C346.614 95.0579 345.882 107.178 345.258 114.476C344.633 121.774 339.056 128.62 332.833 132.452C324.737 137.446 314.638 136.413 308.673 129.266C303.613 123.195 299.608 114.95 295.904 107.975C294.87 105.994 288.863 95.9621 279.539 90.6447C275.642 88.4273 270.194 84.5308 265.93 82.3995C260.934 79.9023 259.987 83.2821 257.317 85.9085C252.644 90.5155 243.105 89.0516 239.66 88.5349C231.671 87.3509 221.357 80.2898 214.208 76.5654C198.597 68.4494 184.213 60.807 168.278 54.4347C152.344 48.084 133.158 44.6611 117.374 51.3563C102.99 57.4702 90.6735 68.471 78.7443 79.7516C68.9252 89.0516 56.9529 96.4357 47.1339 105.736C38.3054 114.089 31.7163 123.195 28.3572 134.885C25.8378 143.603 25.2779 153.011 27.7112 161.751C32.19 177.79 33.7619 191.524 39.3605 206.508C41.4707 212.17 45.6697 214.667 51.2898 214.021C53.3354 213.784 56.3715 212.363 57.1252 210.447C60.5489 201.75 58.3311 194.56 55.2088 185.045C53.2708 179.146 51.8927 173.441 51.096 167.284C50.2993 161.127 50.6007 155.228 56.8237 155.444C59.7092 155.551 63.6928 157.532 65.5877 159.577C71.1216 165.583 73.7702 172.881 77.2154 180.265C79.3041 184.765 81.0483 189.544 84.3859 193.225C87.7235 196.906 93.236 199.188 97.7363 197.1C105.833 193.311 103.55 179.964 98.1885 172.795C92.8268 165.626 83.7184 150.299 88.5848 148.189C93.6451 146.144 108.244 159.663 119.075 164.141C124.566 166.401 133.309 166.272 135.914 160.933C138.046 156.585 135.311 151.009 131.285 148.318C122.65 142.548 112.486 139.341 102.883 135.401C93.279 131.462 81.1991 122.894 84.9027 116.155C92.1378 104.939 122.628 111.161 137.788 99.385C140.221 97.4906 142.482 95.1225 145.475 94.3475C148.899 93.4433 152.559 94.8857 155.358 97.0385C164.144 103.863 165.651 116.327 166.19 127.436C169.247 192.364 162.077 257.271 158.675 322.177C157.77 339.314 157.21 356.945 162.852 373.134C163.778 375.803 164.984 378.559 167.288 380.217C169.506 381.81 172.348 382.111 175.061 382.369C243.622 388.656 312.635 389.839 381.347 385.921C384.254 385.749 387.354 385.512 389.658 383.747C391.553 382.305 392.608 380.044 393.577 377.848C415.541 328.42 423.767 272.986 417.113 219.317C415.519 206.551 411.557 193.118 414.077 180.373C416.402 168.533 416.402 161.364 411.471 149.179Z" fill="white"/>
<path d="M284.427 60.7213C285.977 57.8796 285.267 54.0046 282.812 51.9164C282.187 51.3997 281.477 50.9692 281.003 50.3018C280.529 49.6775 280.314 48.9025 280.163 48.149C279.776 46.2546 279.711 44.1017 280.831 42.5302C281.864 41.0878 283.652 40.4205 285.417 40.1837C289.444 39.6455 293.471 41.0233 297.26 42.4441C307.187 46.1469 316.942 50.3233 326.481 54.9733C330.055 56.7171 333.63 58.5254 336.666 61.0872C339.422 63.3907 341.661 66.2109 343.815 69.0741C345.688 71.5714 347.518 74.1117 349.09 76.8242C353.569 84.5097 355.938 93.1854 358.263 101.775C359.254 105.435 359.663 109.353 359.749 113.142C359.857 117.211 357.962 121.021 356.11 124.659C354.258 128.297 352.363 131.979 349.65 135.036C346.872 138.157 343.319 140.482 339.659 142.506C333.091 146.101 325.899 148.77 318.427 149.395C310.955 150.019 303.182 148.512 296.937 144.379C292.222 141.257 288.583 136.801 284.836 132.581C274.285 120.698 262.355 110.063 249.306 100.978C247.282 99.5791 245.172 98.1368 243.88 96.0486C242.567 93.9604 242.287 91.011 243.923 89.1596C247.046 85.586 253.57 88.9013 257.424 86.1242C258.178 85.586 258.781 84.8326 259.47 84.2083C261.796 82.1416 265.219 81.6249 268.256 82.3138C271.292 83.0027 273.962 84.7895 276.287 86.8561C280.745 90.8388 284.039 95.941 288.195 100.225C292.028 104.165 296.571 107.458 299.801 111.893C303.031 116.328 304.754 121.667 307.467 126.424C310.18 131.182 314.444 135.66 319.892 136.241C323.208 136.586 326.502 135.445 329.646 134.325C331.562 133.636 333.522 132.926 335.094 131.634C336.472 130.493 337.441 128.965 338.41 127.458C341.446 122.7 344.568 117.749 345.214 112.13C346.033 105.09 342.803 98.2229 342.264 91.1402C342.092 88.8583 342.092 86.2964 340.499 84.6388C338.754 82.8304 335.847 82.9381 333.393 83.4332C330.938 83.9284 328.332 84.7034 325.985 83.8423C324.995 83.4763 324.112 82.8305 323.251 82.2062C319.224 79.2353 315.197 76.2644 311.171 73.2936C309.491 72.0665 307.812 70.8179 305.917 69.9352C303.979 69.0526 301.89 68.5574 299.995 67.5672C297.347 66.1894 295.279 63.9074 292.76 62.3144C290.241 60.6782 286.838 58.9775 284.427 60.7213Z" fill="#FF7EAF"/>
<path d="M359.878 23.4782C352.212 27.3102 349.628 37.6221 353.461 44.3818C356.691 50.0437 360.804 53.0791 366.812 55.5978C371.204 57.4492 376.092 56.1576 378.612 54.5215C380.614 53.3374 382.423 48.7304 381.131 44.554C378.999 37.6436 376.458 34.4359 371.958 30.8623C366.058 26.1692 358.629 22.531 351.373 19.5171" stroke="#DF0006" stroke-width="4.77" stroke-miterlimit="10"/>
<path d="M351.932 32.3034C350.834 32.2603 349.715 32.2388 348.659 32.5402C347.604 32.8416 346.592 33.5736 346.291 34.5639C345.774 36.2 347.281 37.6638 348.81 38.4819C349.65 38.934 350.554 39.3 351.48 39.6014" stroke="#DF0006" stroke-width="4.77" stroke-miterlimit="10"/>
<path d="M345.344 41.5826C352.148 44.7688 359.405 51.1626 364.637 56.5446C370.968 63.089 372.734 65.371 377.428 71.2912" stroke="#DF0006" stroke-width="4.77" stroke-miterlimit="10"/>
<path d="M363.969 47.9984C362.268 46.0179 361.084 43.1762 361.752 40.8942C362.225 39.2796 362.85 38.3108 364.185 37.2775C366.812 35.2539 370.516 35.8567 371.721 36.5241C373.81 37.6651 374.801 39.1289 375.77 40.8942C376.803 42.8102 376.76 45.6734 375.813 47.0727C373.013 51.12 367.027 51.5505 363.969 47.9984Z" fill="#FF7EAF" stroke="#DF0006" stroke-width="4.77" stroke-miterlimit="10"/>
<path d="M369.116 44.7475C370.211 44.7475 371.097 43.8608 371.097 42.7669C371.097 41.6731 370.211 40.7863 369.116 40.7863C368.022 40.7863 367.135 41.6731 367.135 42.7669C367.135 43.8608 368.022 44.7475 369.116 44.7475Z" stroke="#DF0006" stroke-width="4.77" stroke-miterlimit="10"/>
<path d="M340.759 13.2311C334.622 15.1686 325.32 17.1276 319.183 19.0651C317.18 19.711 315.135 20.3568 313.369 21.4978C310.419 23.4138 308.373 26.8582 308.675 30.3457C308.976 33.8332 311.948 37.0624 315.458 37.1485" stroke="#DF0006" stroke-width="4.77" stroke-miterlimit="10"/>
<path d="M335.89 32.9711C338.108 35.6406 337.591 39.8601 335.437 42.5941C333.284 45.3281 329.925 46.8351 326.566 47.7178" stroke="#DF0006" stroke-width="4.77" stroke-miterlimit="10"/>
<path d="M320.215 35.2535C321.421 34.1556 323.402 34.2201 324.801 35.0597C326.201 35.8993 327.17 37.3202 327.923 38.7841C328.225 39.3869 328.526 40.0327 328.462 40.7216C328.397 41.3889 327.88 42.0779 327.191 42.0779C325.706 42.0563 324.973 39.107 323.703 38.375C323.014 37.9445 318.643 36.6743 320.215 35.2535Z" stroke="#DF0006" stroke-width="4.77" stroke-miterlimit="10"/>
<path d="M303.461 34.8228C302.966 33.3804 302.169 31.5936 302.858 29.7207C303.052 29.1825 303.332 28.6658 303.655 28.1922C305.055 26.1685 307.854 25.4581 310.201 24.7047" stroke="#DF0006" stroke-width="4.77" stroke-miterlimit="10"/>
<path d="M286.925 40.4636C290.672 39.4733 294.677 40.356 298.23 41.8845C301.783 43.4129 305.056 45.5657 308.522 47.2449C313.819 49.8067 319.59 51.2706 324.952 53.7033C335.589 58.5255 344.741 66.9214 350.016 77.3625C354.581 86.4042 359.146 97.6848 359.34 109.848C359.448 116.5 356.649 126.295 351.761 131.806C341.662 143.173 328.354 149.976 312.334 150.062" stroke="#DF0006" stroke-width="4.77" stroke-miterlimit="10"/>
<path d="M281.154 52.0237C282.532 52.282 283.738 53.2508 284.298 54.5425C284.987 56.1786 284.643 58.2022 285.741 59.6015C285.848 59.7307 285.956 59.8598 286.128 59.9029C286.279 59.946 286.43 59.9029 286.581 59.8383C289.186 58.9987 292.071 58.1376 294.655 58.9772C296.313 59.5154 297.218 61.3022 297.605 62.9814C298.015 64.6821 298.079 66.4689 298.854 68.0189C298.962 68.2557 299.113 68.4926 299.35 68.6002C299.543 68.6863 299.759 68.6648 299.953 68.6432C301.891 68.4279 303.829 68.0404 305.767 68.1696C307.704 68.2988 309.728 68.9877 310.913 70.5377C312.14 72.1092 312.808 73.9176 313.497 75.7905C313.647 76.1995 313.82 76.6301 314.186 76.8669C314.595 77.1252 315.133 77.0176 315.607 76.9315C317.696 76.5225 318.6 75.6183 321.292 75.8121C321.83 75.8551 322.885 75.812 324.091 76.6086C325.921 77.8141 326.266 78.9336 326.589 79.7086C327.106 80.9357 326.998 81.237 327.472 82.4857C327.708 83.0884 327.924 83.7343 328.462 84.1002C329.216 84.6169 330.249 84.3801 331.111 84.0572C332.661 83.4975 334.255 83.1746 335.848 82.7655C337.829 82.2704 340.284 83.2822 340.736 84.8753" stroke="#DF0006" stroke-width="4.77" stroke-miterlimit="10"/>
<path d="M296.075 61.4313C297.044 64.23 296.248 67.3085 295.235 70.0856C294.568 71.9155 293.771 73.7453 292.565 75.2523C291.79 76.1995 290.8 77.0391 289.615 77.2544C288.646 77.4266 287.656 77.1898 286.708 76.9099C284.49 76.2641 282.186 75.3168 280.938 73.3578C280.55 72.755 280.27 72.023 280.378 71.3126C280.442 70.8821 280.615 70.4946 280.808 70.1071C282.337 67.0286 284.555 63.2827 287.031 60.8931C289.486 58.5251 294.654 57.3195 296.075 61.4313Z" fill="white" stroke="#DF0006" stroke-width="4.77" stroke-miterlimit="10"/>
<path d="M307.165 69.8271C304.345 70.0424 301.998 72.0229 299.995 74.0465C298.66 75.4028 297.389 76.8452 296.571 78.5674C296.054 79.6438 295.71 80.8924 295.99 82.0764C296.205 83.0236 296.808 83.8417 297.411 84.5952C298.832 86.3605 300.555 88.1042 302.751 88.4702C303.44 88.5778 304.172 88.5348 304.754 88.1688C305.098 87.9535 305.378 87.6306 305.637 87.3077C307.704 84.6813 310.115 81.1507 311.192 77.9215C312.226 74.7139 311.278 69.5042 307.165 69.8271Z" fill="white" stroke="#DF0006" stroke-width="4.77" stroke-miterlimit="10"/>
<path d="M319.784 76.2642C320.365 76.1135 320.946 75.9843 321.549 76.0273C322.152 76.0919 322.734 76.3502 323.251 76.6947C325.339 78.094 326.459 80.8065 325.942 83.2607C325.727 84.2725 325.275 85.2198 324.779 86.1455C323.423 88.6212 321.722 90.9247 319.741 92.9698C319.439 93.2927 319.073 93.6157 318.643 93.6372C318.384 93.6587 318.126 93.5726 317.867 93.4649C316.898 93.1205 315.951 92.7545 314.982 92.4101C313.647 91.9149 312.226 91.3337 311.515 90.1066C310.783 88.8149 311.063 87.1573 311.709 85.8225C312.355 84.4878 313.302 83.3037 313.927 81.9475C315.477 78.503 315.951 77.276 319.784 76.2642Z" fill="white" stroke="#DF0006" stroke-width="4.77" stroke-miterlimit="10"/>
<path d="M334.535 83.6911C335.461 83.2606 336.559 83.1099 337.485 83.562C338.842 84.2078 339.358 85.9516 339.1 87.4155C338.82 88.8794 337.937 90.1495 337.054 91.3766C335.892 93.0127 334.686 94.6919 332.985 95.7683C332.532 96.0697 332.016 96.3065 331.477 96.3711C330.638 96.4787 329.819 96.1128 329.044 95.7899C327.924 95.2947 326.654 94.6273 326.482 93.4218C326.159 91.4627 328.979 89.6759 329.97 88.2335C331.219 86.4467 332.468 84.6599 334.535 83.6911Z" fill="white" stroke="#DF0006" stroke-width="4.77" stroke-miterlimit="10"/>
<path d="M284.814 56.674C284.405 58.0518 283.522 59.2143 282.66 60.3553C282.058 61.1518 281.455 61.9483 280.83 62.7233C280.249 63.4768 279.452 64.3164 278.526 64.1226C277.557 63.9074 277.213 62.7449 276.825 61.8407C276.48 61.0442 275.942 60.2261 276.114 59.365C276.373 57.9011 278.289 56.9754 279.301 56.0497C280.249 55.1886 280.895 53.7892 281.864 53.0142C284.168 51.1628 285.46 54.4566 284.814 56.674Z" fill="white" stroke="#DF0006" stroke-width="4.77" stroke-miterlimit="10"/>
<path d="M313.325 150.062C301.676 149.093 297.175 144.228 290.522 138.2C286.71 134.734 283.459 130.686 280.013 126.833C271.422 117.232 261.581 108.75 250.815 101.688C247.24 99.3419 243.02 95.9189 244.097 91.7856C244.721 89.3529 247.176 87.7168 249.674 87.3508C252.171 86.9848 254.691 87.6738 257.059 88.5133C264.553 91.1613 271.465 95.4453 277.15 101.021C282.791 106.532 287.162 113.184 292.137 119.32C297.111 125.434 302.968 131.203 310.353 134.002C317.115 136.564 324.931 136.348 331.413 133.184C337.916 130.019 342.933 123.884 344.505 116.823C345.28 113.378 345.237 109.804 345.151 106.274C344.914 96.8877 343.988 86.6619 337.506 79.8591C331.456 73.5084 322.067 71.7862 314.638 67.1146C309.234 63.7347 304.97 58.8479 299.888 55.0159C294.807 51.184 288.304 48.3422 282.145 49.9999C281.176 49.0527 280.315 47.5242 280.056 46.211C279.69 44.3166 281.09 42.4436 282.813 41.604C284.557 40.7644 286.667 40.3985 288.584 40.3769" stroke="#DF0006" stroke-width="4.77" stroke-miterlimit="10"/>
<path d="M404.794 85.1344C408.778 84.3379 412.826 83.5628 416.853 84.1226C420.858 84.7038 424.885 86.9212 426.5 90.624C427.382 92.6476 427.49 94.9081 427.533 97.1254C427.598 100.979 427.404 105.091 425.164 108.234C421.784 112.992 415.087 113.767 409.252 113.68C403.416 113.594 396.999 113.25 392.37 116.823C390.626 118.158 389.269 119.988 387.396 121.129C384.123 123.11 379.407 125.047 376.177 122.098C374.196 118.998 374.239 114.735 376.263 111.678" stroke="#DF0006" stroke-width="4.77" stroke-miterlimit="10"/>
<path d="M246.398 98.18C248.853 100.397 246.29 102.808 243.728 104.897C241.165 106.985 237.806 107.911 235.33 110.085C231.023 113.831 230.313 120.138 229.904 125.843C229.71 128.491 229.538 131.182 230.076 133.787C232.057 143.475 242.673 148.383 251.953 151.806" stroke="#DF0006" stroke-width="4.77" stroke-miterlimit="10"/>
<path d="M250.08 150.019C248.874 156.219 250.812 163.086 254.968 167.306" stroke="#DF0006" stroke-width="4.77" stroke-miterlimit="10"/>
<path d="M323.122 17.8162C330.099 8.94674 342.114 3.32792 353.376 2.63903C365.219 1.90708 377.32 3.60781 388.173 8.45159C399.025 13.2954 408.543 21.3468 414.357 31.7017C417.307 36.976 419.288 42.724 422.044 48.0845C426.028 55.7914 431.669 62.7019 434.296 70.9901C436.148 76.8026 436.385 83.0027 436.213 89.1166C435.911 99.6438 434.404 110.3 430.227 119.966C426.049 129.632 418.337 139.705 408.949 144.506" stroke="#DF0006" stroke-width="4.77" stroke-miterlimit="10"/>
<path d="M271.742 80.7854C272.539 79.2569 273.616 77.6208 275.166 77.384C276.156 77.2333 277.125 77.6854 278.008 78.202C279.429 79.0416 280.764 80.0965 281.927 81.3451C282.53 81.9909 283.155 82.852 282.982 83.7562C282.896 84.1868 282.659 84.5743 282.401 84.9187C281.303 86.5333 280.183 88.148 279.085 89.741C278.439 90.6882 277.75 91.657 276.781 92.1306C275.769 92.6042 274.606 92.432 273.594 91.9584C272.582 91.4632 271.721 90.6882 270.881 89.9348C269.374 88.5785 268.728 88.0188 269.287 86.0382C269.783 84.2299 270.902 82.3785 271.742 80.7854Z" fill="white" stroke="#DF0006" stroke-width="4.77" stroke-miterlimit="10"/>
<path d="M289.896 89.7411C290.908 89.7842 291.855 90.2578 292.673 90.839C293.965 91.7432 295.063 92.9057 295.666 94.3265C296.269 95.7474 296.312 97.405 295.602 98.7613C294.697 100.484 292.781 101.452 290.994 102.313C290.326 102.636 289.616 102.981 288.862 103.002C286.192 103.131 281.842 98.6752 282.014 96.1349C282.187 93.5515 287.269 89.655 289.896 89.7411Z" fill="white" stroke="#DF0006" stroke-width="4.77" stroke-miterlimit="10"/>
<path d="M291.036 103.023C295.084 105.736 297.345 110.321 299.886 114.498C305.204 123.281 310.975 133.658 321.031 135.724" stroke="#DF0006" stroke-width="4.77" stroke-miterlimit="10"/>
<path d="M270.647 82.8303C268.472 83.347 265.22 81.9046 262.981 82.0553C260.289 82.206 257.942 84.6386 257.856 87.3296" stroke="#DF0006" stroke-width="4.77" stroke-miterlimit="10"/>
<path d="M279.517 90.0197C279.56 91.4405 282.165 93.8301 283.5 93.3565" stroke="#DF0006" stroke-width="4.77" stroke-miterlimit="10"/>
<path opacity="0.85" d="M197.065 248.466C187.505 244.203 179.193 243.665 168.728 244.074C161.73 244.332 149.74 248.019 145.132 253.293C141.924 256.953 143.47 261.447 143.599 266.312C143.836 274.794 147.087 282.867 150.296 290.725C158.672 311.219 167.048 331.736 175.425 352.23C176.286 354.34 177.234 356.557 179.021 357.978C180.614 359.227 182.66 359.679 184.662 360.002C205.119 363.403 226.953 357.225 242.564 343.597C245.105 341.38 247.517 338.926 248.96 335.89C252.19 329.023 250.08 319.465 247.194 312.447C243.254 302.888 237.913 294.708 229.602 288.594C225.812 285.817 219.912 281.726 216.703 278.239C213.194 274.428 213.581 273.072 212.827 268.422C211.428 259.682 204.753 251.889 197.065 248.466Z" fill="white"/>
<path d="M271.097 238.843C260.848 232.212 254.754 220.458 252.536 208.445C250.318 196.433 251.524 184.076 253.139 171.977C254.13 164.464 257.769 156.542 262.506 150.643C271.076 139.987 285.352 139.793 298.875 141.924C328.052 146.51 344.159 144.938 373.185 144.594C380.894 144.507 387.397 147.371 394.374 150.664C399.821 153.226 405.635 157.295 409.554 161.859C420.278 174.324 424.545 187.626 423.456 206.389C423.014 214.012 417.737 220.63 417.801 225.086C424.303 230.107 427.685 238.757 432.143 246.012C444.201 265.753 442.083 291.943 428.536 313.631C422.609 322.437 418.017 331.779 416.1 343.145C414.873 350.4 414.658 357.698 414.055 365.018C412.397 385.103 413.215 398.365 412.375 416.19C411.751 429.386 406.088 442.561 394.912 449.601C376.89 460.953 363.775 454.768 354.925 455.155C334.556 463.898 269.418 445.274 217.416 447.879C207.209 448.395 194.397 454.122 184.621 451.194C181.111 450.139 177.709 448.611 174.092 448.159C169.828 447.642 165.392 448.008 161.279 449.278C150.125 452.723 103.417 434.251 77.3441 450.871C68.2356 456.188 56.5002 454.272 46.3151 451.624C33.9552 448.417 27.5814 434.295 27.1723 421.55C26.7631 408.806 30.5314 396.233 30.4668 383.467C30.4022 367.644 29.0026 368.871 28.615 353.07C28.5719 351.068 22.1375 333.449 27.1723 331.755C32.0818 326.351 40.7641 342.767 45.1092 336.17C46.3582 332.274 44.8939 328.097 44.8939 324.029C44.8939 319.96 47.7578 315.073 51.7629 315.848C55.6173 316.58 56.5863 321.488 57.706 325.234C58.8257 328.98 60.1073 333.771 62.7774 330.908C66.164 330.908 63.624 310.578 79.239 313.954C78.2054 317.355 81.3277 320.67 84.6222 322.048C87.9168 323.426 91.6419 323.792 94.5489 325.88C98.8555 328.958 100.04 335.051 98.9847 340.261C97.9295 345.47 95.1303 350.099 92.8263 354.878C87.5507 365.75 80.0572 376.341 79.9926 388.419C79.971 391.196 84.8591 395.63 86.5171 397.869C88.8427 400.991 97.0013 403.455 100.877 403.756C115.347 404.875 126.116 403.251 140.629 402.541C143.924 402.369 147.369 402.11 150.125 400.302C158.351 394.877 153.958 381.896 157.404 372.66C159.858 366.03 166.49 361.724 173.295 359.808C180.099 357.914 187.291 357.978 194.333 357.418C212.119 356.019 229.582 350.465 244.913 341.316C259.707 332.489 273.208 320.111 290.176 317.226C294.267 316.537 298.724 316.3 301.89 313.631C304.947 311.047 305.981 306.871 307.036 303.017C309.771 293.05 313.819 283.427 319.008 274.471C323.293 267.109 332.854 259.165 322.131 253.46C306.218 244.957 286.45 248.767 271.097 238.843Z" fill="white"/>
<path d="M142.439 255.785C150.384 247.346 162.637 244.419 174.2 244.096C182.619 243.859 191.297 244.828 198.726 248.767C206.155 252.707 212.184 260.026 212.83 268.422C213.11 272.125 214.143 275.57 216.706 278.239C219.268 280.908 222.541 282.781 225.577 284.913C241.598 296.15 251.288 315.87 250.383 335.417" stroke="#DF0006" stroke-width="4.77" stroke-miterlimit="10"/>
<path d="M206.689 221.03C216.056 216.164 221.31 201.697 222.989 195.906C223.937 192.656 229.751 191.256 232.679 185.422C241.422 167.985 247.02 148.373 236.749 131.366C227.533 116.124 211.491 102.196 188.364 101.614C169.222 101.141 151.392 108.891 137.784 122.346C130.355 129.687 124.002 139.159 114.528 143.551C106.109 147.447 95.1483 145.854 85.8892 146.457C63.3657 147.921 43.0601 157.113 26.5443 172.506C10.0286 187.898 2.19058 206.584 2.6643 229.146C2.77196 234.355 4.86071 244.409 7.29394 249.016C13.6677 261.071 19.1155 267.896 30.894 275.861C41.7897 283.245 58.0255 284.688 71.1821 285.247C74.9289 285.398 77.0391 287.206 77.9866 289.94C80.2045 296.313 78.0081 304.235 78.2019 312.136C78.6756 332.501 88.5162 353.706 105.721 364.621C132.113 378.786 140.346 388.366 149.476 406.579C151.931 411.444 153.072 418.483 155.548 423.327C159.79 431.637 165.496 438.461 172.667 444.425C179.837 450.409 190.841 453.251 199.712 450.345C209.531 447.137 214.441 439.882 221.439 432.347C227.274 426.061 237.955 429.807 245.965 427.224C254.191 424.576 265.646 423.112 274.195 424.361C285.241 425.954 293.639 430.711 304.685 432.304C307.205 432.67 309.961 431.357 311.554 429.355C314.203 425.997 310.284 421.304 306.343 419.603C302.425 417.924 294.457 415.47 296.352 412.37C299.345 408.279 306.602 413.058 311.404 412.628C313.729 412.413 316.055 412.348 318.057 411.164C320.06 409.958 320.921 405.739 320.189 403.522C319.263 400.745 315.796 399.948 312.889 399.604C307.851 398.979 295.211 401.498 295.534 398.247C295.297 394.695 305.03 395.276 308.152 393.834C312.287 391.918 311.77 388.065 310.392 384.922C309.143 382.037 303.889 382.51 302.101 382.51C296.912 382.553 290.301 388.065 286.662 386.062C284.574 383.415 289.763 378.872 292.605 377.042C296.223 374.717 300.745 372.543 302.683 368.689C303.35 367.355 302.403 363.501 299.625 362.468C298.441 362.016 297.343 361.478 296.072 361.585C287.868 362.296 284.078 375.794 276.865 372.995C272.838 369.249 277.662 363.953 280.762 361.865C285.801 358.485 289.289 356.892 293.488 352.522C294.63 351.338 295.146 349.573 295.512 347.958C296.417 343.911 291.034 337.431 287.093 336.139C282.334 334.589 278.221 334.805 273.85 337.237C271.331 338.636 267.67 341.866 265.797 344.04C259.854 350.886 254.621 361.241 247.386 366.494C239.699 372.069 236.792 375.944 229.772 378.786C223.032 381.52 215.604 385.266 208.325 385.395C205.246 385.46 200.444 383.415 197.624 382.209C193.123 380.293 188.838 375.385 186.491 371.079C182.658 364.018 180.483 356.612 178.007 348.991C175.638 341.693 173.399 333.427 171.784 325.935C166.724 302.577 161.082 275.452 146.203 260.469C144.932 259.199 140.979 256.207 141.517 255.519C143.347 253.129 149.497 248.539 153.37 247.048C164.377 242.813 174.862 241.744 188.084 243.66C192.239 244.262 201.327 246.842 204.6 249.468C209.058 253.063 210.005 254.462 212.374 258.94C213.816 261.696 215.561 268.154 215.216 270.953C214.484 276.981 205.677 278.789 204.6 284.774C204.342 286.259 206.108 289.661 207.421 290.392C212.374 293.191 215.474 291.749 218.166 288.821C220.879 285.872 222.688 282.707 225.143 279.542C227.597 276.378 230.225 273.428 232.916 276.378C234.876 278.531 234.316 281.997 232.852 284.515C228.437 292.115 219.436 295.172 211.706 299.348C208.713 300.963 205.849 302.685 205.698 306.086C205.505 310.241 208.799 312.006 212.955 311.748C217.111 311.49 222.559 309.122 226.004 306.754C232.119 302.513 234.682 299.52 238.536 293.858C239.225 292.847 241.831 288.713 242.972 288.304C245.728 287.292 247.494 290.22 246.374 292.933C245.255 295.645 241.335 301.178 238.708 303.934C236.06 306.689 234.553 307.722 231.366 309.875C228.437 311.856 225.918 312.308 222.451 315.408C219.803 317.754 220.276 321.651 223.571 322.943C225.057 323.524 226.715 323.395 228.308 323.115C245.513 320.209 257.658 302.814 258.82 285.398C259.1 281.2 258.863 276.916 257.485 272.933C256.236 269.274 255.224 266.733 253.286 263.375C245.944 250.717 239.613 242.019 232.055 234.334C232.012 234.355 218.704 224.237 206.689 221.03Z" fill="white"/>
<path d="M175.256 148.964C172.435 149.373 172.521 149.696 170.153 148.103C168.301 146.876 166.858 145.132 165.265 143.561C159.817 138.157 152.603 134.54 145.024 133.443" stroke="#DF0006" stroke-width="4.77" stroke-miterlimit="10"/>
<path d="M204.711 177.638C209.233 179.684 213.411 182.439 217.093 185.754" stroke="#DF0006" stroke-width="4.77" stroke-miterlimit="10"/>
<path d="M159.427 128.985C159.277 132.602 160.116 136.24 161.86 139.426C163.755 142.914 167.093 145.992 171.055 146.078C172.842 146.121 174.608 145.54 176.309 144.98C177.558 144.571 176.309 144.98 177.558 144.571C177.924 145.433 178.979 146.767 178.979 146.767C180.465 148.188 181.542 149.932 184.879 147.973C186.516 147.004 186.128 142.849 185.008 141.967C188.174 139.943 187.614 136.585 187.291 133.442C187.119 131.59 186.214 129.674 185.116 128.167C184.341 127.112 183.286 126.251 182.166 125.562C178.333 123.173 173.574 122.57 169.096 123.043C164.617 123.517 160.289 125.046 156.068 126.682" stroke="#DF0006" stroke-width="4.77" stroke-miterlimit="10"/>
<path d="M191.36 139.943C198.272 132.71 194.152 124.889 194.152 124.889C192.171 119.98 187.398 116.543 182.295 115.165C177.17 113.787 171.593 114.562 166.813 116.844" stroke="#DF0006" stroke-width="4.77" stroke-miterlimit="10"/>
<path d="M179.473 138.221C178.569 138.846 177.514 139.126 176.459 139.405C175.856 139.556 175.232 139.728 174.586 139.621C174.112 139.535 173.681 139.319 173.229 139.126C172.195 138.63 171.183 138.135 170.15 137.64C168.018 136.607 165.585 135.186 165.09 132.646C164.982 132.064 165.003 131.419 165.326 131.01C165.52 130.751 165.822 130.6 166.102 130.471C169.698 128.749 173.724 127.759 177.772 129.632C180.959 131.074 182.66 136.047 179.473 138.221Z" fill="#FF7EAF" stroke="#DF0006" stroke-width="4.77" stroke-miterlimit="10"/>
<path d="M204.109 162.569C206.219 161.622 208.458 160.675 210.741 161.019C211.753 161.17 212.7 161.579 213.605 162.052C218.191 164.464 220.603 169.264 220.646 174.431C220.646 174.625 220.646 174.818 220.646 175.012C219.074 178.478 214.746 180.437 211.107 179.318C209.621 178.866 208.286 177.962 207.037 177.036C205.315 175.787 203.635 174.388 202.515 172.58" stroke="#DF0006" stroke-width="4.77" stroke-miterlimit="10"/>
<path d="M213.366 173.721C211.471 174.625 209.06 174.259 207.509 172.839C206.992 172.365 206.562 171.784 206.217 171.159C205.679 170.191 205.313 169.071 205.464 167.952C205.765 165.476 208.564 163.862 211.041 164.184C216.165 164.895 218.857 171.095 213.366 173.721Z" fill="#FF7EAF" stroke="#DF0006" stroke-width="4.77" stroke-miterlimit="10"/>
<path d="M193.256 175.551C194.246 176.24 195.194 176.993 196.098 177.811C196.744 178.392 197.39 179.017 197.756 179.813C198.122 180.61 198.144 181.622 197.627 182.311C196.938 183.215 195.495 183.279 194.505 182.698C193.514 182.117 192.933 181.04 192.545 179.964C192.309 179.275 192.115 178.543 192.287 177.833C192.459 177.122 193.062 176.476 193.794 176.476" stroke="#DF0006" stroke-width="4.77" stroke-miterlimit="10"/>
<path d="M180.161 162.849C181.41 163.28 182.186 164.507 182.853 165.648C182.939 165.777 183.025 165.949 182.982 166.1C182.961 166.208 182.875 166.294 182.81 166.358C181.949 167.219 180.592 167.478 179.408 167.176C178.223 166.875 177.19 166.121 176.393 165.196C176.113 164.873 175.812 164.442 175.941 164.012C176.006 163.796 176.178 163.624 176.372 163.474C177.577 162.483 179.429 162.376 180.764 163.172" stroke="#DF0006" stroke-width="4.77" stroke-miterlimit="10"/>
<path d="M187.096 173.161C189.723 173.333 192.372 173.376 194.934 172.816C197.497 172.257 199.994 171.072 201.739 169.113C204.71 165.755 205.012 160.739 204.021 156.347C203.612 154.582 202.815 152.623 201.114 152.042" stroke="#DF0006" stroke-width="4.77" stroke-miterlimit="10"/>
<path d="M204.195 175.27C203.053 178.715 204.302 182.805 202.451 185.927C201.568 187.434 199.974 188.51 198.252 188.812C196.529 189.113 194.677 188.596 193.342 187.455" stroke="#DF0006" stroke-width="4.77" stroke-miterlimit="10"/>
<path d="M174.027 167.262C172.326 166.896 170.84 165.691 170.022 164.184C169.182 162.655 168.967 160.826 169.29 159.125C169.397 158.522 169.591 157.941 169.914 157.424C170.237 156.907 170.689 156.477 171.185 156.111C174.049 153.915 178.248 153.614 181.391 155.379" stroke="#DF0006" stroke-width="4.77" stroke-miterlimit="10"/>
<path d="M123.057 184.313C126.825 179.211 129.819 174.001 135.223 170.707C142.006 166.596 152.923 165.132 160.137 168.425C168.19 172.107 169.762 180.05 177.622 184.076C180.895 185.755 186.364 188.834 189.486 190.771C194.891 194.151 194.31 200.911 192.221 204.011C189.96 207.369 187.979 207.52 184.254 217.401" fill="#FF7EAF"/>
<path d="M123.057 184.313C126.825 179.211 129.819 174.001 135.223 170.707C142.006 166.596 152.923 165.132 160.137 168.425C168.19 172.107 169.762 180.05 177.622 184.076C180.895 185.755 186.364 188.834 189.486 190.771C194.891 194.151 194.31 200.911 192.221 204.011C189.96 207.369 187.979 207.52 184.254 217.401" stroke="#DF0006" stroke-width="4.77" stroke-miterlimit="10"/>
<path d="M132.963 175.421C137.14 171.244 144.031 169.91 149.521 172.235C155.723 174.839 159.448 181.212 165.37 184.398C167.351 185.453 169.504 186.142 171.421 187.304C173.143 188.337 174.607 189.737 176.05 191.136C178.29 193.267 180.507 195.399 182.747 197.53C184.211 198.929 185.718 200.393 186.472 202.266C186.924 203.407 187.053 204.656 187.075 205.883C187.118 207.906 186.881 209.951 186.343 211.911C185.934 213.417 186.041 214.989 184.663 215.742C182.79 216.776 179.388 216.388 176.847 216.797C174.5 217.163 173.1 216.496 171.033 215.355C169.138 214.322 167.265 213.181 165.779 211.631C164.358 210.145 163.367 208.315 162.247 206.593C159.362 202.18 155.465 198.391 150.921 195.592C145.172 192.019 123.639 184.742 132.963 175.421Z" fill="#FF7EAF" stroke="#DF0006" stroke-width="4.77" stroke-miterlimit="10"/>
<path d="M149.781 209.414C151.374 210.362 153.312 210.792 154.949 210.103C156.628 209.414 157.705 207.735 158.631 206.099C160.246 203.279 161.689 200.351 162.981 197.337C163.325 196.541 163.67 195.701 163.734 194.818C163.82 193.72 163.454 192.601 163.088 191.546C162.83 190.75 162.55 189.932 162.012 189.286C161.258 188.36 160.095 187.908 158.976 187.8C156.628 187.585 154.367 188.769 152.688 190.448C151.008 192.127 149.824 194.259 148.661 196.368C147.951 197.639 147.262 198.909 146.551 200.179C145.754 201.621 144.505 204.032 145.517 205.711C146.314 207.111 148.467 208.639 149.781 209.414Z" fill="white" stroke="#DF0006" stroke-width="4.77" stroke-miterlimit="10"/>
<path d="M158.265 215.269C159.492 217.293 161.495 217.724 163.756 217.853C165.607 217.96 166.706 218.391 167.954 216.992C169.376 215.399 170.689 213.698 171.895 211.911C172.864 210.469 173.811 208.94 174.027 207.153C174.264 205.388 173.768 203.408 172.261 202.525C171.163 201.879 169.246 202.633 168.493 202.869C167.524 203.171 161.925 207.304 159.837 211.33C159.341 212.277 158.846 213.267 158.652 214.322C158.458 215.377 158.437 215.549 159.061 216.453" fill="white"/>
<path d="M158.265 215.269C159.492 217.293 161.495 217.724 163.756 217.853C165.607 217.96 166.706 218.391 167.954 216.992C169.376 215.399 170.689 213.698 171.895 211.911C172.864 210.469 173.811 208.94 174.027 207.153C174.264 205.388 173.768 203.408 172.261 202.525C171.163 201.879 169.246 202.633 168.493 202.869C167.524 203.171 161.925 207.304 159.837 211.33C159.341 212.277 158.846 213.267 158.652 214.322C158.458 215.377 158.437 215.549 159.061 216.453" stroke="#DF0006" stroke-width="4.77" stroke-miterlimit="10"/>
<path d="M148.939 184.118C150.08 184.871 150.382 186.335 150.08 187.734C149.779 189.134 148.939 190.512 148.034 191.825C147.281 192.923 146.463 194.021 145.515 195.054C144.848 195.764 144.094 196.475 143.147 196.862C141.79 197.4 140.39 197.121 139.249 196.647C138.452 196.303 137.72 195.872 137.333 195.183C136.536 193.827 137.29 191.954 138.194 190.339C139.787 187.476 145.321 181.728 148.939 184.118Z" fill="white" stroke="#DF0006" stroke-width="4.77" stroke-miterlimit="10"/>
<path d="M139.313 178.931C140.433 179.706 140.756 181.148 140.476 182.526C140.196 183.904 139.399 185.26 138.559 186.551C137.849 187.628 137.074 188.704 136.169 189.695C135.545 190.405 134.813 191.094 133.908 191.438C132.595 191.955 131.238 191.654 130.14 191.18C129.365 190.836 128.654 190.383 128.245 189.716C127.47 188.36 128.159 186.508 128.999 184.915C130.485 182.117 135.76 176.498 139.313 178.931Z" fill="white" stroke="#DF0006" stroke-width="4.77" stroke-miterlimit="10"/>
<path d="M221.637 197.143C237.399 190.771 245.84 154.044 239.315 138.803C236.494 132.215 232.102 126.424 227.451 120.978C223.682 116.586 219.656 112.302 214.725 109.266C205.056 103.325 193.084 102.786 181.736 102.743C177.882 102.722 174.006 102.765 170.237 103.54C167.029 104.207 163.971 105.434 161 106.834C151.31 111.376 142.525 117.77 135.246 125.606L120.023 140.869" stroke="#DF0006" stroke-width="4.77" stroke-miterlimit="10"/>
<path d="M217.094 185.755C222.673 190.874 223.123 200.286 219.958 206.788C216.814 213.289 210.85 218.133 204.411 221.577" stroke="#DF0006" stroke-width="4.77" stroke-miterlimit="10"/>
<path d="M222.002 427.621C217.007 445.274 201.525 453.498 188.303 451.474C175.104 449.45 163.971 439.397 157.382 427.341C150.125 414.08 147.261 397.956 137.055 386.976C130.487 379.937 121.594 375.846 113.562 370.701C101.633 363.059 91.1897 352.596 84.7729 339.658C80.6385 331.348 78.2915 322.005 78.2699 312.641C78.2484 303.749 83.201 293.825 75.5568 287.927C75.5568 287.927 73.3389 286.506 70.1089 286.699C50.3632 287.819 27.5814 277.873 15.566 263.191C4.62725 249.844 0.579041 231.459 3.57212 214.473C6.5652 197.488 16.1905 181.988 29.2394 170.686" stroke="#DF0006" stroke-width="4.77" stroke-miterlimit="10"/>
<path d="M219.033 435.307C237.702 427.277 278.356 422.584 297.133 430.42C300.126 431.669 303.227 433.154 306.456 432.874C309.686 432.594 312.959 429.731 312.292 426.545C311.108 420.969 295.109 419.268 295.948 413.628C297.283 410.184 307.921 413.542 314.165 413.219C321.271 412.853 322.111 403.381 317.826 401.723C315.673 400.905 313.282 400.991 310.978 401.034C307.49 401.099 304.023 401.142 300.535 401.207C298.059 401.25 294.484 399.506 295.862 397.461C296.271 396.858 297.025 396.578 297.736 396.384C300.363 395.674 303.14 395.631 305.746 394.856C308.351 394.081 310.935 392.294 311.474 389.625C312.012 386.955 310.182 384.178 307.705 383.059C305.229 381.918 302.301 382.197 299.738 383.123C297.606 383.898 295.625 385.125 293.407 385.663C291.19 386.202 285.871 387.881 287.184 384.006C290.479 379.184 295.798 376.837 300.104 373.263C301.482 372.122 302.925 370.874 303.442 369.151C304.54 365.384 300.126 361.832 296.228 362.306C292.331 362.779 289.252 365.772 286.711 368.764C285.203 370.529 283.696 372.424 281.564 373.349C279.433 374.254 276.483 373.737 275.535 371.606C274.415 369.044 276.741 366.374 278.679 364.372C283.502 359.399 294.506 355.89 295.582 349.044C295.927 346.892 295.066 343.662 292.761 340.756C289.058 336.042 283.761 335.267 279.196 336.515C266.362 340.046 259.256 355.481 250.04 365.083C242.654 372.768 233.094 377.999 223.296 382.219C218.559 384.264 213.585 386.115 208.438 385.986C199.954 385.793 192.332 380.131 187.573 373.113C182.814 366.073 180.424 357.763 178.099 349.604C173.426 333.178 168.753 316.753 164.081 300.327C161.023 289.563 157.879 278.648 152.108 269.047C146.337 259.445 137.487 251.179 126.613 248.552" stroke="#DF0006" stroke-width="4.77" stroke-miterlimit="10"/>
<path d="M174.672 446.996C162.377 452.4 148.187 450.247 135.073 447.406C121.938 444.564 108.329 441.119 95.2586 444.241C88.002 445.985 81.3483 449.666 74.2424 451.926C65.177 454.833 55.1211 455.328 46.185 452.055C37.2488 448.783 29.5831 441.442 27.1499 432.228C25.6641 426.588 26.1378 420.668 26.6115 414.855C27.5159 403.811 28.4418 392.768 29.3462 381.724C30.3798 369.173 29.9276 356.536 26.8053 344.33C26.1809 341.854 25.3841 339.378 25.0396 336.838C24.8027 334.944 24.8674 332.834 26.1378 331.413C28.0542 329.282 31.6502 329.885 33.9973 331.521C36.3444 333.178 38.0455 335.633 40.4142 337.247C41.0817 337.699 41.8999 338.108 42.6966 337.893C44.0963 337.527 44.3547 335.676 44.3547 334.233C44.3116 330.681 44.2901 327.108 44.247 323.555C44.2255 322.199 44.2255 320.821 44.6776 319.551C45.3882 317.549 47.2616 316.042 49.3503 315.741C51.439 315.461 53.6569 316.43 54.8627 318.173C55.8102 319.53 56.1332 321.209 56.5423 322.824C57.0806 324.912 57.7912 326.957 58.6956 328.894C59.2124 330.014 59.923 331.241 61.1288 331.564C63.2175 332.145 64.854 329.712 65.4354 327.624C66.0814 325.256 66.2967 322.802 66.9858 320.455C67.6533 318.109 68.8807 315.784 70.9479 314.471C73.015 313.157 76.0727 313.222 77.6446 315.095" stroke="#DF0006" stroke-width="4.77" stroke-miterlimit="10"/>
<path d="M93.0634 353.048C92.4174 359.507 87.9385 364.932 84.9239 370.766C82.7706 374.899 81.3064 379.441 81.2633 384.048C81.2203 388.655 82.7275 393.37 85.9144 396.857C88.8644 400.087 93.0849 402.089 97.4561 403.143C101.827 404.198 106.371 404.349 110.871 404.392C122.973 404.5 135.139 403.746 146.896 401.012" stroke="#DF0006" stroke-width="4.77" stroke-miterlimit="10"/>
<path d="M275.597 347.537C275.64 345.449 277.083 343.727 278.44 342.198C279.107 341.466 279.925 340.648 280.873 340.842C281.196 340.906 281.497 341.1 281.777 341.272C284.426 342.973 286.881 345.018 289.077 347.343C289.271 347.537 289.465 347.774 289.508 348.054C289.572 348.527 289.185 348.936 288.819 349.238C286.988 350.745 285.072 352.295 282.811 352.876C279.43 353.715 275.511 351.563 275.597 347.537Z" fill="#FF7EAF" stroke="#DF0006" stroke-width="4.77" stroke-miterlimit="10"/>
<path d="M79.8433 296.084C79.7572 287.775 84.1499 279.572 91.0835 275.03" stroke="#DF0006" stroke-width="4.77" stroke-miterlimit="10"/>
<path d="M203.183 275.462C201.547 273.287 197.111 265.623 189.79 268.078C186.797 269.089 185.009 269.972 182.339 272.254C181.069 273.33 179.497 275.462 178.786 276.947C177.344 279.918 177.796 283.448 179.023 286.462C178.033 287.28 176.396 288.292 176.568 289.541C176.741 290.876 178.377 291.586 179.691 291.285C181.004 290.983 182.598 290.381 183.545 289.412C184.816 290.359 186.517 291.199 187.959 291.586C189.402 291.974 190.866 292.469 192.374 292.49C197.326 292.598 200.879 290.962 203.183 287.733C205.573 284.396 204.863 278.002 202.623 274.644" stroke="#DF0006" stroke-width="4.77" stroke-miterlimit="10"/>
<path d="M183.781 294.966C187.313 298.626 193.04 299.573 198.101 298.518C203.161 297.464 204.388 295.397 208.695 292.534" stroke="#DF0006" stroke-width="4.77" stroke-miterlimit="10"/>
<path d="M187.678 276.258C186.235 277.27 185.223 279.035 185.46 280.779C185.589 281.64 185.998 282.437 186.494 283.147C186.967 283.815 187.506 284.417 188.195 284.869C189.788 285.924 191.877 285.924 193.772 285.58C194.827 285.386 195.882 285.085 196.786 284.503C197.691 283.922 198.466 283.061 198.724 282.028C199.047 280.822 198.66 279.552 198.143 278.433C197.26 276.56 195.473 274.256 193.126 274.321C191.532 274.364 188.97 275.376 187.678 276.258Z" fill="#FF7EAF" stroke="#DF0006" stroke-width="4.77" stroke-miterlimit="10"/>
<path d="M113.131 177.811C124.996 183.086 141.749 206.056 144.785 216.303C145.388 218.305 146.637 220.178 146.637 222.353" stroke="#DF0006" stroke-width="4.77" stroke-miterlimit="10"/>
<path d="M174.071 333.867C179.045 331.585 183.697 328.593 187.831 325.041C191.255 322.113 194.506 318.668 198.813 317.355C200.708 316.774 202.689 316.645 204.67 316.516C208.136 316.3 211.625 316.064 215.092 315.848C217.482 315.698 219.915 315.547 222.284 315.956C225.858 316.58 229.196 318.561 231.457 321.403C235.914 327.021 237.055 337.419 236.732 344.567C236.732 344.567 184.945 375.029 179.347 354.448C178.292 350.616 174.071 333.867 174.071 333.867Z" fill="#FF7EAF" stroke="#DF0006" stroke-width="4.77" stroke-miterlimit="10"/>
<path d="M177.323 343.296C183.675 341.078 189.575 337.591 194.614 333.135C196.444 331.52 198.188 329.755 200.406 328.764C202.84 327.688 205.574 327.645 208.223 327.602C212.917 327.559 217.633 327.516 222.327 327.451C223.167 327.451 224.006 327.43 224.825 327.645C227.322 328.269 228.916 330.723 229.799 333.135C231.521 337.935 231.263 343.425 229.11 348.053" stroke="#DF0006" stroke-width="4.77" stroke-miterlimit="10"/>
<path d="M216.125 334.685C215.845 335.159 215.501 336.321 215.35 336.838C214.359 340.347 214.704 343.425 214.812 347.085C214.941 351.821 218.731 351.025 220.259 349.884C220.647 349.604 221.358 348.463 221.465 348.226C222.068 346.87 222.111 346.31 222.24 344.868C222.305 344.093 222.24 343.382 222.24 342.607C222.24 340.39 222.305 336.127 220.884 334.383C219.936 333.199 217.202 333.199 216.125 334.685Z" fill="white" stroke="#DF0006" stroke-width="4.77" stroke-miterlimit="10"/>
<path d="M204.388 333.199C201.869 333.221 199.953 335.804 199.78 338.323C199.608 340.842 200.663 343.274 201.718 345.578C202.149 346.525 202.58 347.472 203.01 348.398C203.462 349.367 203.915 350.379 204.711 351.111C205.508 351.843 206.714 352.209 207.683 351.713C208.458 351.412 208.846 351.003 209.233 350.4C209.858 349.41 210.052 348.549 210.052 347.386C210.052 344.071 209.298 333.178 204.388 333.199Z" fill="white" stroke="#DF0006" stroke-width="4.77" stroke-miterlimit="10"/>
<path d="M196.098 346.483C195.388 345.471 195.302 345.6 194.656 344.911C194.031 344.222 193.213 343.749 192.416 343.275C192.179 343.124 191.899 342.995 191.641 343.06C191.189 343.167 191.081 343.727 191.06 344.179C190.995 347.516 192.481 350.853 195 353.049C195.668 353.63 196.507 354.147 197.369 353.974C198.338 353.759 198.919 352.661 198.855 351.671C198.811 350.681 198.295 349.776 197.778 348.937C197.132 347.882 196.486 347.042 195.775 346.052" fill="white"/>
<path d="M196.098 346.483C195.388 345.471 195.302 345.6 194.656 344.911C194.031 344.222 193.213 343.749 192.416 343.275C192.179 343.124 191.899 342.995 191.641 343.06C191.189 343.167 191.081 343.727 191.06 344.179C190.995 347.516 192.481 350.853 195 353.049C195.668 353.63 196.507 354.147 197.369 353.974C198.338 353.759 198.919 352.661 198.855 351.671C198.811 350.681 198.295 349.776 197.778 348.937C197.132 347.882 196.486 347.042 195.775 346.052" stroke="#DF0006" stroke-width="4.77" stroke-miterlimit="10"/>
<path d="M178.616 350.616C178.422 349.497 179.628 347.86 180.705 347.473C181.76 347.085 182.966 347.171 184.042 347.559C186.518 348.463 187.681 351.348 189.253 353.458C190.093 354.599 190.653 356.256 190.782 357.613C190.782 357.613 191.643 360.713 185.097 360.713C185.076 360.713 179.929 357.914 178.616 350.616Z" fill="white" stroke="#DF0006" stroke-width="4.77" stroke-miterlimit="10"/>
<path d="M172.369 282.846C171.767 279.208 171.185 275.505 171.508 271.824C171.831 268.142 173.188 264.418 175.922 261.942C177.731 260.306 180.014 259.316 182.361 258.692C185.978 257.723 190.027 257.594 193.3 259.445" stroke="#DF0006" stroke-width="4.77" stroke-miterlimit="10"/>
<path d="M129.131 228.036C133.954 224.871 139.359 222.438 145.022 221.383C163.498 217.96 184.708 213.978 202.515 220.436C214.682 224.849 227.774 229.715 236.193 240.177C240.478 245.473 246.206 253.18 248.725 258.045" stroke="#DF0006" stroke-width="4.77" stroke-miterlimit="10"/>
<path d="M150.556 220.458C147.951 221.47 145.711 222.633 143.601 224.484C141.749 226.12 139.768 228.618 138.842 232.449" stroke="#DF0006" stroke-width="4.77" stroke-miterlimit="10"/>
<path d="M222.778 258.045C222.714 263.664 219.398 268.745 215.048 272.62C213.153 274.321 211.194 277.055 209.062 278.411C204.884 281.059 204.109 284.74 204.884 287.065C205.961 290.294 209.622 294.255 214.768 291.823C218.515 290.057 225.125 282.178 226.977 278.648C228.032 276.624 231.219 275.698 232.877 277.356C234.535 278.992 234.019 281.64 233.093 283.728C232.188 285.816 230.358 287.948 228.678 289.584C225.879 292.318 223.144 294.471 219.441 296.193C213.756 298.841 199.695 305.342 208.459 311.37C213.175 314.061 220.991 310.143 226.03 307.237C230.293 304.783 234.212 301.058 236.839 297.076C238.82 294.062 241.469 288.615 244.742 289.907C248.252 291.801 243.816 297.571 241.383 300.498C236.667 306.203 232.447 310.466 226.008 313.587C224.049 314.535 220.905 317.333 220.776 319.4C220.668 321.122 222.24 322.565 222.714 322.931C228.765 327.43 236.882 320.67 242.438 316.644C247.218 313.157 252.925 306.311 255.013 300.994C257.059 295.784 258.157 289.412 258.157 283.857C258.157 273.761 252.989 264.913 248.338 257.378" stroke="#DF0006" stroke-width="4.77" stroke-miterlimit="10"/>
<path d="M211.474 282.717C212.098 282.179 212.852 281.77 213.692 281.727C214.51 281.684 215.393 282.071 215.78 282.781C216.254 283.643 215.974 284.74 215.414 285.537C214.854 286.334 214.058 286.915 213.347 287.604C212.917 287.862 212.357 287.797 211.926 287.582C211.495 287.367 211.129 286.979 210.806 286.613C209.471 285.171 210.031 283.987 211.474 282.717Z" fill="#FF7EAF" stroke="#DF0006" stroke-width="4.77" stroke-miterlimit="10"/>
<path d="M213.349 310.832C212.638 310.745 212.617 309.604 212.251 309.002C211.928 308.463 211.605 307.925 211.475 307.322C211.346 306.72 211.432 306.031 211.863 305.579C212.186 305.234 212.66 305.084 213.09 304.933C214.404 304.481 215.696 303.943 217.074 303.684C218.431 303.404 219.895 303.426 221.165 304.029C222.414 304.632 223.405 305.902 223.362 307.301C222.674 307.687 219.83 311.671 213.349 310.832Z" fill="#FF7EAF" stroke="#DF0006" stroke-width="4.77" stroke-miterlimit="10"/>
<path d="M229.453 323.555C228.053 323.813 228.312 320.95 227.989 319.572C227.838 318.905 227.73 318.151 228.139 317.592C228.355 317.312 228.656 317.14 228.958 316.967C230.077 316.365 231.24 315.869 232.446 315.46C233.695 315.03 235.181 314.75 236.257 315.503C237.097 316.085 237.765 318.883 238.066 319.874C238.066 319.874 234.858 322.608 229.453 323.555Z" fill="#FF7EAF" stroke="#DF0006" stroke-width="4.77" stroke-miterlimit="10"/>
<path d="M66.2981 202.848C93.2573 205.367 116.664 225.323 128.98 249.973" stroke="#DF0006" stroke-width="4.77" stroke-miterlimit="10"/>
<path d="M65.6299 211.653C74.7814 209.328 84.5358 209.479 93.6227 212.04" stroke="#DF0006" stroke-width="4.77" stroke-miterlimit="10"/>
<path d="M245.216 89.7407C225.319 85.349 198.64 64.8975 178.076 57.0183C157.512 49.1175 133.869 43.3481 113.994 52.8634C107.878 55.7912 102.495 60.0106 97.1765 64.187C90.1352 69.7197 83.0939 75.2739 76.0526 80.8066C65.3292 89.224 54.6058 97.6845 44.8945 107.243C40.1787 111.914 35.6353 116.93 32.8575 122.958C30.6827 127.673 28.7016 132.366 27.7111 137.447C25.7301 147.5 26.5914 158.156 29.7568 167.887C30.7473 170.922 31.4794 174.668 32.19 177.768C33.0944 181.772 34.494 186.272 35.0108 190.341C35.4846 194.151 37.0349 200.889 39.4897 205.733C42.2243 211.137 45.3897 215.356 51.2897 214.021C56.1562 212.923 57.7496 208.015 57.9434 203.021C58.1372 198.026 56.9745 193.225 55.4887 188.468C52.2157 178.048 48.9642 160.202 52.4094 157.252C55.8547 153.162 61.7117 155.293 65.6091 159.556C69.5066 163.818 73.1672 169.997 75.5143 175.271C78.2275 181.342 79.8855 186.552 84.0845 191.697C86.9053 195.184 89.8983 198.457 95.4107 196.971C98.0593 196.261 101.914 194.151 102.818 190.341C104.347 183.818 100.665 178.263 97.9301 172.15C95.1954 166.036 91.1903 160.568 88.0034 154.69C87.2497 153.313 86.5392 151.763 86.9483 150.256C87.4866 148.318 88.7355 147.931 90.652 148.404C91.621 148.641 96.4013 150.901 98.1455 151.956C105.833 156.585 113.24 162.979 122.004 164.959C124.502 165.519 131.069 166.509 133.309 164.335C135.742 161.967 136.668 157.941 136.474 155.638C136.237 152.925 134.385 150.385 132.124 148.835C118.774 139.664 106.306 138.609 92.5899 129.976C89.9198 128.297 84.795 124.982 84.1275 121.753C83.1585 117.06 84.9673 116.155 84.9673 116.155C95.5615 106.791 107.555 111.591 127.43 105.973C141.319 102.033 140.587 91.915 145.195 92.6039C153.442 93.831 156.564 101.064 164.424 105.607" stroke="#DF0006" stroke-width="4.77" stroke-miterlimit="10"/>
<path d="M91.8569 177.854C89.4668 177.488 86.969 179.318 86.7106 181.88C86.646 182.59 86.7106 183.3 86.8182 183.989C87.1197 186.379 87.6365 188.941 89.2299 190.663C89.3591 190.814 89.5098 190.943 89.6821 191.007C89.8543 191.072 90.0267 191.05 90.1989 191.029C91.4263 190.857 92.6106 190.405 93.7518 189.91C95.1515 189.285 96.5942 188.51 97.4125 187.132C98.6614 185.023 97.434 183.516 96.3573 181.772C95.2161 179.878 94.1179 178.198 91.8569 177.854Z" fill="#FF7EAF" stroke="#DF0006" stroke-width="4.77" stroke-miterlimit="10"/>
<path d="M48.4267 194.668C46.4457 194.108 44.2923 195.679 44.034 198.198C43.9478 198.887 44.0124 199.597 44.077 200.308C44.2923 202.719 44.6368 205.281 45.9503 207.154C46.058 207.304 46.1872 207.455 46.3164 207.541C46.4672 207.606 46.6179 207.606 46.7471 207.606C47.7807 207.541 48.7927 207.218 49.7617 206.809C50.9676 206.314 52.1734 205.668 52.884 204.377C53.9821 202.396 52.9917 200.781 52.1304 198.973C51.2044 196.971 50.3216 195.206 48.4267 194.668Z" fill="#FF7EAF" stroke="#DF0006" stroke-width="4.77" stroke-miterlimit="10"/>
<path d="M120.216 151.246C118.623 152.344 118.687 154.82 120.539 156.499C121.056 156.973 121.659 157.36 122.24 157.726C124.286 158.996 126.547 160.266 128.786 160.439C128.98 160.46 129.152 160.46 129.303 160.395C129.432 160.331 129.518 160.223 129.604 160.116C130.143 159.341 130.444 158.415 130.681 157.489C130.983 156.348 131.155 155.078 130.509 153.808C129.54 151.849 127.688 151.591 125.75 151.138C123.64 150.643 121.723 150.213 120.216 151.246Z" fill="#FF7EAF" stroke="#DF0006" stroke-width="4.77" stroke-miterlimit="10"/>
<path d="M140.306 96.694C143.988 93.637 143.256 84.7245 142.545 81.1294" stroke="#DF0006" stroke-width="4.77" stroke-miterlimit="10"/>
<path d="M384.189 131.914C393.383 132.366 402.319 136.908 408.306 144.184C414.292 151.461 417.22 161.342 416.208 170.836" stroke="#DF0006" stroke-width="4.77" stroke-miterlimit="10"/>
<path d="M354.907 455.133C366.879 457.458 379.907 458.126 390.673 452.313C401.892 446.264 408.804 433.971 411.539 421.378C414.273 408.784 411.431 395.996 412.508 383.144C413.52 371.088 414.532 359.054 415.544 346.999C416.018 341.294 416.513 335.503 418.451 330.142C420.346 324.868 423.554 320.196 426.698 315.568C437.163 300.111 440.888 291.543 440.888 272.77C440.888 258.218 420.238 218.542 415.07 225.603C412.809 228.703 398.748 236.453 399.265 236.195C407.038 232.298 415.91 225.431 416.987 223.579C421.401 216.066 423.748 209.199 423.92 195.119C424.071 182.827 416.039 168.575 408.007 160.179C397.456 149.179 381.586 145.282 366.492 144.636C351.397 143.991 336.238 146.1 321.165 144.83C310.14 143.904 299.244 141.17 288.177 141.407C277.109 141.644 265.308 145.454 259.064 154.733C254.413 161.622 253.552 170.384 252.927 178.715C252.066 190.103 251.441 201.685 253.961 212.815C256.48 223.945 262.595 234.731 272.414 240.306C280.834 245.107 290.89 245.581 300.472 246.894C310.054 248.207 321.703 252.254 327.711 259.918" stroke="#DF0006" stroke-width="4.77" stroke-miterlimit="10"/>
<path d="M370.772 203.408C378.222 201.794 384.381 195.357 385.673 187.843C386.965 180.33 383.347 172.214 376.866 168.188C375.746 167.478 375.574 166.122 375.38 164.809C375.186 163.495 375.079 162.075 374.239 161.063C373.507 160.18 372.279 159.728 371.16 159.965C370.04 160.202 369.071 161.084 368.748 162.182C368.597 162.656 368.576 163.172 368.576 163.668C368.554 165.088 368.726 166.509 369.049 167.887C363.515 168.899 358.886 173.118 356.582 178.242C354.73 182.311 354.019 186.982 355.096 191.309C356.173 195.637 359.123 199.598 363.236 201.363" stroke="#DF0006" stroke-width="4.77" stroke-miterlimit="10"/>
<path d="M384.339 164.314C390.066 165.562 395.191 169.33 398.098 174.432C401.005 179.534 401.63 185.863 399.778 191.417C397.732 197.574 392.198 202.827 385.717 203.086" stroke="#DF0006" stroke-width="4.77" stroke-miterlimit="10"/>
<path d="M364.356 176.305C362.354 177.489 361.126 179.62 360.373 181.816C359.533 184.205 359.167 186.853 359.985 189.243C360.803 191.632 363.043 193.656 365.562 193.635C367.263 193.635 368.813 192.752 370.256 191.869C372.043 190.771 373.895 189.437 374.563 187.456C376.587 181.407 371.957 171.827 364.356 176.305Z" fill="#FF7EAF" stroke="#DF0006" stroke-width="4.77" stroke-miterlimit="10"/>
<path d="M341.056 191.891C342.284 196.412 345.191 200.373 348.83 203.344C352.447 206.315 356.754 208.403 361.168 209.974" stroke="#DF0006" stroke-width="4.77" stroke-miterlimit="10"/>
<path d="M204.175 449.407C240.975 442.669 296.853 456.21 334.212 458.019C339.768 458.277 345.474 458.341 350.707 456.425C354.884 454.875 358.523 452.12 361.624 448.934C374.694 435.522 378.161 415.243 376.718 396.578C376.288 391.174 375.125 385.965 378.678 381.874C379.345 381.099 380.185 380.432 381.154 380.131" stroke="#DF0006" stroke-width="4.77" stroke-miterlimit="10"/>
<path d="M377.083 402.455C377.729 397.546 380.614 392.982 384.792 390.313" stroke="#DF0006" stroke-width="4.77" stroke-miterlimit="10"/>
<path d="M337.61 247.734C348.85 238.111 366.895 237.616 378.652 246.615C390.409 255.613 394.608 273.18 388.234 286.527C386.404 290.359 383.82 293.825 381.947 297.636C379.901 301.791 378.695 306.29 377.188 310.682C370.599 329.82 357.83 346.762 341.228 358.344C338.127 360.497 334.854 362.521 332.464 365.449C329.6 368.936 327.813 373.823 323.571 375.351C316.766 377.806 307.723 369.603 301.047 372.337" stroke="#DF0006" stroke-width="4.77" stroke-miterlimit="10"/>
<path d="M180.854 358.237C196.832 357.246 213.197 356.062 227.732 349.41C245.884 341.101 260.139 324.739 279.518 319.939C284.083 318.798 288.799 318.367 293.343 317.14C297.886 315.913 302.386 313.76 305.186 309.971C307.791 306.484 308.631 302.027 309.665 297.808C313.153 283.578 322.305 266.636 331.219 254.967" stroke="#DF0006" stroke-width="4.77" stroke-miterlimit="10"/>
<path d="M43.9929 396.384C48.9886 401.357 45.3926 411.324 48.967 417.61C50.8189 420.861 54.3287 422.54 57.817 423.1C61.3269 423.638 64.9229 423.207 68.4759 423.143C73.9668 423.014 79.4146 423.702 84.6686 425.209" stroke="#DF0006" stroke-width="4.77" stroke-miterlimit="10"/>
<path d="M295.602 316.494C303.052 315.159 310.826 315.568 318.104 317.635" stroke="#DF0006" stroke-width="4.77" stroke-miterlimit="10"/>
<path d="M317.091 359.873C321.763 358.129 325.402 353.888 326.414 349.001" stroke="#DF0006" stroke-width="4.77" stroke-miterlimit="10"/>
<path d="M327.234 166.294C326.373 166.294 325.361 166.38 324.952 167.134C324.5 167.995 325.232 169.028 326.028 169.566C327.084 170.277 328.333 170.686 329.581 170.815C331.304 171.009 333.953 169.954 333.091 167.672C332.359 165.734 328.892 166.294 327.234 166.294Z" stroke="#DF0006" stroke-width="4.77" stroke-miterlimit="10"/>
<path d="M328.525 181.601C327.47 181.17 326.243 181.859 325.683 182.828C325.123 183.796 325.08 184.98 325.123 186.121C325.123 186.272 325.145 186.466 325.252 186.574C325.338 186.66 325.489 186.681 325.618 186.703C326.63 186.81 327.707 186.66 328.547 186.1C329.386 185.54 329.968 184.507 329.796 183.495C329.623 182.483 328.611 181.644 327.621 181.837" stroke="#DF0006" stroke-width="4.77" stroke-miterlimit="10"/>
<path d="M310.395 165.842C310.782 170.191 309.017 171.655 308.306 173.7C307.1 177.144 308.349 178.716 308.435 182.354C308.543 186.616 307.1 190.922 304.28 194.108C301.459 197.294 297.26 199.296 292.996 199.189C291.618 199.167 290.219 198.909 288.991 198.263C285.395 196.39 284.189 191.654 284.964 187.671C285.74 183.689 288.001 180.201 289.788 176.563C290.865 174.41 291.79 172.128 291.963 169.717C292.135 167.306 291.446 164.744 289.702 163.086C287.678 161.17 284.426 160.783 281.864 161.902C279.301 163.022 277.428 165.455 276.674 168.146C275.985 170.557 276.114 173.097 275.921 175.594C275.425 181.708 272.884 187.714 273.66 193.785C274.09 197.208 275.641 200.502 278.16 202.848C280.679 205.195 284.211 205.819 287.656 205.992C289.465 206.078 291.575 205.862 293.362 205.432C296.377 204.721 298.832 203.473 301.351 202.418C304.796 200.976 307.402 198.242 310.416 196.046C311.902 194.969 313.302 193.678 314.249 192.085C316.101 188.985 316.037 185.131 315.563 181.536C315.089 177.962 314.271 174.346 314.766 170.772C315.089 168.555 315.907 166.445 316.23 164.227C316.553 162.01 316.273 159.534 314.701 157.941C313.043 156.262 309.749 155.423 307.596 156.262C306.045 156.93 305.571 157.704 306.368 159.039C307.337 160.783 310.201 163.668 310.395 165.842Z" fill="#FF7EAF" stroke="#DF0006" stroke-width="4.77" stroke-miterlimit="10"/>
<path d="M303.828 163.044C302.966 163.065 302.105 163.108 301.287 163.367C300.468 163.625 299.693 164.163 299.327 164.917C299.069 165.455 299.004 166.079 298.961 166.682C298.897 167.823 298.854 168.985 298.854 170.126C298.854 170.643 298.875 171.16 299.09 171.612C299.499 172.408 300.447 172.774 301.308 172.99C303.246 173.485 305.249 173.765 307.23 173.786C307.467 173.786 307.704 173.786 307.897 173.657C308.07 173.528 308.156 173.313 308.242 173.119C308.888 171.483 309.448 169.782 309.577 168.038C309.663 166.79 309.62 164.4 308.586 163.474C307.553 162.527 305.141 163.001 303.828 163.044Z" stroke="#DF0006" stroke-width="4.77" stroke-miterlimit="10"/>
<path d="M300.835 178.328C298.919 177.984 296.722 177.725 295.258 178.995C294.311 179.814 293.923 181.084 293.665 182.311C293.428 183.43 293.277 184.679 293.794 185.712C294.354 186.832 295.56 187.456 296.701 187.951C299.177 189.027 301.782 189.867 304.453 190.427C304.819 190.513 305.228 190.577 305.594 190.47C306.154 190.319 306.52 189.802 306.8 189.307C308.135 186.939 308.587 183.559 308.221 180.868C308.006 179.211 307.037 179.469 305.443 179.189C303.914 178.888 302.364 178.608 300.835 178.328Z" stroke="#DF0006" stroke-width="4.77" stroke-miterlimit="10"/>
<path d="M362.225 164.529C355.808 165.713 350.016 170.212 347.561 176.24C345.085 182.289 346.14 189.673 350.382 194.646" stroke="#DF0006" stroke-width="4.77" stroke-miterlimit="10"/>
<circle cx="174" cy="134" r="2" fill="#DF0006"/>
<ellipse cx="366.5" cy="184" rx="1.5" ry="2" fill="#DF0006"/>
<circle cx="194" cy="280" r="2" fill="#DF0006"/>
</svg>
