<svg width="180" height="63" viewBox="0 0 180 63" fill="none" xmlns="http://www.w3.org/2000/svg">
<path d="M135.5 54.5L124.5 40.5H142V46.5L137.5 49L135.5 54.5Z" fill="white" stroke="white"/>
<path d="M125.953 41.2838C120.864 44.5352 114.771 45.6261 109.062 44.2999C106.775 43.7651 104.573 42.8667 102.37 41.9683C101.152 41.4763 100.126 40.6207 98.8427 40.4282C97.7095 40.2571 96.1488 41.1983 95.1012 41.84C92.8135 43.2304 90.2265 44.4924 85.7367 44.4924C84.8815 44.4924 79.7502 44.8774 79.344 45.4977C78.1681 47.3801 83.9193 49.9042 85.7367 50.9309C87.554 51.9577 89.9913 53.6261 90.0982 55.9363C90.2051 57.9898 88.3237 58.5246 86.5277 58.5032C84.7318 58.4818 83.1283 57.3267 81.6317 56.2144C76.928 52.6849 72.3099 49.4764 67.8415 45.5406C67.1573 44.9416 66.2379 43.8721 66.58 42.4817C66.7083 41.9255 67.478 40.9843 68.547 40.7491C72.2458 39.9148 75.7521 39.6796 79.5792 37.7116C80.0281 37.4977 82.38 36.5565 81.2041 35.872C78.7881 34.4389 78.9591 34.503 77.0777 31.8506C76.2866 30.7383 74.9397 30.2677 73.6996 30.1822C72.4809 30.0966 71.3264 30.6955 70.1933 31.2517C51.507 40.5351 30.2551 37.3052 9.94396 35.5512C6.69418 35.2731 -1.55856 33.3907 6.39486 32.5993C18.0898 32.364 29.8703 33.2624 41.5652 33.0057C47.4662 32.8774 53.5167 31.5512 58.7335 28.3854C64.9338 24.6207 68.8249 17.2837 74.3196 12.257C79.4723 7.55106 85.9291 5.02703 92.4073 3.7436C99.1634 2.41739 106.24 2.35324 112.718 4.8987C120.864 8.10727 127.385 15.1233 133.692 21.8827C134.569 22.8024 135.51 23.7864 136.686 23.9789C137.862 24.1715 139.251 23.1447 139.123 21.7971C139.08 21.241 138.781 20.7704 138.482 20.3212C136.985 18.1394 134.932 16.5565 133.329 14.4602C131.747 12.364 130.656 9.3479 131.64 6.82383C132.923 3.48692 136.899 2.93078 139.978 3.76501C142.501 4.44951 145.024 5.83983 146.478 8.32112C147.269 9.66872 147.718 11.273 148.487 12.642C150.134 15.5297 153.041 17.0271 155.799 18.3961C161.23 21.0913 166.639 23.7651 172.07 26.4602C174.122 27.4656 176.431 28.8774 176.795 31.4014C177.03 33.0271 176.303 34.6742 175.234 35.7437C172.284 38.6742 167.815 37.3693 163.924 37.3266C156.89 37.241 153.832 40.3854 147.247 43.2304C145.965 43.7865 142.847 45.4978 141.5 45.5406" fill="white"/>
<path d="M125.953 41.2838C120.864 44.5352 114.771 45.6261 109.062 44.2999C106.775 43.7651 104.573 42.8667 102.37 41.9683C101.152 41.4763 100.126 40.6207 98.8427 40.4282C97.7095 40.2571 96.1488 41.1983 95.1012 41.84C92.8135 43.2304 90.2265 44.4924 85.7367 44.4924C84.8815 44.4924 79.7502 44.8774 79.344 45.4977C78.1681 47.3801 83.9193 49.9042 85.7367 50.9309C87.554 51.9577 89.9913 53.6261 90.0982 55.9363C90.2051 57.9898 88.3237 58.5246 86.5277 58.5032C84.7318 58.4818 83.1283 57.3267 81.6317 56.2144C76.928 52.6849 72.3099 49.4764 67.8415 45.5406C67.1573 44.9416 66.2379 43.8721 66.58 42.4817C66.7083 41.9255 67.478 40.9843 68.547 40.7491C72.2458 39.9148 75.7521 39.6796 79.5792 37.7116C80.0281 37.4977 82.38 36.5565 81.2041 35.872C78.7881 34.4389 78.9591 34.503 77.0777 31.8506C76.2866 30.7383 74.9397 30.2677 73.6996 30.1822C72.4809 30.0966 71.3264 30.6955 70.1933 31.2517C51.507 40.5351 30.2551 37.3052 9.94396 35.5512C6.69418 35.2731 -1.55856 33.3907 6.39486 32.5993C18.0898 32.364 29.8703 33.2624 41.5652 33.0057C47.4662 32.8774 53.5167 31.5512 58.7335 28.3854C64.9338 24.6207 68.8249 17.2837 74.3196 12.257C79.4723 7.55106 85.9291 5.02703 92.4073 3.7436C99.1634 2.41739 106.24 2.35324 112.718 4.8987C120.864 8.10727 127.385 15.1233 133.692 21.8827C134.569 22.8024 135.51 23.7864 136.686 23.9789C137.862 24.1715 139.251 23.1447 139.123 21.7971C139.08 21.241 138.781 20.7704 138.482 20.3212C136.985 18.1394 134.932 16.5565 133.329 14.4602C131.747 12.364 130.656 9.3479 131.64 6.82383C132.923 3.48692 136.899 2.93078 139.978 3.76501C142.501 4.44951 145.024 5.83983 146.478 8.32112C147.269 9.66872 147.718 11.273 148.487 12.642C150.134 15.5297 153.041 17.0271 155.799 18.3961C161.23 21.0913 166.639 23.7651 172.07 26.4602C174.122 27.4656 176.431 28.8774 176.795 31.4014C177.03 33.0271 176.303 34.6742 175.234 35.7437C172.284 38.6742 167.815 37.3693 163.924 37.3266C156.89 37.241 153.832 40.3854 147.247 43.2304C145.965 43.7865 142.847 45.4978 141.5 45.5406" stroke="#DF0006" stroke-width="4.76691" stroke-miterlimit="10"/>
<path d="M91.7231 43.5084C91.7231 43.5084 114.814 34.6314 94.2674 21.0698Z" fill="white"/>
<path d="M91.7231 43.5084C91.7231 43.5084 114.814 34.6314 94.2674 21.0698" stroke="#DF0006" stroke-width="4.76691" stroke-miterlimit="10"/>
<path d="M123.173 32.1287C122.574 40.364 127.385 46.0325 132.751 51.5512Z" fill="white"/>
<path d="M123.173 32.1287C122.574 40.364 127.385 46.0325 132.751 51.5512" stroke="#DF0006" stroke-width="4.76691" stroke-miterlimit="10"/>
<path d="M142.437 42.5246C142.608 43.8936 142.715 45.4123 142.095 46.5887C141.56 47.6155 140.555 48.2144 139.529 48.4497C138.503 48.685 137.455 48.578 136.429 48.4925C135.553 47.8935 137.284 49.5192 137.733 50.0112C140.256 52.685 143.506 54.8027 146.777 55.6369C147.632 55.8508 148.637 56.1289 148.936 57.07C149.172 57.8187 148.808 58.6743 148.252 59.1235C147.696 59.5727 146.97 59.7011 146.285 59.7011C143.72 59.7653 141.218 58.6529 139.059 57.0486C136.899 55.4444 133.992 52.9845 132.153 50.9096" fill="white"/>
<path d="M142.437 42.5246C142.608 43.8936 142.715 45.4123 142.095 46.5887C141.56 47.6155 140.555 48.2144 139.529 48.4497C138.503 48.685 137.455 48.578 136.429 48.4925C135.553 47.8935 137.284 49.5192 137.733 50.0112C140.256 52.685 143.506 54.8027 146.777 55.6369C147.632 55.8508 148.637 56.1289 148.936 57.07C149.172 57.8187 148.808 58.6743 148.252 59.1235C147.696 59.5727 146.97 59.7011 146.285 59.7011C143.72 59.7653 141.218 58.6529 139.059 57.0486C136.899 55.4444 133.992 52.9845 132.153 50.9096" stroke="#DF0006" stroke-width="4.76691" stroke-miterlimit="10"/>
<path d="M160.866 27.166C160.994 26.9949 160.802 26.7811 160.61 26.6741C159.134 25.8399 157.403 25.4762 155.714 25.6259C155.649 25.7115 155.692 25.8613 155.778 25.9254C155.863 25.9896 155.991 26.011 156.098 26.0324C156.889 26.1607 157.68 26.3746 158.429 26.6955C158.856 26.9094 160.438 27.7008 160.866 27.166Z" fill="white" stroke="#DF0006" stroke-width="4.76691" stroke-miterlimit="10"/>
<path d="M113.467 45.5189C114.536 48.0858 114.921 50.8879 115.84 53.5189C116.738 56.15 118.341 58.7382 120.822 59.6794C121.826 60.0644 123.173 60.0002 123.665 58.9949C124.007 58.3104 123.772 57.4334 123.344 56.8131C122.917 56.1928 122.318 55.7008 121.805 55.1446C120.736 53.9254 120.137 52.2997 119.881 50.6312C119.624 48.9628 119.902 46.5243 119.945 44.8344" fill="white"/>
<path d="M113.467 45.5189C114.536 48.0858 114.921 50.8879 115.84 53.5189C116.738 56.15 118.341 58.7382 120.822 59.6794C121.826 60.0644 123.173 60.0002 123.665 58.9949C124.007 58.3104 123.772 57.4334 123.344 56.8131C122.917 56.1928 122.318 55.7008 121.805 55.1446C120.736 53.9254 120.137 52.2997 119.881 50.6312C119.624 48.9628 119.902 46.5243 119.945 44.8344" stroke="#DF0006" stroke-width="4.76691" stroke-miterlimit="10"/>
<path d="M93.5 45C93.5 45 99.0561 55.7224 104.615 57.7117C110.11 59.701 109.981 55.7011 109.981 55.7011C109.981 55.7011 110.174 52.7705 106.881 51.8293C103.717 50.9095 100.873 41.562 100.873 41.562" fill="white"/>
<path d="M93.5 45C93.5 45 99.0561 55.7224 104.615 57.7117C110.11 59.701 109.981 55.7011 109.981 55.7011C109.981 55.7011 110.174 52.7705 106.881 51.8293C103.717 50.9095 100.873 41.562 100.873 41.562" stroke="#DF0006" stroke-width="4.76691" stroke-miterlimit="10"/>
</svg>
