<svg width="288" height="192" viewBox="0 0 288 192" fill="none" xmlns="http://www.w3.org/2000/svg">
<path d="M168.185 52.9916C174.193 48.7349 180.244 44.4568 187.021 41.398C196.129 37.291 206.263 35.5369 215.371 31.43C222.94 28.0075 229.61 23.0663 236.923 19.1733C251.568 11.3871 281.201 3.19463 285.477 9.84706C286.011 13.9968 281.778 17.4835 277.459 18.4247C273.141 19.3658 268.651 18.5958 264.246 18.8311C250.927 19.5583 240.258 29.0128 228.541 35.0449C220.203 39.3444 211.053 41.9969 202.458 45.8044C188.09 52.1574 175.519 61.612 163.353 71.2377C161.237 72.9061 159.099 74.6173 156.554 75.5799C151.231 77.612 141.182 77.4194 135.773 76.0932C145.608 67.6012 157.517 60.5638 168.185 52.9916Z" fill="white" stroke="#DF0006" stroke-width="4.76691" stroke-miterlimit="10"/>
<path d="M109.496 77.569C106.973 72.5636 102.077 68.585 96.3469 66.8738C93.5889 66.0395 90.6812 65.7187 87.8376 65.1197C81.616 63.7935 77.2331 56.6064 70.9259 57.3337C67.6548 57.7187 65.9657 56.7562 66.543 55.323C67.0561 52.4995 66.7568 49.5475 65.6878 46.8523C65.3885 46.0823 65.0036 45.2908 64.9822 44.4566C64.9609 43.3015 65.6023 42.2534 66.1795 41.2266C68.2106 37.7186 69.6645 33.7613 69.0872 29.8255C68.51 25.8897 65.4526 22.0822 61.1766 21.355C59.3165 21.0341 57.2212 21.3763 55.9598 22.6598C53.0521 25.6116 56.4729 30.0608 56.9433 33.9967C57.2212 36.3496 56.2805 38.8096 54.4418 40.4994C53.6508 41.2267 52.6887 41.8256 52.1755 42.7454C51.5769 43.7935 51.6838 45.0556 51.812 46.2321C52.4748 51.9219 53.7149 57.7614 57.2854 62.4459C59.7441 65.6759 63.2932 68.2428 67.3127 69.6973C72.0804 71.4299 77.34 71.5797 82.4071 72.3497C87.4742 73.0984 92.7551 74.6813 95.9193 78.3604C100.195 77.4192 105.091 77.3123 109.496 77.569Z" fill="white" stroke="#DF0006" stroke-width="4.76691" stroke-miterlimit="10"/>
<path d="M111.505 77.5476C112.745 76.8417 114.028 76.1145 114.755 74.9595C115.482 73.8044 115.375 72.1146 114.156 71.3873C113.601 71.0664 109.218 65.6973 107.251 62.5743C103.06 55.9647 105.562 43.8149 108.127 38.4031C109.196 36.1357 110.436 33.8256 112.446 32.1571C115.033 29.9753 118.582 29.0984 121.554 27.3871C127.07 24.2641 130.384 18.1678 129.828 12.2641C129.636 10.1464 129.55 7.96458 129.507 5.84693C129.507 5.35495 129.507 4.82022 129.828 4.4138C130.085 4.11434 130.469 3.94313 130.854 3.7934C134.852 2.33885 140.219 3.62224 141.908 7.23723C142.4 8.26397 142.549 9.41914 142.678 10.5314C143.127 14.5956 143.105 18.7239 142.635 22.7881C142.507 23.9646 142.314 25.1411 141.673 26.1679C140.967 27.2802 139.791 28.0716 138.637 28.8202C132.907 32.6491 127.305 36.8845 123.713 42.4888C120.121 48.0931 118.86 55.3017 122.088 61.0771C123.82 64.1787 126.771 66.8738 127.198 70.339C127.669 74.2535 124.761 77.7402 122.003 80.7776" fill="white"/>
<path d="M111.505 77.5476C112.745 76.8417 114.028 76.1145 114.755 74.9595C115.482 73.8044 115.375 72.1146 114.156 71.3873C113.601 71.0664 109.218 65.6973 107.251 62.5743C103.06 55.9647 105.562 43.8149 108.127 38.4031C109.196 36.1357 110.436 33.8256 112.446 32.1571C115.033 29.9753 118.582 29.0984 121.554 27.3871C127.07 24.2641 130.384 18.1678 129.828 12.2641C129.636 10.1464 129.55 7.96458 129.507 5.84693C129.507 5.35495 129.507 4.82022 129.828 4.4138C130.085 4.11434 130.469 3.94313 130.854 3.7934C134.852 2.33885 140.219 3.62224 141.908 7.23723C142.4 8.26397 142.549 9.41914 142.678 10.5314C143.127 14.5956 143.105 18.7239 142.635 22.7881C142.507 23.9646 142.314 25.1411 141.673 26.1679C140.967 27.2802 139.791 28.0716 138.637 28.8202C132.907 32.6491 127.305 36.8845 123.713 42.4888C120.121 48.0931 118.86 55.3017 122.088 61.0771C123.82 64.1787 126.771 66.8738 127.198 70.339C127.669 74.2535 124.761 77.7402 122.003 80.7776" stroke="#DF0006" stroke-width="4.76691" stroke-miterlimit="10"/>
<path d="M39.8179 74.6814C32.2707 72.906 25.0442 69.9756 18.5232 66.0397C15.2307 64.0504 12.0664 61.7616 9.9498 58.7241C7.49108 55.1733 6.65724 50.8953 5.88755 46.7669C5.75927 46.0397 5.63098 45.2268 6.07996 44.6065C6.37929 44.2001 6.84967 43.9648 7.34142 43.7936C10.976 42.4888 15.6155 44.692 16.5349 48.1786C16.8342 49.3337 16.8128 50.66 17.6253 51.5798C18.9936 53.1413 21.7302 52.6492 23.7186 53.4834C26.7332 54.7455 27.225 58.5102 29.5768 60.6279C30.881 61.8044 32.6983 62.4034 34.4301 62.9595C48.7762 67.5585 63.1222 72.1574 77.4683 76.735C71.9309 74.9596 65.3672 80.5425 59.7442 79.259C53.1591 77.7403 46.4457 76.2429 39.8179 74.6814Z" fill="white" stroke="#DF0006" stroke-width="4.76691" stroke-miterlimit="10"/>
<path d="M36.7401 85.5906C33.7255 85.5478 30.5398 85.5693 27.9742 87.0238C25.2589 88.564 23.7196 91.6869 24.2755 94.5532C24.361 94.9596 24.4892 95.3874 24.8527 95.6013C25.1306 95.7724 25.5155 95.7939 25.8576 95.7939C27.739 95.8367 29.6419 95.8795 31.4164 95.3019C32.3571 95.0025 33.2123 94.5318 34.1103 94.1468C39.7119 91.6869 46.7674 92.2431 51.8559 95.5372C51.1717 95.088 54.8063 91.0879 54.8063 90.5318C54.8063 88.6494 52.6469 88.0505 50.6158 87.3446C46.2115 85.8259 41.3796 85.6761 36.7401 85.5906Z" fill="white" stroke="#DF0006" stroke-width="4.76691" stroke-miterlimit="10"/>
<path d="M164.081 136.842C169.917 141.334 175.797 145.869 182.425 149.206C191.362 153.676 201.41 155.858 210.326 160.35C217.745 164.072 224.202 169.291 231.343 173.484C245.646 181.869 274.915 191.281 279.469 184.799C280.175 180.671 276.091 177.013 271.815 175.901C267.539 174.789 263.028 175.366 258.624 174.938C245.347 173.676 235.063 163.794 223.603 157.27C215.457 152.628 206.413 149.591 197.99 145.441C183.9 138.489 171.735 128.542 159.976 118.403C157.945 116.649 155.871 114.852 153.369 113.783C148.152 111.537 138.082 111.302 132.63 112.414C142.123 121.312 153.711 128.842 164.081 136.842Z" fill="white" stroke="#DF0006" stroke-width="4.76691" stroke-miterlimit="10"/>
<path d="M106.846 115.194C104.323 120.2 99.4267 124.178 93.6968 125.89C90.9388 126.724 88.031 127.045 85.1875 127.644C78.9658 128.97 74.5829 136.157 68.2758 135.43C65.0046 135.045 63.3156 136.007 63.8928 137.44C64.406 140.264 64.1066 143.216 63.0376 145.911C62.7383 146.681 62.3535 147.473 62.3321 148.307C62.3107 149.462 62.9521 150.51 63.5294 151.537C65.5605 155.045 67.0144 159.002 66.4371 162.938C65.8598 166.874 62.8024 170.681 58.5264 171.408C56.6663 171.729 54.5711 171.387 53.3097 170.104C50.402 167.152 53.8228 162.703 54.2931 158.767C54.5711 156.414 53.6304 153.954 51.7917 152.264C51.0006 151.537 50.0385 150.938 49.5254 150.018C48.9267 148.97 49.0336 147.708 49.1619 146.531C49.8247 140.841 51.0647 135.002 54.6352 130.317C57.0939 127.088 60.6431 124.521 64.6625 123.066C69.4303 121.333 74.6898 121.184 79.7569 120.414C84.824 119.665 90.1049 118.082 93.2692 114.403C97.5238 115.344 102.441 115.451 106.846 115.194Z" fill="white" stroke="#DF0006" stroke-width="4.76691" stroke-miterlimit="10"/>
<path d="M108.855 115.216C110.095 115.922 111.378 116.649 112.105 117.804C112.832 118.96 112.725 120.649 111.507 121.377C110.951 121.698 106.568 127.067 104.601 130.19C100.41 136.799 102.912 148.949 105.477 154.361C106.546 156.628 107.786 158.938 109.796 160.607C112.383 162.789 115.932 163.666 118.904 165.377C124.42 168.5 127.734 174.596 127.178 180.5C126.986 182.617 126.9 184.799 126.857 186.917C126.857 187.409 126.857 187.944 127.178 188.35C127.435 188.65 127.82 188.821 128.204 188.97C132.203 190.425 137.569 189.142 139.258 185.527C139.75 184.5 139.899 183.345 140.028 182.232C140.477 178.168 140.455 174.04 139.985 169.976C139.857 168.799 139.664 167.623 139.023 166.596C138.317 165.484 137.141 164.692 135.987 163.944C130.257 160.115 124.655 155.879 121.063 150.275C117.472 144.671 116.21 137.462 119.439 131.687C121.17 128.585 124.121 125.89 124.548 122.425C125.019 118.51 122.111 115.024 119.353 111.986" fill="white"/>
<path d="M108.855 115.216C110.095 115.922 111.378 116.649 112.105 117.804C112.832 118.96 112.725 120.649 111.507 121.377C110.951 121.698 106.568 127.067 104.601 130.19C100.41 136.799 102.912 148.949 105.477 154.361C106.546 156.628 107.786 158.938 109.796 160.607C112.383 162.789 115.932 163.666 118.904 165.377C124.42 168.5 127.734 174.596 127.178 180.5C126.986 182.617 126.9 184.799 126.857 186.917C126.857 187.409 126.857 187.944 127.178 188.35C127.435 188.65 127.82 188.821 128.204 188.97C132.203 190.425 137.569 189.142 139.258 185.527C139.75 184.5 139.899 183.345 140.028 182.232C140.477 178.168 140.455 174.04 139.985 169.976C139.857 168.799 139.664 167.623 139.023 166.596C138.317 165.484 137.141 164.692 135.987 163.944C130.257 160.115 124.655 155.879 121.063 150.275C117.472 144.671 116.21 137.462 119.439 131.687C121.17 128.585 124.121 125.89 124.548 122.425C125.019 118.51 122.111 115.024 119.353 111.986" stroke="#DF0006" stroke-width="4.76691" stroke-miterlimit="10"/>
<path d="M37.168 118.082C29.6208 119.858 22.3943 122.788 15.8733 126.724C12.5808 128.713 9.41652 131.002 7.29988 134.04C4.84116 137.59 4.00732 141.868 3.23763 145.997C3.10935 146.724 2.9811 147.537 3.43008 148.157C3.7294 148.564 4.19976 148.799 4.6915 148.97C8.32613 150.275 12.9656 148.072 13.885 144.585C14.1843 143.43 14.1629 142.104 14.9754 141.184C16.3437 139.622 19.0804 140.114 21.0687 139.28C24.0833 138.018 24.575 134.275 26.9269 132.136C28.2311 130.959 30.0484 130.36 31.7802 129.804C46.1263 125.205 60.4724 120.606 74.8185 116.029C69.281 117.804 62.7173 112.221 57.0943 113.505C50.5092 115.024 43.7958 116.521 37.168 118.082Z" fill="white" stroke="#DF0006" stroke-width="4.76691" stroke-miterlimit="10"/>
<path d="M37.5528 112.307C34.6024 112.842 31.4595 113.334 28.6587 112.328C25.6869 111.259 23.5702 108.435 23.5488 105.505C23.5488 105.098 23.5916 104.649 23.9123 104.371C24.1689 104.157 24.5323 104.072 24.853 104.008C26.6917 103.665 28.5732 103.302 30.4119 103.58C31.3954 103.73 32.3361 104.05 33.2982 104.286C39.306 105.804 46.1263 104.115 50.4878 100.05C49.8892 100.606 54.2722 103.965 54.3791 104.5C54.7425 106.361 52.7328 107.302 50.8727 108.328C46.8532 110.532 42.1068 111.473 37.5528 112.307Z" fill="white" stroke="#DF0006" stroke-width="4.76691" stroke-miterlimit="10"/>
<path d="M111.186 77.2267C115.356 78.9165 119.525 80.5849 123.715 82.2748C124.656 82.6598 125.618 83.0449 126.259 83.7721C126.879 84.478 127.115 85.4192 127.328 86.3176C128.269 90.4887 128.953 94.724 129.381 98.9593C129.616 101.269 129.766 103.665 128.825 105.804C127.115 109.804 122.304 111.794 117.964 113.376C110.695 116.05 103.276 118.745 95.472 119.43C90.9181 119.836 86.3213 119.537 81.7673 119.152C75.6954 118.639 69.4951 117.933 64.0218 115.451C59.6816 113.462 56.0042 110.425 52.4124 107.43C51.1509 106.382 49.8254 105.27 49.184 103.815C48.6495 102.617 48.6067 101.27 48.6067 99.9861C48.6067 96.6064 48.7991 93.1412 50.4026 90.1038C52.9683 85.2481 58.634 82.4459 64.1501 80.5422C81.1473 74.7026 100.389 74.4245 117.579 79.7935" fill="white"/>
<path d="M111.186 77.2267C115.356 78.9165 119.525 80.5849 123.715 82.2748C124.656 82.6598 125.618 83.0449 126.259 83.7721C126.879 84.478 127.115 85.4192 127.328 86.3176C128.269 90.4887 128.953 94.724 129.381 98.9593C129.616 101.269 129.766 103.665 128.825 105.804C127.115 109.804 122.304 111.794 117.964 113.376C110.695 116.05 103.276 118.745 95.472 119.43C90.9181 119.836 86.3213 119.537 81.7673 119.152C75.6954 118.639 69.4951 117.933 64.0218 115.451C59.6816 113.462 56.0042 110.425 52.4124 107.43C51.1509 106.382 49.8254 105.27 49.184 103.815C48.6495 102.617 48.6067 101.27 48.6067 99.9861C48.6067 96.6064 48.7991 93.1412 50.4026 90.1038C52.9683 85.2481 58.634 82.4459 64.1501 80.5422C81.1473 74.7026 100.389 74.4245 117.579 79.7935" stroke="#DF0006" stroke-width="4.76691" stroke-miterlimit="10"/>
<path d="M179.132 121.612C185.012 122.125 190.934 122.617 196.792 122.061C207.14 121.077 216.761 116.82 225.869 112.2C227.558 111.344 229.269 110.446 230.594 109.141C233.096 106.681 233.822 103.152 234.421 99.8365C235.191 95.644 235.896 91.045 233.502 87.3872C232.689 86.1466 231.535 85.0984 230.359 84.1144C218.728 74.4673 202.501 70.4673 186.786 70.339C171.072 70.1892 155.614 73.5261 140.327 76.8844C136.757 77.6759 133.122 78.4887 129.894 80.1144C123.736 83.2374 119.588 89.4621 119.374 95.9006C119.032 106.232 126.088 112.072 135.794 114.895C149.841 119.024 164.529 120.371 179.132 121.612Z" fill="white" stroke="#DF0006" stroke-width="4.76691" stroke-miterlimit="10"/>
<path d="M186.487 80.6065C185.012 81.89 184.777 83.9649 184.841 85.8258C184.862 86.382 184.883 86.9594 185.161 87.4514C185.61 88.307 186.637 88.7563 187.641 88.9916C189.608 89.4408 191.853 89.2269 193.457 88.0718C195.06 86.9167 195.83 84.7562 194.954 83.0878C193.457 80.2642 189.48 78.0183 186.487 80.6065Z" fill="#FF7EAF" stroke="#DF0006" stroke-width="4.76691" stroke-miterlimit="10"/>
<path d="M58.0773 102.596C56.8587 102.339 55.5331 103.216 55.3834 104.35C55.2338 105.484 56.3455 106.596 57.5856 106.596C58.8256 106.596 59.916 105.462 59.7663 104.35C59.7022 103.794 59.3815 103.302 58.9539 102.895C58.5691 102.532 57.8635 102.232 57.5001 102.617" fill="#FF7EAF"/>
<path d="M58.0773 102.596C56.8587 102.339 55.5331 103.216 55.3834 104.35C55.2338 105.484 56.3455 106.596 57.5856 106.596C58.8256 106.596 59.916 105.462 59.7663 104.35C59.7022 103.794 59.3815 103.302 58.9539 102.895C58.5691 102.532 57.8635 102.232 57.5001 102.617" stroke="#DF0006" stroke-width="4.76691" stroke-miterlimit="10"/>
<path d="M70.8839 107.943C69.9432 106.574 66.0092 106.574 65.2395 108.414C64.7905 109.976 64.6195 111.516 66.2872 112.5C67.7838 113.398 70.2211 112.756 71.0977 111.473C71.9743 110.168 71.5253 108.521 70.3921 107.344" fill="#FF7EAF"/>
<path d="M70.8839 107.943C69.9432 106.574 66.0092 106.574 65.2395 108.414C64.7905 109.976 64.6195 111.516 66.2872 112.5C67.7838 113.398 70.2211 112.756 71.0977 111.473C71.9743 110.168 71.5253 108.521 70.3921 107.344" stroke="#DF0006" stroke-width="4.76691" stroke-miterlimit="10"/>
<path d="M56.4951 93.6331C56.0889 94.7026 56.8586 96.0288 58.0772 96.2855C59.2745 96.5422 60.6215 95.6652 60.7711 94.5529C60.9208 93.4192 59.809 92.3069 58.569 92.3069C57.9703 92.3069 57.3717 92.5422 56.9013 92.8631C56.4523 93.1626 56.0675 93.7828 56.431 94.1679" fill="#FF7EAF"/>
<path d="M56.4951 93.6331C56.0889 94.7026 56.8586 96.0288 58.0772 96.2855C59.2745 96.5422 60.6215 95.6652 60.7711 94.5529C60.9208 93.4192 59.809 92.3069 58.569 92.3069C57.9703 92.3069 57.3717 92.5422 56.9013 92.8631C56.4523 93.1626 56.0675 93.7828 56.431 94.1679" stroke="#DF0006" stroke-width="4.76691" stroke-miterlimit="10"/>
<path d="M63.7852 82.6173C62.2031 83.3231 61.7327 86.8953 63.6356 87.7937C65.2818 88.3713 66.9281 88.7134 68.1896 87.3231C69.3227 86.061 68.9379 83.7937 67.6337 82.8311C66.3295 81.8899 64.4694 82.1039 63.0797 82.9809" fill="#FF7EAF"/>
<path d="M63.7852 82.6173C62.2031 83.3231 61.7327 86.8953 63.6356 87.7937C65.2818 88.3713 66.9281 88.7134 68.1896 87.3231C69.3227 86.061 68.9379 83.7937 67.6337 82.8311C66.3295 81.8899 64.4694 82.1039 63.0797 82.9809" stroke="#DF0006" stroke-width="4.76691" stroke-miterlimit="10"/>
<circle cx="149.5" cy="96.5" r="3.115" stroke="#DF0006" stroke-width="4.77"/>
<path d="M176.615 85.5C176.615 88.1617 174.862 89.615 173.5 89.615C172.138 89.615 170.385 88.1617 170.385 85.5C170.385 82.8383 172.138 81.385 173.5 81.385C174.862 81.385 176.615 82.8383 176.615 85.5Z" stroke="#DF0006" stroke-width="4.77"/>
<path d="M213.792 103.394C212.177 105.51 209.902 105.601 208.819 104.775C207.736 103.948 207.225 101.729 208.84 99.6135C210.456 97.4981 212.731 97.4066 213.814 98.2334C214.896 99.0603 215.407 101.279 213.792 103.394Z" fill="#FF7EAF" stroke="#DF0006" stroke-width="4.77"/>
</svg>
