<svg width="308" height="239" viewBox="0 0 308 239" fill="none" xmlns="http://www.w3.org/2000/svg">
<path d="M108.819 6.82974C115.981 8.92601 122.823 12.0276 129.622 15.1078C137.468 18.6587 145.315 22.2094 153.161 25.7817C156.967 27.5143 160.922 29.2683 165.091 29.2683C168.576 29.2683 171.099 26.5945 174.178 24.9688C184.611 19.4501 194.66 14.9581 205.992 11.6212C224.485 6.16662 246.571 6.65852 264.937 12.4767C275.028 15.6853 285.205 22.7869 290.935 31.7067C295.168 38.2736 302.48 50.8084 303.849 58.509C309.065 88.092 307.569 113.632 304.233 143.472C300.898 173.333 289.16 203.215 266.711 223.194C260.532 228.691 252.558 231.707 244.668 234.125C228.141 239.194 209.583 237.568 195.943 226.916C183.628 217.312 169.325 207.386 153.482 200.456C149.313 198.616 142.664 197.226 138.11 197.354C128.959 197.568 122.716 204.627 115.169 209.782C92.1422 225.483 59.3023 232.2 35.9338 216.991C31.0377 213.804 25.1796 209.804 21.3311 205.654C12.9287 196.627 4.01322 172.178 3.05111 159.878C0.891718 132.049 0.314445 118.103 1.25517 90.2097C1.64002 79.0652 2.26003 66.2096 4.09872 55.1935C5.53119 46.5518 13.2708 34.6159 19.0862 27.6854C24.7947 20.8619 36.7035 14.3805 44.6783 10.9153C54.0855 6.8083 64.2197 4.30563 74.4181 3.04359C86.0061 1.56765 97.5514 3.51423 108.819 6.82974Z" fill="white"/>
<path d="M170.843 191.408C183.735 198.852 197.462 206.467 212.192 208.756C226.902 211.045 244.199 205.227 252.793 193.055C256.877 187.259 259.87 182.702 261.132 175.729C261.752 172.264 262.308 165.74 259.678 163.408C257.347 161.355 251.874 162.895 248.774 163.023C241.355 163.344 234.278 160.52 227.18 162.681C223.93 163.665 220.851 165.397 217.452 165.633C213.09 165.911 209.028 163.665 204.859 162.36C199.942 160.841 195.345 162.959 190.278 162.082C172.169 158.873 156.241 143.066 137.896 142.253C128.446 141.847 118.419 144.328 109.546 147.601C100.973 150.766 98.8134 155.472 89.6841 155.258C86.9047 155.194 79.7209 153.761 74.5256 156.093C72.8152 156.863 71.3186 158.039 69.6295 158.831C63.4934 161.718 56.1386 157.761 49.4894 159.216C43.1181 160.606 38.7779 166.788 37.1958 173.119C36.4475 176.071 36.1696 179.216 37.0889 182.103C38.949 187.943 45.1065 191.258 51.0074 192.948C61.6333 195.964 73.2 195.537 83.5908 191.75C100.139 185.718 114.699 173.376 132.295 172.649C144.567 172.135 152.948 179.536 163.082 186.146C166.011 187.986 167.102 189.205 170.843 191.408Z" fill="#FF7EAF" stroke="#DF0006" stroke-width="4.76691" stroke-miterlimit="10"/>
<path d="M243.215 118.552C244.648 121.91 248.282 123.964 251.917 124.285C255.552 124.627 259.165 123.493 262.457 121.91C264.638 120.862 266.883 119.429 267.631 117.14C267.973 116.113 267.973 115.001 267.931 113.91C267.802 111.13 267.353 108.242 265.771 105.974C262.906 101.889 257.176 100.905 252.259 101.675C249.501 102.103 246.7 103.022 244.733 105.012C242.788 106.98 241.89 109.718 241.056 112.349C240.03 112.563 238.362 113.012 237.742 113.867C236.972 114.894 237.314 116.52 238.319 117.333C239.281 118.167 241.996 119.001 243.215 118.552Z" fill="#FF7EAF" stroke="#DF0006" stroke-width="4.76691" stroke-miterlimit="10"/>
<path d="M241.954 126.188C245.075 131.557 251.746 133.675 257.903 134.445C261.752 134.937 265.878 135.023 269.256 133.119C272.634 131.215 274.794 126.702 272.934 123.301" stroke="#DF0006" stroke-width="4.76691" stroke-miterlimit="10"/>
<path d="M239.943 101.397C242.06 96.6697 243.385 91.2365 247.426 88.0279C250.12 85.8675 253.84 85.0332 257.197 85.846C260.554 86.6589 263.483 89.0761 264.915 92.2205" stroke="#DF0006" stroke-width="4.76691" stroke-miterlimit="10"/>
<path d="M122.845 99.6643C118.633 100.777 114.015 101.269 110.017 99.5146C106.019 97.7606 103.068 93.1402 104.394 88.9691C105.313 86.06 108.007 84.0921 110.765 82.8086C118.227 79.3648 126.8 79.7712 134.989 80.2632C138.26 80.4557 141.552 80.6483 144.695 81.5467C148.009 82.4879 151.088 84.199 154.402 85.2044C166.909 88.9691 181.405 82.2311 193.1 88.0493C198.017 90.5092 202.657 94.9371 203.277 100.392C203.619 103.365 207.125 106.124 207.617 106.894C209.028 109.098 208.344 110.702 206.377 111.472C205.244 111.9 202.999 110.082 202.571 110.424C201.374 111.322 198.466 113.953 193.335 112.926C190.171 112.306 187.605 111.515 184.783 109.953C179.139 106.83 173.986 102.873 168.577 99.3648C163.168 95.8568 157.331 92.7339 150.981 91.5788C145.978 90.659 140.355 91.0227 135.801 93.4612C131.354 95.7713 127.89 98.3167 122.845 99.6643Z" stroke="#DF0006" stroke-width="4.76691" stroke-miterlimit="10"/>
<path d="M192.822 98.6586C191.261 98.5517 190.769 100.306 191.582 101.118C192.116 101.653 192.972 101.846 193.656 101.503C194.318 101.161 194.682 100.284 194.34 99.5998C193.912 98.7442 192.779 98.5944 191.838 98.573" stroke="#DF0006" stroke-width="4.76691" stroke-miterlimit="10"/>
<path d="M110.658 91.5143C110.615 92.4769 111.235 94.4663 113.523 94.9155C116.623 95.5358 118.462 94.1239 119.039 93.2255C119.167 93.033 119.531 92.4342 119.573 91.985C120.3 85.632 110.979 85.7603 110.658 91.5143Z" fill="#FF7EAF" stroke="#DF0006" stroke-width="4.76691" stroke-miterlimit="10"/>
<path d="M93.2334 102.958C97.9798 107.514 103.774 111.087 110.145 112.712C116.516 114.338 123.486 113.974 129.43 111.172C135.609 108.263 142.044 106.145 148.865 106.53C154.488 106.83 159.811 109.012 165.007 111.172C170.202 113.332 175.397 115.472 180.593 117.632C183.8 118.958 187.05 120.306 190.492 120.734C193.934 121.161 197.654 120.584 200.348 118.381" stroke="#DF0006" stroke-width="4.76691" stroke-miterlimit="10"/>
<path d="M211.466 96.1134C211.166 91.8139 209.263 87.7068 206.377 84.5197C203.491 81.3325 199.642 79.0865 195.495 77.8887" stroke="#DF0006" stroke-width="4.76691" stroke-miterlimit="10"/>
<path d="M93.7456 82.8727C94.0022 80.263 95.3277 77.8459 97.0381 75.878C100.737 71.5571 106.189 69.0116 111.748 67.8137C117.307 66.5945 123.058 66.5945 128.745 66.5945" stroke="#DF0006" stroke-width="4.76691" stroke-miterlimit="10"/>
<path d="M208.9 138.638C211.979 142.317 217.409 143.835 221.963 142.295C224.229 141.525 226.325 140.049 228.741 139.9C230.879 139.771 233.102 140.905 234.043 142.809C234.171 143.065 234.257 143.386 234.086 143.6C233.979 143.729 233.808 143.771 233.658 143.814C232.354 144.114 230.943 143.9 229.788 143.215" stroke="#DF0006" stroke-width="4.76691" stroke-miterlimit="10"/>
<path d="M238.896 137.076C241.012 139.792 241.975 143.365 241.526 146.766C241.461 147.236 241.141 148.434 240.072 149.333C238.169 150.915 235.603 151.6 233.145 151.343" stroke="#DF0006" stroke-width="4.76691" stroke-miterlimit="10"/>
<path d="M59.474 132.028C58.5119 131.75 57.165 131.771 56.8229 132.734C56.5236 133.568 57.2933 134.381 58.0202 134.873C59.0464 135.536 64.6053 138.424 65.3536 136.691C66.2302 134.659 60.7569 132.392 59.474 132.028Z" stroke="#DF0006" stroke-width="4.76691" stroke-miterlimit="10"/>
<path d="M80.9395 136.584C80.4264 137.269 80.1484 138.167 80.3836 138.98C82.7996 140.221 85.9638 140.52 88.1019 138.83C89.1495 138.017 90.0047 137.247 91.2233 136.648C91.993 136.285 94.0883 135.921 94.5586 135.215C95.3711 133.996 94.3235 133.611 93.1048 133.14C89.235 131.664 83.4624 133.269 80.9395 136.584Z" stroke="#DF0006" stroke-width="4.76691" stroke-miterlimit="10"/>
<path d="M200.796 125.867C195.387 127.579 189.892 129.29 184.205 129.525C178.518 129.76 172.553 128.284 168.427 124.391" stroke="#DF0006" stroke-width="4.76691" stroke-miterlimit="10"/>
<path d="M205.992 64.0277C210.139 65.3539 214.095 67.3432 217.622 69.8887C220.081 71.6641 222.369 73.6962 225.041 75.1079C230.814 78.1454 237.72 77.8886 244.198 77.1613C250.676 76.4127 257.304 75.279 263.654 76.7549C267.759 77.7175 271.543 79.7496 275.007 82.1453" stroke="#DF0006" stroke-width="4.76691" stroke-miterlimit="10"/>
<path d="M236.202 65.0545C242.338 67.0866 249.03 67.3646 255.295 65.8245" stroke="#DF0006" stroke-width="4.76691" stroke-miterlimit="10"/>
<path d="M42.8825 90.2529C40.2955 91.2583 38.7348 92.3064 37.7085 94.8732C37.1526 96.2636 37.2382 97.8465 37.5161 99.3225C37.8368 100.905 38.4568 102.595 39.8465 103.429C40.9369 104.093 42.2625 104.135 43.5239 104.157C47.7572 104.221 52.4395 104.135 55.561 101.29C57.2928 99.7075 58.319 97.3331 58.1694 94.9802C58.0197 92.6272 56.63 90.3812 54.5561 89.2689C51.6698 87.7074 49.2324 88.777 46.0254 89.4187C45.7475 89.4615 43.0322 90.0177 42.8825 90.2529Z" fill="#FF7EAF" stroke="#DF0006" stroke-width="4.76691" stroke-miterlimit="10"/>
<path d="M46.688 79.1294C53.0593 79.4075 59.1954 83.1508 62.3597 88.6909" stroke="#DF0006" stroke-width="4.76691" stroke-miterlimit="10"/>
<path d="M252.601 172.584C248.432 190.253 228.441 199.279 209.477 197.675C184.527 195.557 165.819 173.033 141.488 167.087C126.116 163.322 109.375 166.723 95.9271 175.108C91.2021 178.06 86.7978 181.632 81.6024 183.643C69.5013 188.327 41.8353 179.493 48.3563 171.087C50.4729 166.766 58.7043 170.231 63.9638 170.488C77.5402 171.108 90.3469 164.883 102.662 159.151C114.977 153.418 128.297 147.878 141.723 149.953C149.912 151.215 157.374 155.215 164.664 159.172C171.698 162.98 178.626 167.258 185.767 170.809C192.01 173.91 199.899 174.616 206.762 175.279C214.865 176.049 222.327 177.097 230.43 176.178C234.471 175.707 239.367 174.402 243.215 173.033C246.444 171.878 252.601 171.023 252.601 172.584Z" fill="#DF0006" stroke="#DF0006" stroke-width="4.76691" stroke-miterlimit="10"/>
<path d="M189.508 179.429C189.55 178.958 190.384 177.268 191.346 177.332C194.575 177.503 195.515 179.643 195.515 180.391C195.473 183.707 195.43 187.022 195.387 190.338C195.387 190.851 195.216 191.493 194.617 191.578C194.339 191.6 194.062 191.493 193.826 191.365C192.757 190.851 190.427 190.188 189.679 189.397C189.016 188.691 189.272 187.258 189.272 186.338C189.208 183.814 189.123 181.888 189.508 179.429Z" fill="white" stroke="#FF7EAF" stroke-width="4.76691" stroke-miterlimit="10"/>
<path d="M201.053 181.761C201.139 180.67 201.588 179.279 202.443 178.295C202.892 177.782 203.94 177.376 204.666 177.333C206.099 177.269 207.189 177.44 208.322 178.167C209.669 179.023 210.439 180.413 210.567 181.825C210.931 185.782 211.187 188.049 210.909 192.028C210.888 192.413 211.016 194.467 209.52 194.852C209.092 194.959 208.707 195.172 208.258 195.215C206.655 195.322 205.778 195.322 204.239 194.916C200.968 194.06 200.797 191.878 200.797 189.44C200.797 186.531 200.839 184.67 201.053 181.761Z" fill="white" stroke="#FF7EAF" stroke-width="4.76691" stroke-miterlimit="10"/>
<path d="M216.896 191.279C217.003 190.53 217.088 189.782 216.896 189.054C216.725 188.413 216.34 187.835 216.126 187.193C215.891 186.509 215.869 185.76 215.869 185.012C215.869 184.028 215.934 183.044 216.211 182.124C216.489 181.183 217.045 180.306 217.836 179.771C218.97 179.001 220.573 179.022 221.663 179.835C222.177 180.22 222.583 180.755 222.968 181.29C223.716 182.359 224.4 183.536 224.635 184.841C224.742 185.44 224.742 186.06 224.742 186.659C224.742 187.985 224.742 189.311 224.742 190.637C224.742 191.814 224.678 193.119 223.844 193.91C223.074 194.637 221.92 194.659 220.894 194.659C219.974 194.659 218.649 195.129 217.729 195.129C217.174 195.129 216.746 194.573 216.554 193.932C216.361 193.268 216.81 191.964 216.896 191.279Z" fill="white" stroke="#FF7EAF" stroke-width="4.76691" stroke-miterlimit="10"/>
<path d="M229.596 181.247C229.617 180.755 229.681 180.242 230.109 179.878C230.558 179.493 231.285 179.365 231.969 179.279C233.145 179.151 234.406 179.151 235.432 179.579C237.207 180.306 237.741 181.953 238.105 183.429C238.362 184.477 238.618 185.525 238.875 186.573C239.024 187.215 239.195 187.9 238.875 188.499C238.554 189.162 237.763 189.611 236.95 189.953C235.603 190.531 233.957 190.98 232.396 191.023C230.323 191.087 230.921 190.338 230.878 189.055C230.793 186.424 229.51 183.9 229.596 181.247Z" fill="white" stroke="#FF7EAF" stroke-width="4.76691" stroke-miterlimit="10"/>
<path d="M242.039 179.301C242.039 179.065 242.06 178.809 242.167 178.595C242.445 178.017 243.172 177.953 243.749 177.975C244.198 177.975 244.647 177.996 245.032 178.21C245.331 178.381 245.588 178.659 245.78 178.959C246.4 179.814 246.849 180.798 247.127 181.825C247.234 182.231 247.32 182.638 247.234 183.044C247.063 183.964 246.186 184.52 245.417 184.948C243.792 185.825 243.172 186.509 242.637 184.392C242.21 182.745 241.975 181.055 242.039 179.301Z" fill="white" stroke="#FF7EAF" stroke-width="4.76691" stroke-miterlimit="10"/>
<path d="M55.2617 174.851C55.8603 176.113 56.9507 177.269 58.4473 177.632C59.046 177.782 59.6874 177.803 60.3288 177.782C60.6067 177.782 60.8633 177.761 61.1198 177.675C61.9109 177.397 62.253 176.563 62.3171 175.793C62.424 174.424 61.9109 173.033 60.906 171.985C60.7564 171.814 60.564 171.664 60.3715 171.536C60.1791 171.429 59.9653 171.365 59.7515 171.301C58.5328 170.916 56.2238 169.932 55.112 170.894C53.9789 171.793 54.7699 173.825 55.2617 174.851Z" fill="white" stroke="#FF7EAF" stroke-width="4.76691" stroke-miterlimit="10"/>
<path d="M68.3036 175.835C68.3464 176.113 68.4105 176.413 68.5174 176.691C68.8595 177.504 69.6506 178.124 70.5272 178.509C71.4037 178.894 72.3872 179.044 73.328 179.129C73.6273 179.151 73.948 179.194 74.2045 179.087C74.8032 178.873 74.9315 178.188 74.9528 177.611C75.017 176.028 74.8032 174.402 74.3542 172.841C74.2473 172.456 74.119 172.071 73.8625 171.728C73.0928 170.659 71.4892 170.402 70.0995 170.231C68.3891 170.038 68.325 170.552 68.1753 171.899C68.0684 173.204 68.0898 174.53 68.3036 175.835Z" fill="white" stroke="#FF7EAF" stroke-width="4.76691" stroke-miterlimit="10"/>
<path d="M86.1558 167.579C85.3647 167.023 84.4882 166.573 83.526 166.509C82.5639 166.466 81.5591 166.873 81.0673 167.728C80.8321 168.156 80.7466 168.627 80.6825 169.119C80.4259 171.044 80.5542 173.204 81.9225 174.573C83.1412 175.793 85.2364 176.007 86.6689 175.044C86.9896 174.83 87.289 174.552 87.5028 174.21C87.8876 173.568 87.9517 172.798 87.9517 172.049C87.9731 170.081 87.8235 168.777 86.1558 167.579Z" fill="white" stroke="#FF7EAF" stroke-width="4.76691" stroke-miterlimit="10"/>
<path d="M92.2716 166.83C92.1219 165.632 92.0792 164.306 92.6137 163.279C93.2123 162.124 94.431 161.675 95.4358 162.06C96.4621 162.466 97.2532 163.6 97.5739 164.926C97.8946 166.231 97.7877 167.686 97.4028 168.969C97.2532 169.482 97.0394 170.017 96.6331 170.252C96.3979 170.402 96.12 170.402 95.8421 170.402C93.3406 170.381 92.7206 170.295 92.2716 166.83Z" fill="white" stroke="#FF7EAF" stroke-width="4.76691" stroke-miterlimit="10"/>
<path d="M140.889 151.129C139.5 151.878 138.944 153.611 138.516 155.151C137.918 157.29 137.255 158.103 137.233 160.52C137.362 161.974 138.751 162.915 139.607 163.151C140.718 163.45 141.616 163.6 142.792 163.579C143.027 163.579 145.144 163.022 145.999 160.883C146.363 159.942 146.705 159.001 146.919 157.996C147.325 156.156 147.795 153.846 146.32 152.413C145.059 151.172 142.578 150.231 140.889 151.129Z" fill="white" stroke="#FF7EAF" stroke-width="4.76691" stroke-miterlimit="10"/>
<path d="M124.832 151.643C123.891 152.648 123.913 154.21 123.998 155.622C124.105 157.547 123.784 158.402 124.426 160.392C124.939 161.547 126.35 161.932 127.12 161.889C128.125 161.825 128.894 161.697 129.878 161.354C130.07 161.29 131.674 160.242 131.781 158.253C131.823 157.376 131.845 156.499 131.738 155.622C131.567 153.996 131.31 151.964 129.707 151.194C128.296 150.531 125.965 150.424 124.832 151.643Z" fill="white" stroke="#FF7EAF" stroke-width="4.76691" stroke-miterlimit="10"/>
<path d="M153.567 157.076C153.203 157.461 152.968 157.953 152.733 158.445C152.327 159.343 151.963 160.284 151.835 161.29C151.728 162.295 151.878 163.407 152.412 164.199C152.925 164.969 153.716 165.354 154.486 165.696C155.341 166.102 156.197 166.509 157.052 166.915C157.608 167.172 158.27 167.45 158.805 167.108C159.126 166.915 159.339 166.552 159.511 166.188C160.537 163.985 161.093 159.236 159.425 157.204C158.185 155.707 154.85 155.707 153.567 157.076Z" fill="white" stroke="#FF7EAF" stroke-width="4.76691" stroke-miterlimit="10"/>
<circle cx="254.5" cy="112.5" r="3.5" fill="#DF0006"/>
<path d="M51 96.4999C51 98.4329 49.433 99.9999 47.5 99.9999C45.567 99.9999 44 98.4329 44 96.4999C44 94.5669 45.567 92.9999 47.5 92.9999C49.433 92.9999 51 94.5669 51 96.4999Z" fill="#DF0006"/>
<path d="M290.079 30.1453C285.312 21.9099 276.567 16.7548 267.652 13.4393C235.966 1.58901 199.278 9.05431 170.65 27.1078C160.922 33.2469 147.859 23.3431 137.468 18.4019C118.995 9.63183 103.088 4.09177 82.6704 3.08641C62.2523 2.08106 25.4784 14.9153 19.2996 29.8886" stroke="#DF0006" stroke-width="4.76691" stroke-miterlimit="10"/>
<path d="M285.611 197.953C284.243 201.248 281.763 206.51 279.475 209.226C273.724 216.093 268.4 221.034 259.656 227.002C248.132 234.895 233.037 238.039 219.204 236.028C205.863 234.082 194.852 224.691 183.585 217.29C174.948 211.6 168.341 207.707 158.186 202.574C148.009 197.44 137.938 195.6 130.755 199.023C126.179 201.205 117.969 208.349 113.48 210.723C97.9148 218.895 89.6834 223.408 72.1517 224.734C54.62 226.06 35.0571 220.071 23.5332 206.788" stroke="#DF0006" stroke-width="4.76691" stroke-miterlimit="10"/>
</svg>
