<svg width="593" height="353" viewBox="0 0 593 353" fill="none" xmlns="http://www.w3.org/2000/svg">
<path d="M264.753 262.753V170.373L127.152 167.698C89.9526 168.65 80.3438 139.015 79.9463 124.738C77.9591 108.478 74.4617 72.8632 76.3694 60.4894C78.2771 48.1156 78.754 33.9175 78.754 28.3651C76.8463 17.895 77.9591 5.75915 78.754 1H4.83135C1.01598 21.9403 4.03649 70.8009 6.02366 92.6137C7.21596 106.098 9.60056 135.684 9.60056 146.154C9.60056 156.624 11.9852 173.519 13.1775 180.658C14.7672 187.004 19.8544 203.502 27.4851 218.731C35.1158 233.96 52.9209 244.907 60.8696 248.476C79.9464 259.898 204.741 262.753 264.753 262.753Z" fill="#FF7EAF"/>
<path d="M79.1466 1C79.1466 6.94894 77.9566 18.7875 77.9566 30.7447C77.9566 49.7813 75.5771 64.0588 75.5771 77.1464C75.1307 84.2852 74.592 107.674 81.5263 134.256C88.6649 161.621 106.332 167.4 125.369 168.59C125.369 168.59 129.015 168.464 133.394 168.59C146.874 168.976 176.55 167.862 201.695 168.76C229.068 169.738 264.474 172.157 264.474 172.157M4.18974 1C3.79314 11.3115 3 27.1753 3 41.4528C3 60.4894 5.37959 78.3362 5.37959 85.4749C5.37959 85.4749 7.19927 147.344 10.1387 164.001C13.0782 180.658 17.2775 218.731 43.4528 238.958C56.2581 248.853 82.7158 255.615 132.687 259.184C149.344 260.374 165.174 260.435 198.489 260.435C217.922 260.832 258.764 262.219 264.474 262.219" stroke="#DF0006" stroke-width="4.77"/>
<path d="M16.0878 0.999939C14.8982 20.0366 16.3258 51.6849 17.2776 59.2996C18.2294 66.9142 20.0538 93.4068 20.847 105.701C22.0368 117.203 22.8764 146.292 25.6061 169.95C29.1755 200.884 47.1628 236.283 106.644 243.493C115.212 244.531 120.019 244.907 132.687 244.907C161.037 244.907 180.655 247.06 195.814 247.06C195.814 247.06 231.482 249.289 264.754 248.397M27.9859 0.999939C27.9859 18.0536 28.2239 55.2543 29.1757 67.6281C30.1275 80.0019 31.9519 111.65 32.745 125.928C33.5382 152.5 43.2152 208.023 75.5774 217.541C82.3905 220.504 105.752 228.334 134.286 230.117C144.509 231.255 153.233 231.337 166.001 231.819C216.448 233.723 232.629 233.009 242.148 233.009H253.451H264.754" stroke="#DF0006" stroke-width="4.77"/>
<path d="M264.754 209.213C245.717 209.213 203.837 208.975 193.367 208.023C180.279 206.833 161.061 208.421 128.936 206.041C106.33 204.367 69.3597 198.253 61.3003 164.001C56.541 143.775 55.3513 114.426 55.3513 106.891C55.7479 97.7694 54.1616 68.3419 44.6432 23.6059C43.8501 18.8468 42.2637 7.66275 42.2637 0.999939" stroke="#DF0006" stroke-width="4.77"/>
<path d="M55.3513 0.999939C55.7479 4.9659 56.5411 11.708 60.1105 23.6059C64.5291 38.3347 65.2662 60.4893 64.8696 72.3872C63.6798 94.2 65.7009 137.109 73.1981 152.103C81.6174 168.942 91.1635 180.346 128.045 181.074C132.859 181.169 142.522 180.933 148.155 180.658C158.863 179.865 173.203 178.99 202.948 183.749C213.822 185.489 251.929 184.227 264.475 184.641" stroke="#DF0006" stroke-width="4.77"/>
<path d="M322.992 305.389C311.716 295.383 292.643 261.561 263.929 261.561V170.996C292.643 168.538 291.421 139.128 309.9 116.139C331.975 88.6588 369.817 64.7454 405.319 58.1773C443.494 51.0995 482.083 57.3279 513.555 74.4278C538.304 87.8849 563.899 114.12 576.617 140.355C604.649 198.203 589.71 260.544 559.338 298.67C530.854 336.795 466.75 355.348 408.936 348.365C365.502 343.117 348.763 328.261 323.792 306.099L322.992 305.389Z" fill="#FF7EAF"/>
<path d="M263.851 171.945C294.225 171.945 289.322 139.128 307.867 116.139C330.022 88.6588 368.001 64.7454 403.631 58.1773C441.945 51.0995 480.673 57.3279 512.259 74.4278C537.098 87.8849 562.785 114.12 575.55 140.355C603.683 198.203 588.689 260.544 558.208 298.67C529.621 336.795 465.284 355.348 407.261 348.365C363.207 343.061 346.516 327.943 321.006 305.389C317.91 302.308 311.716 294.953 305.756 287.798C299.192 279.916 287.691 263.412 263.851 262.22" stroke="#DF0006" stroke-width="4.77" stroke-miterlimit="10"/>
<path d="M423.734 308.654C434.743 310.636 446.422 312.58 456.899 308.824C463.922 306.295 474.477 298.292 488.406 295.612C497.106 293.932 507.188 295.159 524.332 278.569C538.34 264.999 535.203 252.466 538.636 247.54C543.154 241.048 544.89 233.253 546.981 225.722C555.583 194.75 546.429 164.117 528.85 138.543C524.017 131.503 513.56 124.972 506.734 119.65C497.718 112.591 486.61 108.401 477.239 101.776C466.803 94.4154 452.42 94.6986 439.517 93.3586C431.981 92.5659 424.385 91.792 416.868 92.6602C407.852 93.7172 399.349 97.0956 390.984 100.455C382.165 103.985 373.327 107.533 364.508 111.062C359.595 113.025 354.663 115.007 350.204 117.782C342.964 122.274 337.144 128.785 333.652 136.316C330.436 143.243 329.173 150.886 326.076 157.851C323.195 164.287 318.756 170.119 317 176.914C314.297 187.408 318.066 205.734 318.263 222.645C318.401 234.498 320.453 252.051 329.508 267.358C332.606 272.605 336.098 274.53 341.306 277.908C346.692 281.4 375.418 303.615 387.452 305.257C399.467 306.88 411.798 306.503 423.734 308.654Z" fill="#DF0006" stroke="#DF0006" stroke-width="4.77" stroke-miterlimit="10"/>
<path d="M431.448 108.08C434.309 109.08 436.953 110.534 439.853 111.458C452.361 115.441 468.085 109.212 478.561 116.63C481.876 118.97 484.066 122.387 487.064 125.067C491.484 128.992 497.422 131.125 502.473 134.371C508.49 138.222 513.225 143.714 515.948 149.961C517.763 154.151 518.69 158.643 520.84 162.682C523.583 167.797 528.258 172.101 529.639 177.65C531.514 185.199 526.818 193.523 530.152 200.638C531.395 203.299 533.684 205.489 534.769 208.207C538.024 216.266 529.857 224.74 530.725 233.29C530.961 235.631 529.205 240.764 527.45 242.784C524.392 246.294 523.326 245.539 519.676 248.672C514.251 253.334 515.928 261.695 512.258 267.622C508.983 272.944 501.999 275.36 495.41 276.323C488.82 277.285 481.935 277.248 475.72 279.475C466.349 282.834 459.483 290.95 449.737 293.215C440.938 295.253 431.764 292.083 422.689 291.856C415.645 291.686 408.582 293.309 401.618 292.422C386.604 290.497 376.345 277.889 363.028 271.246C359.872 269.66 356.478 268.396 353.736 266.263C350.698 263.904 348.626 260.544 347.995 256.958C347.127 252.089 348.823 246.917 347.028 242.274C345.39 238.009 341.09 235.008 339.038 230.893C335.96 224.759 338.347 217.643 338.229 210.887C338.11 203.375 334.835 195.787 336.868 188.502C337.696 185.577 339.334 182.897 340.36 180.028C342.352 174.516 341.997 168.552 342.964 162.796C344.522 153.529 349.1 144.205 356.695 137.901L363.719 131.503C368.434 127.218 376.247 124.538 382.54 123.104C388.281 121.801 395.403 123.274 399.31 118.951C407.3 110.137 418.19 103.456 431.448 108.08Z" fill="#FF7EAF" stroke="#DF0006" stroke-width="4.77" stroke-miterlimit="10"/>
<path d="M433.796 243.482C448.316 242.802 455.715 238.593 463.882 228.59C466.131 225.816 466.763 222.154 467.887 218.794C468.953 215.605 469.998 212.396 470.452 209.093C471.241 203.299 470.156 197.278 467.355 192.107C466.072 189.71 465.086 188.86 464.001 186.369C463.152 184.425 461.298 181.065 459.759 179.555C456.287 176.139 452.696 173.327 447.705 172.081C438.097 169.703 427.956 167.495 418.348 169.854C415.349 170.59 412.39 171.817 410.16 173.893C408.641 175.328 407.517 177.102 406.076 178.593C404.261 180.461 401.953 181.82 399.98 183.538C397.987 185.236 395.206 188.577 394.101 192.484C392.148 199.354 388.636 211.245 399.467 221.475C403.275 225.08 401.223 234.215 412.449 240.934C416.592 243.406 421.149 242.859 426.358 243.387C428.488 243.576 431.724 244.067 433.796 243.482Z" fill="#FF7EAF" stroke="#DF0006" stroke-width="4.77" stroke-miterlimit="10"/>
<path d="M363.739 215.567C360.542 217.36 357.484 219.738 356.202 223.06C355.216 225.627 355.492 228.666 357.11 230.931C358.727 233.196 361.726 234.555 364.567 234.083C368.138 233.516 370.624 230.497 373.07 227.93C376.503 224.325 380.548 221.267 385.006 218.87C386.407 218.115 387.926 217.36 388.676 216.02C391.517 211 381.317 210.962 378.733 211.094C373.425 211.358 368.276 213.038 363.739 215.567Z" fill="white" stroke="#DF0006" stroke-width="4.77" stroke-miterlimit="10"/>
<path d="M376.603 256.75C374.847 256.807 371.414 255.901 370.072 254.655C367.547 252.315 366.146 248.955 367.231 245.746C368.297 242.557 370.842 240.028 373.367 237.687C375.675 235.554 378.043 233.478 380.509 231.515C384.001 228.722 387.828 226.08 392.267 225.098C392.859 224.966 393.944 225.079 394.497 225.363C394.911 225.57 395.444 226.287 395.562 226.721C396.411 230.251 394.635 233.063 392.978 236.234C391.044 239.952 389.427 243.802 388.144 247.766C387.316 250.314 386.664 253.371 383.567 255.165C381.002 256.618 379.424 256.656 376.603 256.75Z" fill="white" stroke="#DF0006" stroke-width="4.77" stroke-miterlimit="10"/>
<path d="M394.259 268.565C396.094 270.131 398.106 270.943 400.513 271.415C401.441 271.603 403.492 271.452 404.42 271.264C405.603 271.018 406.689 270.188 407.458 269.282C409.411 266.941 409.313 264.054 409.549 261.072C409.786 258.09 409.747 255.051 410.595 252.163C411.424 249.408 412.272 247.086 413.515 244.463C413.949 243.575 414.501 242.254 414.482 241.273C414.462 240.291 414.501 239.48 413.534 239.14C412.548 238.781 411.443 239.216 410.516 239.706C404.735 242.707 400.869 248.294 396.548 252.956C394.24 255.447 393.036 257.674 392.247 260.279C391.438 263.035 391.754 266.413 394.259 268.565Z" fill="white" stroke="#DF0006" stroke-width="4.77" stroke-miterlimit="10"/>
<path d="M439.123 273.793C437.21 274.699 435.039 274.982 432.928 274.964C431.764 274.964 430.581 274.869 429.496 274.416C427.069 273.416 425.609 270.66 425.806 268.037C425.885 267.055 426.161 263.885 426.299 262.903C427.187 256.052 427.325 252.39 425.787 246.181C425.412 244.652 424.958 243.104 424.918 241.519C424.918 241.066 424.978 240.556 425.352 240.292C425.53 240.179 425.747 240.141 425.964 240.122C428.233 239.934 430.147 241.576 431.942 242.972C434.684 245.105 436.953 247.294 438.965 250.899C440.978 254.523 442.99 258.392 443.503 263.771C443.681 265.678 443.858 267.867 443.227 269.773C442.635 271.585 440.721 273.038 439.123 273.793Z" fill="white" stroke="#DF0006" stroke-width="4.77" stroke-miterlimit="10"/>
<path d="M462.482 266.206C463.074 262.488 461.989 258.637 459.937 255.429C457.885 252.22 455.439 249.597 452.203 247.445C450.901 246.577 448.159 244.916 447.389 245.652C446.995 246.332 447.823 251.012 448.455 253.636C449.125 256.41 449.5 259.26 450.171 262.035C450.664 264.092 451.158 267.451 452.815 269.075C455.754 271.981 461.851 270.15 462.482 266.206Z" fill="white" stroke="#DF0006" stroke-width="4.77" stroke-miterlimit="10"/>
<path d="M348.864 197.089C348.706 198.637 348.962 200.26 349.87 201.543C350.6 202.562 351.685 203.298 352.869 203.827C357.031 205.695 361.964 204.978 366.344 203.657C370.743 202.336 375.143 201.241 379.601 200.128C381.298 199.712 382.107 199.373 383.172 198.958C384.238 198.561 384.928 197.806 384.889 196.712C384.83 195.447 383.666 195.088 382.502 194.503C376.05 191.295 368.711 190.445 361.549 190.294C355.71 190.181 349.613 189.936 348.864 197.089Z" fill="white" stroke="#DF0006" stroke-width="4.77" stroke-miterlimit="10"/>
<path d="M386.014 178.461C381.792 173.988 376.229 170.798 370.29 168.76C366.818 167.552 362.734 166.778 359.597 168.665C357.526 169.911 356.263 172.195 355.947 174.516C355.513 177.725 356.973 181.254 359.913 182.859C361.669 183.821 363.76 184.048 365.792 183.916C367.804 183.783 369.777 183.33 371.77 183.029C375.538 182.443 379.227 182.575 383.015 182.726C383.982 182.764 386.369 183.161 387.119 182.575C388.52 181.5 386.823 179.31 386.014 178.461Z" fill="white" stroke="#DF0006" stroke-width="4.77" stroke-miterlimit="10"/>
<path d="M393.096 163.135C393.116 162.776 393.017 162.399 392.899 162.021C392.011 159.228 390.255 156.831 388.558 154.528C387.138 152.603 385.717 150.678 384.06 149.055C382.896 147.903 381.594 146.903 380.233 146.412C377.49 145.412 374.748 146.545 373.111 148.809C372.361 149.847 371.789 151.131 371.651 152.603C371.513 154.075 371.808 155.736 372.598 157.114C373.722 159.039 375.596 160.115 377.352 160.926C380.272 162.267 383.251 163.286 386.23 163.946C388.302 164.399 392.248 165.834 393.096 163.135Z" fill="white" stroke="#DF0006" stroke-width="4.77" stroke-miterlimit="10"/>
<path d="M427.737 124.651C426.12 124.557 424.482 124.576 422.924 124.991C421.365 125.406 420.615 126.123 419.727 127.407C418.662 128.954 418.524 131.389 418.78 133.239C419.55 138.41 422.174 142.657 423.456 147.734C423.89 149.451 424.265 151.773 424.798 153.453C425.311 155.151 425.607 156.152 427.106 157.171C427.303 157.303 427.797 157.416 428.27 157.416C428.822 157.416 429.237 157.36 429.513 157.19C430.046 156.85 430.322 156.548 430.677 156.038C431.21 155.283 431.269 154.321 431.545 153.434C433.301 147.96 433.913 146.601 435.649 141.128C436.122 139.637 436.694 134.598 436.458 133.05C435.668 127.463 432.61 124.953 427.737 124.651Z" fill="white" stroke="#DF0006" stroke-width="4.77" stroke-miterlimit="10"/>
<path d="M482.013 236.781C477.771 234.29 472.918 232.1 467.986 232.742C466.96 232.874 473.352 238.027 473.786 238.404C476.41 240.632 478.008 243.406 479.448 246.426C481.362 250.465 483.098 258.033 487.873 259.977C493.91 262.45 498.724 255.995 496.652 250.899C494.127 244.727 487.675 240.103 482.013 236.781Z" fill="white" stroke="#DF0006" stroke-width="4.77" stroke-miterlimit="10"/>
<path d="M512.061 232.346C512.416 228.59 509.536 225.249 506.399 222.965C499.592 218.002 490.655 215.793 482.171 216.982C481.165 217.133 479.903 217.605 479.942 218.568C479.982 219.36 480.85 219.813 481.599 220.153C487.301 222.701 491.74 227.212 496.041 231.629C498.487 234.139 501.032 238.442 504.899 238.555C508.154 238.687 512.061 235.573 512.061 232.346Z" fill="white" stroke="#DF0006" stroke-width="4.77" stroke-miterlimit="10"/>
<path d="M482.252 202.261C481.896 201.336 482.725 200.393 483.534 199.789C488.269 196.354 494.641 196.033 500.58 196.052C502.967 196.07 505.354 196.108 507.682 196.618C510.01 197.108 512.259 198.071 513.936 199.694C515.909 201.619 516.896 204.488 516.225 207.112C515.554 209.735 513.108 211.906 510.306 212.113C506.735 212.378 503.776 209.754 500.718 207.999C497.62 206.206 494.109 205.205 490.597 204.469C488.94 204.13 487.263 203.865 485.605 203.545C484.56 203.337 482.705 203.412 482.252 202.261Z" fill="white" stroke="#DF0006" stroke-width="4.77" stroke-miterlimit="10"/>
<path d="M479.51 186.671C480.358 187.407 481.601 187.52 482.745 187.596C490.696 188.068 498.844 187.917 506.401 185.501C508.334 184.878 510.366 183.991 511.293 182.273C511.865 181.235 511.944 179.99 511.767 178.819C511.116 174.554 506.775 171.1 502.277 171.27C500.127 171.345 498.075 172.157 496.122 173.025C493.498 174.214 475.387 183.142 479.51 186.671Z" fill="white" stroke="#DF0006" stroke-width="4.77" stroke-miterlimit="10"/>
<path d="M473.906 172.553C475.109 172.496 476.135 171.779 477.102 171.081C481.186 168.099 485.27 165.079 489.827 162.833C492.274 161.625 495.115 160.379 496.022 157.888C496.594 156.283 496.239 154.49 495.509 152.943C494.759 151.376 493.339 149.036 490.833 147.866C489.827 147.394 488.15 147.148 487.026 147.13C484.777 147.092 482.587 147.696 480.614 148.734C478.917 149.621 477.714 151.187 476.707 152.792C474.596 156.189 473.176 159.983 472.525 163.89C472.209 165.796 471.578 167.853 471.716 169.627C471.834 171.081 471.617 172.647 473.906 172.553Z" fill="white" stroke="#DF0006" stroke-width="4.77" stroke-miterlimit="10"/>
<path d="M410.791 147.639C407.951 142.902 404.537 137.995 399.211 135.994C397.691 135.428 395.995 135.126 394.456 135.635C392.917 136.145 391.694 137.674 392.009 139.203C392.148 139.844 392.522 140.411 392.917 140.939C393.844 142.128 394.969 143.147 396.093 144.148C399.842 147.432 403.807 150.603 408.049 153.32C409.213 154.075 411.265 155.359 412.35 153.83C413.613 152.056 411.699 149.149 410.791 147.639Z" fill="white" stroke="#DF0006" stroke-width="4.77" stroke-miterlimit="10"/>
<path d="M458.87 133.125C455.635 132.823 452.202 133.937 450.13 136.334C447.98 138.825 447.506 142.241 447.348 145.45C447.21 148.338 447.25 151.263 447.861 154.094C448.473 156.925 449.696 159.681 451.709 161.833C451.807 161.946 451.926 162.059 452.064 162.116C452.616 162.361 453.149 161.776 453.445 161.266C456.424 156.076 458.929 150.508 463.25 146.28C465.124 144.45 469.918 141.071 468.024 138.07C466.308 135.315 462.086 133.427 458.87 133.125Z" fill="white" stroke="#DF0006" stroke-width="4.77" stroke-miterlimit="10"/>
<path d="M446.639 172.213C447.212 171.628 447.804 171.005 448.119 170.269C449.125 167.872 446.58 165.116 443.897 165.116C441.214 165.116 438.886 167.174 437.84 169.533C437.13 171.118 435.394 177.687 437.623 179.008C440.346 180.612 445.081 173.799 446.639 172.213Z" fill="white" stroke="#DF0006" stroke-width="4.77" stroke-miterlimit="10"/>
<path d="M454.61 191.767C454.452 191.748 454.294 191.729 454.156 191.635C453.525 191.238 454.176 190.332 454.827 189.936C456.977 188.615 459.147 187.313 461.298 185.991C462.659 185.161 464.06 184.312 465.638 183.953C469.446 183.066 473.964 187.35 470.985 190.653C468.381 193.522 458.043 192.22 454.61 191.767Z" fill="white" stroke="#DF0006" stroke-width="4.77" stroke-miterlimit="10"/>
<path d="M473.235 219.191C473.649 218.247 473.866 216.699 472.643 215.435C471.755 214.51 470.453 213.623 469.782 213.227C464.298 210.018 452.421 210.358 451.73 212.698C451.73 213.717 453.703 213.623 454.828 213.755C459.05 214.246 462.877 217.379 465.935 220.002C469.21 222.833 472.446 220.946 473.235 219.191Z" fill="white" stroke="#DF0006" stroke-width="4.77" stroke-miterlimit="10"/>
<path d="M428.292 179.896C429.16 176.895 429.042 174.404 429.101 171.591C429.141 169.61 429.022 167.382 427.503 166.042C426.615 165.25 425.609 164.721 424.425 164.495C422.847 164.193 420.815 164.287 419.513 165.212C418.23 166.118 417.796 167.816 418.053 169.308C418.29 170.799 419.099 172.158 419.888 173.479C421.111 175.536 422.768 178.952 424.583 180.575C425.333 181.236 425.609 181.5 426.674 181.519C427.444 181.538 427.977 180.972 428.292 179.896Z" fill="white" stroke="#DF0006" stroke-width="4.77" stroke-miterlimit="10"/>
<path d="M395.285 177.78C394.357 178.46 393.864 179.687 394.2 180.763C394.535 181.782 395.502 182.48 396.449 183.027C399.645 184.896 402.584 186.047 405.78 187.916C406.925 188.576 408.207 189.18 409.174 189.709C410.16 190.237 411.64 191.106 412.212 190.577C413.1 189.992 411.186 187.104 409.904 185.764C407.497 183.216 399.27 174.874 395.285 177.78Z" fill="white" stroke="#DF0006" stroke-width="4.77" stroke-miterlimit="10"/>
<path d="M264.185 232.938C267.763 233.336 276.122 234.331 282.074 235.323C289.229 236.516 302.348 240.094 311.889 256.79C321.43 273.486 336.933 296.146 356.015 305.687C375.097 315.227 409.682 336.694 474.082 322.383C525.602 310.934 551.204 268.319 557.564 248.442C563.527 230.95 570.444 185.473 550.409 143.493C530.373 101.514 483.623 78.9078 444.267 75.515C421.21 73.5274 366.047 80.2854 340.511 113.678C309.504 154.227 311.889 179.271 299.963 193.582C288.037 207.893 267.763 209.086 264.185 209.086" stroke="#DF0006" stroke-width="4.77"/>
<path d="M264 184.458C272.348 184.856 290.184 179.748 298.77 157.804C309.504 130.375 326.2 104.137 358.4 83.8632C390.6 63.589 449.038 58.8186 486.008 74.3224C522.979 89.8262 544.446 108.908 556.372 126.797C568.298 144.686 577.838 178.079 574.261 224.59C570.683 271.101 542.06 304.494 518.208 316.42C494.356 328.346 460.964 343.85 398.949 334.309C379.867 331.526 336.695 317.374 316.659 283.027C310.299 271.499 302.348 253.212 279.689 249.634C279.689 249.634 274.918 248.442 264.185 248.442" stroke="#DF0006" stroke-width="4.77"/>
</svg>
